<?xml version="1.0" encoding="utf-8"?>
<svg xmlns="http://www.w3.org/2000/svg" xmlns:xlink="http://www.w3.org/1999/xlink" width="600" height="400" viewBox="0 0 2400 1600">
<defs>
  <clipPath id="clip7400">
    <rect x="0" y="0" width="2400" height="1600"/>
  </clipPath>
</defs>
<path clip-path="url(#clip7400)" d="
M0 1600 L2400 1600 L2400 0 L0 0  Z
  " fill="#ffffff" fill-rule="evenodd" fill-opacity="1"/>
<defs>
  <clipPath id="clip7401">
    <rect x="480" y="0" width="1681" height="1600"/>
  </clipPath>
</defs>
<path clip-path="url(#clip7400)" d="
M184.243 1440.48 L2321.26 1440.48 L2321.26 125.984 L184.243 125.984  Z
  " fill="#ffffff" fill-rule="evenodd" fill-opacity="1"/>
<defs>
  <clipPath id="clip7402">
    <rect x="184" y="125" width="2138" height="1315"/>
  </clipPath>
</defs>
<polyline clip-path="url(#clip7402)" style="stroke:#000000; stroke-width:1.6; stroke-opacity:0.1; fill:none" points="
  184.243,1440.48 184.243,125.984 
  "/>
<polyline clip-path="url(#clip7402)" style="stroke:#000000; stroke-width:1.6; stroke-opacity:0.1; fill:none" points="
  524.431,1440.48 524.431,125.984 
  "/>
<polyline clip-path="url(#clip7402)" style="stroke:#000000; stroke-width:1.6; stroke-opacity:0.1; fill:none" points="
  864.619,1440.48 864.619,125.984 
  "/>
<polyline clip-path="url(#clip7402)" style="stroke:#000000; stroke-width:1.6; stroke-opacity:0.1; fill:none" points="
  1204.81,1440.48 1204.81,125.984 
  "/>
<polyline clip-path="url(#clip7402)" style="stroke:#000000; stroke-width:1.6; stroke-opacity:0.1; fill:none" points="
  1545,1440.48 1545,125.984 
  "/>
<polyline clip-path="url(#clip7402)" style="stroke:#000000; stroke-width:1.6; stroke-opacity:0.1; fill:none" points="
  1885.18,1440.48 1885.18,125.984 
  "/>
<polyline clip-path="url(#clip7402)" style="stroke:#000000; stroke-width:1.6; stroke-opacity:0.1; fill:none" points="
  2225.37,1440.48 2225.37,125.984 
  "/>
<polyline clip-path="url(#clip7402)" style="stroke:#000000; stroke-width:1.6; stroke-opacity:0.1; fill:none" points="
  184.243,1403.28 2321.26,1403.28 
  "/>
<polyline clip-path="url(#clip7402)" style="stroke:#000000; stroke-width:1.6; stroke-opacity:0.1; fill:none" points="
  184.243,1164.94 2321.26,1164.94 
  "/>
<polyline clip-path="url(#clip7402)" style="stroke:#000000; stroke-width:1.6; stroke-opacity:0.1; fill:none" points="
  184.243,926.596 2321.26,926.596 
  "/>
<polyline clip-path="url(#clip7402)" style="stroke:#000000; stroke-width:1.6; stroke-opacity:0.1; fill:none" points="
  184.243,688.254 2321.26,688.254 
  "/>
<polyline clip-path="url(#clip7402)" style="stroke:#000000; stroke-width:1.6; stroke-opacity:0.1; fill:none" points="
  184.243,449.912 2321.26,449.912 
  "/>
<polyline clip-path="url(#clip7402)" style="stroke:#000000; stroke-width:1.6; stroke-opacity:0.1; fill:none" points="
  184.243,211.57 2321.26,211.57 
  "/>
<polyline clip-path="url(#clip7400)" style="stroke:#000000; stroke-width:3.2; stroke-opacity:1; fill:none" points="
  184.243,1440.48 2321.26,1440.48 
  "/>
<polyline clip-path="url(#clip7400)" style="stroke:#000000; stroke-width:3.2; stroke-opacity:1; fill:none" points="
  184.243,1440.48 184.243,125.984 
  "/>
<polyline clip-path="url(#clip7400)" style="stroke:#000000; stroke-width:3.2; stroke-opacity:1; fill:none" points="
  184.243,1440.48 184.243,1420.77 
  "/>
<polyline clip-path="url(#clip7400)" style="stroke:#000000; stroke-width:3.2; stroke-opacity:1; fill:none" points="
  524.431,1440.48 524.431,1420.77 
  "/>
<polyline clip-path="url(#clip7400)" style="stroke:#000000; stroke-width:3.2; stroke-opacity:1; fill:none" points="
  864.619,1440.48 864.619,1420.77 
  "/>
<polyline clip-path="url(#clip7400)" style="stroke:#000000; stroke-width:3.2; stroke-opacity:1; fill:none" points="
  1204.81,1440.48 1204.81,1420.77 
  "/>
<polyline clip-path="url(#clip7400)" style="stroke:#000000; stroke-width:3.2; stroke-opacity:1; fill:none" points="
  1545,1440.48 1545,1420.77 
  "/>
<polyline clip-path="url(#clip7400)" style="stroke:#000000; stroke-width:3.2; stroke-opacity:1; fill:none" points="
  1885.18,1440.48 1885.18,1420.77 
  "/>
<polyline clip-path="url(#clip7400)" style="stroke:#000000; stroke-width:3.2; stroke-opacity:1; fill:none" points="
  2225.37,1440.48 2225.37,1420.77 
  "/>
<polyline clip-path="url(#clip7400)" style="stroke:#000000; stroke-width:3.2; stroke-opacity:1; fill:none" points="
  184.243,1403.28 216.298,1403.28 
  "/>
<polyline clip-path="url(#clip7400)" style="stroke:#000000; stroke-width:3.2; stroke-opacity:1; fill:none" points="
  184.243,1164.94 216.298,1164.94 
  "/>
<polyline clip-path="url(#clip7400)" style="stroke:#000000; stroke-width:3.2; stroke-opacity:1; fill:none" points="
  184.243,926.596 216.298,926.596 
  "/>
<polyline clip-path="url(#clip7400)" style="stroke:#000000; stroke-width:3.2; stroke-opacity:1; fill:none" points="
  184.243,688.254 216.298,688.254 
  "/>
<polyline clip-path="url(#clip7400)" style="stroke:#000000; stroke-width:3.2; stroke-opacity:1; fill:none" points="
  184.243,449.912 216.298,449.912 
  "/>
<polyline clip-path="url(#clip7400)" style="stroke:#000000; stroke-width:3.2; stroke-opacity:1; fill:none" points="
  184.243,211.57 216.298,211.57 
  "/>
<g clip-path="url(#clip7400)">
<text style="fill:#000000; fill-opacity:1; font-family:Arial,Helvetica Neue,Helvetica,sans-serif; font-size:48px; text-anchor:middle;" transform="rotate(0, 184.243, 1494.48)" x="184.243" y="1494.48">0</text>
</g>
<g clip-path="url(#clip7400)">
<text style="fill:#000000; fill-opacity:1; font-family:Arial,Helvetica Neue,Helvetica,sans-serif; font-size:48px; text-anchor:middle;" transform="rotate(0, 524.431, 1494.48)" x="524.431" y="1494.48">2</text>
</g>
<g clip-path="url(#clip7400)">
<text style="fill:#000000; fill-opacity:1; font-family:Arial,Helvetica Neue,Helvetica,sans-serif; font-size:48px; text-anchor:middle;" transform="rotate(0, 864.619, 1494.48)" x="864.619" y="1494.48">4</text>
</g>
<g clip-path="url(#clip7400)">
<text style="fill:#000000; fill-opacity:1; font-family:Arial,Helvetica Neue,Helvetica,sans-serif; font-size:48px; text-anchor:middle;" transform="rotate(0, 1204.81, 1494.48)" x="1204.81" y="1494.48">6</text>
</g>
<g clip-path="url(#clip7400)">
<text style="fill:#000000; fill-opacity:1; font-family:Arial,Helvetica Neue,Helvetica,sans-serif; font-size:48px; text-anchor:middle;" transform="rotate(0, 1545, 1494.48)" x="1545" y="1494.48">8</text>
</g>
<g clip-path="url(#clip7400)">
<text style="fill:#000000; fill-opacity:1; font-family:Arial,Helvetica Neue,Helvetica,sans-serif; font-size:48px; text-anchor:middle;" transform="rotate(0, 1885.18, 1494.48)" x="1885.18" y="1494.48">10</text>
</g>
<g clip-path="url(#clip7400)">
<text style="fill:#000000; fill-opacity:1; font-family:Arial,Helvetica Neue,Helvetica,sans-serif; font-size:48px; text-anchor:middle;" transform="rotate(0, 2225.37, 1494.48)" x="2225.37" y="1494.48">12</text>
</g>
<g clip-path="url(#clip7400)">
<text style="fill:#000000; fill-opacity:1; font-family:Arial,Helvetica Neue,Helvetica,sans-serif; font-size:48px; text-anchor:end;" transform="rotate(0, 160.243, 1420.78)" x="160.243" y="1420.78">0</text>
</g>
<g clip-path="url(#clip7400)">
<text style="fill:#000000; fill-opacity:1; font-family:Arial,Helvetica Neue,Helvetica,sans-serif; font-size:48px; text-anchor:end;" transform="rotate(0, 160.243, 1182.44)" x="160.243" y="1182.44">1</text>
</g>
<g clip-path="url(#clip7400)">
<text style="fill:#000000; fill-opacity:1; font-family:Arial,Helvetica Neue,Helvetica,sans-serif; font-size:48px; text-anchor:end;" transform="rotate(0, 160.243, 944.096)" x="160.243" y="944.096">2</text>
</g>
<g clip-path="url(#clip7400)">
<text style="fill:#000000; fill-opacity:1; font-family:Arial,Helvetica Neue,Helvetica,sans-serif; font-size:48px; text-anchor:end;" transform="rotate(0, 160.243, 705.754)" x="160.243" y="705.754">3</text>
</g>
<g clip-path="url(#clip7400)">
<text style="fill:#000000; fill-opacity:1; font-family:Arial,Helvetica Neue,Helvetica,sans-serif; font-size:48px; text-anchor:end;" transform="rotate(0, 160.243, 467.412)" x="160.243" y="467.412">4</text>
</g>
<g clip-path="url(#clip7400)">
<text style="fill:#000000; fill-opacity:1; font-family:Arial,Helvetica Neue,Helvetica,sans-serif; font-size:48px; text-anchor:end;" transform="rotate(0, 160.243, 229.07)" x="160.243" y="229.07">5</text>
</g>
<g clip-path="url(#clip7400)">
<text style="fill:#000000; fill-opacity:1; font-family:Arial,Helvetica Neue,Helvetica,sans-serif; font-size:84px; text-anchor:middle;" transform="rotate(0, 1252.75, 73.2)" x="1252.75" y="73.2">Solution Path</text>
</g>
<g clip-path="url(#clip7400)">
<text style="fill:#000000; fill-opacity:1; font-family:Symbol; font-size:72px; text-anchor:start;" transform="rotate(0, 1233.19, 1584.32)" x="1233.19" y="1584.32">λ</text>
</g>
<g clip-path="url(#clip7400)">
<text style="fill:#000000; fill-opacity:1; font-family:Arial,Helvetica Neue,Helvetica,sans-serif; font-size:66px; text-anchor:start;" transform="rotate(-90, 58.9248, 877.885)" x="58.9248" y="877.885">trace</text>
</g>
<g clip-path="url(#clip7400)">
<text style="fill:#000000; fill-opacity:1; font-family:Symbol; font-size:72px; text-anchor:start;" transform="rotate(-90, 58.9248, 730.758)" x="58.9248" y="730.758">Σ</text>
</g>
<polyline clip-path="url(#clip7402)" style="stroke:#009af9; stroke-width:3.2; stroke-opacity:1; fill:none" points="
  184.243,163.187 205.829,169.177 227.415,175.6 249.001,182.541 270.587,189.688 292.173,196.767 313.759,203.799 335.345,210.665 356.931,217.528 378.517,224.359 
  400.103,231.133 421.689,237.834 443.275,244.623 464.861,251.641 486.447,259.804 508.033,264.859 529.619,270.151 551.205,275.503 572.791,280.874 594.377,286.27 
  615.963,291.674 637.549,297.107 659.135,302.682 680.721,294.17 702.307,298.573 723.893,303.343 745.479,308.205 767.066,312.933 788.652,317.556 810.238,322.09 
  831.824,326.567 853.41,330.954 874.996,335.315 896.582,339.61 918.168,343.874 939.754,348.103 961.34,352.254 982.926,356.409 1004.51,360.562 1026.1,479.509 
  1047.68,485.325 1069.27,493.767 1090.86,501.81 1112.44,509.78 1134.03,517.754 1155.61,525.923 1177.2,534.182 1198.79,542.524 1220.37,551.296 1241.96,560.688 
  1263.54,577.809 1285.13,586.66 1306.72,594.21 1328.3,601.868 1349.89,609.605 1371.47,617.633 1393.06,625.777 1414.65,634.173 1436.23,642.521 1457.82,651.06 
  1479.4,659.342 1500.99,667.523 1522.58,675.643 1544.16,683.466 1565.75,691.63 1587.33,699.686 1608.92,708.017 1630.51,716.548 1652.09,725.264 1673.68,734.549 
  1695.26,744.287 1716.85,754.464 1738.44,765.502 1760.02,777.725 1781.61,792.192 1803.2,812.58 1824.78,1074.67 1846.37,1083.82 1867.95,1091.94 1889.54,1099.07 
  1911.13,1105.06 1932.71,1110.78 1954.3,1116.16 1975.88,1121.23 1997.47,1126.43 2019.06,1131.23 2040.64,1136.22 2062.23,1141.29 2083.81,1145.92 2105.4,1151.37 
  2126.99,1156.79 2148.57,1162.27 2170.16,1167.86 2191.74,1174.19 2213.33,1181.1 2234.92,1188.55 2256.5,1196.59 2278.09,1206.5 2299.67,1219.41 2321.26,1403.28 
  
  "/>
<polyline clip-path="url(#clip7402)" style="stroke:#e26f46; stroke-width:3.2; stroke-opacity:1; fill:none" points="
  184.243,501.381 205.829,506.517 227.415,511.929 249.001,517.424 270.587,522.899 292.173,528.264 313.759,533.561 335.345,538.742 356.931,543.899 378.517,549.018 
  400.103,554.083 421.689,559.079 443.275,564.072 464.861,569.048 486.447,535.617 508.033,527.48 529.619,520.371 551.205,514.089 572.791,508.349 594.377,502.579 
  615.963,496.618 637.549,490.106 659.135,481.785 680.721,419.199 702.307,421.727 723.893,423.546 745.479,425.595 767.066,428.045 788.652,430.823 810.238,433.86 
  831.824,437.066 853.41,440.407 874.996,443.831 896.582,447.317 918.168,450.855 939.754,454.438 961.34,458.014 982.926,461.66 1004.51,465.375 1026.1,596.359 
  1047.68,602.876 1069.27,615.484 1090.86,628.455 1112.44,641.825 1134.03,655.57 1155.61,670.182 1177.2,685.41 1198.79,701.229 1220.37,718.899 1241.96,739.542 
  1263.54,795.589 1285.13,812.898 1306.72,825.351 1328.3,837.962 1349.89,850.71 1371.47,864.16 1393.06,877.834 1414.65,891.985 1436.23,905.688 1457.82,919.353 
  1479.4,931.777 1500.99,943.251 1522.58,953.932 1544.16,963.534 1565.75,973.259 1587.33,982.504 1608.92,991.931 1630.51,1001.5 1652.09,1011.26 1673.68,1021.8 
  1695.26,1033.03 1716.85,1044.99 1738.44,1058.38 1760.02,1073.8 1781.61,1093.16 1803.2,1123.37 1824.78,1403.28 1846.37,1403.28 1867.95,1403.28 1889.54,1403.28 
  1911.13,1403.28 1932.71,1403.28 1954.3,1403.28 1975.88,1403.28 1997.47,1403.28 2019.06,1403.28 2040.64,1403.28 2062.23,1403.28 2083.81,1403.28 2105.4,1403.28 
  2126.99,1403.28 2148.57,1403.28 2170.16,1403.28 2191.74,1403.28 2213.33,1403.28 2234.92,1403.28 2256.5,1403.28 2278.09,1403.28 2299.67,1403.28 2321.26,1403.28 
  
  "/>
<polyline clip-path="url(#clip7402)" style="stroke:#3da44d; stroke-width:3.2; stroke-opacity:1; fill:none" points="
  184.243,604.737 205.829,609.509 227.415,614.807 249.001,620.828 270.587,627.165 292.173,633.425 313.759,639.613 335.345,645.587 356.931,651.539 378.517,657.433 
  400.103,663.237 421.689,668.929 443.275,674.654 464.861,680.485 486.447,687.298 508.033,691.377 529.619,695.177 551.205,698.706 572.791,701.907 594.377,704.644 
  615.963,706.743 637.549,707.838 659.135,706.714 680.721,630.066 702.307,635.785 723.893,643.4 745.479,650.631 767.066,657.379 788.652,663.783 810.238,669.891 
  831.824,675.851 853.41,681.517 874.996,687.245 896.582,692.773 918.168,698.334 939.754,703.861 961.34,709.161 982.926,714.722 1004.51,720.331 1026.1,934.376 
  1047.68,939.566 1069.27,950.801 1090.86,963.018 1112.44,976.078 1134.03,989.924 1155.61,1005.21 1177.2,1021.81 1198.79,1039.84 1220.37,1061.5 1241.96,1089.82 
  1263.54,1211.37 1285.13,1224.66 1306.72,1229.85 1328.3,1233.56 1349.89,1236.5 1371.47,1239.1 1393.06,1241.47 1414.65,1243.74 1436.23,1245.94 1457.82,1248.17 
  1479.4,1250.36 1500.99,1252.55 1522.58,1254.76 1544.16,1256.93 1565.75,1259.23 1587.33,1261.53 1608.92,1263.94 1630.51,1266.44 1652.09,1269.04 1673.68,1271.86 
  1695.26,1274.87 1716.85,1278.09 1738.44,1281.68 1760.02,1285.79 1781.61,1290.9 1803.2,1298.73 1824.78,1403.28 1846.37,1403.28 1867.95,1403.28 1889.54,1403.28 
  1911.13,1403.28 1932.71,1403.28 1954.3,1403.28 1975.88,1403.28 1997.47,1403.28 2019.06,1403.28 2040.64,1403.28 2062.23,1403.28 2083.81,1403.28 2105.4,1403.28 
  2126.99,1403.28 2148.57,1403.28 2170.16,1403.28 2191.74,1403.28 2213.33,1403.28 2234.92,1403.28 2256.5,1403.28 2278.09,1403.28 2299.67,1403.28 2321.26,1403.28 
  
  "/>
<polyline clip-path="url(#clip7402)" style="stroke:#c271d2; stroke-width:3.2; stroke-opacity:1; fill:none" points="
  184.243,919.316 205.829,921.907 227.415,924.25 249.001,926.917 270.587,929.726 292.173,932.543 313.759,935.33 335.345,938.065 356.931,940.766 378.517,943.449 
  400.103,946.125 421.689,948.81 443.275,951.579 464.861,954.661 486.447,985.069 508.033,991.758 529.619,998.043 551.205,1003.86 572.791,1009.29 594.377,1014.47 
  615.963,1019.37 637.549,1023.96 659.135,1028.1 680.721,1016.53 702.307,1019.71 723.893,1025.1 745.479,1030.43 767.066,1035.34 788.652,1040.04 810.238,1044.56 
  831.824,1049.08 853.41,1053.33 874.996,1057.8 896.582,1062.11 918.168,1066.57 939.754,1071.09 961.34,1075.35 982.926,1080.05 1004.51,1085 1026.1,1403.28 
  1047.68,1403.28 1069.27,1403.28 1090.86,1403.28 1112.44,1403.28 1134.03,1403.28 1155.61,1403.28 1177.2,1403.28 1198.79,1403.28 1220.37,1403.28 1241.96,1403.28 
  1263.54,1403.28 1285.13,1403.28 1306.72,1403.28 1328.3,1403.28 1349.89,1403.28 1371.47,1403.28 1393.06,1403.28 1414.65,1403.28 1436.23,1403.28 1457.82,1403.28 
  1479.4,1403.28 1500.99,1403.28 1522.58,1403.28 1544.16,1403.28 1565.75,1403.28 1587.33,1403.28 1608.92,1403.28 1630.51,1403.28 1652.09,1403.28 1673.68,1403.28 
  1695.26,1403.28 1716.85,1403.28 1738.44,1403.28 1760.02,1403.28 1781.61,1403.28 1803.2,1403.28 1824.78,1403.28 1846.37,1403.28 1867.95,1403.28 1889.54,1403.28 
  1911.13,1403.28 1932.71,1403.28 1954.3,1403.28 1975.88,1403.28 1997.47,1403.28 2019.06,1403.28 2040.64,1403.28 2062.23,1403.28 2083.81,1403.28 2105.4,1403.28 
  2126.99,1403.28 2148.57,1403.28 2170.16,1403.28 2191.74,1403.28 2213.33,1403.28 2234.92,1403.28 2256.5,1403.28 2278.09,1403.28 2299.67,1403.28 2321.26,1403.28 
  
  "/>
<polyline clip-path="url(#clip7402)" style="stroke:#ac8d18; stroke-width:3.2; stroke-opacity:1; fill:none" points="
  184.243,1153.49 205.829,1155.86 227.415,1158.54 249.001,1161.27 270.587,1163.87 292.173,1166.25 313.759,1168.45 335.345,1170.48 356.931,1172.43 378.517,1174.32 
  400.103,1176.16 421.689,1177.96 443.275,1179.75 464.861,1181.55 486.447,1177.11 508.033,1176.64 529.619,1176.4 551.205,1176.34 572.791,1176.38 594.377,1176.44 
  615.963,1176.47 637.549,1176.39 659.135,1175.98 680.721,1160.21 702.307,1161.45 723.893,1162.91 745.479,1164.52 767.066,1166.17 788.652,1167.84 810.238,1169.52 
  831.824,1171.22 853.41,1172.9 874.996,1174.6 896.582,1176.28 918.168,1177.97 939.754,1179.65 961.34,1181.29 982.926,1182.97 1004.51,1184.67 1026.1,1403.28 
  1047.68,1403.28 1069.27,1403.28 1090.86,1403.28 1112.44,1403.28 1134.03,1403.28 1155.61,1403.28 1177.2,1403.28 1198.79,1403.28 1220.37,1403.28 1241.96,1403.28 
  1263.54,1403.28 1285.13,1403.28 1306.72,1403.28 1328.3,1403.28 1349.89,1403.28 1371.47,1403.28 1393.06,1403.28 1414.65,1403.28 1436.23,1403.28 1457.82,1403.28 
  1479.4,1403.28 1500.99,1403.28 1522.58,1403.28 1544.16,1403.28 1565.75,1403.28 1587.33,1403.28 1608.92,1403.28 1630.51,1403.28 1652.09,1403.28 1673.68,1403.28 
  1695.26,1403.28 1716.85,1403.28 1738.44,1403.28 1760.02,1403.28 1781.61,1403.28 1803.2,1403.28 1824.78,1403.28 1846.37,1403.28 1867.95,1403.28 1889.54,1403.28 
  1911.13,1403.28 1932.71,1403.28 1954.3,1403.28 1975.88,1403.28 1997.47,1403.28 2019.06,1403.28 2040.64,1403.28 2062.23,1403.28 2083.81,1403.28 2105.4,1403.28 
  2126.99,1403.28 2148.57,1403.28 2170.16,1403.28 2191.74,1403.28 2213.33,1403.28 2234.92,1403.28 2256.5,1403.28 2278.09,1403.28 2299.67,1403.28 2321.26,1403.28 
  
  "/>
<polyline clip-path="url(#clip7402)" style="stroke:#00a9ad; stroke-width:3.2; stroke-opacity:1; fill:none" points="
  184.243,1263.77 205.829,1264.92 227.415,1266.24 249.001,1267.32 270.587,1268.21 292.173,1268.98 313.759,1269.66 335.345,1270.28 356.931,1270.82 378.517,1271.29 
  400.103,1271.69 421.689,1272.03 443.275,1272.26 464.861,1272.31 486.447,1273.49 508.033,1274.37 529.619,1274.97 551.205,1275.37 572.791,1275.6 594.377,1275.62 
  615.963,1275.39 637.549,1274.8 659.135,1273.48 680.721,1262.14 702.307,1263.11 723.893,1263.77 745.479,1264.16 767.066,1264.59 788.652,1265.03 810.238,1265.49 
  831.824,1265.94 853.41,1266.4 874.996,1266.83 896.582,1267.26 918.168,1267.66 939.754,1268.03 961.34,1268.42 982.926,1268.75 1004.51,1269.02 1026.1,1403.28 
  1047.68,1403.28 1069.27,1403.28 1090.86,1403.28 1112.44,1403.28 1134.03,1403.28 1155.61,1403.28 1177.2,1403.28 1198.79,1403.28 1220.37,1403.28 1241.96,1403.28 
  1263.54,1403.28 1285.13,1403.28 1306.72,1403.28 1328.3,1403.28 1349.89,1403.28 1371.47,1403.28 1393.06,1403.28 1414.65,1403.28 1436.23,1403.28 1457.82,1403.28 
  1479.4,1403.28 1500.99,1403.28 1522.58,1403.28 1544.16,1403.28 1565.75,1403.28 1587.33,1403.28 1608.92,1403.28 1630.51,1403.28 1652.09,1403.28 1673.68,1403.28 
  1695.26,1403.28 1716.85,1403.28 1738.44,1403.28 1760.02,1403.28 1781.61,1403.28 1803.2,1403.28 1824.78,1403.28 1846.37,1403.28 1867.95,1403.28 1889.54,1403.28 
  1911.13,1403.28 1932.71,1403.28 1954.3,1403.28 1975.88,1403.28 1997.47,1403.28 2019.06,1403.28 2040.64,1403.28 2062.23,1403.28 2083.81,1403.28 2105.4,1403.28 
  2126.99,1403.28 2148.57,1403.28 2170.16,1403.28 2191.74,1403.28 2213.33,1403.28 2234.92,1403.28 2256.5,1403.28 2278.09,1403.28 2299.67,1403.28 2321.26,1403.28 
  
  "/>
<polyline clip-path="url(#clip7402)" style="stroke:#ed5d92; stroke-width:3.2; stroke-opacity:1; fill:none" points="
  184.243,1004.87 205.829,1007.42 227.415,1010.91 249.001,1015.39 270.587,1020.39 292.173,1025.43 313.759,1030.5 335.345,1035.41 356.931,1040.41 378.517,1045.46 
  400.103,1050.51 421.689,1055.54 443.275,1060.85 464.861,1066.72 486.447,1111.85 508.033,1125.78 529.619,1138.96 551.205,1151.34 572.791,1163.13 594.377,1174.83 
  615.963,1186.52 637.549,1198.42 659.135,1211.33 680.721,1231.91 702.307,1234.52 723.893,1239.51 745.479,1244.6 767.066,1248.83 788.652,1252.32 810.238,1255.19 
  831.824,1257.7 853.41,1259.78 874.996,1261.74 896.582,1263.47 918.168,1265.11 939.754,1266.67 961.34,1268.06 982.926,1269.49 1004.51,1270.9 1026.1,1403.28 
  1047.68,1403.28 1069.27,1403.28 1090.86,1403.28 1112.44,1403.28 1134.03,1403.28 1155.61,1403.28 1177.2,1403.28 1198.79,1403.28 1220.37,1403.28 1241.96,1403.28 
  1263.54,1403.28 1285.13,1403.28 1306.72,1403.28 1328.3,1403.28 1349.89,1403.28 1371.47,1403.28 1393.06,1403.28 1414.65,1403.28 1436.23,1403.28 1457.82,1403.28 
  1479.4,1403.28 1500.99,1403.28 1522.58,1403.28 1544.16,1403.28 1565.75,1403.28 1587.33,1403.28 1608.92,1403.28 1630.51,1403.28 1652.09,1403.28 1673.68,1403.28 
  1695.26,1403.28 1716.85,1403.28 1738.44,1403.28 1760.02,1403.28 1781.61,1403.28 1803.2,1403.28 1824.78,1403.28 1846.37,1403.28 1867.95,1403.28 1889.54,1403.28 
  1911.13,1403.28 1932.71,1403.28 1954.3,1403.28 1975.88,1403.28 1997.47,1403.28 2019.06,1403.28 2040.64,1403.28 2062.23,1403.28 2083.81,1403.28 2105.4,1403.28 
  2126.99,1403.28 2148.57,1403.28 2170.16,1403.28 2191.74,1403.28 2213.33,1403.28 2234.92,1403.28 2256.5,1403.28 2278.09,1403.28 2299.67,1403.28 2321.26,1403.28 
  
  "/>
<polyline clip-path="url(#clip7402)" style="stroke:#c68125; stroke-width:3.2; stroke-opacity:1; fill:none" points="
  184.243,1110.88 205.829,1114.12 227.415,1119.62 249.001,1126.04 270.587,1132.92 292.173,1139.71 313.759,1146.56 335.345,1153.16 356.931,1159.96 378.517,1166.87 
  400.103,1173.82 421.689,1180.78 443.275,1188.26 464.861,1196.71 486.447,1223.37 508.033,1230.06 529.619,1237.87 551.205,1246.22 572.791,1255.07 594.377,1264.77 
  615.963,1275.52 637.549,1288 659.135,1304.66 680.721,1403.28 702.307,1403.28 723.893,1403.28 745.479,1403.28 767.066,1403.28 788.652,1403.28 810.238,1403.28 
  831.824,1403.28 853.41,1403.28 874.996,1403.28 896.582,1403.28 918.168,1403.28 939.754,1403.28 961.34,1403.28 982.926,1403.28 1004.51,1403.28 1026.1,1403.28 
  1047.68,1403.28 1069.27,1403.28 1090.86,1403.28 1112.44,1403.28 1134.03,1403.28 1155.61,1403.28 1177.2,1403.28 1198.79,1403.28 1220.37,1403.28 1241.96,1403.28 
  1263.54,1403.28 1285.13,1403.28 1306.72,1403.28 1328.3,1403.28 1349.89,1403.28 1371.47,1403.28 1393.06,1403.28 1414.65,1403.28 1436.23,1403.28 1457.82,1403.28 
  1479.4,1403.28 1500.99,1403.28 1522.58,1403.28 1544.16,1403.28 1565.75,1403.28 1587.33,1403.28 1608.92,1403.28 1630.51,1403.28 1652.09,1403.28 1673.68,1403.28 
  1695.26,1403.28 1716.85,1403.28 1738.44,1403.28 1760.02,1403.28 1781.61,1403.28 1803.2,1403.28 1824.78,1403.28 1846.37,1403.28 1867.95,1403.28 1889.54,1403.28 
  1911.13,1403.28 1932.71,1403.28 1954.3,1403.28 1975.88,1403.28 1997.47,1403.28 2019.06,1403.28 2040.64,1403.28 2062.23,1403.28 2083.81,1403.28 2105.4,1403.28 
  2126.99,1403.28 2148.57,1403.28 2170.16,1403.28 2191.74,1403.28 2213.33,1403.28 2234.92,1403.28 2256.5,1403.28 2278.09,1403.28 2299.67,1403.28 2321.26,1403.28 
  
  "/>
<polyline clip-path="url(#clip7402)" style="stroke:#00a98d; stroke-width:3.2; stroke-opacity:1; fill:none" points="
  184.243,1186.97 205.829,1189.21 227.415,1192.28 249.001,1195.13 270.587,1197.86 292.173,1200.53 313.759,1203.2 335.345,1205.81 356.931,1208.44 378.517,1211.02 
  400.103,1213.55 421.689,1216.01 443.275,1218.46 464.861,1220.88 486.447,1238.91 508.033,1248.01 529.619,1256.69 551.205,1264.94 572.791,1272.97 594.377,1281.21 
  615.963,1289.86 637.549,1299.39 659.135,1311.35 680.721,1403.28 702.307,1403.28 723.893,1403.28 745.479,1403.28 767.066,1403.28 788.652,1403.28 810.238,1403.28 
  831.824,1403.28 853.41,1403.28 874.996,1403.28 896.582,1403.28 918.168,1403.28 939.754,1403.28 961.34,1403.28 982.926,1403.28 1004.51,1403.28 1026.1,1403.28 
  1047.68,1403.28 1069.27,1403.28 1090.86,1403.28 1112.44,1403.28 1134.03,1403.28 1155.61,1403.28 1177.2,1403.28 1198.79,1403.28 1220.37,1403.28 1241.96,1403.28 
  1263.54,1403.28 1285.13,1403.28 1306.72,1403.28 1328.3,1403.28 1349.89,1403.28 1371.47,1403.28 1393.06,1403.28 1414.65,1403.28 1436.23,1403.28 1457.82,1403.28 
  1479.4,1403.28 1500.99,1403.28 1522.58,1403.28 1544.16,1403.28 1565.75,1403.28 1587.33,1403.28 1608.92,1403.28 1630.51,1403.28 1652.09,1403.28 1673.68,1403.28 
  1695.26,1403.28 1716.85,1403.28 1738.44,1403.28 1760.02,1403.28 1781.61,1403.28 1803.2,1403.28 1824.78,1403.28 1846.37,1403.28 1867.95,1403.28 1889.54,1403.28 
  1911.13,1403.28 1932.71,1403.28 1954.3,1403.28 1975.88,1403.28 1997.47,1403.28 2019.06,1403.28 2040.64,1403.28 2062.23,1403.28 2083.81,1403.28 2105.4,1403.28 
  2126.99,1403.28 2148.57,1403.28 2170.16,1403.28 2191.74,1403.28 2213.33,1403.28 2234.92,1403.28 2256.5,1403.28 2278.09,1403.28 2299.67,1403.28 2321.26,1403.28 
  
  "/>
<polyline clip-path="url(#clip7402)" style="stroke:#8e971d; stroke-width:3.2; stroke-opacity:1; fill:none" points="
  184.243,1403.28 205.829,1403.28 227.415,1403.28 249.001,1403.28 270.587,1403.28 292.173,1403.28 313.759,1403.28 335.345,1403.28 356.931,1403.28 378.517,1403.28 
  400.103,1403.28 421.689,1403.28 443.275,1403.28 464.861,1403.28 486.447,1403.28 508.033,1403.28 529.619,1403.28 551.205,1403.28 572.791,1403.28 594.377,1403.28 
  615.963,1403.28 637.549,1403.28 659.135,1403.28 680.721,1403.28 702.307,1403.28 723.893,1403.28 745.479,1403.28 767.066,1403.28 788.652,1403.28 810.238,1403.28 
  831.824,1403.28 853.41,1403.28 874.996,1403.28 896.582,1403.28 918.168,1403.28 939.754,1403.28 961.34,1403.28 982.926,1403.28 1004.51,1403.28 1026.1,1403.28 
  1047.68,1403.28 1069.27,1403.28 1090.86,1403.28 1112.44,1403.28 1134.03,1403.28 1155.61,1403.28 1177.2,1403.28 1198.79,1403.28 1220.37,1403.28 1241.96,1403.28 
  1263.54,1403.28 1285.13,1403.28 1306.72,1403.28 1328.3,1403.28 1349.89,1403.28 1371.47,1403.28 1393.06,1403.28 1414.65,1403.28 1436.23,1403.28 1457.82,1403.28 
  1479.4,1403.28 1500.99,1403.28 1522.58,1403.28 1544.16,1403.28 1565.75,1403.28 1587.33,1403.28 1608.92,1403.28 1630.51,1403.28 1652.09,1403.28 1673.68,1403.28 
  1695.26,1403.28 1716.85,1403.28 1738.44,1403.28 1760.02,1403.28 1781.61,1403.28 1803.2,1403.28 1824.78,1403.28 1846.37,1403.28 1867.95,1403.28 1889.54,1403.28 
  1911.13,1403.28 1932.71,1403.28 1954.3,1403.28 1975.88,1403.28 1997.47,1403.28 2019.06,1403.28 2040.64,1403.28 2062.23,1403.28 2083.81,1403.28 2105.4,1403.28 
  2126.99,1403.28 2148.57,1403.28 2170.16,1403.28 2191.74,1403.28 2213.33,1403.28 2234.92,1403.28 2256.5,1403.28 2278.09,1403.28 2299.67,1403.28 2321.26,1403.28 
  
  "/>
<path clip-path="url(#clip7400)" d="
M1832.71 874.784 L2249.26 874.784 L2249.26 209.504 L1832.71 209.504  Z
  " fill="#ffffff" fill-rule="evenodd" fill-opacity="1"/>
<polyline clip-path="url(#clip7400)" style="stroke:#000000; stroke-width:3.2; stroke-opacity:1; fill:none" points="
  1832.71,874.784 2249.26,874.784 2249.26,209.504 1832.71,209.504 1832.71,874.784 
  "/>
<g clip-path="url(#clip7400)">
<text style="fill:#000000; fill-opacity:1; font-family:Arial,Helvetica Neue,Helvetica,sans-serif; font-size:48px; text-anchor:middle;" transform="rotate(0, 2040.98, 287.484)" x="2040.98" y="287.484">Ranking</text>
</g>
<polyline clip-path="url(#clip7400)" style="stroke:#009af9; stroke-width:3.2; stroke-opacity:1; fill:none" points="
  1856.71,330.464 2000.71,330.464 
  "/>
<g clip-path="url(#clip7400)">
<text style="fill:#000000; fill-opacity:1; font-family:Symbol; font-size:52px; text-anchor:start;" transform="rotate(0, 2024.71, 344.115)" x="2024.71" y="344.115">Σ</text>
</g>
<g clip-path="url(#clip7400)">
<text style="fill:#000000; fill-opacity:1; font-family:Arial,Helvetica Neue,Helvetica,sans-serif; font-size:48px; text-anchor:start;" transform="rotate(0, 2055.38, 344.115)" x="2055.38" y="344.115">[4]</text>
</g>
<polyline clip-path="url(#clip7400)" style="stroke:#e26f46; stroke-width:3.2; stroke-opacity:1; fill:none" points="
  1856.71,390.944 2000.71,390.944 
  "/>
<g clip-path="url(#clip7400)">
<text style="fill:#000000; fill-opacity:1; font-family:Symbol; font-size:52px; text-anchor:start;" transform="rotate(0, 2024.71, 404.595)" x="2024.71" y="404.595">Σ</text>
</g>
<g clip-path="url(#clip7400)">
<text style="fill:#000000; fill-opacity:1; font-family:Arial,Helvetica Neue,Helvetica,sans-serif; font-size:48px; text-anchor:start;" transform="rotate(0, 2055.38, 404.595)" x="2055.38" y="404.595">[10]</text>
</g>
<polyline clip-path="url(#clip7400)" style="stroke:#3da44d; stroke-width:3.2; stroke-opacity:1; fill:none" points="
  1856.71,451.424 2000.71,451.424 
  "/>
<g clip-path="url(#clip7400)">
<text style="fill:#000000; fill-opacity:1; font-family:Symbol; font-size:52px; text-anchor:start;" transform="rotate(0, 2024.71, 465.075)" x="2024.71" y="465.075">Σ</text>
</g>
<g clip-path="url(#clip7400)">
<text style="fill:#000000; fill-opacity:1; font-family:Arial,Helvetica Neue,Helvetica,sans-serif; font-size:48px; text-anchor:start;" transform="rotate(0, 2055.38, 465.075)" x="2055.38" y="465.075">[1]</text>
</g>
<polyline clip-path="url(#clip7400)" style="stroke:#c271d2; stroke-width:3.2; stroke-opacity:1; fill:none" points="
  1856.71,511.904 2000.71,511.904 
  "/>
<g clip-path="url(#clip7400)">
<text style="fill:#000000; fill-opacity:1; font-family:Symbol; font-size:52px; text-anchor:start;" transform="rotate(0, 2024.71, 525.555)" x="2024.71" y="525.555">Σ</text>
</g>
<g clip-path="url(#clip7400)">
<text style="fill:#000000; fill-opacity:1; font-family:Arial,Helvetica Neue,Helvetica,sans-serif; font-size:48px; text-anchor:start;" transform="rotate(0, 2055.38, 525.555)" x="2055.38" y="525.555">[9]</text>
</g>
<polyline clip-path="url(#clip7400)" style="stroke:#ac8d18; stroke-width:3.2; stroke-opacity:1; fill:none" points="
  1856.71,572.384 2000.71,572.384 
  "/>
<g clip-path="url(#clip7400)">
<text style="fill:#000000; fill-opacity:1; font-family:Symbol; font-size:52px; text-anchor:start;" transform="rotate(0, 2024.71, 586.035)" x="2024.71" y="586.035">Σ</text>
</g>
<g clip-path="url(#clip7400)">
<text style="fill:#000000; fill-opacity:1; font-family:Arial,Helvetica Neue,Helvetica,sans-serif; font-size:48px; text-anchor:start;" transform="rotate(0, 2055.38, 586.035)" x="2055.38" y="586.035">[2]</text>
</g>
<polyline clip-path="url(#clip7400)" style="stroke:#00a9ad; stroke-width:3.2; stroke-opacity:1; fill:none" points="
  1856.71,632.864 2000.71,632.864 
  "/>
<g clip-path="url(#clip7400)">
<text style="fill:#000000; fill-opacity:1; font-family:Symbol; font-size:52px; text-anchor:start;" transform="rotate(0, 2024.71, 646.515)" x="2024.71" y="646.515">Σ</text>
</g>
<g clip-path="url(#clip7400)">
<text style="fill:#000000; fill-opacity:1; font-family:Arial,Helvetica Neue,Helvetica,sans-serif; font-size:48px; text-anchor:start;" transform="rotate(0, 2055.38, 646.515)" x="2055.38" y="646.515">[7]</text>
</g>
<polyline clip-path="url(#clip7400)" style="stroke:#ed5d92; stroke-width:3.2; stroke-opacity:1; fill:none" points="
  1856.71,693.344 2000.71,693.344 
  "/>
<g clip-path="url(#clip7400)">
<text style="fill:#000000; fill-opacity:1; font-family:Symbol; font-size:52px; text-anchor:start;" transform="rotate(0, 2024.71, 706.995)" x="2024.71" y="706.995">Σ</text>
</g>
<g clip-path="url(#clip7400)">
<text style="fill:#000000; fill-opacity:1; font-family:Arial,Helvetica Neue,Helvetica,sans-serif; font-size:48px; text-anchor:start;" transform="rotate(0, 2055.38, 706.995)" x="2055.38" y="706.995">[6]</text>
</g>
<polyline clip-path="url(#clip7400)" style="stroke:#c68125; stroke-width:3.2; stroke-opacity:1; fill:none" points="
  1856.71,753.824 2000.71,753.824 
  "/>
<g clip-path="url(#clip7400)">
<text style="fill:#000000; fill-opacity:1; font-family:Symbol; font-size:52px; text-anchor:start;" transform="rotate(0, 2024.71, 767.475)" x="2024.71" y="767.475">Σ</text>
</g>
<g clip-path="url(#clip7400)">
<text style="fill:#000000; fill-opacity:1; font-family:Arial,Helvetica Neue,Helvetica,sans-serif; font-size:48px; text-anchor:start;" transform="rotate(0, 2055.38, 767.475)" x="2055.38" y="767.475">[5]</text>
</g>
<polyline clip-path="url(#clip7400)" style="stroke:#00a98d; stroke-width:3.2; stroke-opacity:1; fill:none" points="
  1856.71,814.304 2000.71,814.304 
  "/>
<g clip-path="url(#clip7400)">
<text style="fill:#000000; fill-opacity:1; font-family:Symbol; font-size:52px; text-anchor:start;" transform="rotate(0, 2024.71, 827.955)" x="2024.71" y="827.955">Σ</text>
</g>
<g clip-path="url(#clip7400)">
<text style="fill:#000000; fill-opacity:1; font-family:Arial,Helvetica Neue,Helvetica,sans-serif; font-size:48px; text-anchor:start;" transform="rotate(0, 2055.38, 827.955)" x="2055.38" y="827.955">[3]</text>
</g>
</svg>
