<?xml version="1.0" encoding="utf-8"?>
<svg xmlns="http://www.w3.org/2000/svg" xmlns:xlink="http://www.w3.org/1999/xlink" width="600" height="400" viewBox="0 0 2400 1600">
<defs>
  <clipPath id="clip9600">
    <rect x="0" y="0" width="2400" height="1600"/>
  </clipPath>
</defs>
<polygon clip-path="url(#clip9600)" points="
0,1600 2400,1600 2400,0 0,0 
  " fill="#ffffff" fill-rule="evenodd" fill-opacity="1"/>
<defs>
  <clipPath id="clip9601">
    <rect x="480" y="0" width="1681" height="1600"/>
  </clipPath>
</defs>
<polygon clip-path="url(#clip9600)" points="
251.149,1440.48 2321.26,1440.48 2321.26,125.984 251.149,125.984 
  " fill="#ffffff" fill-rule="evenodd" fill-opacity="1"/>
<defs>
  <clipPath id="clip9602">
    <rect x="251" y="125" width="2071" height="1315"/>
  </clipPath>
</defs>
<polyline clip-path="url(#clip9602)" style="stroke:#000000; stroke-width:2; stroke-opacity:0.1; fill:none" points="
  251.149,1440.48 251.149,125.984 
  "/>
<polyline clip-path="url(#clip9602)" style="stroke:#000000; stroke-width:2; stroke-opacity:0.1; fill:none" points="
  788.346,1440.48 788.346,125.984 
  "/>
<polyline clip-path="url(#clip9602)" style="stroke:#000000; stroke-width:2; stroke-opacity:0.1; fill:none" points="
  1325.54,1440.48 1325.54,125.984 
  "/>
<polyline clip-path="url(#clip9602)" style="stroke:#000000; stroke-width:2; stroke-opacity:0.1; fill:none" points="
  1862.74,1440.48 1862.74,125.984 
  "/>
<polyline clip-path="url(#clip9602)" style="stroke:#000000; stroke-width:2; stroke-opacity:0.1; fill:none" points="
  251.149,1403.28 2321.26,1403.28 
  "/>
<polyline clip-path="url(#clip9602)" style="stroke:#000000; stroke-width:2; stroke-opacity:0.1; fill:none" points="
  251.149,1103.7 2321.26,1103.7 
  "/>
<polyline clip-path="url(#clip9602)" style="stroke:#000000; stroke-width:2; stroke-opacity:0.1; fill:none" points="
  251.149,804.122 2321.26,804.122 
  "/>
<polyline clip-path="url(#clip9602)" style="stroke:#000000; stroke-width:2; stroke-opacity:0.1; fill:none" points="
  251.149,504.543 2321.26,504.543 
  "/>
<polyline clip-path="url(#clip9602)" style="stroke:#000000; stroke-width:2; stroke-opacity:0.1; fill:none" points="
  251.149,204.964 2321.26,204.964 
  "/>
<polyline clip-path="url(#clip9600)" style="stroke:#000000; stroke-width:4; stroke-opacity:1; fill:none" points="
  251.149,1440.48 2321.26,1440.48 
  "/>
<polyline clip-path="url(#clip9600)" style="stroke:#000000; stroke-width:4; stroke-opacity:1; fill:none" points="
  251.149,1440.48 251.149,125.984 
  "/>
<polyline clip-path="url(#clip9600)" style="stroke:#000000; stroke-width:4; stroke-opacity:1; fill:none" points="
  251.149,1440.48 251.149,1420.77 
  "/>
<polyline clip-path="url(#clip9600)" style="stroke:#000000; stroke-width:4; stroke-opacity:1; fill:none" points="
  788.346,1440.48 788.346,1420.77 
  "/>
<polyline clip-path="url(#clip9600)" style="stroke:#000000; stroke-width:4; stroke-opacity:1; fill:none" points="
  1325.54,1440.48 1325.54,1420.77 
  "/>
<polyline clip-path="url(#clip9600)" style="stroke:#000000; stroke-width:4; stroke-opacity:1; fill:none" points="
  1862.74,1440.48 1862.74,1420.77 
  "/>
<polyline clip-path="url(#clip9600)" style="stroke:#000000; stroke-width:4; stroke-opacity:1; fill:none" points="
  251.149,1403.28 282.2,1403.28 
  "/>
<polyline clip-path="url(#clip9600)" style="stroke:#000000; stroke-width:4; stroke-opacity:1; fill:none" points="
  251.149,1103.7 282.2,1103.7 
  "/>
<polyline clip-path="url(#clip9600)" style="stroke:#000000; stroke-width:4; stroke-opacity:1; fill:none" points="
  251.149,804.122 282.2,804.122 
  "/>
<polyline clip-path="url(#clip9600)" style="stroke:#000000; stroke-width:4; stroke-opacity:1; fill:none" points="
  251.149,504.543 282.2,504.543 
  "/>
<polyline clip-path="url(#clip9600)" style="stroke:#000000; stroke-width:4; stroke-opacity:1; fill:none" points="
  251.149,204.964 282.2,204.964 
  "/>
<g clip-path="url(#clip9600)">
<text style="fill:#000000; fill-opacity:1; font-family:Arial,Helvetica Neue,Helvetica,sans-serif; font-size:48px; text-anchor:middle;" transform="rotate(0, 251.149, 1494.48)" x="251.149" y="1494.48">0</text>
</g>
<g clip-path="url(#clip9600)">
<text style="fill:#000000; fill-opacity:1; font-family:Arial,Helvetica Neue,Helvetica,sans-serif; font-size:48px; text-anchor:middle;" transform="rotate(0, 788.346, 1494.48)" x="788.346" y="1494.48">20</text>
</g>
<g clip-path="url(#clip9600)">
<text style="fill:#000000; fill-opacity:1; font-family:Arial,Helvetica Neue,Helvetica,sans-serif; font-size:48px; text-anchor:middle;" transform="rotate(0, 1325.54, 1494.48)" x="1325.54" y="1494.48">40</text>
</g>
<g clip-path="url(#clip9600)">
<text style="fill:#000000; fill-opacity:1; font-family:Arial,Helvetica Neue,Helvetica,sans-serif; font-size:48px; text-anchor:middle;" transform="rotate(0, 1862.74, 1494.48)" x="1862.74" y="1494.48">60</text>
</g>
<g clip-path="url(#clip9600)">
<text style="fill:#000000; fill-opacity:1; font-family:Arial,Helvetica Neue,Helvetica,sans-serif; font-size:48px; text-anchor:end;" transform="rotate(0, 227.149, 1420.78)" x="227.149" y="1420.78">0.0</text>
</g>
<g clip-path="url(#clip9600)">
<text style="fill:#000000; fill-opacity:1; font-family:Arial,Helvetica Neue,Helvetica,sans-serif; font-size:48px; text-anchor:end;" transform="rotate(0, 227.149, 1121.2)" x="227.149" y="1121.2">2.5</text>
</g>
<g clip-path="url(#clip9600)">
<text style="fill:#000000; fill-opacity:1; font-family:Arial,Helvetica Neue,Helvetica,sans-serif; font-size:48px; text-anchor:end;" transform="rotate(0, 227.149, 821.622)" x="227.149" y="821.622">5.0</text>
</g>
<g clip-path="url(#clip9600)">
<text style="fill:#000000; fill-opacity:1; font-family:Arial,Helvetica Neue,Helvetica,sans-serif; font-size:48px; text-anchor:end;" transform="rotate(0, 227.149, 522.043)" x="227.149" y="522.043">7.5</text>
</g>
<g clip-path="url(#clip9600)">
<text style="fill:#000000; fill-opacity:1; font-family:Arial,Helvetica Neue,Helvetica,sans-serif; font-size:48px; text-anchor:end;" transform="rotate(0, 227.149, 222.464)" x="227.149" y="222.464">10.0</text>
</g>
<g clip-path="url(#clip9600)">
<text style="fill:#000000; fill-opacity:1; font-family:Arial,Helvetica Neue,Helvetica,sans-serif; font-size:84px; text-anchor:middle;" transform="rotate(0, 1286.2, 73.2)" x="1286.2" y="73.2">Solution Path (lasso penalty)</text>
</g>
<g clip-path="url(#clip9600)">
<text style="fill:#000000; fill-opacity:1; font-family:Symbol; font-size:72px; text-anchor:start;" transform="rotate(0, 1266.65, 1584.32)" x="1266.65" y="1584.32">λ</text>
</g>
<g clip-path="url(#clip9600)">
<text style="fill:#000000; fill-opacity:1; font-family:Symbol; font-size:72px; text-anchor:start;" transform="rotate(-90, 86.6349, 819.663)" x="86.6349" y="819.663">σ</text>
</g>
<g clip-path="url(#clip9600)">
<text style="fill:#000000; fill-opacity:1; font-family:Arial,Helvetica Neue,Helvetica,sans-serif; font-size:53px; text-anchor:start;" transform="rotate(-90, 48.9456, 776.703)" x="48.9456" y="776.703">2</text>
</g>
<polyline clip-path="url(#clip9602)" style="stroke:#009af9; stroke-width:4.8; stroke-opacity:1; fill:none" points="
  251.149,163.187 481.161,1109.23 711.173,1217.84 941.186,1264.26 1171.2,1291.39 1401.21,1310.68 1631.22,1325.11 1861.24,1340.8 2091.25,1349.89 2321.26,1378.99 
  
  "/>
<polyline clip-path="url(#clip9602)" style="stroke:#e26f46; stroke-width:4.8; stroke-opacity:1; fill:none" points="
  251.149,733.09 481.161,1094.67 711.173,1211.35 941.186,1264.36 1171.2,1294 1401.21,1303.83 1631.22,1322.19 1861.24,1336.36 2091.25,1351.4 2321.26,1403.28 
  
  "/>
<polyline clip-path="url(#clip9602)" style="stroke:#3da44d; stroke-width:4.8; stroke-opacity:1; fill:none" points="
  251.149,1336.34 481.161,1217.03 711.173,1280.42 941.186,1311.67 1171.2,1330.76 1401.21,1343.34 1631.22,1354.49 1861.24,1366.05 2091.25,1376 2321.26,1403.28 
  
  "/>
<polyline clip-path="url(#clip9602)" style="stroke:#c271d2; stroke-width:4.8; stroke-opacity:1; fill:none" points="
  251.149,780.618 481.161,1266.13 711.173,1330.73 941.186,1355.1 1171.2,1368.95 1401.21,1381.18 1631.22,1389.5 1861.24,1403.28 2091.25,1403.28 2321.26,1403.28 
  
  "/>
<polyline clip-path="url(#clip9602)" style="stroke:#ac8d18; stroke-width:4.8; stroke-opacity:1; fill:none" points="
  251.149,649.094 481.161,1208.22 711.173,1311.11 941.186,1353.44 1171.2,1379.11 1401.21,1403.28 1631.22,1403.28 1861.24,1403.28 2091.25,1403.28 2321.26,1403.28 
  
  "/>
<polyline clip-path="url(#clip9602)" style="stroke:#00a9ad; stroke-width:4.8; stroke-opacity:1; fill:none" points="
  251.149,1403.28 481.161,1403.28 711.173,1403.28 941.186,1403.28 1171.2,1403.28 1401.21,1403.28 1631.22,1403.28 1861.24,1403.28 2091.25,1403.28 2321.26,1403.28 
  
  "/>
<polyline clip-path="url(#clip9602)" style="stroke:#ed5d92; stroke-width:4.8; stroke-opacity:1; fill:none" points="
  251.149,1403.28 481.161,1403.28 711.173,1403.28 941.186,1403.28 1171.2,1403.28 1401.21,1403.28 1631.22,1403.28 1861.24,1403.28 2091.25,1403.28 2321.26,1403.28 
  
  "/>
<polyline clip-path="url(#clip9602)" style="stroke:#c68125; stroke-width:4.8; stroke-opacity:1; fill:none" points="
  251.149,1403.28 481.161,1403.28 711.173,1403.28 941.186,1403.28 1171.2,1403.28 1401.21,1403.28 1631.22,1403.28 1861.24,1403.28 2091.25,1403.28 2321.26,1403.28 
  
  "/>
<polyline clip-path="url(#clip9602)" style="stroke:#00a98d; stroke-width:4.8; stroke-opacity:1; fill:none" points="
  251.149,1403.28 481.161,1403.28 711.173,1403.28 941.186,1403.28 1171.2,1403.28 1401.21,1403.28 1631.22,1403.28 1861.24,1403.28 2091.25,1403.28 2321.26,1403.28 
  
  "/>
<polyline clip-path="url(#clip9602)" style="stroke:#8e971d; stroke-width:4.8; stroke-opacity:1; fill:none" points="
  251.149,1403.28 481.161,1403.28 711.173,1403.28 941.186,1403.28 1171.2,1403.28 1401.21,1403.28 1631.22,1403.28 1861.24,1403.28 2091.25,1403.28 2321.26,1403.28 
  
  "/>
<polyline clip-path="url(#clip9602)" style="stroke:#00a8cb; stroke-width:4.8; stroke-opacity:1; fill:none" points="
  251.149,1403.28 481.161,1403.28 711.173,1403.28 941.186,1403.28 1171.2,1403.28 1401.21,1403.28 1631.22,1403.28 1861.24,1403.28 2091.25,1403.28 2321.26,1403.28 
  
  "/>
<polyline clip-path="url(#clip9602)" style="stroke:#9b7fe8; stroke-width:4.8; stroke-opacity:1; fill:none" points="
  251.149,1403.28 481.161,1403.28 711.173,1403.28 941.186,1403.28 1171.2,1403.28 1401.21,1403.28 1631.22,1403.28 1861.24,1403.28 2091.25,1403.28 2321.26,1403.28 
  
  "/>
<polyline clip-path="url(#clip9602)" style="stroke:#608cf6; stroke-width:4.8; stroke-opacity:1; fill:none" points="
  251.149,1403.28 481.161,1403.28 711.173,1403.28 941.186,1403.28 1171.2,1403.28 1401.21,1403.28 1631.22,1403.28 1861.24,1403.28 2091.25,1403.28 2321.26,1403.28 
  
  "/>
<polyline clip-path="url(#clip9602)" style="stroke:#f05f73; stroke-width:4.8; stroke-opacity:1; fill:none" points="
  251.149,1403.28 481.161,1403.28 711.173,1403.28 941.186,1403.28 1171.2,1403.28 1401.21,1403.28 1631.22,1403.28 1861.24,1403.28 2091.25,1403.28 2321.26,1403.28 
  
  "/>
<polyline clip-path="url(#clip9602)" style="stroke:#dd64b5; stroke-width:4.8; stroke-opacity:1; fill:none" points="
  251.149,1394.8 481.161,1403.28 711.173,1403.28 941.186,1403.28 1171.2,1403.28 1401.21,1403.28 1631.22,1403.28 1861.24,1403.28 2091.25,1403.28 2321.26,1403.28 
  
  "/>
<polyline clip-path="url(#clip9602)" style="stroke:#6b9e32; stroke-width:4.8; stroke-opacity:1; fill:none" points="
  251.149,1403.28 481.161,1403.28 711.173,1403.28 941.186,1403.28 1171.2,1403.28 1401.21,1403.28 1631.22,1403.28 1861.24,1403.28 2091.25,1403.28 2321.26,1403.28 
  
  "/>
<polyline clip-path="url(#clip9602)" style="stroke:#718c69; stroke-width:4.8; stroke-opacity:1; fill:none" points="
  251.149,1403.28 481.161,1403.28 711.173,1403.28 941.186,1403.28 1171.2,1403.28 1401.21,1403.28 1631.22,1403.28 1861.24,1403.28 2091.25,1403.28 2321.26,1403.28 
  
  "/>
<polyline clip-path="url(#clip9602)" style="stroke:#47988b; stroke-width:4.8; stroke-opacity:1; fill:none" points="
  251.149,1403.28 481.161,1403.28 711.173,1403.28 941.186,1403.28 1171.2,1403.28 1401.21,1403.28 1631.22,1403.28 1861.24,1403.28 2091.25,1403.28 2321.26,1403.28 
  
  "/>
<polyline clip-path="url(#clip9602)" style="stroke:#1ea68c; stroke-width:4.8; stroke-opacity:1; fill:none" points="
  251.149,923.513 481.161,1403.28 711.173,1403.28 941.186,1403.28 1171.2,1403.28 1401.21,1403.28 1631.22,1403.28 1861.24,1403.28 2091.25,1403.28 2321.26,1403.28 
  
  "/>
<polyline clip-path="url(#clip9602)" style="stroke:#af78dd; stroke-width:4.8; stroke-opacity:1; fill:none" points="
  251.149,1403.28 481.161,1403.28 711.173,1403.28 941.186,1403.28 1171.2,1403.28 1401.21,1403.28 1631.22,1403.28 1861.24,1403.28 2091.25,1403.28 2321.26,1403.28 
  
  "/>
<polyline clip-path="url(#clip9602)" style="stroke:#868d87; stroke-width:4.8; stroke-opacity:1; fill:none" points="
  251.149,1403.26 481.161,1403.28 711.173,1403.28 941.186,1403.28 1171.2,1403.28 1401.21,1403.28 1631.22,1403.28 1861.24,1403.28 2091.25,1403.28 2321.26,1403.28 
  
  "/>
<polyline clip-path="url(#clip9602)" style="stroke:#47a065; stroke-width:4.8; stroke-opacity:1; fill:none" points="
  251.149,989.507 481.161,1403.28 711.173,1403.28 941.186,1403.28 1171.2,1403.28 1401.21,1403.28 1631.22,1403.28 1861.24,1403.28 2091.25,1403.28 2321.26,1403.28 
  
  "/>
<polyline clip-path="url(#clip9602)" style="stroke:#7683af; stroke-width:4.8; stroke-opacity:1; fill:none" points="
  251.149,1231.59 481.161,1403.28 711.173,1403.28 941.186,1403.28 1171.2,1403.28 1401.21,1403.28 1631.22,1403.28 1861.24,1403.28 2091.25,1403.28 2321.26,1403.28 
  
  "/>
<polyline clip-path="url(#clip9602)" style="stroke:#b08086; stroke-width:4.8; stroke-opacity:1; fill:none" points="
  251.149,1403.28 481.161,1403.28 711.173,1403.28 941.186,1403.28 1171.2,1403.28 1401.21,1403.28 1631.22,1403.28 1861.24,1403.28 2091.25,1403.28 2321.26,1403.28 
  
  "/>
<polyline clip-path="url(#clip9602)" style="stroke:#309ac1; stroke-width:4.8; stroke-opacity:1; fill:none" points="
  251.149,1403.28 481.161,1403.28 711.173,1403.28 941.186,1403.28 1171.2,1403.28 1401.21,1403.28 1631.22,1403.28 1861.24,1403.28 2091.25,1403.28 2321.26,1403.28 
  
  "/>
<polyline clip-path="url(#clip9602)" style="stroke:#788490; stroke-width:4.8; stroke-opacity:1; fill:none" points="
  251.149,1366.82 481.161,1403.28 711.173,1403.28 941.186,1403.28 1171.2,1403.28 1401.21,1403.28 1631.22,1403.28 1861.24,1403.28 2091.25,1403.28 2321.26,1403.28 
  
  "/>
<polyline clip-path="url(#clip9602)" style="stroke:#e561a4; stroke-width:4.8; stroke-opacity:1; fill:none" points="
  251.149,1401.02 481.161,1403.28 711.173,1403.28 941.186,1403.28 1171.2,1403.28 1401.21,1403.28 1631.22,1403.28 1861.24,1403.28 2091.25,1403.28 2321.26,1403.28 
  
  "/>
<polyline clip-path="url(#clip9602)" style="stroke:#99902c; stroke-width:4.8; stroke-opacity:1; fill:none" points="
  251.149,1403.28 481.161,1403.28 711.173,1403.28 941.186,1403.28 1171.2,1403.28 1401.21,1403.28 1631.22,1403.28 1861.24,1403.28 2091.25,1403.28 2321.26,1403.28 
  
  "/>
<polyline clip-path="url(#clip9602)" style="stroke:#389a7b; stroke-width:4.8; stroke-opacity:1; fill:none" points="
  251.149,1403.28 481.161,1403.28 711.173,1403.28 941.186,1403.28 1171.2,1403.28 1401.21,1403.28 1631.22,1403.28 1861.24,1403.28 2091.25,1403.28 2321.26,1403.28 
  
  "/>
<polyline clip-path="url(#clip9602)" style="stroke:#d968a2; stroke-width:4.8; stroke-opacity:1; fill:none" points="
  251.149,1398.43 481.161,1403.28 711.173,1403.28 941.186,1403.28 1171.2,1403.28 1401.21,1403.28 1631.22,1403.28 1861.24,1403.28 2091.25,1403.28 2321.26,1403.28 
  
  "/>
<polyline clip-path="url(#clip9602)" style="stroke:#009af9; stroke-width:4.8; stroke-opacity:1; fill:none" points="
  251.149,1174.54 481.161,1403.28 711.173,1403.28 941.186,1403.28 1171.2,1403.28 1401.21,1403.28 1631.22,1403.28 1861.24,1403.28 2091.25,1403.28 2321.26,1403.28 
  
  "/>
<polyline clip-path="url(#clip9602)" style="stroke:#e26f46; stroke-width:4.8; stroke-opacity:1; fill:none" points="
  251.149,1403.28 481.161,1403.28 711.173,1403.28 941.186,1403.28 1171.2,1403.28 1401.21,1403.28 1631.22,1403.28 1861.24,1403.28 2091.25,1403.28 2321.26,1403.28 
  
  "/>
<polyline clip-path="url(#clip9602)" style="stroke:#3da44d; stroke-width:4.8; stroke-opacity:1; fill:none" points="
  251.149,1403.28 481.161,1403.28 711.173,1403.28 941.186,1403.28 1171.2,1403.28 1401.21,1403.28 1631.22,1403.28 1861.24,1403.28 2091.25,1403.28 2321.26,1403.28 
  
  "/>
<polyline clip-path="url(#clip9602)" style="stroke:#c271d2; stroke-width:4.8; stroke-opacity:1; fill:none" points="
  251.149,1403.28 481.161,1403.28 711.173,1403.28 941.186,1403.28 1171.2,1403.28 1401.21,1403.28 1631.22,1403.28 1861.24,1403.28 2091.25,1403.28 2321.26,1403.28 
  
  "/>
<polyline clip-path="url(#clip9602)" style="stroke:#ac8d18; stroke-width:4.8; stroke-opacity:1; fill:none" points="
  251.149,1403.28 481.161,1403.28 711.173,1403.28 941.186,1403.28 1171.2,1403.28 1401.21,1403.28 1631.22,1403.28 1861.24,1403.28 2091.25,1403.28 2321.26,1403.28 
  
  "/>
<polyline clip-path="url(#clip9602)" style="stroke:#00a9ad; stroke-width:4.8; stroke-opacity:1; fill:none" points="
  251.149,1403.28 481.161,1403.28 711.173,1403.28 941.186,1403.28 1171.2,1403.28 1401.21,1403.28 1631.22,1403.28 1861.24,1403.28 2091.25,1403.28 2321.26,1403.28 
  
  "/>
<polyline clip-path="url(#clip9602)" style="stroke:#ed5d92; stroke-width:4.8; stroke-opacity:1; fill:none" points="
  251.149,1403.28 481.161,1403.28 711.173,1403.28 941.186,1403.28 1171.2,1403.28 1401.21,1403.28 1631.22,1403.28 1861.24,1403.28 2091.25,1403.28 2321.26,1403.28 
  
  "/>
<polyline clip-path="url(#clip9602)" style="stroke:#c68125; stroke-width:4.8; stroke-opacity:1; fill:none" points="
  251.149,1403.28 481.161,1403.28 711.173,1403.28 941.186,1403.28 1171.2,1403.28 1401.21,1403.28 1631.22,1403.28 1861.24,1403.28 2091.25,1403.28 2321.26,1403.28 
  
  "/>
<polyline clip-path="url(#clip9602)" style="stroke:#00a98d; stroke-width:4.8; stroke-opacity:1; fill:none" points="
  251.149,1403.28 481.161,1403.28 711.173,1403.28 941.186,1403.28 1171.2,1403.28 1401.21,1403.28 1631.22,1403.28 1861.24,1403.28 2091.25,1403.28 2321.26,1403.28 
  
  "/>
<polyline clip-path="url(#clip9602)" style="stroke:#8e971d; stroke-width:4.8; stroke-opacity:1; fill:none" points="
  251.149,1403.28 481.161,1403.28 711.173,1403.28 941.186,1403.28 1171.2,1403.28 1401.21,1403.28 1631.22,1403.28 1861.24,1403.28 2091.25,1403.28 2321.26,1403.28 
  
  "/>
<polyline clip-path="url(#clip9602)" style="stroke:#00a8cb; stroke-width:4.8; stroke-opacity:1; fill:none" points="
  251.149,1398.34 481.161,1397.47 711.173,1397.11 941.186,1396.77 1171.2,1396.35 1401.21,1395.48 1631.22,1395.06 1861.24,1393.75 2091.25,1393.15 2321.26,1385.96 
  
  "/>
<polygon clip-path="url(#clip9600)" points="
1851.43,632.864 2249.26,632.864 2249.26,209.504 1851.43,209.504 
  " fill="#ffffff" fill-rule="evenodd" fill-opacity="1"/>
<polyline clip-path="url(#clip9600)" style="stroke:#000000; stroke-width:4; stroke-opacity:1; fill:none" points="
  1851.43,632.864 2249.26,632.864 2249.26,209.504 1851.43,209.504 1851.43,632.864 
  "/>
<g clip-path="url(#clip9600)">
<text style="fill:#000000; fill-opacity:1; font-family:Arial,Helvetica Neue,Helvetica,sans-serif; font-size:48px; text-anchor:middle;" transform="rotate(0, 2050.34, 287.484)" x="2050.34" y="287.484">ranking</text>
</g>
<polyline clip-path="url(#clip9600)" style="stroke:#009af9; stroke-width:4.8; stroke-opacity:1; fill:none" points="
  1875.43,330.464 2019.43,330.464 
  "/>
<g clip-path="url(#clip9600)">
<text style="fill:#000000; fill-opacity:1; font-family:Symbol; font-size:52px; text-anchor:start;" transform="rotate(0, 2043.43, 354.192)" x="2043.43" y="354.192">σ</text>
</g>
<g clip-path="url(#clip9600)">
<text style="fill:#000000; fill-opacity:1; font-family:Arial,Helvetica Neue,Helvetica,sans-serif; font-size:38px; text-anchor:start;" transform="rotate(0, 2074.67, 326.781)" x="2074.67" y="326.781">2</text>
</g>
<g clip-path="url(#clip9600)">
<text style="fill:#000000; fill-opacity:1; font-family:Arial,Helvetica Neue,Helvetica,sans-serif; font-size:48px; text-anchor:start;" transform="rotate(0, 2096.42, 354.192)" x="2096.42" y="354.192">[40]</text>
</g>
<polyline clip-path="url(#clip9600)" style="stroke:#e26f46; stroke-width:4.8; stroke-opacity:1; fill:none" points="
  1875.43,390.944 2019.43,390.944 
  "/>
<g clip-path="url(#clip9600)">
<text style="fill:#000000; fill-opacity:1; font-family:Symbol; font-size:52px; text-anchor:start;" transform="rotate(0, 2043.43, 414.672)" x="2043.43" y="414.672">σ</text>
</g>
<g clip-path="url(#clip9600)">
<text style="fill:#000000; fill-opacity:1; font-family:Arial,Helvetica Neue,Helvetica,sans-serif; font-size:38px; text-anchor:start;" transform="rotate(0, 2074.67, 387.261)" x="2074.67" y="387.261">2</text>
</g>
<g clip-path="url(#clip9600)">
<text style="fill:#000000; fill-opacity:1; font-family:Arial,Helvetica Neue,Helvetica,sans-serif; font-size:48px; text-anchor:start;" transform="rotate(0, 2096.42, 414.672)" x="2096.42" y="414.672">[1]</text>
</g>
<polyline clip-path="url(#clip9600)" style="stroke:#3da44d; stroke-width:4.8; stroke-opacity:1; fill:none" points="
  1875.43,451.424 2019.43,451.424 
  "/>
<g clip-path="url(#clip9600)">
<text style="fill:#000000; fill-opacity:1; font-family:Symbol; font-size:52px; text-anchor:start;" transform="rotate(0, 2043.43, 475.152)" x="2043.43" y="475.152">σ</text>
</g>
<g clip-path="url(#clip9600)">
<text style="fill:#000000; fill-opacity:1; font-family:Arial,Helvetica Neue,Helvetica,sans-serif; font-size:38px; text-anchor:start;" transform="rotate(0, 2074.67, 447.741)" x="2074.67" y="447.741">2</text>
</g>
<g clip-path="url(#clip9600)">
<text style="fill:#000000; fill-opacity:1; font-family:Arial,Helvetica Neue,Helvetica,sans-serif; font-size:48px; text-anchor:start;" transform="rotate(0, 2096.42, 475.152)" x="2096.42" y="475.152">[20]</text>
</g>
<polyline clip-path="url(#clip9600)" style="stroke:#c271d2; stroke-width:4.8; stroke-opacity:1; fill:none" points="
  1875.43,511.904 2019.43,511.904 
  "/>
<g clip-path="url(#clip9600)">
<text style="fill:#000000; fill-opacity:1; font-family:Symbol; font-size:52px; text-anchor:start;" transform="rotate(0, 2043.43, 535.632)" x="2043.43" y="535.632">σ</text>
</g>
<g clip-path="url(#clip9600)">
<text style="fill:#000000; fill-opacity:1; font-family:Arial,Helvetica Neue,Helvetica,sans-serif; font-size:38px; text-anchor:start;" transform="rotate(0, 2074.67, 508.221)" x="2074.67" y="508.221">2</text>
</g>
<g clip-path="url(#clip9600)">
<text style="fill:#000000; fill-opacity:1; font-family:Arial,Helvetica Neue,Helvetica,sans-serif; font-size:48px; text-anchor:start;" transform="rotate(0, 2096.42, 535.632)" x="2096.42" y="535.632">[30]</text>
</g>
<polyline clip-path="url(#clip9600)" style="stroke:#ac8d18; stroke-width:4.8; stroke-opacity:1; fill:none" points="
  1875.43,572.384 2019.43,572.384 
  "/>
<g clip-path="url(#clip9600)">
<text style="fill:#000000; fill-opacity:1; font-family:Symbol; font-size:52px; text-anchor:start;" transform="rotate(0, 2043.43, 596.112)" x="2043.43" y="596.112">σ</text>
</g>
<g clip-path="url(#clip9600)">
<text style="fill:#000000; fill-opacity:1; font-family:Arial,Helvetica Neue,Helvetica,sans-serif; font-size:38px; text-anchor:start;" transform="rotate(0, 2074.67, 568.701)" x="2074.67" y="568.701">2</text>
</g>
<g clip-path="url(#clip9600)">
<text style="fill:#000000; fill-opacity:1; font-family:Arial,Helvetica Neue,Helvetica,sans-serif; font-size:48px; text-anchor:start;" transform="rotate(0, 2096.42, 596.112)" x="2096.42" y="596.112">[11]</text>
</g>
</svg>
