<?xml version="1.0" encoding="utf-8"?>
<svg xmlns="http://www.w3.org/2000/svg" xmlns:xlink="http://www.w3.org/1999/xlink" width="600" height="400" viewBox="0 0 2400 1600">
<defs>
  <clipPath id="clip2600">
    <rect x="0" y="0" width="2400" height="1600"/>
  </clipPath>
</defs>
<polygon clip-path="url(#clip2600)" points="
0,1600 2400,1600 2400,0 0,0 
  " fill="#ffffff" fill-rule="evenodd" fill-opacity="1"/>
<defs>
  <clipPath id="clip2601">
    <rect x="480" y="0" width="1681" height="1600"/>
  </clipPath>
</defs>
<polygon clip-path="url(#clip2600)" points="
251.149,1440.48 2321.26,1440.48 2321.26,125.984 251.149,125.984 
  " fill="#ffffff" fill-rule="evenodd" fill-opacity="1"/>
<defs>
  <clipPath id="clip2602">
    <rect x="251" y="125" width="2071" height="1315"/>
  </clipPath>
</defs>
<polyline clip-path="url(#clip2602)" style="stroke:#000000; stroke-width:2; stroke-opacity:0.1; fill:none" points="
  251.149,1440.48 251.149,125.984 
  "/>
<polyline clip-path="url(#clip2602)" style="stroke:#000000; stroke-width:2; stroke-opacity:0.1; fill:none" points="
  787.331,1440.48 787.331,125.984 
  "/>
<polyline clip-path="url(#clip2602)" style="stroke:#000000; stroke-width:2; stroke-opacity:0.1; fill:none" points="
  1323.51,1440.48 1323.51,125.984 
  "/>
<polyline clip-path="url(#clip2602)" style="stroke:#000000; stroke-width:2; stroke-opacity:0.1; fill:none" points="
  1859.7,1440.48 1859.7,125.984 
  "/>
<polyline clip-path="url(#clip2602)" style="stroke:#000000; stroke-width:2; stroke-opacity:0.1; fill:none" points="
  251.149,1403.28 2321.26,1403.28 
  "/>
<polyline clip-path="url(#clip2602)" style="stroke:#000000; stroke-width:2; stroke-opacity:0.1; fill:none" points="
  251.149,1103.7 2321.26,1103.7 
  "/>
<polyline clip-path="url(#clip2602)" style="stroke:#000000; stroke-width:2; stroke-opacity:0.1; fill:none" points="
  251.149,804.122 2321.26,804.122 
  "/>
<polyline clip-path="url(#clip2602)" style="stroke:#000000; stroke-width:2; stroke-opacity:0.1; fill:none" points="
  251.149,504.543 2321.26,504.543 
  "/>
<polyline clip-path="url(#clip2602)" style="stroke:#000000; stroke-width:2; stroke-opacity:0.1; fill:none" points="
  251.149,204.964 2321.26,204.964 
  "/>
<polyline clip-path="url(#clip2600)" style="stroke:#000000; stroke-width:4; stroke-opacity:1; fill:none" points="
  251.149,1440.48 2321.26,1440.48 
  "/>
<polyline clip-path="url(#clip2600)" style="stroke:#000000; stroke-width:4; stroke-opacity:1; fill:none" points="
  251.149,1440.48 251.149,125.984 
  "/>
<polyline clip-path="url(#clip2600)" style="stroke:#000000; stroke-width:4; stroke-opacity:1; fill:none" points="
  251.149,1440.48 251.149,1420.77 
  "/>
<polyline clip-path="url(#clip2600)" style="stroke:#000000; stroke-width:4; stroke-opacity:1; fill:none" points="
  787.331,1440.48 787.331,1420.77 
  "/>
<polyline clip-path="url(#clip2600)" style="stroke:#000000; stroke-width:4; stroke-opacity:1; fill:none" points="
  1323.51,1440.48 1323.51,1420.77 
  "/>
<polyline clip-path="url(#clip2600)" style="stroke:#000000; stroke-width:4; stroke-opacity:1; fill:none" points="
  1859.7,1440.48 1859.7,1420.77 
  "/>
<polyline clip-path="url(#clip2600)" style="stroke:#000000; stroke-width:4; stroke-opacity:1; fill:none" points="
  251.149,1403.28 282.2,1403.28 
  "/>
<polyline clip-path="url(#clip2600)" style="stroke:#000000; stroke-width:4; stroke-opacity:1; fill:none" points="
  251.149,1103.7 282.2,1103.7 
  "/>
<polyline clip-path="url(#clip2600)" style="stroke:#000000; stroke-width:4; stroke-opacity:1; fill:none" points="
  251.149,804.122 282.2,804.122 
  "/>
<polyline clip-path="url(#clip2600)" style="stroke:#000000; stroke-width:4; stroke-opacity:1; fill:none" points="
  251.149,504.543 282.2,504.543 
  "/>
<polyline clip-path="url(#clip2600)" style="stroke:#000000; stroke-width:4; stroke-opacity:1; fill:none" points="
  251.149,204.964 282.2,204.964 
  "/>
<g clip-path="url(#clip2600)">
<text style="fill:#000000; fill-opacity:1; font-family:Arial,Helvetica Neue,Helvetica,sans-serif; font-size:48px; text-anchor:middle;" transform="rotate(0, 251.149, 1494.48)" x="251.149" y="1494.48">0</text>
</g>
<g clip-path="url(#clip2600)">
<text style="fill:#000000; fill-opacity:1; font-family:Arial,Helvetica Neue,Helvetica,sans-serif; font-size:48px; text-anchor:middle;" transform="rotate(0, 787.331, 1494.48)" x="787.331" y="1494.48">20</text>
</g>
<g clip-path="url(#clip2600)">
<text style="fill:#000000; fill-opacity:1; font-family:Arial,Helvetica Neue,Helvetica,sans-serif; font-size:48px; text-anchor:middle;" transform="rotate(0, 1323.51, 1494.48)" x="1323.51" y="1494.48">40</text>
</g>
<g clip-path="url(#clip2600)">
<text style="fill:#000000; fill-opacity:1; font-family:Arial,Helvetica Neue,Helvetica,sans-serif; font-size:48px; text-anchor:middle;" transform="rotate(0, 1859.7, 1494.48)" x="1859.7" y="1494.48">60</text>
</g>
<g clip-path="url(#clip2600)">
<text style="fill:#000000; fill-opacity:1; font-family:Arial,Helvetica Neue,Helvetica,sans-serif; font-size:48px; text-anchor:end;" transform="rotate(0, 227.149, 1420.78)" x="227.149" y="1420.78">0.0</text>
</g>
<g clip-path="url(#clip2600)">
<text style="fill:#000000; fill-opacity:1; font-family:Arial,Helvetica Neue,Helvetica,sans-serif; font-size:48px; text-anchor:end;" transform="rotate(0, 227.149, 1121.2)" x="227.149" y="1121.2">2.5</text>
</g>
<g clip-path="url(#clip2600)">
<text style="fill:#000000; fill-opacity:1; font-family:Arial,Helvetica Neue,Helvetica,sans-serif; font-size:48px; text-anchor:end;" transform="rotate(0, 227.149, 821.622)" x="227.149" y="821.622">5.0</text>
</g>
<g clip-path="url(#clip2600)">
<text style="fill:#000000; fill-opacity:1; font-family:Arial,Helvetica Neue,Helvetica,sans-serif; font-size:48px; text-anchor:end;" transform="rotate(0, 227.149, 522.043)" x="227.149" y="522.043">7.5</text>
</g>
<g clip-path="url(#clip2600)">
<text style="fill:#000000; fill-opacity:1; font-family:Arial,Helvetica Neue,Helvetica,sans-serif; font-size:48px; text-anchor:end;" transform="rotate(0, 227.149, 222.464)" x="227.149" y="222.464">10.0</text>
</g>
<g clip-path="url(#clip2600)">
<text style="fill:#000000; fill-opacity:1; font-family:Arial,Helvetica Neue,Helvetica,sans-serif; font-size:84px; text-anchor:start;" transform="rotate(0, 629.667, 74.9952)" x="629.667" y="74.9952">Solution Path (MCP penalty, </text>
</g>
<g clip-path="url(#clip2600)">
<text style="fill:#000000; fill-opacity:1; font-family:Symbol; font-size:91px; text-anchor:start;" transform="rotate(0, 1711.15, 74.9952)" x="1711.15" y="74.9952">γ</text>
</g>
<g clip-path="url(#clip2600)">
<text style="fill:#000000; fill-opacity:1; font-family:Arial,Helvetica Neue,Helvetica,sans-serif; font-size:84px; text-anchor:start;" transform="rotate(0, 1748.41, 74.9952)" x="1748.41" y="74.9952">=2.0)</text>
</g>
<g clip-path="url(#clip2600)">
<text style="fill:#000000; fill-opacity:1; font-family:Symbol; font-size:72px; text-anchor:start;" transform="rotate(0, 1266.65, 1584.32)" x="1266.65" y="1584.32">λ</text>
</g>
<g clip-path="url(#clip2600)">
<text style="fill:#000000; fill-opacity:1; font-family:Symbol; font-size:72px; text-anchor:start;" transform="rotate(-90, 157.783, 819.663)" x="157.783" y="819.663">σ</text>
</g>
<g clip-path="url(#clip2600)">
<text style="fill:#000000; fill-opacity:1; font-family:Arial,Helvetica Neue,Helvetica,sans-serif; font-size:53px; text-anchor:start;" transform="rotate(-90, 120.094, 776.703)" x="120.094" y="776.703">2</text>
</g>
<polyline clip-path="url(#clip2602)" style="stroke:#009af9; stroke-width:2.4; stroke-opacity:1; fill:none" points="
  251.149,163.187 272.059,179.264 292.969,167.164 313.879,527.022 334.789,722.948 355.7,832.019 376.61,908.077 397.52,963.046 418.43,1005.04 439.34,1038.41 
  460.251,1065.7 481.161,1088.53 502.071,1107.99 522.981,1124.8 543.892,1139.53 564.802,1152.56 585.712,1164.21 606.622,1174.69 627.532,1184.2 648.443,1192.89 
  669.353,1200.87 690.263,1208.24 711.173,1215.1 732.083,1221.52 752.994,1227.57 773.904,1233.34 794.814,1239 815.724,1244.97 836.635,1257.69 857.545,1261.46 
  878.455,1265.02 899.365,1268.39 920.275,1271.6 941.186,1274.64 962.096,1277.55 983.006,1280.32 1003.92,1282.96 1024.83,1285.5 1045.74,1287.93 1066.65,1290.26 
  1087.56,1292.5 1108.47,1294.66 1129.38,1296.75 1150.29,1298.76 1171.2,1300.71 1192.11,1302.61 1213.02,1304.47 1233.93,1307.7 1254.84,1309.34 1275.75,1310.93 
  1296.66,1312.47 1317.57,1313.97 1338.48,1315.41 1359.39,1316.82 1380.3,1318.19 1401.21,1319.52 1422.12,1320.81 1443.03,1322.07 1463.94,1323.3 1484.85,1324.5 
  1505.76,1325.67 1526.67,1326.81 1547.58,1327.92 1568.49,1329.01 1589.4,1330.07 1610.31,1331.12 1631.22,1332.13 1652.13,1333.13 1673.04,1334.11 1693.95,1335.07 
  1714.86,1336.01 1735.77,1336.93 1756.68,1337.84 1777.59,1338.73 1798.5,1339.6 1819.41,1340.47 1840.32,1341.31 1861.24,1342.15 1882.15,1342.97 1903.06,1343.78 
  1923.97,1344.58 1944.88,1345.37 1965.79,1346.16 1986.7,1346.93 2007.61,1347.69 2028.52,1348.45 2049.43,1349.21 2070.34,1349.95 2091.25,1350.7 2112.16,1351.44 
  2133.07,1352.17 2153.98,1352.91 2174.89,1353.65 2195.8,1354.4 2216.71,1355.15 2237.62,1367.34 2258.53,1377.82 2279.44,1378.24 2300.35,1378.64 2321.26,1379.04 
  
  "/>
<polyline clip-path="url(#clip2602)" style="stroke:#e26f46; stroke-width:2.4; stroke-opacity:1; fill:none" points="
  251.149,733.09 272.059,735.983 292.969,769.565 313.879,783.927 334.789,847.186 355.7,892.862 376.61,938.447 397.52,976.235 418.43,1008.17 439.34,1035.58 
  460.251,1059.4 481.161,1080.3 502.071,1098.82 522.981,1115.33 543.892,1130.16 564.802,1143.55 585.712,1155.71 606.622,1166.79 627.532,1176.93 648.443,1186.24 
  669.353,1194.82 690.263,1202.75 711.173,1210.08 732.083,1216.88 752.994,1223.17 773.904,1228.99 794.814,1234.26 815.724,1238.71 836.635,1239.25 857.545,1244.33 
  878.455,1249.11 899.365,1253.63 920.275,1257.9 941.186,1261.94 962.096,1265.77 983.006,1269.4 1003.92,1272.85 1024.83,1276.13 1045.74,1279.25 1066.65,1282.22 
  1087.56,1285.05 1108.47,1287.73 1129.38,1290.28 1150.29,1292.68 1171.2,1294.95 1192.11,1297.04 1213.02,1298.91 1233.93,1287.2 1254.84,1289.99 1275.75,1292.68 
  1296.66,1295.28 1317.57,1297.79 1338.48,1300.21 1359.39,1302.56 1380.3,1304.83 1401.21,1307.04 1422.12,1309.17 1443.03,1311.24 1463.94,1313.25 1484.85,1315.21 
  1505.76,1317.1 1526.67,1318.95 1547.58,1320.75 1568.49,1322.49 1589.4,1324.2 1610.31,1325.86 1631.22,1327.48 1652.13,1329.06 1673.04,1330.6 1693.95,1332.1 
  1714.86,1333.58 1735.77,1335.02 1756.68,1336.43 1777.59,1337.81 1798.5,1339.16 1819.41,1340.48 1840.32,1341.78 1861.24,1343.06 1882.15,1344.31 1903.06,1345.54 
  1923.97,1346.76 1944.88,1347.95 1965.79,1349.12 1986.7,1350.28 2007.61,1351.42 2028.52,1352.56 2049.43,1353.67 2070.34,1354.78 2091.25,1355.88 2112.16,1356.97 
  2133.07,1358.05 2153.98,1359.13 2174.89,1360.22 2195.8,1361.3 2216.71,1362.39 2237.62,1381.65 2258.53,1403.28 2279.44,1403.28 2300.35,1403.28 2321.26,1403.28 
  
  "/>
<polyline clip-path="url(#clip2602)" style="stroke:#3da44d; stroke-width:2.4; stroke-opacity:1; fill:none" points="
  251.149,1231.59 272.059,1233.19 292.969,1269.07 313.879,1273.91 334.789,1287.33 355.7,1295.07 376.61,1303.7 397.52,1310.61 418.43,1316.23 439.34,1320.86 
  460.251,1324.69 481.161,1327.86 502.071,1330.49 522.981,1332.67 543.892,1334.45 564.802,1335.88 585.712,1337.01 606.622,1337.86 627.532,1338.45 648.443,1338.79 
  669.353,1338.88 690.263,1338.72 711.173,1338.26 732.083,1337.46 752.994,1336.22 773.904,1334.31 794.814,1331.03 815.724,1323.86 836.635,1252.51 857.545,1256.59 
  878.455,1260.48 899.365,1264.17 920.275,1267.69 941.186,1271.04 962.096,1274.25 983.006,1277.33 1003.92,1280.27 1024.83,1283.1 1045.74,1285.83 1066.65,1288.45 
  1087.56,1290.98 1108.47,1293.42 1129.38,1295.79 1150.29,1298.09 1171.2,1300.32 1192.11,1302.49 1213.02,1304.62 1233.93,1308.45 1254.84,1310.52 1275.75,1312.51 
  1296.66,1314.44 1317.57,1316.32 1338.48,1318.14 1359.39,1319.92 1380.3,1321.64 1401.21,1323.32 1422.12,1324.96 1443.03,1326.55 1463.94,1328.11 1484.85,1329.63 
  1505.76,1331.11 1526.67,1332.56 1547.58,1333.98 1568.49,1335.37 1589.4,1336.73 1610.31,1338.07 1631.22,1339.38 1652.13,1340.66 1673.04,1341.92 1693.95,1343.17 
  1714.86,1344.39 1735.77,1345.59 1756.68,1346.77 1777.59,1347.94 1798.5,1349.09 1819.41,1350.22 1840.32,1351.35 1861.24,1352.46 1882.15,1353.56 1903.06,1354.65 
  1923.97,1355.73 1944.88,1356.8 1965.79,1357.87 1986.7,1358.93 2007.61,1359.99 2028.52,1361.05 2049.43,1362.11 2070.34,1363.17 2091.25,1364.24 2112.16,1365.31 
  2133.07,1366.4 2153.98,1367.5 2174.89,1368.62 2195.8,1369.76 2216.71,1370.94 2237.62,1403.28 2258.53,1403.28 2279.44,1403.28 2300.35,1403.28 2321.26,1403.28 
  
  "/>
<polyline clip-path="url(#clip2602)" style="stroke:#c271d2; stroke-width:2.4; stroke-opacity:1; fill:none" points="
  251.149,649.094 272.059,639.057 292.969,697.979 313.879,785.048 334.789,893.496 355.7,981.278 376.61,1033.74 397.52,1075.69 418.43,1110.1 439.34,1138.88 
  460.251,1163.32 481.161,1184.34 502.071,1202.62 522.981,1218.67 543.892,1232.87 564.802,1245.52 585.712,1256.86 606.622,1267.09 627.532,1276.36 648.443,1284.8 
  669.353,1292.52 690.263,1299.59 711.173,1306.1 732.083,1312.11 752.994,1317.67 773.904,1322.81 794.814,1327.57 815.724,1331.93 836.635,1333.11 857.545,1336.89 
  878.455,1340.45 899.365,1343.83 920.275,1347.06 941.186,1350.13 962.096,1353.08 983.006,1355.91 1003.92,1358.64 1024.83,1361.27 1045.74,1363.82 1066.65,1366.3 
  1087.56,1368.73 1108.47,1371.13 1129.38,1373.5 1150.29,1375.89 1171.2,1378.32 1192.11,1380.89 1213.02,1383.79 1233.93,1403.28 1254.84,1403.28 1275.75,1403.28 
  1296.66,1403.28 1317.57,1403.28 1338.48,1403.28 1359.39,1403.28 1380.3,1403.28 1401.21,1403.28 1422.12,1403.28 1443.03,1403.28 1463.94,1403.28 1484.85,1403.28 
  1505.76,1403.28 1526.67,1403.28 1547.58,1403.28 1568.49,1403.28 1589.4,1403.28 1610.31,1403.28 1631.22,1403.28 1652.13,1403.28 1673.04,1403.28 1693.95,1403.28 
  1714.86,1403.28 1735.77,1403.28 1756.68,1403.28 1777.59,1403.28 1798.5,1403.28 1819.41,1403.28 1840.32,1403.28 1861.24,1403.28 1882.15,1403.28 1903.06,1403.28 
  1923.97,1403.28 1944.88,1403.28 1965.79,1403.28 1986.7,1403.28 2007.61,1403.28 2028.52,1403.28 2049.43,1403.28 2070.34,1403.28 2091.25,1403.28 2112.16,1403.28 
  2133.07,1403.28 2153.98,1403.28 2174.89,1403.28 2195.8,1403.28 2216.71,1403.28 2237.62,1403.28 2258.53,1403.28 2279.44,1403.28 2300.35,1403.28 2321.26,1403.28 
  
  "/>
<polyline clip-path="url(#clip2602)" style="stroke:#ac8d18; stroke-width:2.4; stroke-opacity:1; fill:none" points="
  251.149,989.507 272.059,746.006 292.969,839.507 313.879,1045.5 334.789,1088.25 355.7,1120.93 376.61,1150.34 397.52,1174.11 418.43,1193.9 439.34,1210.78 
  460.251,1225.44 481.161,1238.37 502.071,1249.92 522.981,1260.34 543.892,1269.85 564.802,1278.56 585.712,1286.63 606.622,1294.13 627.532,1301.15 648.443,1307.76 
  669.353,1314.03 690.263,1320.01 711.173,1325.79 732.083,1331.42 752.994,1337.01 773.904,1342.74 794.814,1349.03 815.724,1357.47 836.635,1403.28 857.545,1403.28 
  878.455,1403.28 899.365,1403.28 920.275,1403.28 941.186,1403.28 962.096,1403.28 983.006,1403.28 1003.92,1403.28 1024.83,1403.28 1045.74,1403.28 1066.65,1403.28 
  1087.56,1403.28 1108.47,1403.28 1129.38,1403.28 1150.29,1403.28 1171.2,1403.28 1192.11,1403.28 1213.02,1403.28 1233.93,1403.28 1254.84,1403.28 1275.75,1403.28 
  1296.66,1403.28 1317.57,1403.28 1338.48,1403.28 1359.39,1403.28 1380.3,1403.28 1401.21,1403.28 1422.12,1403.28 1443.03,1403.28 1463.94,1403.28 1484.85,1403.28 
  1505.76,1403.28 1526.67,1403.28 1547.58,1403.28 1568.49,1403.28 1589.4,1403.28 1610.31,1403.28 1631.22,1403.28 1652.13,1403.28 1673.04,1403.28 1693.95,1403.28 
  1714.86,1403.28 1735.77,1403.28 1756.68,1403.28 1777.59,1403.28 1798.5,1403.28 1819.41,1403.28 1840.32,1403.28 1861.24,1403.28 1882.15,1403.28 1903.06,1403.28 
  1923.97,1403.28 1944.88,1403.28 1965.79,1403.28 1986.7,1403.28 2007.61,1403.28 2028.52,1403.28 2049.43,1403.28 2070.34,1403.28 2091.25,1403.28 2112.16,1403.28 
  2133.07,1403.28 2153.98,1403.28 2174.89,1403.28 2195.8,1403.28 2216.71,1403.28 2237.62,1403.28 2258.53,1403.28 2279.44,1403.28 2300.35,1403.28 2321.26,1403.28 
  
  "/>
<polyline clip-path="url(#clip2602)" style="stroke:#00a9ad; stroke-width:2.4; stroke-opacity:1; fill:none" points="
  251.149,780.618 272.059,774.905 292.969,849.763 313.879,947.577 334.789,1043.45 355.7,1098.27 376.61,1150.97 397.52,1191.17 418.43,1222.62 439.34,1247.67 
  460.251,1267.93 481.161,1284.53 502.071,1298.29 522.981,1309.82 543.892,1319.6 564.802,1327.98 585.712,1335.24 606.622,1341.6 627.532,1347.24 648.443,1352.3 
  669.353,1356.89 690.263,1361.11 711.173,1365.06 732.083,1368.84 752.994,1372.55 773.904,1376.39 794.814,1380.87 815.724,1387.43 836.635,1403.28 857.545,1403.28 
  878.455,1403.28 899.365,1403.28 920.275,1403.28 941.186,1403.28 962.096,1403.28 983.006,1403.28 1003.92,1403.28 1024.83,1403.28 1045.74,1403.28 1066.65,1403.28 
  1087.56,1403.28 1108.47,1403.28 1129.38,1403.28 1150.29,1403.28 1171.2,1403.28 1192.11,1403.28 1213.02,1403.28 1233.93,1403.28 1254.84,1403.28 1275.75,1403.28 
  1296.66,1403.28 1317.57,1403.28 1338.48,1403.28 1359.39,1403.28 1380.3,1403.28 1401.21,1403.28 1422.12,1403.28 1443.03,1403.28 1463.94,1403.28 1484.85,1403.28 
  1505.76,1403.28 1526.67,1403.28 1547.58,1403.28 1568.49,1403.28 1589.4,1403.28 1610.31,1403.28 1631.22,1403.28 1652.13,1403.28 1673.04,1403.28 1693.95,1403.28 
  1714.86,1403.28 1735.77,1403.28 1756.68,1403.28 1777.59,1403.28 1798.5,1403.28 1819.41,1403.28 1840.32,1403.28 1861.24,1403.28 1882.15,1403.28 1903.06,1403.28 
  1923.97,1403.28 1944.88,1403.28 1965.79,1403.28 1986.7,1403.28 2007.61,1403.28 2028.52,1403.28 2049.43,1403.28 2070.34,1403.28 2091.25,1403.28 2112.16,1403.28 
  2133.07,1403.28 2153.98,1403.28 2174.89,1403.28 2195.8,1403.28 2216.71,1403.28 2237.62,1403.28 2258.53,1403.28 2279.44,1403.28 2300.35,1403.28 2321.26,1403.28 
  
  "/>
<polyline clip-path="url(#clip2602)" style="stroke:#ed5d92; stroke-width:2.4; stroke-opacity:1; fill:none" points="
  251.149,1174.54 272.059,1198.29 292.969,1258.82 313.879,1281.17 334.789,1337.19 355.7,1403.28 376.61,1403.28 397.52,1403.28 418.43,1403.28 439.34,1403.28 
  460.251,1403.28 481.161,1403.28 502.071,1403.28 522.981,1403.28 543.892,1403.28 564.802,1403.28 585.712,1403.28 606.622,1403.28 627.532,1403.28 648.443,1403.28 
  669.353,1403.28 690.263,1403.28 711.173,1403.28 732.083,1403.28 752.994,1403.28 773.904,1403.28 794.814,1403.28 815.724,1403.28 836.635,1403.28 857.545,1403.28 
  878.455,1403.28 899.365,1403.28 920.275,1403.28 941.186,1403.28 962.096,1403.28 983.006,1403.28 1003.92,1403.28 1024.83,1403.28 1045.74,1403.28 1066.65,1403.28 
  1087.56,1403.28 1108.47,1403.28 1129.38,1403.28 1150.29,1403.28 1171.2,1403.28 1192.11,1403.28 1213.02,1403.28 1233.93,1403.28 1254.84,1403.28 1275.75,1403.28 
  1296.66,1403.28 1317.57,1403.28 1338.48,1403.28 1359.39,1403.28 1380.3,1403.28 1401.21,1403.28 1422.12,1403.28 1443.03,1403.28 1463.94,1403.28 1484.85,1403.28 
  1505.76,1403.28 1526.67,1403.28 1547.58,1403.28 1568.49,1403.28 1589.4,1403.28 1610.31,1403.28 1631.22,1403.28 1652.13,1403.28 1673.04,1403.28 1693.95,1403.28 
  1714.86,1403.28 1735.77,1403.28 1756.68,1403.28 1777.59,1403.28 1798.5,1403.28 1819.41,1403.28 1840.32,1403.28 1861.24,1403.28 1882.15,1403.28 1903.06,1403.28 
  1923.97,1403.28 1944.88,1403.28 1965.79,1403.28 1986.7,1403.28 2007.61,1403.28 2028.52,1403.28 2049.43,1403.28 2070.34,1403.28 2091.25,1403.28 2112.16,1403.28 
  2133.07,1403.28 2153.98,1403.28 2174.89,1403.28 2195.8,1403.28 2216.71,1403.28 2237.62,1403.28 2258.53,1403.28 2279.44,1403.28 2300.35,1403.28 2321.26,1403.28 
  
  "/>
<polyline clip-path="url(#clip2602)" style="stroke:#c68125; stroke-width:2.4; stroke-opacity:1; fill:none" points="
  251.149,923.513 272.059,733.276 292.969,975.866 313.879,1403.28 334.789,1403.28 355.7,1403.28 376.61,1403.28 397.52,1403.28 418.43,1403.28 439.34,1403.28 
  460.251,1403.28 481.161,1403.28 502.071,1403.28 522.981,1403.28 543.892,1403.28 564.802,1403.28 585.712,1403.28 606.622,1403.28 627.532,1403.28 648.443,1403.28 
  669.353,1403.28 690.263,1403.28 711.173,1403.28 732.083,1403.28 752.994,1403.28 773.904,1403.28 794.814,1403.28 815.724,1403.28 836.635,1403.28 857.545,1403.28 
  878.455,1403.28 899.365,1403.28 920.275,1403.28 941.186,1403.28 962.096,1403.28 983.006,1403.28 1003.92,1403.28 1024.83,1403.28 1045.74,1403.28 1066.65,1403.28 
  1087.56,1403.28 1108.47,1403.28 1129.38,1403.28 1150.29,1403.28 1171.2,1403.28 1192.11,1403.28 1213.02,1403.28 1233.93,1403.28 1254.84,1403.28 1275.75,1403.28 
  1296.66,1403.28 1317.57,1403.28 1338.48,1403.28 1359.39,1403.28 1380.3,1403.28 1401.21,1403.28 1422.12,1403.28 1443.03,1403.28 1463.94,1403.28 1484.85,1403.28 
  1505.76,1403.28 1526.67,1403.28 1547.58,1403.28 1568.49,1403.28 1589.4,1403.28 1610.31,1403.28 1631.22,1403.28 1652.13,1403.28 1673.04,1403.28 1693.95,1403.28 
  1714.86,1403.28 1735.77,1403.28 1756.68,1403.28 1777.59,1403.28 1798.5,1403.28 1819.41,1403.28 1840.32,1403.28 1861.24,1403.28 1882.15,1403.28 1903.06,1403.28 
  1923.97,1403.28 1944.88,1403.28 1965.79,1403.28 1986.7,1403.28 2007.61,1403.28 2028.52,1403.28 2049.43,1403.28 2070.34,1403.28 2091.25,1403.28 2112.16,1403.28 
  2133.07,1403.28 2153.98,1403.28 2174.89,1403.28 2195.8,1403.28 2216.71,1403.28 2237.62,1403.28 2258.53,1403.28 2279.44,1403.28 2300.35,1403.28 2321.26,1403.28 
  
  "/>
<polyline clip-path="url(#clip2602)" style="stroke:#00a98d; stroke-width:2.4; stroke-opacity:1; fill:none" points="
  251.149,1403.28 272.059,1403.28 292.969,1403.28 313.879,1403.28 334.789,1403.28 355.7,1403.28 376.61,1403.28 397.52,1403.28 418.43,1403.28 439.34,1403.28 
  460.251,1403.28 481.161,1403.28 502.071,1403.28 522.981,1403.28 543.892,1403.28 564.802,1403.28 585.712,1403.28 606.622,1403.28 627.532,1403.28 648.443,1403.28 
  669.353,1403.28 690.263,1403.28 711.173,1403.28 732.083,1403.28 752.994,1403.28 773.904,1403.28 794.814,1403.28 815.724,1403.28 836.635,1403.28 857.545,1403.28 
  878.455,1403.28 899.365,1403.28 920.275,1403.28 941.186,1403.28 962.096,1403.28 983.006,1403.28 1003.92,1403.28 1024.83,1403.28 1045.74,1403.28 1066.65,1403.28 
  1087.56,1403.28 1108.47,1403.28 1129.38,1403.28 1150.29,1403.28 1171.2,1403.28 1192.11,1403.28 1213.02,1403.28 1233.93,1403.28 1254.84,1403.28 1275.75,1403.28 
  1296.66,1403.28 1317.57,1403.28 1338.48,1403.28 1359.39,1403.28 1380.3,1403.28 1401.21,1403.28 1422.12,1403.28 1443.03,1403.28 1463.94,1403.28 1484.85,1403.28 
  1505.76,1403.28 1526.67,1403.28 1547.58,1403.28 1568.49,1403.28 1589.4,1403.28 1610.31,1403.28 1631.22,1403.28 1652.13,1403.28 1673.04,1403.28 1693.95,1403.28 
  1714.86,1403.28 1735.77,1403.28 1756.68,1403.28 1777.59,1403.28 1798.5,1403.28 1819.41,1403.28 1840.32,1403.28 1861.24,1403.28 1882.15,1403.28 1903.06,1403.28 
  1923.97,1403.28 1944.88,1403.28 1965.79,1403.28 1986.7,1403.28 2007.61,1403.28 2028.52,1403.28 2049.43,1403.28 2070.34,1403.28 2091.25,1403.28 2112.16,1403.28 
  2133.07,1403.28 2153.98,1403.28 2174.89,1403.28 2195.8,1403.28 2216.71,1403.28 2237.62,1403.28 2258.53,1403.28 2279.44,1403.28 2300.35,1403.28 2321.26,1403.28 
  
  "/>
<polyline clip-path="url(#clip2602)" style="stroke:#8e971d; stroke-width:2.4; stroke-opacity:1; fill:none" points="
  251.149,1403.28 272.059,1403.28 292.969,1403.28 313.879,1403.28 334.789,1403.28 355.7,1403.28 376.61,1403.28 397.52,1403.28 418.43,1403.28 439.34,1403.28 
  460.251,1403.28 481.161,1403.28 502.071,1403.28 522.981,1403.28 543.892,1403.28 564.802,1403.28 585.712,1403.28 606.622,1403.28 627.532,1403.28 648.443,1403.28 
  669.353,1403.28 690.263,1403.28 711.173,1403.28 732.083,1403.28 752.994,1403.28 773.904,1403.28 794.814,1403.28 815.724,1403.28 836.635,1403.28 857.545,1403.28 
  878.455,1403.28 899.365,1403.28 920.275,1403.28 941.186,1403.28 962.096,1403.28 983.006,1403.28 1003.92,1403.28 1024.83,1403.28 1045.74,1403.28 1066.65,1403.28 
  1087.56,1403.28 1108.47,1403.28 1129.38,1403.28 1150.29,1403.28 1171.2,1403.28 1192.11,1403.28 1213.02,1403.28 1233.93,1403.28 1254.84,1403.28 1275.75,1403.28 
  1296.66,1403.28 1317.57,1403.28 1338.48,1403.28 1359.39,1403.28 1380.3,1403.28 1401.21,1403.28 1422.12,1403.28 1443.03,1403.28 1463.94,1403.28 1484.85,1403.28 
  1505.76,1403.28 1526.67,1403.28 1547.58,1403.28 1568.49,1403.28 1589.4,1403.28 1610.31,1403.28 1631.22,1403.28 1652.13,1403.28 1673.04,1403.28 1693.95,1403.28 
  1714.86,1403.28 1735.77,1403.28 1756.68,1403.28 1777.59,1403.28 1798.5,1403.28 1819.41,1403.28 1840.32,1403.28 1861.24,1403.28 1882.15,1403.28 1903.06,1403.28 
  1923.97,1403.28 1944.88,1403.28 1965.79,1403.28 1986.7,1403.28 2007.61,1403.28 2028.52,1403.28 2049.43,1403.28 2070.34,1403.28 2091.25,1403.28 2112.16,1403.28 
  2133.07,1403.28 2153.98,1403.28 2174.89,1403.28 2195.8,1403.28 2216.71,1403.28 2237.62,1403.28 2258.53,1403.28 2279.44,1403.28 2300.35,1403.28 2321.26,1403.28 
  
  "/>
<polyline clip-path="url(#clip2602)" style="stroke:#00a8cb; stroke-width:2.4; stroke-opacity:1; fill:none" points="
  251.149,1403.28 272.059,1403.28 292.969,1403.28 313.879,1403.28 334.789,1403.28 355.7,1403.28 376.61,1403.28 397.52,1403.28 418.43,1403.28 439.34,1403.28 
  460.251,1403.28 481.161,1403.28 502.071,1403.28 522.981,1403.28 543.892,1403.28 564.802,1403.28 585.712,1403.28 606.622,1403.28 627.532,1403.28 648.443,1403.28 
  669.353,1403.28 690.263,1403.28 711.173,1403.28 732.083,1403.28 752.994,1403.28 773.904,1403.28 794.814,1403.28 815.724,1403.28 836.635,1403.28 857.545,1403.28 
  878.455,1403.28 899.365,1403.28 920.275,1403.28 941.186,1403.28 962.096,1403.28 983.006,1403.28 1003.92,1403.28 1024.83,1403.28 1045.74,1403.28 1066.65,1403.28 
  1087.56,1403.28 1108.47,1403.28 1129.38,1403.28 1150.29,1403.28 1171.2,1403.28 1192.11,1403.28 1213.02,1403.28 1233.93,1403.28 1254.84,1403.28 1275.75,1403.28 
  1296.66,1403.28 1317.57,1403.28 1338.48,1403.28 1359.39,1403.28 1380.3,1403.28 1401.21,1403.28 1422.12,1403.28 1443.03,1403.28 1463.94,1403.28 1484.85,1403.28 
  1505.76,1403.28 1526.67,1403.28 1547.58,1403.28 1568.49,1403.28 1589.4,1403.28 1610.31,1403.28 1631.22,1403.28 1652.13,1403.28 1673.04,1403.28 1693.95,1403.28 
  1714.86,1403.28 1735.77,1403.28 1756.68,1403.28 1777.59,1403.28 1798.5,1403.28 1819.41,1403.28 1840.32,1403.28 1861.24,1403.28 1882.15,1403.28 1903.06,1403.28 
  1923.97,1403.28 1944.88,1403.28 1965.79,1403.28 1986.7,1403.28 2007.61,1403.28 2028.52,1403.28 2049.43,1403.28 2070.34,1403.28 2091.25,1403.28 2112.16,1403.28 
  2133.07,1403.28 2153.98,1403.28 2174.89,1403.28 2195.8,1403.28 2216.71,1403.28 2237.62,1403.28 2258.53,1403.28 2279.44,1403.28 2300.35,1403.28 2321.26,1403.28 
  
  "/>
<polyline clip-path="url(#clip2602)" style="stroke:#9b7fe8; stroke-width:2.4; stroke-opacity:1; fill:none" points="
  251.149,1403.28 272.059,1403.28 292.969,1403.28 313.879,1403.28 334.789,1403.28 355.7,1403.28 376.61,1403.28 397.52,1403.28 418.43,1403.28 439.34,1403.28 
  460.251,1403.28 481.161,1403.28 502.071,1403.28 522.981,1403.28 543.892,1403.28 564.802,1403.28 585.712,1403.28 606.622,1403.28 627.532,1403.28 648.443,1403.28 
  669.353,1403.28 690.263,1403.28 711.173,1403.28 732.083,1403.28 752.994,1403.28 773.904,1403.28 794.814,1403.28 815.724,1403.28 836.635,1403.28 857.545,1403.28 
  878.455,1403.28 899.365,1403.28 920.275,1403.28 941.186,1403.28 962.096,1403.28 983.006,1403.28 1003.92,1403.28 1024.83,1403.28 1045.74,1403.28 1066.65,1403.28 
  1087.56,1403.28 1108.47,1403.28 1129.38,1403.28 1150.29,1403.28 1171.2,1403.28 1192.11,1403.28 1213.02,1403.28 1233.93,1403.28 1254.84,1403.28 1275.75,1403.28 
  1296.66,1403.28 1317.57,1403.28 1338.48,1403.28 1359.39,1403.28 1380.3,1403.28 1401.21,1403.28 1422.12,1403.28 1443.03,1403.28 1463.94,1403.28 1484.85,1403.28 
  1505.76,1403.28 1526.67,1403.28 1547.58,1403.28 1568.49,1403.28 1589.4,1403.28 1610.31,1403.28 1631.22,1403.28 1652.13,1403.28 1673.04,1403.28 1693.95,1403.28 
  1714.86,1403.28 1735.77,1403.28 1756.68,1403.28 1777.59,1403.28 1798.5,1403.28 1819.41,1403.28 1840.32,1403.28 1861.24,1403.28 1882.15,1403.28 1903.06,1403.28 
  1923.97,1403.28 1944.88,1403.28 1965.79,1403.28 1986.7,1403.28 2007.61,1403.28 2028.52,1403.28 2049.43,1403.28 2070.34,1403.28 2091.25,1403.28 2112.16,1403.28 
  2133.07,1403.28 2153.98,1403.28 2174.89,1403.28 2195.8,1403.28 2216.71,1403.28 2237.62,1403.28 2258.53,1403.28 2279.44,1403.28 2300.35,1403.28 2321.26,1403.28 
  
  "/>
<polyline clip-path="url(#clip2602)" style="stroke:#608cf6; stroke-width:2.4; stroke-opacity:1; fill:none" points="
  251.149,1403.28 272.059,1403.28 292.969,1403.28 313.879,1403.28 334.789,1403.28 355.7,1403.28 376.61,1403.28 397.52,1403.28 418.43,1403.28 439.34,1403.28 
  460.251,1403.28 481.161,1403.28 502.071,1403.28 522.981,1403.28 543.892,1403.28 564.802,1403.28 585.712,1403.28 606.622,1403.28 627.532,1403.28 648.443,1403.28 
  669.353,1403.28 690.263,1403.28 711.173,1403.28 732.083,1403.28 752.994,1403.28 773.904,1403.28 794.814,1403.28 815.724,1403.28 836.635,1403.28 857.545,1403.28 
  878.455,1403.28 899.365,1403.28 920.275,1403.28 941.186,1403.28 962.096,1403.28 983.006,1403.28 1003.92,1403.28 1024.83,1403.28 1045.74,1403.28 1066.65,1403.28 
  1087.56,1403.28 1108.47,1403.28 1129.38,1403.28 1150.29,1403.28 1171.2,1403.28 1192.11,1403.28 1213.02,1403.28 1233.93,1403.28 1254.84,1403.28 1275.75,1403.28 
  1296.66,1403.28 1317.57,1403.28 1338.48,1403.28 1359.39,1403.28 1380.3,1403.28 1401.21,1403.28 1422.12,1403.28 1443.03,1403.28 1463.94,1403.28 1484.85,1403.28 
  1505.76,1403.28 1526.67,1403.28 1547.58,1403.28 1568.49,1403.28 1589.4,1403.28 1610.31,1403.28 1631.22,1403.28 1652.13,1403.28 1673.04,1403.28 1693.95,1403.28 
  1714.86,1403.28 1735.77,1403.28 1756.68,1403.28 1777.59,1403.28 1798.5,1403.28 1819.41,1403.28 1840.32,1403.28 1861.24,1403.28 1882.15,1403.28 1903.06,1403.28 
  1923.97,1403.28 1944.88,1403.28 1965.79,1403.28 1986.7,1403.28 2007.61,1403.28 2028.52,1403.28 2049.43,1403.28 2070.34,1403.28 2091.25,1403.28 2112.16,1403.28 
  2133.07,1403.28 2153.98,1403.28 2174.89,1403.28 2195.8,1403.28 2216.71,1403.28 2237.62,1403.28 2258.53,1403.28 2279.44,1403.28 2300.35,1403.28 2321.26,1403.28 
  
  "/>
<polyline clip-path="url(#clip2602)" style="stroke:#f05f73; stroke-width:2.4; stroke-opacity:1; fill:none" points="
  251.149,1403.28 272.059,1403.28 292.969,1403.28 313.879,1403.28 334.789,1403.28 355.7,1403.28 376.61,1403.28 397.52,1403.28 418.43,1403.28 439.34,1403.28 
  460.251,1403.28 481.161,1403.28 502.071,1403.28 522.981,1403.28 543.892,1403.28 564.802,1403.28 585.712,1403.28 606.622,1403.28 627.532,1403.28 648.443,1403.28 
  669.353,1403.28 690.263,1403.28 711.173,1403.28 732.083,1403.28 752.994,1403.28 773.904,1403.28 794.814,1403.28 815.724,1403.28 836.635,1403.28 857.545,1403.28 
  878.455,1403.28 899.365,1403.28 920.275,1403.28 941.186,1403.28 962.096,1403.28 983.006,1403.28 1003.92,1403.28 1024.83,1403.28 1045.74,1403.28 1066.65,1403.28 
  1087.56,1403.28 1108.47,1403.28 1129.38,1403.28 1150.29,1403.28 1171.2,1403.28 1192.11,1403.28 1213.02,1403.28 1233.93,1403.28 1254.84,1403.28 1275.75,1403.28 
  1296.66,1403.28 1317.57,1403.28 1338.48,1403.28 1359.39,1403.28 1380.3,1403.28 1401.21,1403.28 1422.12,1403.28 1443.03,1403.28 1463.94,1403.28 1484.85,1403.28 
  1505.76,1403.28 1526.67,1403.28 1547.58,1403.28 1568.49,1403.28 1589.4,1403.28 1610.31,1403.28 1631.22,1403.28 1652.13,1403.28 1673.04,1403.28 1693.95,1403.28 
  1714.86,1403.28 1735.77,1403.28 1756.68,1403.28 1777.59,1403.28 1798.5,1403.28 1819.41,1403.28 1840.32,1403.28 1861.24,1403.28 1882.15,1403.28 1903.06,1403.28 
  1923.97,1403.28 1944.88,1403.28 1965.79,1403.28 1986.7,1403.28 2007.61,1403.28 2028.52,1403.28 2049.43,1403.28 2070.34,1403.28 2091.25,1403.28 2112.16,1403.28 
  2133.07,1403.28 2153.98,1403.28 2174.89,1403.28 2195.8,1403.28 2216.71,1403.28 2237.62,1403.28 2258.53,1403.28 2279.44,1403.28 2300.35,1403.28 2321.26,1403.28 
  
  "/>
<polyline clip-path="url(#clip2602)" style="stroke:#dd64b5; stroke-width:2.4; stroke-opacity:1; fill:none" points="
  251.149,1403.28 272.059,1403.28 292.969,1403.28 313.879,1403.28 334.789,1403.28 355.7,1403.28 376.61,1403.28 397.52,1403.28 418.43,1403.28 439.34,1403.28 
  460.251,1403.28 481.161,1403.28 502.071,1403.28 522.981,1403.28 543.892,1403.28 564.802,1403.28 585.712,1403.28 606.622,1403.28 627.532,1403.28 648.443,1403.28 
  669.353,1403.28 690.263,1403.28 711.173,1403.28 732.083,1403.28 752.994,1403.28 773.904,1403.28 794.814,1403.28 815.724,1403.28 836.635,1403.28 857.545,1403.28 
  878.455,1403.28 899.365,1403.28 920.275,1403.28 941.186,1403.28 962.096,1403.28 983.006,1403.28 1003.92,1403.28 1024.83,1403.28 1045.74,1403.28 1066.65,1403.28 
  1087.56,1403.28 1108.47,1403.28 1129.38,1403.28 1150.29,1403.28 1171.2,1403.28 1192.11,1403.28 1213.02,1403.28 1233.93,1403.28 1254.84,1403.28 1275.75,1403.28 
  1296.66,1403.28 1317.57,1403.28 1338.48,1403.28 1359.39,1403.28 1380.3,1403.28 1401.21,1403.28 1422.12,1403.28 1443.03,1403.28 1463.94,1403.28 1484.85,1403.28 
  1505.76,1403.28 1526.67,1403.28 1547.58,1403.28 1568.49,1403.28 1589.4,1403.28 1610.31,1403.28 1631.22,1403.28 1652.13,1403.28 1673.04,1403.28 1693.95,1403.28 
  1714.86,1403.28 1735.77,1403.28 1756.68,1403.28 1777.59,1403.28 1798.5,1403.28 1819.41,1403.28 1840.32,1403.28 1861.24,1403.28 1882.15,1403.28 1903.06,1403.28 
  1923.97,1403.28 1944.88,1403.28 1965.79,1403.28 1986.7,1403.28 2007.61,1403.28 2028.52,1403.28 2049.43,1403.28 2070.34,1403.28 2091.25,1403.28 2112.16,1403.28 
  2133.07,1403.28 2153.98,1403.28 2174.89,1403.28 2195.8,1403.28 2216.71,1403.28 2237.62,1403.28 2258.53,1403.28 2279.44,1403.28 2300.35,1403.28 2321.26,1403.28 
  
  "/>
<polyline clip-path="url(#clip2602)" style="stroke:#6b9e32; stroke-width:2.4; stroke-opacity:1; fill:none" points="
  251.149,1403.28 272.059,1403.28 292.969,1403.28 313.879,1403.28 334.789,1403.28 355.7,1403.28 376.61,1403.28 397.52,1403.28 418.43,1403.28 439.34,1403.28 
  460.251,1403.28 481.161,1403.28 502.071,1403.28 522.981,1403.28 543.892,1403.28 564.802,1403.28 585.712,1403.28 606.622,1403.28 627.532,1403.28 648.443,1403.28 
  669.353,1403.28 690.263,1403.28 711.173,1403.28 732.083,1403.28 752.994,1403.28 773.904,1403.28 794.814,1403.28 815.724,1403.28 836.635,1403.28 857.545,1403.28 
  878.455,1403.28 899.365,1403.28 920.275,1403.28 941.186,1403.28 962.096,1403.28 983.006,1403.28 1003.92,1403.28 1024.83,1403.28 1045.74,1403.28 1066.65,1403.28 
  1087.56,1403.28 1108.47,1403.28 1129.38,1403.28 1150.29,1403.28 1171.2,1403.28 1192.11,1403.28 1213.02,1403.28 1233.93,1403.28 1254.84,1403.28 1275.75,1403.28 
  1296.66,1403.28 1317.57,1403.28 1338.48,1403.28 1359.39,1403.28 1380.3,1403.28 1401.21,1403.28 1422.12,1403.28 1443.03,1403.28 1463.94,1403.28 1484.85,1403.28 
  1505.76,1403.28 1526.67,1403.28 1547.58,1403.28 1568.49,1403.28 1589.4,1403.28 1610.31,1403.28 1631.22,1403.28 1652.13,1403.28 1673.04,1403.28 1693.95,1403.28 
  1714.86,1403.28 1735.77,1403.28 1756.68,1403.28 1777.59,1403.28 1798.5,1403.28 1819.41,1403.28 1840.32,1403.28 1861.24,1403.28 1882.15,1403.28 1903.06,1403.28 
  1923.97,1403.28 1944.88,1403.28 1965.79,1403.28 1986.7,1403.28 2007.61,1403.28 2028.52,1403.28 2049.43,1403.28 2070.34,1403.28 2091.25,1403.28 2112.16,1403.28 
  2133.07,1403.28 2153.98,1403.28 2174.89,1403.28 2195.8,1403.28 2216.71,1403.28 2237.62,1403.28 2258.53,1403.28 2279.44,1403.28 2300.35,1403.28 2321.26,1403.28 
  
  "/>
<polyline clip-path="url(#clip2602)" style="stroke:#718c69; stroke-width:2.4; stroke-opacity:1; fill:none" points="
  251.149,1403.28 272.059,1403.28 292.969,1403.28 313.879,1403.28 334.789,1403.28 355.7,1403.28 376.61,1403.28 397.52,1403.28 418.43,1403.28 439.34,1403.28 
  460.251,1403.28 481.161,1403.28 502.071,1403.28 522.981,1403.28 543.892,1403.28 564.802,1403.28 585.712,1403.28 606.622,1403.28 627.532,1403.28 648.443,1403.28 
  669.353,1403.28 690.263,1403.28 711.173,1403.28 732.083,1403.28 752.994,1403.28 773.904,1403.28 794.814,1403.28 815.724,1403.28 836.635,1403.28 857.545,1403.28 
  878.455,1403.28 899.365,1403.28 920.275,1403.28 941.186,1403.28 962.096,1403.28 983.006,1403.28 1003.92,1403.28 1024.83,1403.28 1045.74,1403.28 1066.65,1403.28 
  1087.56,1403.28 1108.47,1403.28 1129.38,1403.28 1150.29,1403.28 1171.2,1403.28 1192.11,1403.28 1213.02,1403.28 1233.93,1403.28 1254.84,1403.28 1275.75,1403.28 
  1296.66,1403.28 1317.57,1403.28 1338.48,1403.28 1359.39,1403.28 1380.3,1403.28 1401.21,1403.28 1422.12,1403.28 1443.03,1403.28 1463.94,1403.28 1484.85,1403.28 
  1505.76,1403.28 1526.67,1403.28 1547.58,1403.28 1568.49,1403.28 1589.4,1403.28 1610.31,1403.28 1631.22,1403.28 1652.13,1403.28 1673.04,1403.28 1693.95,1403.28 
  1714.86,1403.28 1735.77,1403.28 1756.68,1403.28 1777.59,1403.28 1798.5,1403.28 1819.41,1403.28 1840.32,1403.28 1861.24,1403.28 1882.15,1403.28 1903.06,1403.28 
  1923.97,1403.28 1944.88,1403.28 1965.79,1403.28 1986.7,1403.28 2007.61,1403.28 2028.52,1403.28 2049.43,1403.28 2070.34,1403.28 2091.25,1403.28 2112.16,1403.28 
  2133.07,1403.28 2153.98,1403.28 2174.89,1403.28 2195.8,1403.28 2216.71,1403.28 2237.62,1403.28 2258.53,1403.28 2279.44,1403.28 2300.35,1403.28 2321.26,1403.28 
  
  "/>
<polyline clip-path="url(#clip2602)" style="stroke:#47988b; stroke-width:2.4; stroke-opacity:1; fill:none" points="
  251.149,1394.8 272.059,1403.28 292.969,1403.28 313.879,1403.28 334.789,1403.28 355.7,1403.28 376.61,1403.28 397.52,1403.28 418.43,1403.28 439.34,1403.28 
  460.251,1403.28 481.161,1403.28 502.071,1403.28 522.981,1403.28 543.892,1403.28 564.802,1403.28 585.712,1403.28 606.622,1403.28 627.532,1403.28 648.443,1403.28 
  669.353,1403.28 690.263,1403.28 711.173,1403.28 732.083,1403.28 752.994,1403.28 773.904,1403.28 794.814,1403.28 815.724,1403.28 836.635,1403.28 857.545,1403.28 
  878.455,1403.28 899.365,1403.28 920.275,1403.28 941.186,1403.28 962.096,1403.28 983.006,1403.28 1003.92,1403.28 1024.83,1403.28 1045.74,1403.28 1066.65,1403.28 
  1087.56,1403.28 1108.47,1403.28 1129.38,1403.28 1150.29,1403.28 1171.2,1403.28 1192.11,1403.28 1213.02,1403.28 1233.93,1403.28 1254.84,1403.28 1275.75,1403.28 
  1296.66,1403.28 1317.57,1403.28 1338.48,1403.28 1359.39,1403.28 1380.3,1403.28 1401.21,1403.28 1422.12,1403.28 1443.03,1403.28 1463.94,1403.28 1484.85,1403.28 
  1505.76,1403.28 1526.67,1403.28 1547.58,1403.28 1568.49,1403.28 1589.4,1403.28 1610.31,1403.28 1631.22,1403.28 1652.13,1403.28 1673.04,1403.28 1693.95,1403.28 
  1714.86,1403.28 1735.77,1403.28 1756.68,1403.28 1777.59,1403.28 1798.5,1403.28 1819.41,1403.28 1840.32,1403.28 1861.24,1403.28 1882.15,1403.28 1903.06,1403.28 
  1923.97,1403.28 1944.88,1403.28 1965.79,1403.28 1986.7,1403.28 2007.61,1403.28 2028.52,1403.28 2049.43,1403.28 2070.34,1403.28 2091.25,1403.28 2112.16,1403.28 
  2133.07,1403.28 2153.98,1403.28 2174.89,1403.28 2195.8,1403.28 2216.71,1403.28 2237.62,1403.28 2258.53,1403.28 2279.44,1403.28 2300.35,1403.28 2321.26,1403.28 
  
  "/>
<polyline clip-path="url(#clip2602)" style="stroke:#1ea68c; stroke-width:2.4; stroke-opacity:1; fill:none" points="
  251.149,1403.28 272.059,1403.28 292.969,1403.28 313.879,1403.28 334.789,1403.28 355.7,1403.28 376.61,1403.28 397.52,1403.28 418.43,1403.28 439.34,1403.28 
  460.251,1403.28 481.161,1403.28 502.071,1403.28 522.981,1403.28 543.892,1403.28 564.802,1403.28 585.712,1403.28 606.622,1403.28 627.532,1403.28 648.443,1403.28 
  669.353,1403.28 690.263,1403.28 711.173,1403.28 732.083,1403.28 752.994,1403.28 773.904,1403.28 794.814,1403.28 815.724,1403.28 836.635,1403.28 857.545,1403.28 
  878.455,1403.28 899.365,1403.28 920.275,1403.28 941.186,1403.28 962.096,1403.28 983.006,1403.28 1003.92,1403.28 1024.83,1403.28 1045.74,1403.28 1066.65,1403.28 
  1087.56,1403.28 1108.47,1403.28 1129.38,1403.28 1150.29,1403.28 1171.2,1403.28 1192.11,1403.28 1213.02,1403.28 1233.93,1403.28 1254.84,1403.28 1275.75,1403.28 
  1296.66,1403.28 1317.57,1403.28 1338.48,1403.28 1359.39,1403.28 1380.3,1403.28 1401.21,1403.28 1422.12,1403.28 1443.03,1403.28 1463.94,1403.28 1484.85,1403.28 
  1505.76,1403.28 1526.67,1403.28 1547.58,1403.28 1568.49,1403.28 1589.4,1403.28 1610.31,1403.28 1631.22,1403.28 1652.13,1403.28 1673.04,1403.28 1693.95,1403.28 
  1714.86,1403.28 1735.77,1403.28 1756.68,1403.28 1777.59,1403.28 1798.5,1403.28 1819.41,1403.28 1840.32,1403.28 1861.24,1403.28 1882.15,1403.28 1903.06,1403.28 
  1923.97,1403.28 1944.88,1403.28 1965.79,1403.28 1986.7,1403.28 2007.61,1403.28 2028.52,1403.28 2049.43,1403.28 2070.34,1403.28 2091.25,1403.28 2112.16,1403.28 
  2133.07,1403.28 2153.98,1403.28 2174.89,1403.28 2195.8,1403.28 2216.71,1403.28 2237.62,1403.28 2258.53,1403.28 2279.44,1403.28 2300.35,1403.28 2321.26,1403.28 
  
  "/>
<polyline clip-path="url(#clip2602)" style="stroke:#af78dd; stroke-width:2.4; stroke-opacity:1; fill:none" points="
  251.149,1403.28 272.059,1403.28 292.969,1403.28 313.879,1403.28 334.789,1403.28 355.7,1403.28 376.61,1403.28 397.52,1403.28 418.43,1403.28 439.34,1403.28 
  460.251,1403.28 481.161,1403.28 502.071,1403.28 522.981,1403.28 543.892,1403.28 564.802,1403.28 585.712,1403.28 606.622,1403.28 627.532,1403.28 648.443,1403.28 
  669.353,1403.28 690.263,1403.28 711.173,1403.28 732.083,1403.28 752.994,1403.28 773.904,1403.28 794.814,1403.28 815.724,1403.28 836.635,1403.28 857.545,1403.28 
  878.455,1403.28 899.365,1403.28 920.275,1403.28 941.186,1403.28 962.096,1403.28 983.006,1403.28 1003.92,1403.28 1024.83,1403.28 1045.74,1403.28 1066.65,1403.28 
  1087.56,1403.28 1108.47,1403.28 1129.38,1403.28 1150.29,1403.28 1171.2,1403.28 1192.11,1403.28 1213.02,1403.28 1233.93,1403.28 1254.84,1403.28 1275.75,1403.28 
  1296.66,1403.28 1317.57,1403.28 1338.48,1403.28 1359.39,1403.28 1380.3,1403.28 1401.21,1403.28 1422.12,1403.28 1443.03,1403.28 1463.94,1403.28 1484.85,1403.28 
  1505.76,1403.28 1526.67,1403.28 1547.58,1403.28 1568.49,1403.28 1589.4,1403.28 1610.31,1403.28 1631.22,1403.28 1652.13,1403.28 1673.04,1403.28 1693.95,1403.28 
  1714.86,1403.28 1735.77,1403.28 1756.68,1403.28 1777.59,1403.28 1798.5,1403.28 1819.41,1403.28 1840.32,1403.28 1861.24,1403.28 1882.15,1403.28 1903.06,1403.28 
  1923.97,1403.28 1944.88,1403.28 1965.79,1403.28 1986.7,1403.28 2007.61,1403.28 2028.52,1403.28 2049.43,1403.28 2070.34,1403.28 2091.25,1403.28 2112.16,1403.28 
  2133.07,1403.28 2153.98,1403.28 2174.89,1403.28 2195.8,1403.28 2216.71,1403.28 2237.62,1403.28 2258.53,1403.28 2279.44,1403.28 2300.35,1403.28 2321.26,1403.28 
  
  "/>
<polyline clip-path="url(#clip2602)" style="stroke:#868d87; stroke-width:2.4; stroke-opacity:1; fill:none" points="
  251.149,1403.28 272.059,1403.28 292.969,1403.28 313.879,1403.28 334.789,1403.28 355.7,1403.28 376.61,1403.28 397.52,1403.28 418.43,1403.28 439.34,1403.28 
  460.251,1403.28 481.161,1403.28 502.071,1403.28 522.981,1403.28 543.892,1403.28 564.802,1403.28 585.712,1403.28 606.622,1403.28 627.532,1403.28 648.443,1403.28 
  669.353,1403.28 690.263,1403.28 711.173,1403.28 732.083,1403.28 752.994,1403.28 773.904,1403.28 794.814,1403.28 815.724,1403.28 836.635,1403.28 857.545,1403.28 
  878.455,1403.28 899.365,1403.28 920.275,1403.28 941.186,1403.28 962.096,1403.28 983.006,1403.28 1003.92,1403.28 1024.83,1403.28 1045.74,1403.28 1066.65,1403.28 
  1087.56,1403.28 1108.47,1403.28 1129.38,1403.28 1150.29,1403.28 1171.2,1403.28 1192.11,1403.28 1213.02,1403.28 1233.93,1403.28 1254.84,1403.28 1275.75,1403.28 
  1296.66,1403.28 1317.57,1403.28 1338.48,1403.28 1359.39,1403.28 1380.3,1403.28 1401.21,1403.28 1422.12,1403.28 1443.03,1403.28 1463.94,1403.28 1484.85,1403.28 
  1505.76,1403.28 1526.67,1403.28 1547.58,1403.28 1568.49,1403.28 1589.4,1403.28 1610.31,1403.28 1631.22,1403.28 1652.13,1403.28 1673.04,1403.28 1693.95,1403.28 
  1714.86,1403.28 1735.77,1403.28 1756.68,1403.28 1777.59,1403.28 1798.5,1403.28 1819.41,1403.28 1840.32,1403.28 1861.24,1403.28 1882.15,1403.28 1903.06,1403.28 
  1923.97,1403.28 1944.88,1403.28 1965.79,1403.28 1986.7,1403.28 2007.61,1403.28 2028.52,1403.28 2049.43,1403.28 2070.34,1403.28 2091.25,1403.28 2112.16,1403.28 
  2133.07,1403.28 2153.98,1403.28 2174.89,1403.28 2195.8,1403.28 2216.71,1403.28 2237.62,1403.28 2258.53,1403.28 2279.44,1403.28 2300.35,1403.28 2321.26,1403.28 
  
  "/>
<polyline clip-path="url(#clip2602)" style="stroke:#47a065; stroke-width:2.4; stroke-opacity:1; fill:none" points="
  251.149,1403.28 272.059,1403.28 292.969,1403.28 313.879,1403.28 334.789,1403.28 355.7,1403.28 376.61,1403.28 397.52,1403.28 418.43,1403.28 439.34,1403.28 
  460.251,1403.28 481.161,1403.28 502.071,1403.28 522.981,1403.28 543.892,1403.28 564.802,1403.28 585.712,1403.28 606.622,1403.28 627.532,1403.28 648.443,1403.28 
  669.353,1403.28 690.263,1403.28 711.173,1403.28 732.083,1403.28 752.994,1403.28 773.904,1403.28 794.814,1403.28 815.724,1403.28 836.635,1403.28 857.545,1403.28 
  878.455,1403.28 899.365,1403.28 920.275,1403.28 941.186,1403.28 962.096,1403.28 983.006,1403.28 1003.92,1403.28 1024.83,1403.28 1045.74,1403.28 1066.65,1403.28 
  1087.56,1403.28 1108.47,1403.28 1129.38,1403.28 1150.29,1403.28 1171.2,1403.28 1192.11,1403.28 1213.02,1403.28 1233.93,1403.28 1254.84,1403.28 1275.75,1403.28 
  1296.66,1403.28 1317.57,1403.28 1338.48,1403.28 1359.39,1403.28 1380.3,1403.28 1401.21,1403.28 1422.12,1403.28 1443.03,1403.28 1463.94,1403.28 1484.85,1403.28 
  1505.76,1403.28 1526.67,1403.28 1547.58,1403.28 1568.49,1403.28 1589.4,1403.28 1610.31,1403.28 1631.22,1403.28 1652.13,1403.28 1673.04,1403.28 1693.95,1403.28 
  1714.86,1403.28 1735.77,1403.28 1756.68,1403.28 1777.59,1403.28 1798.5,1403.28 1819.41,1403.28 1840.32,1403.28 1861.24,1403.28 1882.15,1403.28 1903.06,1403.28 
  1923.97,1403.28 1944.88,1403.28 1965.79,1403.28 1986.7,1403.28 2007.61,1403.28 2028.52,1403.28 2049.43,1403.28 2070.34,1403.28 2091.25,1403.28 2112.16,1403.28 
  2133.07,1403.28 2153.98,1403.28 2174.89,1403.28 2195.8,1403.28 2216.71,1403.28 2237.62,1403.28 2258.53,1403.28 2279.44,1403.28 2300.35,1403.28 2321.26,1403.28 
  
  "/>
<polyline clip-path="url(#clip2602)" style="stroke:#7683af; stroke-width:2.4; stroke-opacity:1; fill:none" points="
  251.149,1403.26 272.059,1403.28 292.969,1403.28 313.879,1403.28 334.789,1403.28 355.7,1403.28 376.61,1403.28 397.52,1403.28 418.43,1403.28 439.34,1403.28 
  460.251,1403.28 481.161,1403.28 502.071,1403.28 522.981,1403.28 543.892,1403.28 564.802,1403.28 585.712,1403.28 606.622,1403.28 627.532,1403.28 648.443,1403.28 
  669.353,1403.28 690.263,1403.28 711.173,1403.28 732.083,1403.28 752.994,1403.28 773.904,1403.28 794.814,1403.28 815.724,1403.28 836.635,1403.28 857.545,1403.28 
  878.455,1403.28 899.365,1403.28 920.275,1403.28 941.186,1403.28 962.096,1403.28 983.006,1403.28 1003.92,1403.28 1024.83,1403.28 1045.74,1403.28 1066.65,1403.28 
  1087.56,1403.28 1108.47,1403.28 1129.38,1403.28 1150.29,1403.28 1171.2,1403.28 1192.11,1403.28 1213.02,1403.28 1233.93,1403.28 1254.84,1403.28 1275.75,1403.28 
  1296.66,1403.28 1317.57,1403.28 1338.48,1403.28 1359.39,1403.28 1380.3,1403.28 1401.21,1403.28 1422.12,1403.28 1443.03,1403.28 1463.94,1403.28 1484.85,1403.28 
  1505.76,1403.28 1526.67,1403.28 1547.58,1403.28 1568.49,1403.28 1589.4,1403.28 1610.31,1403.28 1631.22,1403.28 1652.13,1403.28 1673.04,1403.28 1693.95,1403.28 
  1714.86,1403.28 1735.77,1403.28 1756.68,1403.28 1777.59,1403.28 1798.5,1403.28 1819.41,1403.28 1840.32,1403.28 1861.24,1403.28 1882.15,1403.28 1903.06,1403.28 
  1923.97,1403.28 1944.88,1403.28 1965.79,1403.28 1986.7,1403.28 2007.61,1403.28 2028.52,1403.28 2049.43,1403.28 2070.34,1403.28 2091.25,1403.28 2112.16,1403.28 
  2133.07,1403.28 2153.98,1403.28 2174.89,1403.28 2195.8,1403.28 2216.71,1403.28 2237.62,1403.28 2258.53,1403.28 2279.44,1403.28 2300.35,1403.28 2321.26,1403.28 
  
  "/>
<polyline clip-path="url(#clip2602)" style="stroke:#b08086; stroke-width:2.4; stroke-opacity:1; fill:none" points="
  251.149,1336.34 272.059,1403.28 292.969,1403.28 313.879,1403.28 334.789,1403.28 355.7,1403.28 376.61,1403.28 397.52,1403.28 418.43,1403.28 439.34,1403.28 
  460.251,1403.28 481.161,1403.28 502.071,1403.28 522.981,1403.28 543.892,1403.28 564.802,1403.28 585.712,1403.28 606.622,1403.28 627.532,1403.28 648.443,1403.28 
  669.353,1403.28 690.263,1403.28 711.173,1403.28 732.083,1403.28 752.994,1403.28 773.904,1403.28 794.814,1403.28 815.724,1403.28 836.635,1403.28 857.545,1403.28 
  878.455,1403.28 899.365,1403.28 920.275,1403.28 941.186,1403.28 962.096,1403.28 983.006,1403.28 1003.92,1403.28 1024.83,1403.28 1045.74,1403.28 1066.65,1403.28 
  1087.56,1403.28 1108.47,1403.28 1129.38,1403.28 1150.29,1403.28 1171.2,1403.28 1192.11,1403.28 1213.02,1403.28 1233.93,1403.28 1254.84,1403.28 1275.75,1403.28 
  1296.66,1403.28 1317.57,1403.28 1338.48,1403.28 1359.39,1403.28 1380.3,1403.28 1401.21,1403.28 1422.12,1403.28 1443.03,1403.28 1463.94,1403.28 1484.85,1403.28 
  1505.76,1403.28 1526.67,1403.28 1547.58,1403.28 1568.49,1403.28 1589.4,1403.28 1610.31,1403.28 1631.22,1403.28 1652.13,1403.28 1673.04,1403.28 1693.95,1403.28 
  1714.86,1403.28 1735.77,1403.28 1756.68,1403.28 1777.59,1403.28 1798.5,1403.28 1819.41,1403.28 1840.32,1403.28 1861.24,1403.28 1882.15,1403.28 1903.06,1403.28 
  1923.97,1403.28 1944.88,1403.28 1965.79,1403.28 1986.7,1403.28 2007.61,1403.28 2028.52,1403.28 2049.43,1403.28 2070.34,1403.28 2091.25,1403.28 2112.16,1403.28 
  2133.07,1403.28 2153.98,1403.28 2174.89,1403.28 2195.8,1403.28 2216.71,1403.28 2237.62,1403.28 2258.53,1403.28 2279.44,1403.28 2300.35,1403.28 2321.26,1403.28 
  
  "/>
<polyline clip-path="url(#clip2602)" style="stroke:#309ac1; stroke-width:2.4; stroke-opacity:1; fill:none" points="
  251.149,1403.28 272.059,1403.28 292.969,1403.28 313.879,1403.28 334.789,1403.28 355.7,1403.28 376.61,1403.28 397.52,1403.28 418.43,1403.28 439.34,1403.28 
  460.251,1403.28 481.161,1403.28 502.071,1403.28 522.981,1403.28 543.892,1403.28 564.802,1403.28 585.712,1403.28 606.622,1403.28 627.532,1403.28 648.443,1403.28 
  669.353,1403.28 690.263,1403.28 711.173,1403.28 732.083,1403.28 752.994,1403.28 773.904,1403.28 794.814,1403.28 815.724,1403.28 836.635,1403.28 857.545,1403.28 
  878.455,1403.28 899.365,1403.28 920.275,1403.28 941.186,1403.28 962.096,1403.28 983.006,1403.28 1003.92,1403.28 1024.83,1403.28 1045.74,1403.28 1066.65,1403.28 
  1087.56,1403.28 1108.47,1403.28 1129.38,1403.28 1150.29,1403.28 1171.2,1403.28 1192.11,1403.28 1213.02,1403.28 1233.93,1403.28 1254.84,1403.28 1275.75,1403.28 
  1296.66,1403.28 1317.57,1403.28 1338.48,1403.28 1359.39,1403.28 1380.3,1403.28 1401.21,1403.28 1422.12,1403.28 1443.03,1403.28 1463.94,1403.28 1484.85,1403.28 
  1505.76,1403.28 1526.67,1403.28 1547.58,1403.28 1568.49,1403.28 1589.4,1403.28 1610.31,1403.28 1631.22,1403.28 1652.13,1403.28 1673.04,1403.28 1693.95,1403.28 
  1714.86,1403.28 1735.77,1403.28 1756.68,1403.28 1777.59,1403.28 1798.5,1403.28 1819.41,1403.28 1840.32,1403.28 1861.24,1403.28 1882.15,1403.28 1903.06,1403.28 
  1923.97,1403.28 1944.88,1403.28 1965.79,1403.28 1986.7,1403.28 2007.61,1403.28 2028.52,1403.28 2049.43,1403.28 2070.34,1403.28 2091.25,1403.28 2112.16,1403.28 
  2133.07,1403.28 2153.98,1403.28 2174.89,1403.28 2195.8,1403.28 2216.71,1403.28 2237.62,1403.28 2258.53,1403.28 2279.44,1403.28 2300.35,1403.28 2321.26,1403.28 
  
  "/>
<polyline clip-path="url(#clip2602)" style="stroke:#788490; stroke-width:2.4; stroke-opacity:1; fill:none" points="
  251.149,1403.28 272.059,1403.28 292.969,1403.28 313.879,1403.28 334.789,1403.28 355.7,1403.28 376.61,1403.28 397.52,1403.28 418.43,1403.28 439.34,1403.28 
  460.251,1403.28 481.161,1403.28 502.071,1403.28 522.981,1403.28 543.892,1403.28 564.802,1403.28 585.712,1403.28 606.622,1403.28 627.532,1403.28 648.443,1403.28 
  669.353,1403.28 690.263,1403.28 711.173,1403.28 732.083,1403.28 752.994,1403.28 773.904,1403.28 794.814,1403.28 815.724,1403.28 836.635,1403.28 857.545,1403.28 
  878.455,1403.28 899.365,1403.28 920.275,1403.28 941.186,1403.28 962.096,1403.28 983.006,1403.28 1003.92,1403.28 1024.83,1403.28 1045.74,1403.28 1066.65,1403.28 
  1087.56,1403.28 1108.47,1403.28 1129.38,1403.28 1150.29,1403.28 1171.2,1403.28 1192.11,1403.28 1213.02,1403.28 1233.93,1403.28 1254.84,1403.28 1275.75,1403.28 
  1296.66,1403.28 1317.57,1403.28 1338.48,1403.28 1359.39,1403.28 1380.3,1403.28 1401.21,1403.28 1422.12,1403.28 1443.03,1403.28 1463.94,1403.28 1484.85,1403.28 
  1505.76,1403.28 1526.67,1403.28 1547.58,1403.28 1568.49,1403.28 1589.4,1403.28 1610.31,1403.28 1631.22,1403.28 1652.13,1403.28 1673.04,1403.28 1693.95,1403.28 
  1714.86,1403.28 1735.77,1403.28 1756.68,1403.28 1777.59,1403.28 1798.5,1403.28 1819.41,1403.28 1840.32,1403.28 1861.24,1403.28 1882.15,1403.28 1903.06,1403.28 
  1923.97,1403.28 1944.88,1403.28 1965.79,1403.28 1986.7,1403.28 2007.61,1403.28 2028.52,1403.28 2049.43,1403.28 2070.34,1403.28 2091.25,1403.28 2112.16,1403.28 
  2133.07,1403.28 2153.98,1403.28 2174.89,1403.28 2195.8,1403.28 2216.71,1403.28 2237.62,1403.28 2258.53,1403.28 2279.44,1403.28 2300.35,1403.28 2321.26,1403.28 
  
  "/>
<polyline clip-path="url(#clip2602)" style="stroke:#e561a4; stroke-width:2.4; stroke-opacity:1; fill:none" points="
  251.149,1366.82 272.059,1403.28 292.969,1403.28 313.879,1403.28 334.789,1403.28 355.7,1403.28 376.61,1403.28 397.52,1403.28 418.43,1403.28 439.34,1403.28 
  460.251,1403.28 481.161,1403.28 502.071,1403.28 522.981,1403.28 543.892,1403.28 564.802,1403.28 585.712,1403.28 606.622,1403.28 627.532,1403.28 648.443,1403.28 
  669.353,1403.28 690.263,1403.28 711.173,1403.28 732.083,1403.28 752.994,1403.28 773.904,1403.28 794.814,1403.28 815.724,1403.28 836.635,1403.28 857.545,1403.28 
  878.455,1403.28 899.365,1403.28 920.275,1403.28 941.186,1403.28 962.096,1403.28 983.006,1403.28 1003.92,1403.28 1024.83,1403.28 1045.74,1403.28 1066.65,1403.28 
  1087.56,1403.28 1108.47,1403.28 1129.38,1403.28 1150.29,1403.28 1171.2,1403.28 1192.11,1403.28 1213.02,1403.28 1233.93,1403.28 1254.84,1403.28 1275.75,1403.28 
  1296.66,1403.28 1317.57,1403.28 1338.48,1403.28 1359.39,1403.28 1380.3,1403.28 1401.21,1403.28 1422.12,1403.28 1443.03,1403.28 1463.94,1403.28 1484.85,1403.28 
  1505.76,1403.28 1526.67,1403.28 1547.58,1403.28 1568.49,1403.28 1589.4,1403.28 1610.31,1403.28 1631.22,1403.28 1652.13,1403.28 1673.04,1403.28 1693.95,1403.28 
  1714.86,1403.28 1735.77,1403.28 1756.68,1403.28 1777.59,1403.28 1798.5,1403.28 1819.41,1403.28 1840.32,1403.28 1861.24,1403.28 1882.15,1403.28 1903.06,1403.28 
  1923.97,1403.28 1944.88,1403.28 1965.79,1403.28 1986.7,1403.28 2007.61,1403.28 2028.52,1403.28 2049.43,1403.28 2070.34,1403.28 2091.25,1403.28 2112.16,1403.28 
  2133.07,1403.28 2153.98,1403.28 2174.89,1403.28 2195.8,1403.28 2216.71,1403.28 2237.62,1403.28 2258.53,1403.28 2279.44,1403.28 2300.35,1403.28 2321.26,1403.28 
  
  "/>
<polyline clip-path="url(#clip2602)" style="stroke:#99902c; stroke-width:2.4; stroke-opacity:1; fill:none" points="
  251.149,1401.02 272.059,1403.28 292.969,1403.28 313.879,1403.28 334.789,1403.28 355.7,1403.28 376.61,1403.28 397.52,1403.28 418.43,1403.28 439.34,1403.28 
  460.251,1403.28 481.161,1403.28 502.071,1403.28 522.981,1403.28 543.892,1403.28 564.802,1403.28 585.712,1403.28 606.622,1403.28 627.532,1403.28 648.443,1403.28 
  669.353,1403.28 690.263,1403.28 711.173,1403.28 732.083,1403.28 752.994,1403.28 773.904,1403.28 794.814,1403.28 815.724,1403.28 836.635,1403.28 857.545,1403.28 
  878.455,1403.28 899.365,1403.28 920.275,1403.28 941.186,1403.28 962.096,1403.28 983.006,1403.28 1003.92,1403.28 1024.83,1403.28 1045.74,1403.28 1066.65,1403.28 
  1087.56,1403.28 1108.47,1403.28 1129.38,1403.28 1150.29,1403.28 1171.2,1403.28 1192.11,1403.28 1213.02,1403.28 1233.93,1403.28 1254.84,1403.28 1275.75,1403.28 
  1296.66,1403.28 1317.57,1403.28 1338.48,1403.28 1359.39,1403.28 1380.3,1403.28 1401.21,1403.28 1422.12,1403.28 1443.03,1403.28 1463.94,1403.28 1484.85,1403.28 
  1505.76,1403.28 1526.67,1403.28 1547.58,1403.28 1568.49,1403.28 1589.4,1403.28 1610.31,1403.28 1631.22,1403.28 1652.13,1403.28 1673.04,1403.28 1693.95,1403.28 
  1714.86,1403.28 1735.77,1403.28 1756.68,1403.28 1777.59,1403.28 1798.5,1403.28 1819.41,1403.28 1840.32,1403.28 1861.24,1403.28 1882.15,1403.28 1903.06,1403.28 
  1923.97,1403.28 1944.88,1403.28 1965.79,1403.28 1986.7,1403.28 2007.61,1403.28 2028.52,1403.28 2049.43,1403.28 2070.34,1403.28 2091.25,1403.28 2112.16,1403.28 
  2133.07,1403.28 2153.98,1403.28 2174.89,1403.28 2195.8,1403.28 2216.71,1403.28 2237.62,1403.28 2258.53,1403.28 2279.44,1403.28 2300.35,1403.28 2321.26,1403.28 
  
  "/>
<polyline clip-path="url(#clip2602)" style="stroke:#389a7b; stroke-width:2.4; stroke-opacity:1; fill:none" points="
  251.149,1403.28 272.059,1403.28 292.969,1403.28 313.879,1403.28 334.789,1403.28 355.7,1403.28 376.61,1403.28 397.52,1403.28 418.43,1403.28 439.34,1403.28 
  460.251,1403.28 481.161,1403.28 502.071,1403.28 522.981,1403.28 543.892,1403.28 564.802,1403.28 585.712,1403.28 606.622,1403.28 627.532,1403.28 648.443,1403.28 
  669.353,1403.28 690.263,1403.28 711.173,1403.28 732.083,1403.28 752.994,1403.28 773.904,1403.28 794.814,1403.28 815.724,1403.28 836.635,1403.28 857.545,1403.28 
  878.455,1403.28 899.365,1403.28 920.275,1403.28 941.186,1403.28 962.096,1403.28 983.006,1403.28 1003.92,1403.28 1024.83,1403.28 1045.74,1403.28 1066.65,1403.28 
  1087.56,1403.28 1108.47,1403.28 1129.38,1403.28 1150.29,1403.28 1171.2,1403.28 1192.11,1403.28 1213.02,1403.28 1233.93,1403.28 1254.84,1403.28 1275.75,1403.28 
  1296.66,1403.28 1317.57,1403.28 1338.48,1403.28 1359.39,1403.28 1380.3,1403.28 1401.21,1403.28 1422.12,1403.28 1443.03,1403.28 1463.94,1403.28 1484.85,1403.28 
  1505.76,1403.28 1526.67,1403.28 1547.58,1403.28 1568.49,1403.28 1589.4,1403.28 1610.31,1403.28 1631.22,1403.28 1652.13,1403.28 1673.04,1403.28 1693.95,1403.28 
  1714.86,1403.28 1735.77,1403.28 1756.68,1403.28 1777.59,1403.28 1798.5,1403.28 1819.41,1403.28 1840.32,1403.28 1861.24,1403.28 1882.15,1403.28 1903.06,1403.28 
  1923.97,1403.28 1944.88,1403.28 1965.79,1403.28 1986.7,1403.28 2007.61,1403.28 2028.52,1403.28 2049.43,1403.28 2070.34,1403.28 2091.25,1403.28 2112.16,1403.28 
  2133.07,1403.28 2153.98,1403.28 2174.89,1403.28 2195.8,1403.28 2216.71,1403.28 2237.62,1403.28 2258.53,1403.28 2279.44,1403.28 2300.35,1403.28 2321.26,1403.28 
  
  "/>
<polyline clip-path="url(#clip2602)" style="stroke:#d968a2; stroke-width:2.4; stroke-opacity:1; fill:none" points="
  251.149,1403.28 272.059,1403.28 292.969,1403.28 313.879,1403.28 334.789,1403.28 355.7,1403.28 376.61,1403.28 397.52,1403.28 418.43,1403.28 439.34,1403.28 
  460.251,1403.28 481.161,1403.28 502.071,1403.28 522.981,1403.28 543.892,1403.28 564.802,1403.28 585.712,1403.28 606.622,1403.28 627.532,1403.28 648.443,1403.28 
  669.353,1403.28 690.263,1403.28 711.173,1403.28 732.083,1403.28 752.994,1403.28 773.904,1403.28 794.814,1403.28 815.724,1403.28 836.635,1403.28 857.545,1403.28 
  878.455,1403.28 899.365,1403.28 920.275,1403.28 941.186,1403.28 962.096,1403.28 983.006,1403.28 1003.92,1403.28 1024.83,1403.28 1045.74,1403.28 1066.65,1403.28 
  1087.56,1403.28 1108.47,1403.28 1129.38,1403.28 1150.29,1403.28 1171.2,1403.28 1192.11,1403.28 1213.02,1403.28 1233.93,1403.28 1254.84,1403.28 1275.75,1403.28 
  1296.66,1403.28 1317.57,1403.28 1338.48,1403.28 1359.39,1403.28 1380.3,1403.28 1401.21,1403.28 1422.12,1403.28 1443.03,1403.28 1463.94,1403.28 1484.85,1403.28 
  1505.76,1403.28 1526.67,1403.28 1547.58,1403.28 1568.49,1403.28 1589.4,1403.28 1610.31,1403.28 1631.22,1403.28 1652.13,1403.28 1673.04,1403.28 1693.95,1403.28 
  1714.86,1403.28 1735.77,1403.28 1756.68,1403.28 1777.59,1403.28 1798.5,1403.28 1819.41,1403.28 1840.32,1403.28 1861.24,1403.28 1882.15,1403.28 1903.06,1403.28 
  1923.97,1403.28 1944.88,1403.28 1965.79,1403.28 1986.7,1403.28 2007.61,1403.28 2028.52,1403.28 2049.43,1403.28 2070.34,1403.28 2091.25,1403.28 2112.16,1403.28 
  2133.07,1403.28 2153.98,1403.28 2174.89,1403.28 2195.8,1403.28 2216.71,1403.28 2237.62,1403.28 2258.53,1403.28 2279.44,1403.28 2300.35,1403.28 2321.26,1403.28 
  
  "/>
<polyline clip-path="url(#clip2602)" style="stroke:#009af9; stroke-width:2.4; stroke-opacity:1; fill:none" points="
  251.149,1398.43 272.059,1403.28 292.969,1403.28 313.879,1403.28 334.789,1403.28 355.7,1403.28 376.61,1403.28 397.52,1403.28 418.43,1403.28 439.34,1403.28 
  460.251,1403.28 481.161,1403.28 502.071,1403.28 522.981,1403.28 543.892,1403.28 564.802,1403.28 585.712,1403.28 606.622,1403.28 627.532,1403.28 648.443,1403.28 
  669.353,1403.28 690.263,1403.28 711.173,1403.28 732.083,1403.28 752.994,1403.28 773.904,1403.28 794.814,1403.28 815.724,1403.28 836.635,1403.28 857.545,1403.28 
  878.455,1403.28 899.365,1403.28 920.275,1403.28 941.186,1403.28 962.096,1403.28 983.006,1403.28 1003.92,1403.28 1024.83,1403.28 1045.74,1403.28 1066.65,1403.28 
  1087.56,1403.28 1108.47,1403.28 1129.38,1403.28 1150.29,1403.28 1171.2,1403.28 1192.11,1403.28 1213.02,1403.28 1233.93,1403.28 1254.84,1403.28 1275.75,1403.28 
  1296.66,1403.28 1317.57,1403.28 1338.48,1403.28 1359.39,1403.28 1380.3,1403.28 1401.21,1403.28 1422.12,1403.28 1443.03,1403.28 1463.94,1403.28 1484.85,1403.28 
  1505.76,1403.28 1526.67,1403.28 1547.58,1403.28 1568.49,1403.28 1589.4,1403.28 1610.31,1403.28 1631.22,1403.28 1652.13,1403.28 1673.04,1403.28 1693.95,1403.28 
  1714.86,1403.28 1735.77,1403.28 1756.68,1403.28 1777.59,1403.28 1798.5,1403.28 1819.41,1403.28 1840.32,1403.28 1861.24,1403.28 1882.15,1403.28 1903.06,1403.28 
  1923.97,1403.28 1944.88,1403.28 1965.79,1403.28 1986.7,1403.28 2007.61,1403.28 2028.52,1403.28 2049.43,1403.28 2070.34,1403.28 2091.25,1403.28 2112.16,1403.28 
  2133.07,1403.28 2153.98,1403.28 2174.89,1403.28 2195.8,1403.28 2216.71,1403.28 2237.62,1403.28 2258.53,1403.28 2279.44,1403.28 2300.35,1403.28 2321.26,1403.28 
  
  "/>
<polyline clip-path="url(#clip2602)" style="stroke:#e26f46; stroke-width:2.4; stroke-opacity:1; fill:none" points="
  251.149,1403.28 272.059,1403.28 292.969,1403.28 313.879,1403.28 334.789,1403.28 355.7,1403.28 376.61,1403.28 397.52,1403.28 418.43,1403.28 439.34,1403.28 
  460.251,1403.28 481.161,1403.28 502.071,1403.28 522.981,1403.28 543.892,1403.28 564.802,1403.28 585.712,1403.28 606.622,1403.28 627.532,1403.28 648.443,1403.28 
  669.353,1403.28 690.263,1403.28 711.173,1403.28 732.083,1403.28 752.994,1403.28 773.904,1403.28 794.814,1403.28 815.724,1403.28 836.635,1403.28 857.545,1403.28 
  878.455,1403.28 899.365,1403.28 920.275,1403.28 941.186,1403.28 962.096,1403.28 983.006,1403.28 1003.92,1403.28 1024.83,1403.28 1045.74,1403.28 1066.65,1403.28 
  1087.56,1403.28 1108.47,1403.28 1129.38,1403.28 1150.29,1403.28 1171.2,1403.28 1192.11,1403.28 1213.02,1403.28 1233.93,1403.28 1254.84,1403.28 1275.75,1403.28 
  1296.66,1403.28 1317.57,1403.28 1338.48,1403.28 1359.39,1403.28 1380.3,1403.28 1401.21,1403.28 1422.12,1403.28 1443.03,1403.28 1463.94,1403.28 1484.85,1403.28 
  1505.76,1403.28 1526.67,1403.28 1547.58,1403.28 1568.49,1403.28 1589.4,1403.28 1610.31,1403.28 1631.22,1403.28 1652.13,1403.28 1673.04,1403.28 1693.95,1403.28 
  1714.86,1403.28 1735.77,1403.28 1756.68,1403.28 1777.59,1403.28 1798.5,1403.28 1819.41,1403.28 1840.32,1403.28 1861.24,1403.28 1882.15,1403.28 1903.06,1403.28 
  1923.97,1403.28 1944.88,1403.28 1965.79,1403.28 1986.7,1403.28 2007.61,1403.28 2028.52,1403.28 2049.43,1403.28 2070.34,1403.28 2091.25,1403.28 2112.16,1403.28 
  2133.07,1403.28 2153.98,1403.28 2174.89,1403.28 2195.8,1403.28 2216.71,1403.28 2237.62,1403.28 2258.53,1403.28 2279.44,1403.28 2300.35,1403.28 2321.26,1403.28 
  
  "/>
<polyline clip-path="url(#clip2602)" style="stroke:#3da44d; stroke-width:2.4; stroke-opacity:1; fill:none" points="
  251.149,1403.28 272.059,1403.28 292.969,1403.28 313.879,1403.28 334.789,1403.28 355.7,1403.28 376.61,1403.28 397.52,1403.28 418.43,1403.28 439.34,1403.28 
  460.251,1403.28 481.161,1403.28 502.071,1403.28 522.981,1403.28 543.892,1403.28 564.802,1403.28 585.712,1403.28 606.622,1403.28 627.532,1403.28 648.443,1403.28 
  669.353,1403.28 690.263,1403.28 711.173,1403.28 732.083,1403.28 752.994,1403.28 773.904,1403.28 794.814,1403.28 815.724,1403.28 836.635,1403.28 857.545,1403.28 
  878.455,1403.28 899.365,1403.28 920.275,1403.28 941.186,1403.28 962.096,1403.28 983.006,1403.28 1003.92,1403.28 1024.83,1403.28 1045.74,1403.28 1066.65,1403.28 
  1087.56,1403.28 1108.47,1403.28 1129.38,1403.28 1150.29,1403.28 1171.2,1403.28 1192.11,1403.28 1213.02,1403.28 1233.93,1403.28 1254.84,1403.28 1275.75,1403.28 
  1296.66,1403.28 1317.57,1403.28 1338.48,1403.28 1359.39,1403.28 1380.3,1403.28 1401.21,1403.28 1422.12,1403.28 1443.03,1403.28 1463.94,1403.28 1484.85,1403.28 
  1505.76,1403.28 1526.67,1403.28 1547.58,1403.28 1568.49,1403.28 1589.4,1403.28 1610.31,1403.28 1631.22,1403.28 1652.13,1403.28 1673.04,1403.28 1693.95,1403.28 
  1714.86,1403.28 1735.77,1403.28 1756.68,1403.28 1777.59,1403.28 1798.5,1403.28 1819.41,1403.28 1840.32,1403.28 1861.24,1403.28 1882.15,1403.28 1903.06,1403.28 
  1923.97,1403.28 1944.88,1403.28 1965.79,1403.28 1986.7,1403.28 2007.61,1403.28 2028.52,1403.28 2049.43,1403.28 2070.34,1403.28 2091.25,1403.28 2112.16,1403.28 
  2133.07,1403.28 2153.98,1403.28 2174.89,1403.28 2195.8,1403.28 2216.71,1403.28 2237.62,1403.28 2258.53,1403.28 2279.44,1403.28 2300.35,1403.28 2321.26,1403.28 
  
  "/>
<polyline clip-path="url(#clip2602)" style="stroke:#c271d2; stroke-width:2.4; stroke-opacity:1; fill:none" points="
  251.149,1403.28 272.059,1403.28 292.969,1403.28 313.879,1403.28 334.789,1403.28 355.7,1403.28 376.61,1403.28 397.52,1403.28 418.43,1403.28 439.34,1403.28 
  460.251,1403.28 481.161,1403.28 502.071,1403.28 522.981,1403.28 543.892,1403.28 564.802,1403.28 585.712,1403.28 606.622,1403.28 627.532,1403.28 648.443,1403.28 
  669.353,1403.28 690.263,1403.28 711.173,1403.28 732.083,1403.28 752.994,1403.28 773.904,1403.28 794.814,1403.28 815.724,1403.28 836.635,1403.28 857.545,1403.28 
  878.455,1403.28 899.365,1403.28 920.275,1403.28 941.186,1403.28 962.096,1403.28 983.006,1403.28 1003.92,1403.28 1024.83,1403.28 1045.74,1403.28 1066.65,1403.28 
  1087.56,1403.28 1108.47,1403.28 1129.38,1403.28 1150.29,1403.28 1171.2,1403.28 1192.11,1403.28 1213.02,1403.28 1233.93,1403.28 1254.84,1403.28 1275.75,1403.28 
  1296.66,1403.28 1317.57,1403.28 1338.48,1403.28 1359.39,1403.28 1380.3,1403.28 1401.21,1403.28 1422.12,1403.28 1443.03,1403.28 1463.94,1403.28 1484.85,1403.28 
  1505.76,1403.28 1526.67,1403.28 1547.58,1403.28 1568.49,1403.28 1589.4,1403.28 1610.31,1403.28 1631.22,1403.28 1652.13,1403.28 1673.04,1403.28 1693.95,1403.28 
  1714.86,1403.28 1735.77,1403.28 1756.68,1403.28 1777.59,1403.28 1798.5,1403.28 1819.41,1403.28 1840.32,1403.28 1861.24,1403.28 1882.15,1403.28 1903.06,1403.28 
  1923.97,1403.28 1944.88,1403.28 1965.79,1403.28 1986.7,1403.28 2007.61,1403.28 2028.52,1403.28 2049.43,1403.28 2070.34,1403.28 2091.25,1403.28 2112.16,1403.28 
  2133.07,1403.28 2153.98,1403.28 2174.89,1403.28 2195.8,1403.28 2216.71,1403.28 2237.62,1403.28 2258.53,1403.28 2279.44,1403.28 2300.35,1403.28 2321.26,1403.28 
  
  "/>
<polyline clip-path="url(#clip2602)" style="stroke:#ac8d18; stroke-width:2.4; stroke-opacity:1; fill:none" points="
  251.149,1403.28 272.059,1403.28 292.969,1403.28 313.879,1403.28 334.789,1403.28 355.7,1403.28 376.61,1403.28 397.52,1403.28 418.43,1403.28 439.34,1403.28 
  460.251,1403.28 481.161,1403.28 502.071,1403.28 522.981,1403.28 543.892,1403.28 564.802,1403.28 585.712,1403.28 606.622,1403.28 627.532,1403.28 648.443,1403.28 
  669.353,1403.28 690.263,1403.28 711.173,1403.28 732.083,1403.28 752.994,1403.28 773.904,1403.28 794.814,1403.28 815.724,1403.28 836.635,1403.28 857.545,1403.28 
  878.455,1403.28 899.365,1403.28 920.275,1403.28 941.186,1403.28 962.096,1403.28 983.006,1403.28 1003.92,1403.28 1024.83,1403.28 1045.74,1403.28 1066.65,1403.28 
  1087.56,1403.28 1108.47,1403.28 1129.38,1403.28 1150.29,1403.28 1171.2,1403.28 1192.11,1403.28 1213.02,1403.28 1233.93,1403.28 1254.84,1403.28 1275.75,1403.28 
  1296.66,1403.28 1317.57,1403.28 1338.48,1403.28 1359.39,1403.28 1380.3,1403.28 1401.21,1403.28 1422.12,1403.28 1443.03,1403.28 1463.94,1403.28 1484.85,1403.28 
  1505.76,1403.28 1526.67,1403.28 1547.58,1403.28 1568.49,1403.28 1589.4,1403.28 1610.31,1403.28 1631.22,1403.28 1652.13,1403.28 1673.04,1403.28 1693.95,1403.28 
  1714.86,1403.28 1735.77,1403.28 1756.68,1403.28 1777.59,1403.28 1798.5,1403.28 1819.41,1403.28 1840.32,1403.28 1861.24,1403.28 1882.15,1403.28 1903.06,1403.28 
  1923.97,1403.28 1944.88,1403.28 1965.79,1403.28 1986.7,1403.28 2007.61,1403.28 2028.52,1403.28 2049.43,1403.28 2070.34,1403.28 2091.25,1403.28 2112.16,1403.28 
  2133.07,1403.28 2153.98,1403.28 2174.89,1403.28 2195.8,1403.28 2216.71,1403.28 2237.62,1403.28 2258.53,1403.28 2279.44,1403.28 2300.35,1403.28 2321.26,1403.28 
  
  "/>
<polyline clip-path="url(#clip2602)" style="stroke:#00a9ad; stroke-width:2.4; stroke-opacity:1; fill:none" points="
  251.149,1403.28 272.059,1403.28 292.969,1403.28 313.879,1403.28 334.789,1403.28 355.7,1403.28 376.61,1403.28 397.52,1403.28 418.43,1403.28 439.34,1403.28 
  460.251,1403.28 481.161,1403.28 502.071,1403.28 522.981,1403.28 543.892,1403.28 564.802,1403.28 585.712,1403.28 606.622,1403.28 627.532,1403.28 648.443,1403.28 
  669.353,1403.28 690.263,1403.28 711.173,1403.28 732.083,1403.28 752.994,1403.28 773.904,1403.28 794.814,1403.28 815.724,1403.28 836.635,1403.28 857.545,1403.28 
  878.455,1403.28 899.365,1403.28 920.275,1403.28 941.186,1403.28 962.096,1403.28 983.006,1403.28 1003.92,1403.28 1024.83,1403.28 1045.74,1403.28 1066.65,1403.28 
  1087.56,1403.28 1108.47,1403.28 1129.38,1403.28 1150.29,1403.28 1171.2,1403.28 1192.11,1403.28 1213.02,1403.28 1233.93,1403.28 1254.84,1403.28 1275.75,1403.28 
  1296.66,1403.28 1317.57,1403.28 1338.48,1403.28 1359.39,1403.28 1380.3,1403.28 1401.21,1403.28 1422.12,1403.28 1443.03,1403.28 1463.94,1403.28 1484.85,1403.28 
  1505.76,1403.28 1526.67,1403.28 1547.58,1403.28 1568.49,1403.28 1589.4,1403.28 1610.31,1403.28 1631.22,1403.28 1652.13,1403.28 1673.04,1403.28 1693.95,1403.28 
  1714.86,1403.28 1735.77,1403.28 1756.68,1403.28 1777.59,1403.28 1798.5,1403.28 1819.41,1403.28 1840.32,1403.28 1861.24,1403.28 1882.15,1403.28 1903.06,1403.28 
  1923.97,1403.28 1944.88,1403.28 1965.79,1403.28 1986.7,1403.28 2007.61,1403.28 2028.52,1403.28 2049.43,1403.28 2070.34,1403.28 2091.25,1403.28 2112.16,1403.28 
  2133.07,1403.28 2153.98,1403.28 2174.89,1403.28 2195.8,1403.28 2216.71,1403.28 2237.62,1403.28 2258.53,1403.28 2279.44,1403.28 2300.35,1403.28 2321.26,1403.28 
  
  "/>
<polyline clip-path="url(#clip2602)" style="stroke:#ed5d92; stroke-width:2.4; stroke-opacity:1; fill:none" points="
  251.149,1403.28 272.059,1403.28 292.969,1403.28 313.879,1403.28 334.789,1403.28 355.7,1403.28 376.61,1403.28 397.52,1403.28 418.43,1403.28 439.34,1403.28 
  460.251,1403.28 481.161,1403.28 502.071,1403.28 522.981,1403.28 543.892,1403.28 564.802,1403.28 585.712,1403.28 606.622,1403.28 627.532,1403.28 648.443,1403.28 
  669.353,1403.28 690.263,1403.28 711.173,1403.28 732.083,1403.28 752.994,1403.28 773.904,1403.28 794.814,1403.28 815.724,1403.28 836.635,1403.28 857.545,1403.28 
  878.455,1403.28 899.365,1403.28 920.275,1403.28 941.186,1403.28 962.096,1403.28 983.006,1403.28 1003.92,1403.28 1024.83,1403.28 1045.74,1403.28 1066.65,1403.28 
  1087.56,1403.28 1108.47,1403.28 1129.38,1403.28 1150.29,1403.28 1171.2,1403.28 1192.11,1403.28 1213.02,1403.28 1233.93,1403.28 1254.84,1403.28 1275.75,1403.28 
  1296.66,1403.28 1317.57,1403.28 1338.48,1403.28 1359.39,1403.28 1380.3,1403.28 1401.21,1403.28 1422.12,1403.28 1443.03,1403.28 1463.94,1403.28 1484.85,1403.28 
  1505.76,1403.28 1526.67,1403.28 1547.58,1403.28 1568.49,1403.28 1589.4,1403.28 1610.31,1403.28 1631.22,1403.28 1652.13,1403.28 1673.04,1403.28 1693.95,1403.28 
  1714.86,1403.28 1735.77,1403.28 1756.68,1403.28 1777.59,1403.28 1798.5,1403.28 1819.41,1403.28 1840.32,1403.28 1861.24,1403.28 1882.15,1403.28 1903.06,1403.28 
  1923.97,1403.28 1944.88,1403.28 1965.79,1403.28 1986.7,1403.28 2007.61,1403.28 2028.52,1403.28 2049.43,1403.28 2070.34,1403.28 2091.25,1403.28 2112.16,1403.28 
  2133.07,1403.28 2153.98,1403.28 2174.89,1403.28 2195.8,1403.28 2216.71,1403.28 2237.62,1403.28 2258.53,1403.28 2279.44,1403.28 2300.35,1403.28 2321.26,1403.28 
  
  "/>
<polyline clip-path="url(#clip2602)" style="stroke:#c68125; stroke-width:2.4; stroke-opacity:1; fill:none" points="
  251.149,1403.28 272.059,1403.28 292.969,1403.28 313.879,1403.28 334.789,1403.28 355.7,1403.28 376.61,1403.28 397.52,1403.28 418.43,1403.28 439.34,1403.28 
  460.251,1403.28 481.161,1403.28 502.071,1403.28 522.981,1403.28 543.892,1403.28 564.802,1403.28 585.712,1403.28 606.622,1403.28 627.532,1403.28 648.443,1403.28 
  669.353,1403.28 690.263,1403.28 711.173,1403.28 732.083,1403.28 752.994,1403.28 773.904,1403.28 794.814,1403.28 815.724,1403.28 836.635,1403.28 857.545,1403.28 
  878.455,1403.28 899.365,1403.28 920.275,1403.28 941.186,1403.28 962.096,1403.28 983.006,1403.28 1003.92,1403.28 1024.83,1403.28 1045.74,1403.28 1066.65,1403.28 
  1087.56,1403.28 1108.47,1403.28 1129.38,1403.28 1150.29,1403.28 1171.2,1403.28 1192.11,1403.28 1213.02,1403.28 1233.93,1403.28 1254.84,1403.28 1275.75,1403.28 
  1296.66,1403.28 1317.57,1403.28 1338.48,1403.28 1359.39,1403.28 1380.3,1403.28 1401.21,1403.28 1422.12,1403.28 1443.03,1403.28 1463.94,1403.28 1484.85,1403.28 
  1505.76,1403.28 1526.67,1403.28 1547.58,1403.28 1568.49,1403.28 1589.4,1403.28 1610.31,1403.28 1631.22,1403.28 1652.13,1403.28 1673.04,1403.28 1693.95,1403.28 
  1714.86,1403.28 1735.77,1403.28 1756.68,1403.28 1777.59,1403.28 1798.5,1403.28 1819.41,1403.28 1840.32,1403.28 1861.24,1403.28 1882.15,1403.28 1903.06,1403.28 
  1923.97,1403.28 1944.88,1403.28 1965.79,1403.28 1986.7,1403.28 2007.61,1403.28 2028.52,1403.28 2049.43,1403.28 2070.34,1403.28 2091.25,1403.28 2112.16,1403.28 
  2133.07,1403.28 2153.98,1403.28 2174.89,1403.28 2195.8,1403.28 2216.71,1403.28 2237.62,1403.28 2258.53,1403.28 2279.44,1403.28 2300.35,1403.28 2321.26,1403.28 
  
  "/>
<polyline clip-path="url(#clip2602)" style="stroke:#00a98d; stroke-width:2.4; stroke-opacity:1; fill:none" points="
  251.149,1403.28 272.059,1403.28 292.969,1403.28 313.879,1403.28 334.789,1403.28 355.7,1403.28 376.61,1403.28 397.52,1403.28 418.43,1403.28 439.34,1403.28 
  460.251,1403.28 481.161,1403.28 502.071,1403.28 522.981,1403.28 543.892,1403.28 564.802,1403.28 585.712,1403.28 606.622,1403.28 627.532,1403.28 648.443,1403.28 
  669.353,1403.28 690.263,1403.28 711.173,1403.28 732.083,1403.28 752.994,1403.28 773.904,1403.28 794.814,1403.28 815.724,1403.28 836.635,1403.28 857.545,1403.28 
  878.455,1403.28 899.365,1403.28 920.275,1403.28 941.186,1403.28 962.096,1403.28 983.006,1403.28 1003.92,1403.28 1024.83,1403.28 1045.74,1403.28 1066.65,1403.28 
  1087.56,1403.28 1108.47,1403.28 1129.38,1403.28 1150.29,1403.28 1171.2,1403.28 1192.11,1403.28 1213.02,1403.28 1233.93,1403.28 1254.84,1403.28 1275.75,1403.28 
  1296.66,1403.28 1317.57,1403.28 1338.48,1403.28 1359.39,1403.28 1380.3,1403.28 1401.21,1403.28 1422.12,1403.28 1443.03,1403.28 1463.94,1403.28 1484.85,1403.28 
  1505.76,1403.28 1526.67,1403.28 1547.58,1403.28 1568.49,1403.28 1589.4,1403.28 1610.31,1403.28 1631.22,1403.28 1652.13,1403.28 1673.04,1403.28 1693.95,1403.28 
  1714.86,1403.28 1735.77,1403.28 1756.68,1403.28 1777.59,1403.28 1798.5,1403.28 1819.41,1403.28 1840.32,1403.28 1861.24,1403.28 1882.15,1403.28 1903.06,1403.28 
  1923.97,1403.28 1944.88,1403.28 1965.79,1403.28 1986.7,1403.28 2007.61,1403.28 2028.52,1403.28 2049.43,1403.28 2070.34,1403.28 2091.25,1403.28 2112.16,1403.28 
  2133.07,1403.28 2153.98,1403.28 2174.89,1403.28 2195.8,1403.28 2216.71,1403.28 2237.62,1403.28 2258.53,1403.28 2279.44,1403.28 2300.35,1403.28 2321.26,1403.28 
  
  "/>
<polyline clip-path="url(#clip2602)" style="stroke:#8e971d; stroke-width:2.4; stroke-opacity:1; fill:none" points="
  251.149,1403.28 272.059,1403.28 292.969,1403.28 313.879,1403.28 334.789,1403.28 355.7,1403.28 376.61,1403.28 397.52,1403.28 418.43,1403.28 439.34,1403.28 
  460.251,1403.28 481.161,1403.28 502.071,1403.28 522.981,1403.28 543.892,1403.28 564.802,1403.28 585.712,1403.28 606.622,1403.28 627.532,1403.28 648.443,1403.28 
  669.353,1403.28 690.263,1403.28 711.173,1403.28 732.083,1403.28 752.994,1403.28 773.904,1403.28 794.814,1403.28 815.724,1403.28 836.635,1403.28 857.545,1403.28 
  878.455,1403.28 899.365,1403.28 920.275,1403.28 941.186,1403.28 962.096,1403.28 983.006,1403.28 1003.92,1403.28 1024.83,1403.28 1045.74,1403.28 1066.65,1403.28 
  1087.56,1403.28 1108.47,1403.28 1129.38,1403.28 1150.29,1403.28 1171.2,1403.28 1192.11,1403.28 1213.02,1403.28 1233.93,1403.28 1254.84,1403.28 1275.75,1403.28 
  1296.66,1403.28 1317.57,1403.28 1338.48,1403.28 1359.39,1403.28 1380.3,1403.28 1401.21,1403.28 1422.12,1403.28 1443.03,1403.28 1463.94,1403.28 1484.85,1403.28 
  1505.76,1403.28 1526.67,1403.28 1547.58,1403.28 1568.49,1403.28 1589.4,1403.28 1610.31,1403.28 1631.22,1403.28 1652.13,1403.28 1673.04,1403.28 1693.95,1403.28 
  1714.86,1403.28 1735.77,1403.28 1756.68,1403.28 1777.59,1403.28 1798.5,1403.28 1819.41,1403.28 1840.32,1403.28 1861.24,1403.28 1882.15,1403.28 1903.06,1403.28 
  1923.97,1403.28 1944.88,1403.28 1965.79,1403.28 1986.7,1403.28 2007.61,1403.28 2028.52,1403.28 2049.43,1403.28 2070.34,1403.28 2091.25,1403.28 2112.16,1403.28 
  2133.07,1403.28 2153.98,1403.28 2174.89,1403.28 2195.8,1403.28 2216.71,1403.28 2237.62,1403.28 2258.53,1403.28 2279.44,1403.28 2300.35,1403.28 2321.26,1403.28 
  
  "/>
<polyline clip-path="url(#clip2602)" style="stroke:#00a8cb; stroke-width:2.4; stroke-opacity:1; fill:none" points="
  251.149,1398.34 272.059,1398.33 292.969,1398.26 313.879,1398.05 334.789,1397.93 355.7,1397.76 376.61,1397.7 397.52,1397.64 418.43,1397.58 439.34,1397.53 
  460.251,1397.47 481.161,1397.42 502.071,1397.37 522.981,1397.32 543.892,1397.28 564.802,1397.23 585.712,1397.18 606.622,1397.14 627.532,1397.09 648.443,1397.05 
  669.353,1397 690.263,1396.96 711.173,1396.91 732.083,1396.86 752.994,1396.81 773.904,1396.75 794.814,1396.69 815.724,1396.6 836.635,1396.1 857.545,1396.07 
  878.455,1396.04 899.365,1396.01 920.275,1395.98 941.186,1395.95 962.096,1395.92 983.006,1395.88 1003.92,1395.85 1024.83,1395.82 1045.74,1395.78 1066.65,1395.74 
  1087.56,1395.7 1108.47,1395.66 1129.38,1395.62 1150.29,1395.57 1171.2,1395.53 1192.11,1395.47 1213.02,1395.41 1233.93,1394.83 1254.84,1394.8 1275.75,1394.78 
  1296.66,1394.75 1317.57,1394.73 1338.48,1394.7 1359.39,1394.68 1380.3,1394.65 1401.21,1394.63 1422.12,1394.6 1443.03,1394.58 1463.94,1394.55 1484.85,1394.52 
  1505.76,1394.49 1526.67,1394.46 1547.58,1394.44 1568.49,1394.41 1589.4,1394.38 1610.31,1394.35 1631.22,1394.32 1652.13,1394.28 1673.04,1394.25 1693.95,1394.22 
  1714.86,1394.19 1735.77,1394.15 1756.68,1394.12 1777.59,1394.08 1798.5,1394.05 1819.41,1394.01 1840.32,1393.97 1861.24,1393.93 1882.15,1393.89 1903.06,1393.85 
  1923.97,1393.81 1944.88,1393.77 1965.79,1393.72 1986.7,1393.67 2007.61,1393.63 2028.52,1393.58 2049.43,1393.53 2070.34,1393.47 2091.25,1393.42 2112.16,1393.36 
  2133.07,1393.3 2153.98,1393.23 2174.89,1393.17 2195.8,1393.1 2216.71,1393.02 2237.62,1389.12 2258.53,1386.01 2279.44,1385.99 2300.35,1385.97 2321.26,1385.95 
  
  "/>
<polygon clip-path="url(#clip2600)" points="
1851.43,814.304 2249.26,814.304 2249.26,209.504 1851.43,209.504 
  " fill="#ffffff" fill-rule="evenodd" fill-opacity="1"/>
<polyline clip-path="url(#clip2600)" style="stroke:#000000; stroke-width:4; stroke-opacity:1; fill:none" points="
  1851.43,814.304 2249.26,814.304 2249.26,209.504 1851.43,209.504 1851.43,814.304 
  "/>
<g clip-path="url(#clip2600)">
<text style="fill:#000000; fill-opacity:1; font-family:Arial,Helvetica Neue,Helvetica,sans-serif; font-size:48px; text-anchor:middle;" transform="rotate(0, 2050.34, 287.484)" x="2050.34" y="287.484">ranking</text>
</g>
<polyline clip-path="url(#clip2600)" style="stroke:#009af9; stroke-width:2.4; stroke-opacity:1; fill:none" points="
  1875.43,330.464 2019.43,330.464 
  "/>
<g clip-path="url(#clip2600)">
<text style="fill:#000000; fill-opacity:1; font-family:Symbol; font-size:52px; text-anchor:start;" transform="rotate(0, 2043.43, 354.192)" x="2043.43" y="354.192">σ</text>
</g>
<g clip-path="url(#clip2600)">
<text style="fill:#000000; fill-opacity:1; font-family:Arial,Helvetica Neue,Helvetica,sans-serif; font-size:38px; text-anchor:start;" transform="rotate(0, 2074.67, 326.781)" x="2074.67" y="326.781">2</text>
</g>
<g clip-path="url(#clip2600)">
<text style="fill:#000000; fill-opacity:1; font-family:Arial,Helvetica Neue,Helvetica,sans-serif; font-size:48px; text-anchor:start;" transform="rotate(0, 2096.42, 354.192)" x="2096.42" y="354.192">[40]</text>
</g>
<polyline clip-path="url(#clip2600)" style="stroke:#e26f46; stroke-width:2.4; stroke-opacity:1; fill:none" points="
  1875.43,390.944 2019.43,390.944 
  "/>
<g clip-path="url(#clip2600)">
<text style="fill:#000000; fill-opacity:1; font-family:Symbol; font-size:52px; text-anchor:start;" transform="rotate(0, 2043.43, 414.672)" x="2043.43" y="414.672">σ</text>
</g>
<g clip-path="url(#clip2600)">
<text style="fill:#000000; fill-opacity:1; font-family:Arial,Helvetica Neue,Helvetica,sans-serif; font-size:38px; text-anchor:start;" transform="rotate(0, 2074.67, 387.261)" x="2074.67" y="387.261">2</text>
</g>
<g clip-path="url(#clip2600)">
<text style="fill:#000000; fill-opacity:1; font-family:Arial,Helvetica Neue,Helvetica,sans-serif; font-size:48px; text-anchor:start;" transform="rotate(0, 2096.42, 414.672)" x="2096.42" y="414.672">[1]</text>
</g>
<polyline clip-path="url(#clip2600)" style="stroke:#3da44d; stroke-width:2.4; stroke-opacity:1; fill:none" points="
  1875.43,451.424 2019.43,451.424 
  "/>
<g clip-path="url(#clip2600)">
<text style="fill:#000000; fill-opacity:1; font-family:Symbol; font-size:52px; text-anchor:start;" transform="rotate(0, 2043.43, 475.152)" x="2043.43" y="475.152">σ</text>
</g>
<g clip-path="url(#clip2600)">
<text style="fill:#000000; fill-opacity:1; font-family:Arial,Helvetica Neue,Helvetica,sans-serif; font-size:38px; text-anchor:start;" transform="rotate(0, 2074.67, 447.741)" x="2074.67" y="447.741">2</text>
</g>
<g clip-path="url(#clip2600)">
<text style="fill:#000000; fill-opacity:1; font-family:Arial,Helvetica Neue,Helvetica,sans-serif; font-size:48px; text-anchor:start;" transform="rotate(0, 2096.42, 475.152)" x="2096.42" y="475.152">[21]</text>
</g>
<polyline clip-path="url(#clip2600)" style="stroke:#c271d2; stroke-width:2.4; stroke-opacity:1; fill:none" points="
  1875.43,511.904 2019.43,511.904 
  "/>
<g clip-path="url(#clip2600)">
<text style="fill:#000000; fill-opacity:1; font-family:Symbol; font-size:52px; text-anchor:start;" transform="rotate(0, 2043.43, 535.632)" x="2043.43" y="535.632">σ</text>
</g>
<g clip-path="url(#clip2600)">
<text style="fill:#000000; fill-opacity:1; font-family:Arial,Helvetica Neue,Helvetica,sans-serif; font-size:38px; text-anchor:start;" transform="rotate(0, 2074.67, 508.221)" x="2074.67" y="508.221">2</text>
</g>
<g clip-path="url(#clip2600)">
<text style="fill:#000000; fill-opacity:1; font-family:Arial,Helvetica Neue,Helvetica,sans-serif; font-size:48px; text-anchor:start;" transform="rotate(0, 2096.42, 535.632)" x="2096.42" y="535.632">[11]</text>
</g>
<polyline clip-path="url(#clip2600)" style="stroke:#ac8d18; stroke-width:2.4; stroke-opacity:1; fill:none" points="
  1875.43,572.384 2019.43,572.384 
  "/>
<g clip-path="url(#clip2600)">
<text style="fill:#000000; fill-opacity:1; font-family:Symbol; font-size:52px; text-anchor:start;" transform="rotate(0, 2043.43, 596.112)" x="2043.43" y="596.112">σ</text>
</g>
<g clip-path="url(#clip2600)">
<text style="fill:#000000; fill-opacity:1; font-family:Arial,Helvetica Neue,Helvetica,sans-serif; font-size:38px; text-anchor:start;" transform="rotate(0, 2074.67, 568.701)" x="2074.67" y="568.701">2</text>
</g>
<g clip-path="url(#clip2600)">
<text style="fill:#000000; fill-opacity:1; font-family:Arial,Helvetica Neue,Helvetica,sans-serif; font-size:48px; text-anchor:start;" transform="rotate(0, 2096.42, 596.112)" x="2096.42" y="596.112">[19]</text>
</g>
<polyline clip-path="url(#clip2600)" style="stroke:#00a9ad; stroke-width:2.4; stroke-opacity:1; fill:none" points="
  1875.43,632.864 2019.43,632.864 
  "/>
<g clip-path="url(#clip2600)">
<text style="fill:#000000; fill-opacity:1; font-family:Symbol; font-size:52px; text-anchor:start;" transform="rotate(0, 2043.43, 656.592)" x="2043.43" y="656.592">σ</text>
</g>
<g clip-path="url(#clip2600)">
<text style="fill:#000000; fill-opacity:1; font-family:Arial,Helvetica Neue,Helvetica,sans-serif; font-size:38px; text-anchor:start;" transform="rotate(0, 2074.67, 629.181)" x="2074.67" y="629.181">2</text>
</g>
<g clip-path="url(#clip2600)">
<text style="fill:#000000; fill-opacity:1; font-family:Arial,Helvetica Neue,Helvetica,sans-serif; font-size:48px; text-anchor:start;" transform="rotate(0, 2096.42, 656.592)" x="2096.42" y="656.592">[30]</text>
</g>
<polyline clip-path="url(#clip2600)" style="stroke:#ed5d92; stroke-width:2.4; stroke-opacity:1; fill:none" points="
  1875.43,693.344 2019.43,693.344 
  "/>
<g clip-path="url(#clip2600)">
<text style="fill:#000000; fill-opacity:1; font-family:Symbol; font-size:52px; text-anchor:start;" transform="rotate(0, 2043.43, 717.072)" x="2043.43" y="717.072">σ</text>
</g>
<g clip-path="url(#clip2600)">
<text style="fill:#000000; fill-opacity:1; font-family:Arial,Helvetica Neue,Helvetica,sans-serif; font-size:38px; text-anchor:start;" transform="rotate(0, 2074.67, 689.661)" x="2074.67" y="689.661">2</text>
</g>
<g clip-path="url(#clip2600)">
<text style="fill:#000000; fill-opacity:1; font-family:Arial,Helvetica Neue,Helvetica,sans-serif; font-size:48px; text-anchor:start;" transform="rotate(0, 2096.42, 717.072)" x="2096.42" y="717.072">[29]</text>
</g>
<polyline clip-path="url(#clip2600)" style="stroke:#c68125; stroke-width:2.4; stroke-opacity:1; fill:none" points="
  1875.43,753.824 2019.43,753.824 
  "/>
<g clip-path="url(#clip2600)">
<text style="fill:#000000; fill-opacity:1; font-family:Symbol; font-size:52px; text-anchor:start;" transform="rotate(0, 2043.43, 777.552)" x="2043.43" y="777.552">σ</text>
</g>
<g clip-path="url(#clip2600)">
<text style="fill:#000000; fill-opacity:1; font-family:Arial,Helvetica Neue,Helvetica,sans-serif; font-size:38px; text-anchor:start;" transform="rotate(0, 2074.67, 750.141)" x="2074.67" y="750.141">2</text>
</g>
<g clip-path="url(#clip2600)">
<text style="fill:#000000; fill-opacity:1; font-family:Arial,Helvetica Neue,Helvetica,sans-serif; font-size:48px; text-anchor:start;" transform="rotate(0, 2096.42, 777.552)" x="2096.42" y="777.552">[16]</text>
</g>
</svg>
