<?xml version="1.0" encoding="utf-8"?>
<svg xmlns="http://www.w3.org/2000/svg" xmlns:xlink="http://www.w3.org/1999/xlink" width="600" height="400" viewBox="0 0 2400 1600">
<defs>
  <clipPath id="clip7200">
    <rect x="0" y="0" width="2400" height="1600"/>
  </clipPath>
</defs>
<polygon clip-path="url(#clip7200)" points="
0,1600 2400,1600 2400,0 0,0 
  " fill="#ffffff" fill-rule="evenodd" fill-opacity="1"/>
<defs>
  <clipPath id="clip7201">
    <rect x="480" y="0" width="1681" height="1600"/>
  </clipPath>
</defs>
<polygon clip-path="url(#clip7200)" points="
251.149,1440.48 2321.26,1440.48 2321.26,125.984 251.149,125.984 
  " fill="#ffffff" fill-rule="evenodd" fill-opacity="1"/>
<defs>
  <clipPath id="clip7202">
    <rect x="251" y="125" width="2071" height="1315"/>
  </clipPath>
</defs>
<polyline clip-path="url(#clip7202)" style="stroke:#000000; stroke-width:2; stroke-opacity:0.1; fill:none" points="
  251.149,1440.48 251.149,125.984 
  "/>
<polyline clip-path="url(#clip7202)" style="stroke:#000000; stroke-width:2; stroke-opacity:0.1; fill:none" points="
  622.495,1440.48 622.495,125.984 
  "/>
<polyline clip-path="url(#clip7202)" style="stroke:#000000; stroke-width:2; stroke-opacity:0.1; fill:none" points="
  993.841,1440.48 993.841,125.984 
  "/>
<polyline clip-path="url(#clip7202)" style="stroke:#000000; stroke-width:2; stroke-opacity:0.1; fill:none" points="
  1365.19,1440.48 1365.19,125.984 
  "/>
<polyline clip-path="url(#clip7202)" style="stroke:#000000; stroke-width:2; stroke-opacity:0.1; fill:none" points="
  1736.53,1440.48 1736.53,125.984 
  "/>
<polyline clip-path="url(#clip7202)" style="stroke:#000000; stroke-width:2; stroke-opacity:0.1; fill:none" points="
  2107.88,1440.48 2107.88,125.984 
  "/>
<polyline clip-path="url(#clip7202)" style="stroke:#000000; stroke-width:2; stroke-opacity:0.1; fill:none" points="
  251.149,1403.28 2321.26,1403.28 
  "/>
<polyline clip-path="url(#clip7202)" style="stroke:#000000; stroke-width:2; stroke-opacity:0.1; fill:none" points="
  251.149,1103.7 2321.26,1103.7 
  "/>
<polyline clip-path="url(#clip7202)" style="stroke:#000000; stroke-width:2; stroke-opacity:0.1; fill:none" points="
  251.149,804.122 2321.26,804.122 
  "/>
<polyline clip-path="url(#clip7202)" style="stroke:#000000; stroke-width:2; stroke-opacity:0.1; fill:none" points="
  251.149,504.543 2321.26,504.543 
  "/>
<polyline clip-path="url(#clip7202)" style="stroke:#000000; stroke-width:2; stroke-opacity:0.1; fill:none" points="
  251.149,204.964 2321.26,204.964 
  "/>
<polyline clip-path="url(#clip7200)" style="stroke:#000000; stroke-width:4; stroke-opacity:1; fill:none" points="
  251.149,1440.48 2321.26,1440.48 
  "/>
<polyline clip-path="url(#clip7200)" style="stroke:#000000; stroke-width:4; stroke-opacity:1; fill:none" points="
  251.149,1440.48 251.149,125.984 
  "/>
<polyline clip-path="url(#clip7200)" style="stroke:#000000; stroke-width:4; stroke-opacity:1; fill:none" points="
  251.149,1440.48 251.149,1420.77 
  "/>
<polyline clip-path="url(#clip7200)" style="stroke:#000000; stroke-width:4; stroke-opacity:1; fill:none" points="
  622.495,1440.48 622.495,1420.77 
  "/>
<polyline clip-path="url(#clip7200)" style="stroke:#000000; stroke-width:4; stroke-opacity:1; fill:none" points="
  993.841,1440.48 993.841,1420.77 
  "/>
<polyline clip-path="url(#clip7200)" style="stroke:#000000; stroke-width:4; stroke-opacity:1; fill:none" points="
  1365.19,1440.48 1365.19,1420.77 
  "/>
<polyline clip-path="url(#clip7200)" style="stroke:#000000; stroke-width:4; stroke-opacity:1; fill:none" points="
  1736.53,1440.48 1736.53,1420.77 
  "/>
<polyline clip-path="url(#clip7200)" style="stroke:#000000; stroke-width:4; stroke-opacity:1; fill:none" points="
  2107.88,1440.48 2107.88,1420.77 
  "/>
<polyline clip-path="url(#clip7200)" style="stroke:#000000; stroke-width:4; stroke-opacity:1; fill:none" points="
  251.149,1403.28 282.2,1403.28 
  "/>
<polyline clip-path="url(#clip7200)" style="stroke:#000000; stroke-width:4; stroke-opacity:1; fill:none" points="
  251.149,1103.7 282.2,1103.7 
  "/>
<polyline clip-path="url(#clip7200)" style="stroke:#000000; stroke-width:4; stroke-opacity:1; fill:none" points="
  251.149,804.122 282.2,804.122 
  "/>
<polyline clip-path="url(#clip7200)" style="stroke:#000000; stroke-width:4; stroke-opacity:1; fill:none" points="
  251.149,504.543 282.2,504.543 
  "/>
<polyline clip-path="url(#clip7200)" style="stroke:#000000; stroke-width:4; stroke-opacity:1; fill:none" points="
  251.149,204.964 282.2,204.964 
  "/>
<g clip-path="url(#clip7200)">
<text style="fill:#000000; fill-opacity:1; font-family:Arial,Helvetica Neue,Helvetica,sans-serif; font-size:48px; text-anchor:middle;" transform="rotate(0, 251.149, 1494.48)" x="251.149" y="1494.48">0</text>
</g>
<g clip-path="url(#clip7200)">
<text style="fill:#000000; fill-opacity:1; font-family:Arial,Helvetica Neue,Helvetica,sans-serif; font-size:48px; text-anchor:middle;" transform="rotate(0, 622.495, 1494.48)" x="622.495" y="1494.48">50</text>
</g>
<g clip-path="url(#clip7200)">
<text style="fill:#000000; fill-opacity:1; font-family:Arial,Helvetica Neue,Helvetica,sans-serif; font-size:48px; text-anchor:middle;" transform="rotate(0, 993.841, 1494.48)" x="993.841" y="1494.48">100</text>
</g>
<g clip-path="url(#clip7200)">
<text style="fill:#000000; fill-opacity:1; font-family:Arial,Helvetica Neue,Helvetica,sans-serif; font-size:48px; text-anchor:middle;" transform="rotate(0, 1365.19, 1494.48)" x="1365.19" y="1494.48">150</text>
</g>
<g clip-path="url(#clip7200)">
<text style="fill:#000000; fill-opacity:1; font-family:Arial,Helvetica Neue,Helvetica,sans-serif; font-size:48px; text-anchor:middle;" transform="rotate(0, 1736.53, 1494.48)" x="1736.53" y="1494.48">200</text>
</g>
<g clip-path="url(#clip7200)">
<text style="fill:#000000; fill-opacity:1; font-family:Arial,Helvetica Neue,Helvetica,sans-serif; font-size:48px; text-anchor:middle;" transform="rotate(0, 2107.88, 1494.48)" x="2107.88" y="1494.48">250</text>
</g>
<g clip-path="url(#clip7200)">
<text style="fill:#000000; fill-opacity:1; font-family:Arial,Helvetica Neue,Helvetica,sans-serif; font-size:48px; text-anchor:end;" transform="rotate(0, 227.149, 1420.78)" x="227.149" y="1420.78">0.0</text>
</g>
<g clip-path="url(#clip7200)">
<text style="fill:#000000; fill-opacity:1; font-family:Arial,Helvetica Neue,Helvetica,sans-serif; font-size:48px; text-anchor:end;" transform="rotate(0, 227.149, 1121.2)" x="227.149" y="1121.2">2.5</text>
</g>
<g clip-path="url(#clip7200)">
<text style="fill:#000000; fill-opacity:1; font-family:Arial,Helvetica Neue,Helvetica,sans-serif; font-size:48px; text-anchor:end;" transform="rotate(0, 227.149, 821.622)" x="227.149" y="821.622">5.0</text>
</g>
<g clip-path="url(#clip7200)">
<text style="fill:#000000; fill-opacity:1; font-family:Arial,Helvetica Neue,Helvetica,sans-serif; font-size:48px; text-anchor:end;" transform="rotate(0, 227.149, 522.043)" x="227.149" y="522.043">7.5</text>
</g>
<g clip-path="url(#clip7200)">
<text style="fill:#000000; fill-opacity:1; font-family:Arial,Helvetica Neue,Helvetica,sans-serif; font-size:48px; text-anchor:end;" transform="rotate(0, 227.149, 222.464)" x="227.149" y="222.464">10.0</text>
</g>
<g clip-path="url(#clip7200)">
<text style="fill:#000000; fill-opacity:1; font-family:Arial,Helvetica Neue,Helvetica,sans-serif; font-size:84px; text-anchor:middle;" transform="rotate(0, 1286.2, 73.2)" x="1286.2" y="73.2">Solution Path (adaptive lasso penalty)</text>
</g>
<g clip-path="url(#clip7200)">
<text style="fill:#000000; fill-opacity:1; font-family:Symbol; font-size:72px; text-anchor:start;" transform="rotate(0, 1266.65, 1584.32)" x="1266.65" y="1584.32">λ</text>
</g>
<g clip-path="url(#clip7200)">
<text style="fill:#000000; fill-opacity:1; font-family:Symbol; font-size:72px; text-anchor:start;" transform="rotate(-90, 157.783, 819.663)" x="157.783" y="819.663">σ</text>
</g>
<g clip-path="url(#clip7200)">
<text style="fill:#000000; fill-opacity:1; font-family:Arial,Helvetica Neue,Helvetica,sans-serif; font-size:53px; text-anchor:start;" transform="rotate(-90, 120.094, 776.703)" x="120.094" y="776.703">2</text>
</g>
<polyline clip-path="url(#clip7202)" style="stroke:#009af9; stroke-width:4.8; stroke-opacity:1; fill:none" points="
  251.149,163.187 272.059,492.839 292.969,685.846 313.879,808.356 334.789,889.604 355.7,939.713 376.61,986.309 397.52,1023.02 418.43,1052.8 439.34,1077.54 
  460.251,1098.48 481.161,1116.46 502.071,1132.1 522.981,1145.88 543.892,1158.11 564.802,1169.06 585.712,1178.94 606.622,1187.91 627.532,1196.11 648.443,1203.63 
  669.353,1210.57 690.263,1217 711.173,1222.99 732.083,1228.57 752.994,1233.81 773.904,1238.73 794.814,1243.37 815.724,1247.75 836.635,1251.9 857.545,1255.79 
  878.455,1259.28 899.365,1263.16 920.275,1266.81 941.186,1270.34 962.096,1273.74 983.006,1277.07 1003.92,1280.31 1024.83,1283.48 1045.74,1286.66 1066.65,1294.54 
  1087.56,1297.73 1108.47,1300.72 1129.38,1303.77 1150.29,1323.35 1171.2,1325.27 1192.11,1327.04 1213.02,1328.72 1233.93,1330.35 1254.84,1331.97 1275.75,1333.52 
  1296.66,1335.03 1317.57,1336.53 1338.48,1337.97 1359.39,1339.39 1380.3,1340.75 1401.21,1342.12 1422.12,1343.47 1443.03,1344.78 1463.94,1346.09 1484.85,1347.38 
  1505.76,1348.66 1526.67,1349.96 1547.58,1351.28 1568.49,1352.63 1589.4,1366.04 1610.31,1366.83 1631.22,1367.5 1652.13,1368.15 1673.04,1368.79 1693.95,1369.41 
  1714.86,1369.97 1735.77,1370.57 1756.68,1371.16 1777.59,1371.74 1798.5,1372.32 1819.41,1372.82 1840.32,1373.37 1861.24,1373.91 1882.15,1374.4 1903.06,1374.92 
  1923.97,1375.44 1944.88,1375.95 1965.79,1376.4 1986.7,1376.9 2007.61,1377.39 2028.52,1377.83 2049.43,1378.31 2070.34,1378.74 2091.25,1379.2 2112.16,1379.63 
  2133.07,1380.09 2153.98,1380.55 2174.89,1380.95 2195.8,1381.36 2216.71,1381.81 2237.62,1382.22 2258.53,1382.62 2279.44,1383.07 2300.35,1383.47 2321.26,1383.88 
  
  "/>
<polyline clip-path="url(#clip7202)" style="stroke:#e26f46; stroke-width:4.8; stroke-opacity:1; fill:none" points="
  251.149,733.09 272.059,781.166 292.969,861.21 313.879,931.631 334.789,985.8 355.7,1028.81 376.61,1064.91 397.52,1094.8 418.43,1119.97 439.34,1141.47 
  460.251,1160.06 481.161,1176.31 502.071,1190.6 522.981,1203.33 543.892,1214.72 564.802,1224.95 585.712,1234.23 606.622,1242.65 627.532,1250.34 648.443,1257.4 
  669.353,1263.91 690.263,1269.9 711.173,1275.44 732.083,1280.58 752.994,1285.36 773.904,1289.8 794.814,1293.91 815.724,1297.72 836.635,1301.16 857.545,1303.84 
  878.455,1296.58 899.365,1300.51 920.275,1304.16 941.186,1307.63 962.096,1310.92 983.006,1314.06 1003.92,1317.05 1024.83,1319.88 1045.74,1322.58 1066.65,1323.24 
  1087.56,1326.5 1108.47,1329.43 1129.38,1332.26 1150.29,1334.31 1171.2,1337.49 1192.11,1340.13 1213.02,1342.57 1233.93,1344.95 1254.84,1347.35 1275.75,1349.59 
  1296.66,1351.78 1317.57,1354 1338.48,1356.09 1359.39,1358.14 1380.3,1360.08 1401.21,1362.07 1422.12,1364.06 1443.03,1365.97 1463.94,1367.89 1484.85,1369.79 
  1505.76,1371.69 1526.67,1373.65 1547.58,1375.7 1568.49,1377.84 1589.4,1403.28 1610.31,1403.28 1631.22,1403.28 1652.13,1403.28 1673.04,1403.28 1693.95,1403.28 
  1714.86,1403.28 1735.77,1403.28 1756.68,1403.28 1777.59,1403.28 1798.5,1403.28 1819.41,1403.28 1840.32,1403.28 1861.24,1403.28 1882.15,1403.28 1903.06,1403.28 
  1923.97,1403.28 1944.88,1403.28 1965.79,1403.28 1986.7,1403.28 2007.61,1403.28 2028.52,1403.28 2049.43,1403.28 2070.34,1403.28 2091.25,1403.28 2112.16,1403.28 
  2133.07,1403.28 2153.98,1403.28 2174.89,1403.28 2195.8,1403.28 2216.71,1403.28 2237.62,1403.28 2258.53,1403.28 2279.44,1403.28 2300.35,1403.28 2321.26,1403.28 
  
  "/>
<polyline clip-path="url(#clip7202)" style="stroke:#3da44d; stroke-width:4.8; stroke-opacity:1; fill:none" points="
  251.149,989.507 272.059,1035.61 292.969,1089.18 313.879,1127.2 334.789,1146.85 355.7,1090.36 376.61,1125.26 397.52,1153.53 418.43,1176.96 439.34,1196.73 
  460.251,1213.68 481.161,1228.4 502.071,1241.31 522.981,1252.75 543.892,1262.96 564.802,1272.11 585.712,1280.4 606.622,1287.92 627.532,1294.78 648.443,1301.07 
  669.353,1306.87 690.263,1312.22 711.173,1317.16 732.083,1321.77 752.994,1326.06 773.904,1330.06 794.814,1333.79 815.724,1337.27 836.635,1340.48 857.545,1343.18 
  878.455,1342.27 899.365,1345.84 920.275,1349.01 941.186,1352.06 962.096,1354.93 983.006,1357.7 1003.92,1360.33 1024.83,1362.81 1045.74,1365.22 1066.65,1365.58 
  1087.56,1369.45 1108.47,1372.74 1129.38,1376.14 1150.29,1403.28 1171.2,1403.28 1192.11,1403.28 1213.02,1403.28 1233.93,1403.28 1254.84,1403.28 1275.75,1403.28 
  1296.66,1403.28 1317.57,1403.28 1338.48,1403.28 1359.39,1403.28 1380.3,1403.28 1401.21,1403.28 1422.12,1403.28 1443.03,1403.28 1463.94,1403.28 1484.85,1403.28 
  1505.76,1403.28 1526.67,1403.28 1547.58,1403.28 1568.49,1403.28 1589.4,1403.28 1610.31,1403.28 1631.22,1403.28 1652.13,1403.28 1673.04,1403.28 1693.95,1403.28 
  1714.86,1403.28 1735.77,1403.28 1756.68,1403.28 1777.59,1403.28 1798.5,1403.28 1819.41,1403.28 1840.32,1403.28 1861.24,1403.28 1882.15,1403.28 1903.06,1403.28 
  1923.97,1403.28 1944.88,1403.28 1965.79,1403.28 1986.7,1403.28 2007.61,1403.28 2028.52,1403.28 2049.43,1403.28 2070.34,1403.28 2091.25,1403.28 2112.16,1403.28 
  2133.07,1403.28 2153.98,1403.28 2174.89,1403.28 2195.8,1403.28 2216.71,1403.28 2237.62,1403.28 2258.53,1403.28 2279.44,1403.28 2300.35,1403.28 2321.26,1403.28 
  
  "/>
<polyline clip-path="url(#clip7202)" style="stroke:#c271d2; stroke-width:4.8; stroke-opacity:1; fill:none" points="
  251.149,780.618 272.059,928.82 292.969,1045.99 313.879,1134.22 334.789,1191.63 355.7,1230.08 376.61,1258.48 397.52,1279.14 418.43,1294.87 439.34,1307.25 
  460.251,1317.2 481.161,1325.33 502.071,1332.03 522.981,1337.74 543.892,1342.61 564.802,1346.8 585.712,1350.48 606.622,1353.71 627.532,1356.6 648.443,1359.19 
  669.353,1361.54 690.263,1363.67 711.173,1365.63 732.083,1367.45 752.994,1369.14 773.904,1370.73 794.814,1372.24 815.724,1373.68 836.635,1375.1 857.545,1376.64 
  878.455,1380.18 899.365,1381.57 920.275,1382.77 941.186,1383.96 962.096,1385.14 983.006,1386.37 1003.92,1387.65 1024.83,1388.99 1045.74,1390.51 1066.65,1403.28 
  1087.56,1403.28 1108.47,1403.28 1129.38,1403.28 1150.29,1403.28 1171.2,1403.28 1192.11,1403.28 1213.02,1403.28 1233.93,1403.28 1254.84,1403.28 1275.75,1403.28 
  1296.66,1403.28 1317.57,1403.28 1338.48,1403.28 1359.39,1403.28 1380.3,1403.28 1401.21,1403.28 1422.12,1403.28 1443.03,1403.28 1463.94,1403.28 1484.85,1403.28 
  1505.76,1403.28 1526.67,1403.28 1547.58,1403.28 1568.49,1403.28 1589.4,1403.28 1610.31,1403.28 1631.22,1403.28 1652.13,1403.28 1673.04,1403.28 1693.95,1403.28 
  1714.86,1403.28 1735.77,1403.28 1756.68,1403.28 1777.59,1403.28 1798.5,1403.28 1819.41,1403.28 1840.32,1403.28 1861.24,1403.28 1882.15,1403.28 1903.06,1403.28 
  1923.97,1403.28 1944.88,1403.28 1965.79,1403.28 1986.7,1403.28 2007.61,1403.28 2028.52,1403.28 2049.43,1403.28 2070.34,1403.28 2091.25,1403.28 2112.16,1403.28 
  2133.07,1403.28 2153.98,1403.28 2174.89,1403.28 2195.8,1403.28 2216.71,1403.28 2237.62,1403.28 2258.53,1403.28 2279.44,1403.28 2300.35,1403.28 2321.26,1403.28 
  
  "/>
<polyline clip-path="url(#clip7202)" style="stroke:#ac8d18; stroke-width:4.8; stroke-opacity:1; fill:none" points="
  251.149,649.094 272.059,772.732 292.969,916.684 313.879,996.186 334.789,1053.28 355.7,1084.58 376.61,1126.16 397.52,1159.62 418.43,1187.16 439.34,1210.36 
  460.251,1230.15 481.161,1247.26 502.071,1261.98 522.981,1275.14 543.892,1286.85 564.802,1297.12 585.712,1306.57 606.622,1314.96 627.532,1322.62 648.443,1329.66 
  669.353,1336.31 690.263,1342.36 711.173,1347.89 732.083,1353.25 752.994,1358.26 773.904,1363.13 794.814,1367.85 815.724,1372.64 836.635,1377.76 857.545,1385.14 
  878.455,1403.28 899.365,1403.28 920.275,1403.28 941.186,1403.28 962.096,1403.28 983.006,1403.28 1003.92,1403.28 1024.83,1403.28 1045.74,1403.28 1066.65,1403.28 
  1087.56,1403.28 1108.47,1403.28 1129.38,1403.28 1150.29,1403.28 1171.2,1403.28 1192.11,1403.28 1213.02,1403.28 1233.93,1403.28 1254.84,1403.28 1275.75,1403.28 
  1296.66,1403.28 1317.57,1403.28 1338.48,1403.28 1359.39,1403.28 1380.3,1403.28 1401.21,1403.28 1422.12,1403.28 1443.03,1403.28 1463.94,1403.28 1484.85,1403.28 
  1505.76,1403.28 1526.67,1403.28 1547.58,1403.28 1568.49,1403.28 1589.4,1403.28 1610.31,1403.28 1631.22,1403.28 1652.13,1403.28 1673.04,1403.28 1693.95,1403.28 
  1714.86,1403.28 1735.77,1403.28 1756.68,1403.28 1777.59,1403.28 1798.5,1403.28 1819.41,1403.28 1840.32,1403.28 1861.24,1403.28 1882.15,1403.28 1903.06,1403.28 
  1923.97,1403.28 1944.88,1403.28 1965.79,1403.28 1986.7,1403.28 2007.61,1403.28 2028.52,1403.28 2049.43,1403.28 2070.34,1403.28 2091.25,1403.28 2112.16,1403.28 
  2133.07,1403.28 2153.98,1403.28 2174.89,1403.28 2195.8,1403.28 2216.71,1403.28 2237.62,1403.28 2258.53,1403.28 2279.44,1403.28 2300.35,1403.28 2321.26,1403.28 
  
  "/>
<polyline clip-path="url(#clip7202)" style="stroke:#00a9ad; stroke-width:4.8; stroke-opacity:1; fill:none" points="
  251.149,1231.59 272.059,1292.03 292.969,1328.67 313.879,1352.27 334.789,1370.59 355.7,1403.28 376.61,1403.28 397.52,1403.28 418.43,1403.28 439.34,1403.28 
  460.251,1403.28 481.161,1403.28 502.071,1403.28 522.981,1403.28 543.892,1403.28 564.802,1403.28 585.712,1403.28 606.622,1403.28 627.532,1403.28 648.443,1403.28 
  669.353,1403.28 690.263,1403.28 711.173,1403.28 732.083,1403.28 752.994,1403.28 773.904,1403.28 794.814,1403.28 815.724,1403.28 836.635,1403.28 857.545,1403.28 
  878.455,1403.28 899.365,1403.28 920.275,1403.28 941.186,1403.28 962.096,1403.28 983.006,1403.28 1003.92,1403.28 1024.83,1403.28 1045.74,1403.28 1066.65,1403.28 
  1087.56,1403.28 1108.47,1403.28 1129.38,1403.28 1150.29,1403.28 1171.2,1403.28 1192.11,1403.28 1213.02,1403.28 1233.93,1403.28 1254.84,1403.28 1275.75,1403.28 
  1296.66,1403.28 1317.57,1403.28 1338.48,1403.28 1359.39,1403.28 1380.3,1403.28 1401.21,1403.28 1422.12,1403.28 1443.03,1403.28 1463.94,1403.28 1484.85,1403.28 
  1505.76,1403.28 1526.67,1403.28 1547.58,1403.28 1568.49,1403.28 1589.4,1403.28 1610.31,1403.28 1631.22,1403.28 1652.13,1403.28 1673.04,1403.28 1693.95,1403.28 
  1714.86,1403.28 1735.77,1403.28 1756.68,1403.28 1777.59,1403.28 1798.5,1403.28 1819.41,1403.28 1840.32,1403.28 1861.24,1403.28 1882.15,1403.28 1903.06,1403.28 
  1923.97,1403.28 1944.88,1403.28 1965.79,1403.28 1986.7,1403.28 2007.61,1403.28 2028.52,1403.28 2049.43,1403.28 2070.34,1403.28 2091.25,1403.28 2112.16,1403.28 
  2133.07,1403.28 2153.98,1403.28 2174.89,1403.28 2195.8,1403.28 2216.71,1403.28 2237.62,1403.28 2258.53,1403.28 2279.44,1403.28 2300.35,1403.28 2321.26,1403.28 
  
  "/>
<polyline clip-path="url(#clip7202)" style="stroke:#ed5d92; stroke-width:4.8; stroke-opacity:1; fill:none" points="
  251.149,1174.54 272.059,1294.9 292.969,1403.28 313.879,1403.28 334.789,1403.28 355.7,1403.28 376.61,1403.28 397.52,1403.28 418.43,1403.28 439.34,1403.28 
  460.251,1403.28 481.161,1403.28 502.071,1403.28 522.981,1403.28 543.892,1403.28 564.802,1403.28 585.712,1403.28 606.622,1403.28 627.532,1403.28 648.443,1403.28 
  669.353,1403.28 690.263,1403.28 711.173,1403.28 732.083,1403.28 752.994,1403.28 773.904,1403.28 794.814,1403.28 815.724,1403.28 836.635,1403.28 857.545,1403.28 
  878.455,1403.28 899.365,1403.28 920.275,1403.28 941.186,1403.28 962.096,1403.28 983.006,1403.28 1003.92,1403.28 1024.83,1403.28 1045.74,1403.28 1066.65,1403.28 
  1087.56,1403.28 1108.47,1403.28 1129.38,1403.28 1150.29,1403.28 1171.2,1403.28 1192.11,1403.28 1213.02,1403.28 1233.93,1403.28 1254.84,1403.28 1275.75,1403.28 
  1296.66,1403.28 1317.57,1403.28 1338.48,1403.28 1359.39,1403.28 1380.3,1403.28 1401.21,1403.28 1422.12,1403.28 1443.03,1403.28 1463.94,1403.28 1484.85,1403.28 
  1505.76,1403.28 1526.67,1403.28 1547.58,1403.28 1568.49,1403.28 1589.4,1403.28 1610.31,1403.28 1631.22,1403.28 1652.13,1403.28 1673.04,1403.28 1693.95,1403.28 
  1714.86,1403.28 1735.77,1403.28 1756.68,1403.28 1777.59,1403.28 1798.5,1403.28 1819.41,1403.28 1840.32,1403.28 1861.24,1403.28 1882.15,1403.28 1903.06,1403.28 
  1923.97,1403.28 1944.88,1403.28 1965.79,1403.28 1986.7,1403.28 2007.61,1403.28 2028.52,1403.28 2049.43,1403.28 2070.34,1403.28 2091.25,1403.28 2112.16,1403.28 
  2133.07,1403.28 2153.98,1403.28 2174.89,1403.28 2195.8,1403.28 2216.71,1403.28 2237.62,1403.28 2258.53,1403.28 2279.44,1403.28 2300.35,1403.28 2321.26,1403.28 
  
  "/>
<polyline clip-path="url(#clip7202)" style="stroke:#c68125; stroke-width:4.8; stroke-opacity:1; fill:none" points="
  251.149,1403.28 272.059,1403.28 292.969,1403.28 313.879,1403.28 334.789,1403.28 355.7,1403.28 376.61,1403.28 397.52,1403.28 418.43,1403.28 439.34,1403.28 
  460.251,1403.28 481.161,1403.28 502.071,1403.28 522.981,1403.28 543.892,1403.28 564.802,1403.28 585.712,1403.28 606.622,1403.28 627.532,1403.28 648.443,1403.28 
  669.353,1403.28 690.263,1403.28 711.173,1403.28 732.083,1403.28 752.994,1403.28 773.904,1403.28 794.814,1403.28 815.724,1403.28 836.635,1403.28 857.545,1403.28 
  878.455,1403.28 899.365,1403.28 920.275,1403.28 941.186,1403.28 962.096,1403.28 983.006,1403.28 1003.92,1403.28 1024.83,1403.28 1045.74,1403.28 1066.65,1403.28 
  1087.56,1403.28 1108.47,1403.28 1129.38,1403.28 1150.29,1403.28 1171.2,1403.28 1192.11,1403.28 1213.02,1403.28 1233.93,1403.28 1254.84,1403.28 1275.75,1403.28 
  1296.66,1403.28 1317.57,1403.28 1338.48,1403.28 1359.39,1403.28 1380.3,1403.28 1401.21,1403.28 1422.12,1403.28 1443.03,1403.28 1463.94,1403.28 1484.85,1403.28 
  1505.76,1403.28 1526.67,1403.28 1547.58,1403.28 1568.49,1403.28 1589.4,1403.28 1610.31,1403.28 1631.22,1403.28 1652.13,1403.28 1673.04,1403.28 1693.95,1403.28 
  1714.86,1403.28 1735.77,1403.28 1756.68,1403.28 1777.59,1403.28 1798.5,1403.28 1819.41,1403.28 1840.32,1403.28 1861.24,1403.28 1882.15,1403.28 1903.06,1403.28 
  1923.97,1403.28 1944.88,1403.28 1965.79,1403.28 1986.7,1403.28 2007.61,1403.28 2028.52,1403.28 2049.43,1403.28 2070.34,1403.28 2091.25,1403.28 2112.16,1403.28 
  2133.07,1403.28 2153.98,1403.28 2174.89,1403.28 2195.8,1403.28 2216.71,1403.28 2237.62,1403.28 2258.53,1403.28 2279.44,1403.28 2300.35,1403.28 2321.26,1403.28 
  
  "/>
<polyline clip-path="url(#clip7202)" style="stroke:#00a98d; stroke-width:4.8; stroke-opacity:1; fill:none" points="
  251.149,1403.28 272.059,1403.28 292.969,1403.28 313.879,1403.28 334.789,1403.28 355.7,1403.28 376.61,1403.28 397.52,1403.28 418.43,1403.28 439.34,1403.28 
  460.251,1403.28 481.161,1403.28 502.071,1403.28 522.981,1403.28 543.892,1403.28 564.802,1403.28 585.712,1403.28 606.622,1403.28 627.532,1403.28 648.443,1403.28 
  669.353,1403.28 690.263,1403.28 711.173,1403.28 732.083,1403.28 752.994,1403.28 773.904,1403.28 794.814,1403.28 815.724,1403.28 836.635,1403.28 857.545,1403.28 
  878.455,1403.28 899.365,1403.28 920.275,1403.28 941.186,1403.28 962.096,1403.28 983.006,1403.28 1003.92,1403.28 1024.83,1403.28 1045.74,1403.28 1066.65,1403.28 
  1087.56,1403.28 1108.47,1403.28 1129.38,1403.28 1150.29,1403.28 1171.2,1403.28 1192.11,1403.28 1213.02,1403.28 1233.93,1403.28 1254.84,1403.28 1275.75,1403.28 
  1296.66,1403.28 1317.57,1403.28 1338.48,1403.28 1359.39,1403.28 1380.3,1403.28 1401.21,1403.28 1422.12,1403.28 1443.03,1403.28 1463.94,1403.28 1484.85,1403.28 
  1505.76,1403.28 1526.67,1403.28 1547.58,1403.28 1568.49,1403.28 1589.4,1403.28 1610.31,1403.28 1631.22,1403.28 1652.13,1403.28 1673.04,1403.28 1693.95,1403.28 
  1714.86,1403.28 1735.77,1403.28 1756.68,1403.28 1777.59,1403.28 1798.5,1403.28 1819.41,1403.28 1840.32,1403.28 1861.24,1403.28 1882.15,1403.28 1903.06,1403.28 
  1923.97,1403.28 1944.88,1403.28 1965.79,1403.28 1986.7,1403.28 2007.61,1403.28 2028.52,1403.28 2049.43,1403.28 2070.34,1403.28 2091.25,1403.28 2112.16,1403.28 
  2133.07,1403.28 2153.98,1403.28 2174.89,1403.28 2195.8,1403.28 2216.71,1403.28 2237.62,1403.28 2258.53,1403.28 2279.44,1403.28 2300.35,1403.28 2321.26,1403.28 
  
  "/>
<polyline clip-path="url(#clip7202)" style="stroke:#8e971d; stroke-width:4.8; stroke-opacity:1; fill:none" points="
  251.149,1403.28 272.059,1403.28 292.969,1403.28 313.879,1403.28 334.789,1403.28 355.7,1403.28 376.61,1403.28 397.52,1403.28 418.43,1403.28 439.34,1403.28 
  460.251,1403.28 481.161,1403.28 502.071,1403.28 522.981,1403.28 543.892,1403.28 564.802,1403.28 585.712,1403.28 606.622,1403.28 627.532,1403.28 648.443,1403.28 
  669.353,1403.28 690.263,1403.28 711.173,1403.28 732.083,1403.28 752.994,1403.28 773.904,1403.28 794.814,1403.28 815.724,1403.28 836.635,1403.28 857.545,1403.28 
  878.455,1403.28 899.365,1403.28 920.275,1403.28 941.186,1403.28 962.096,1403.28 983.006,1403.28 1003.92,1403.28 1024.83,1403.28 1045.74,1403.28 1066.65,1403.28 
  1087.56,1403.28 1108.47,1403.28 1129.38,1403.28 1150.29,1403.28 1171.2,1403.28 1192.11,1403.28 1213.02,1403.28 1233.93,1403.28 1254.84,1403.28 1275.75,1403.28 
  1296.66,1403.28 1317.57,1403.28 1338.48,1403.28 1359.39,1403.28 1380.3,1403.28 1401.21,1403.28 1422.12,1403.28 1443.03,1403.28 1463.94,1403.28 1484.85,1403.28 
  1505.76,1403.28 1526.67,1403.28 1547.58,1403.28 1568.49,1403.28 1589.4,1403.28 1610.31,1403.28 1631.22,1403.28 1652.13,1403.28 1673.04,1403.28 1693.95,1403.28 
  1714.86,1403.28 1735.77,1403.28 1756.68,1403.28 1777.59,1403.28 1798.5,1403.28 1819.41,1403.28 1840.32,1403.28 1861.24,1403.28 1882.15,1403.28 1903.06,1403.28 
  1923.97,1403.28 1944.88,1403.28 1965.79,1403.28 1986.7,1403.28 2007.61,1403.28 2028.52,1403.28 2049.43,1403.28 2070.34,1403.28 2091.25,1403.28 2112.16,1403.28 
  2133.07,1403.28 2153.98,1403.28 2174.89,1403.28 2195.8,1403.28 2216.71,1403.28 2237.62,1403.28 2258.53,1403.28 2279.44,1403.28 2300.35,1403.28 2321.26,1403.28 
  
  "/>
<polyline clip-path="url(#clip7202)" style="stroke:#00a8cb; stroke-width:4.8; stroke-opacity:1; fill:none" points="
  251.149,1403.28 272.059,1403.28 292.969,1403.28 313.879,1403.28 334.789,1403.28 355.7,1403.28 376.61,1403.28 397.52,1403.28 418.43,1403.28 439.34,1403.28 
  460.251,1403.28 481.161,1403.28 502.071,1403.28 522.981,1403.28 543.892,1403.28 564.802,1403.28 585.712,1403.28 606.622,1403.28 627.532,1403.28 648.443,1403.28 
  669.353,1403.28 690.263,1403.28 711.173,1403.28 732.083,1403.28 752.994,1403.28 773.904,1403.28 794.814,1403.28 815.724,1403.28 836.635,1403.28 857.545,1403.28 
  878.455,1403.28 899.365,1403.28 920.275,1403.28 941.186,1403.28 962.096,1403.28 983.006,1403.28 1003.92,1403.28 1024.83,1403.28 1045.74,1403.28 1066.65,1403.28 
  1087.56,1403.28 1108.47,1403.28 1129.38,1403.28 1150.29,1403.28 1171.2,1403.28 1192.11,1403.28 1213.02,1403.28 1233.93,1403.28 1254.84,1403.28 1275.75,1403.28 
  1296.66,1403.28 1317.57,1403.28 1338.48,1403.28 1359.39,1403.28 1380.3,1403.28 1401.21,1403.28 1422.12,1403.28 1443.03,1403.28 1463.94,1403.28 1484.85,1403.28 
  1505.76,1403.28 1526.67,1403.28 1547.58,1403.28 1568.49,1403.28 1589.4,1403.28 1610.31,1403.28 1631.22,1403.28 1652.13,1403.28 1673.04,1403.28 1693.95,1403.28 
  1714.86,1403.28 1735.77,1403.28 1756.68,1403.28 1777.59,1403.28 1798.5,1403.28 1819.41,1403.28 1840.32,1403.28 1861.24,1403.28 1882.15,1403.28 1903.06,1403.28 
  1923.97,1403.28 1944.88,1403.28 1965.79,1403.28 1986.7,1403.28 2007.61,1403.28 2028.52,1403.28 2049.43,1403.28 2070.34,1403.28 2091.25,1403.28 2112.16,1403.28 
  2133.07,1403.28 2153.98,1403.28 2174.89,1403.28 2195.8,1403.28 2216.71,1403.28 2237.62,1403.28 2258.53,1403.28 2279.44,1403.28 2300.35,1403.28 2321.26,1403.28 
  
  "/>
<polyline clip-path="url(#clip7202)" style="stroke:#9b7fe8; stroke-width:4.8; stroke-opacity:1; fill:none" points="
  251.149,1403.28 272.059,1403.28 292.969,1403.28 313.879,1403.28 334.789,1403.28 355.7,1403.28 376.61,1403.28 397.52,1403.28 418.43,1403.28 439.34,1403.28 
  460.251,1403.28 481.161,1403.28 502.071,1403.28 522.981,1403.28 543.892,1403.28 564.802,1403.28 585.712,1403.28 606.622,1403.28 627.532,1403.28 648.443,1403.28 
  669.353,1403.28 690.263,1403.28 711.173,1403.28 732.083,1403.28 752.994,1403.28 773.904,1403.28 794.814,1403.28 815.724,1403.28 836.635,1403.28 857.545,1403.28 
  878.455,1403.28 899.365,1403.28 920.275,1403.28 941.186,1403.28 962.096,1403.28 983.006,1403.28 1003.92,1403.28 1024.83,1403.28 1045.74,1403.28 1066.65,1403.28 
  1087.56,1403.28 1108.47,1403.28 1129.38,1403.28 1150.29,1403.28 1171.2,1403.28 1192.11,1403.28 1213.02,1403.28 1233.93,1403.28 1254.84,1403.28 1275.75,1403.28 
  1296.66,1403.28 1317.57,1403.28 1338.48,1403.28 1359.39,1403.28 1380.3,1403.28 1401.21,1403.28 1422.12,1403.28 1443.03,1403.28 1463.94,1403.28 1484.85,1403.28 
  1505.76,1403.28 1526.67,1403.28 1547.58,1403.28 1568.49,1403.28 1589.4,1403.28 1610.31,1403.28 1631.22,1403.28 1652.13,1403.28 1673.04,1403.28 1693.95,1403.28 
  1714.86,1403.28 1735.77,1403.28 1756.68,1403.28 1777.59,1403.28 1798.5,1403.28 1819.41,1403.28 1840.32,1403.28 1861.24,1403.28 1882.15,1403.28 1903.06,1403.28 
  1923.97,1403.28 1944.88,1403.28 1965.79,1403.28 1986.7,1403.28 2007.61,1403.28 2028.52,1403.28 2049.43,1403.28 2070.34,1403.28 2091.25,1403.28 2112.16,1403.28 
  2133.07,1403.28 2153.98,1403.28 2174.89,1403.28 2195.8,1403.28 2216.71,1403.28 2237.62,1403.28 2258.53,1403.28 2279.44,1403.28 2300.35,1403.28 2321.26,1403.28 
  
  "/>
<polyline clip-path="url(#clip7202)" style="stroke:#608cf6; stroke-width:4.8; stroke-opacity:1; fill:none" points="
  251.149,1403.28 272.059,1403.28 292.969,1403.28 313.879,1403.28 334.789,1403.28 355.7,1403.28 376.61,1403.28 397.52,1403.28 418.43,1403.28 439.34,1403.28 
  460.251,1403.28 481.161,1403.28 502.071,1403.28 522.981,1403.28 543.892,1403.28 564.802,1403.28 585.712,1403.28 606.622,1403.28 627.532,1403.28 648.443,1403.28 
  669.353,1403.28 690.263,1403.28 711.173,1403.28 732.083,1403.28 752.994,1403.28 773.904,1403.28 794.814,1403.28 815.724,1403.28 836.635,1403.28 857.545,1403.28 
  878.455,1403.28 899.365,1403.28 920.275,1403.28 941.186,1403.28 962.096,1403.28 983.006,1403.28 1003.92,1403.28 1024.83,1403.28 1045.74,1403.28 1066.65,1403.28 
  1087.56,1403.28 1108.47,1403.28 1129.38,1403.28 1150.29,1403.28 1171.2,1403.28 1192.11,1403.28 1213.02,1403.28 1233.93,1403.28 1254.84,1403.28 1275.75,1403.28 
  1296.66,1403.28 1317.57,1403.28 1338.48,1403.28 1359.39,1403.28 1380.3,1403.28 1401.21,1403.28 1422.12,1403.28 1443.03,1403.28 1463.94,1403.28 1484.85,1403.28 
  1505.76,1403.28 1526.67,1403.28 1547.58,1403.28 1568.49,1403.28 1589.4,1403.28 1610.31,1403.28 1631.22,1403.28 1652.13,1403.28 1673.04,1403.28 1693.95,1403.28 
  1714.86,1403.28 1735.77,1403.28 1756.68,1403.28 1777.59,1403.28 1798.5,1403.28 1819.41,1403.28 1840.32,1403.28 1861.24,1403.28 1882.15,1403.28 1903.06,1403.28 
  1923.97,1403.28 1944.88,1403.28 1965.79,1403.28 1986.7,1403.28 2007.61,1403.28 2028.52,1403.28 2049.43,1403.28 2070.34,1403.28 2091.25,1403.28 2112.16,1403.28 
  2133.07,1403.28 2153.98,1403.28 2174.89,1403.28 2195.8,1403.28 2216.71,1403.28 2237.62,1403.28 2258.53,1403.28 2279.44,1403.28 2300.35,1403.28 2321.26,1403.28 
  
  "/>
<polyline clip-path="url(#clip7202)" style="stroke:#f05f73; stroke-width:4.8; stroke-opacity:1; fill:none" points="
  251.149,1403.28 272.059,1403.28 292.969,1403.28 313.879,1403.28 334.789,1403.28 355.7,1403.28 376.61,1403.28 397.52,1403.28 418.43,1403.28 439.34,1403.28 
  460.251,1403.28 481.161,1403.28 502.071,1403.28 522.981,1403.28 543.892,1403.28 564.802,1403.28 585.712,1403.28 606.622,1403.28 627.532,1403.28 648.443,1403.28 
  669.353,1403.28 690.263,1403.28 711.173,1403.28 732.083,1403.28 752.994,1403.28 773.904,1403.28 794.814,1403.28 815.724,1403.28 836.635,1403.28 857.545,1403.28 
  878.455,1403.28 899.365,1403.28 920.275,1403.28 941.186,1403.28 962.096,1403.28 983.006,1403.28 1003.92,1403.28 1024.83,1403.28 1045.74,1403.28 1066.65,1403.28 
  1087.56,1403.28 1108.47,1403.28 1129.38,1403.28 1150.29,1403.28 1171.2,1403.28 1192.11,1403.28 1213.02,1403.28 1233.93,1403.28 1254.84,1403.28 1275.75,1403.28 
  1296.66,1403.28 1317.57,1403.28 1338.48,1403.28 1359.39,1403.28 1380.3,1403.28 1401.21,1403.28 1422.12,1403.28 1443.03,1403.28 1463.94,1403.28 1484.85,1403.28 
  1505.76,1403.28 1526.67,1403.28 1547.58,1403.28 1568.49,1403.28 1589.4,1403.28 1610.31,1403.28 1631.22,1403.28 1652.13,1403.28 1673.04,1403.28 1693.95,1403.28 
  1714.86,1403.28 1735.77,1403.28 1756.68,1403.28 1777.59,1403.28 1798.5,1403.28 1819.41,1403.28 1840.32,1403.28 1861.24,1403.28 1882.15,1403.28 1903.06,1403.28 
  1923.97,1403.28 1944.88,1403.28 1965.79,1403.28 1986.7,1403.28 2007.61,1403.28 2028.52,1403.28 2049.43,1403.28 2070.34,1403.28 2091.25,1403.28 2112.16,1403.28 
  2133.07,1403.28 2153.98,1403.28 2174.89,1403.28 2195.8,1403.28 2216.71,1403.28 2237.62,1403.28 2258.53,1403.28 2279.44,1403.28 2300.35,1403.28 2321.26,1403.28 
  
  "/>
<polyline clip-path="url(#clip7202)" style="stroke:#dd64b5; stroke-width:4.8; stroke-opacity:1; fill:none" points="
  251.149,1403.28 272.059,1403.28 292.969,1403.28 313.879,1403.28 334.789,1403.28 355.7,1403.28 376.61,1403.28 397.52,1403.28 418.43,1403.28 439.34,1403.28 
  460.251,1403.28 481.161,1403.28 502.071,1403.28 522.981,1403.28 543.892,1403.28 564.802,1403.28 585.712,1403.28 606.622,1403.28 627.532,1403.28 648.443,1403.28 
  669.353,1403.28 690.263,1403.28 711.173,1403.28 732.083,1403.28 752.994,1403.28 773.904,1403.28 794.814,1403.28 815.724,1403.28 836.635,1403.28 857.545,1403.28 
  878.455,1403.28 899.365,1403.28 920.275,1403.28 941.186,1403.28 962.096,1403.28 983.006,1403.28 1003.92,1403.28 1024.83,1403.28 1045.74,1403.28 1066.65,1403.28 
  1087.56,1403.28 1108.47,1403.28 1129.38,1403.28 1150.29,1403.28 1171.2,1403.28 1192.11,1403.28 1213.02,1403.28 1233.93,1403.28 1254.84,1403.28 1275.75,1403.28 
  1296.66,1403.28 1317.57,1403.28 1338.48,1403.28 1359.39,1403.28 1380.3,1403.28 1401.21,1403.28 1422.12,1403.28 1443.03,1403.28 1463.94,1403.28 1484.85,1403.28 
  1505.76,1403.28 1526.67,1403.28 1547.58,1403.28 1568.49,1403.28 1589.4,1403.28 1610.31,1403.28 1631.22,1403.28 1652.13,1403.28 1673.04,1403.28 1693.95,1403.28 
  1714.86,1403.28 1735.77,1403.28 1756.68,1403.28 1777.59,1403.28 1798.5,1403.28 1819.41,1403.28 1840.32,1403.28 1861.24,1403.28 1882.15,1403.28 1903.06,1403.28 
  1923.97,1403.28 1944.88,1403.28 1965.79,1403.28 1986.7,1403.28 2007.61,1403.28 2028.52,1403.28 2049.43,1403.28 2070.34,1403.28 2091.25,1403.28 2112.16,1403.28 
  2133.07,1403.28 2153.98,1403.28 2174.89,1403.28 2195.8,1403.28 2216.71,1403.28 2237.62,1403.28 2258.53,1403.28 2279.44,1403.28 2300.35,1403.28 2321.26,1403.28 
  
  "/>
<polyline clip-path="url(#clip7202)" style="stroke:#6b9e32; stroke-width:4.8; stroke-opacity:1; fill:none" points="
  251.149,1403.28 272.059,1403.28 292.969,1403.28 313.879,1403.28 334.789,1403.28 355.7,1403.28 376.61,1403.28 397.52,1403.28 418.43,1403.28 439.34,1403.28 
  460.251,1403.28 481.161,1403.28 502.071,1403.28 522.981,1403.28 543.892,1403.28 564.802,1403.28 585.712,1403.28 606.622,1403.28 627.532,1403.28 648.443,1403.28 
  669.353,1403.28 690.263,1403.28 711.173,1403.28 732.083,1403.28 752.994,1403.28 773.904,1403.28 794.814,1403.28 815.724,1403.28 836.635,1403.28 857.545,1403.28 
  878.455,1403.28 899.365,1403.28 920.275,1403.28 941.186,1403.28 962.096,1403.28 983.006,1403.28 1003.92,1403.28 1024.83,1403.28 1045.74,1403.28 1066.65,1403.28 
  1087.56,1403.28 1108.47,1403.28 1129.38,1403.28 1150.29,1403.28 1171.2,1403.28 1192.11,1403.28 1213.02,1403.28 1233.93,1403.28 1254.84,1403.28 1275.75,1403.28 
  1296.66,1403.28 1317.57,1403.28 1338.48,1403.28 1359.39,1403.28 1380.3,1403.28 1401.21,1403.28 1422.12,1403.28 1443.03,1403.28 1463.94,1403.28 1484.85,1403.28 
  1505.76,1403.28 1526.67,1403.28 1547.58,1403.28 1568.49,1403.28 1589.4,1403.28 1610.31,1403.28 1631.22,1403.28 1652.13,1403.28 1673.04,1403.28 1693.95,1403.28 
  1714.86,1403.28 1735.77,1403.28 1756.68,1403.28 1777.59,1403.28 1798.5,1403.28 1819.41,1403.28 1840.32,1403.28 1861.24,1403.28 1882.15,1403.28 1903.06,1403.28 
  1923.97,1403.28 1944.88,1403.28 1965.79,1403.28 1986.7,1403.28 2007.61,1403.28 2028.52,1403.28 2049.43,1403.28 2070.34,1403.28 2091.25,1403.28 2112.16,1403.28 
  2133.07,1403.28 2153.98,1403.28 2174.89,1403.28 2195.8,1403.28 2216.71,1403.28 2237.62,1403.28 2258.53,1403.28 2279.44,1403.28 2300.35,1403.28 2321.26,1403.28 
  
  "/>
<polyline clip-path="url(#clip7202)" style="stroke:#718c69; stroke-width:4.8; stroke-opacity:1; fill:none" points="
  251.149,1394.8 272.059,1403.28 292.969,1403.28 313.879,1403.28 334.789,1403.28 355.7,1403.28 376.61,1403.28 397.52,1403.28 418.43,1403.28 439.34,1403.28 
  460.251,1403.28 481.161,1403.28 502.071,1403.28 522.981,1403.28 543.892,1403.28 564.802,1403.28 585.712,1403.28 606.622,1403.28 627.532,1403.28 648.443,1403.28 
  669.353,1403.28 690.263,1403.28 711.173,1403.28 732.083,1403.28 752.994,1403.28 773.904,1403.28 794.814,1403.28 815.724,1403.28 836.635,1403.28 857.545,1403.28 
  878.455,1403.28 899.365,1403.28 920.275,1403.28 941.186,1403.28 962.096,1403.28 983.006,1403.28 1003.92,1403.28 1024.83,1403.28 1045.74,1403.28 1066.65,1403.28 
  1087.56,1403.28 1108.47,1403.28 1129.38,1403.28 1150.29,1403.28 1171.2,1403.28 1192.11,1403.28 1213.02,1403.28 1233.93,1403.28 1254.84,1403.28 1275.75,1403.28 
  1296.66,1403.28 1317.57,1403.28 1338.48,1403.28 1359.39,1403.28 1380.3,1403.28 1401.21,1403.28 1422.12,1403.28 1443.03,1403.28 1463.94,1403.28 1484.85,1403.28 
  1505.76,1403.28 1526.67,1403.28 1547.58,1403.28 1568.49,1403.28 1589.4,1403.28 1610.31,1403.28 1631.22,1403.28 1652.13,1403.28 1673.04,1403.28 1693.95,1403.28 
  1714.86,1403.28 1735.77,1403.28 1756.68,1403.28 1777.59,1403.28 1798.5,1403.28 1819.41,1403.28 1840.32,1403.28 1861.24,1403.28 1882.15,1403.28 1903.06,1403.28 
  1923.97,1403.28 1944.88,1403.28 1965.79,1403.28 1986.7,1403.28 2007.61,1403.28 2028.52,1403.28 2049.43,1403.28 2070.34,1403.28 2091.25,1403.28 2112.16,1403.28 
  2133.07,1403.28 2153.98,1403.28 2174.89,1403.28 2195.8,1403.28 2216.71,1403.28 2237.62,1403.28 2258.53,1403.28 2279.44,1403.28 2300.35,1403.28 2321.26,1403.28 
  
  "/>
<polyline clip-path="url(#clip7202)" style="stroke:#47988b; stroke-width:4.8; stroke-opacity:1; fill:none" points="
  251.149,1403.28 272.059,1403.28 292.969,1403.28 313.879,1403.28 334.789,1403.28 355.7,1403.28 376.61,1403.28 397.52,1403.28 418.43,1403.28 439.34,1403.28 
  460.251,1403.28 481.161,1403.28 502.071,1403.28 522.981,1403.28 543.892,1403.28 564.802,1403.28 585.712,1403.28 606.622,1403.28 627.532,1403.28 648.443,1403.28 
  669.353,1403.28 690.263,1403.28 711.173,1403.28 732.083,1403.28 752.994,1403.28 773.904,1403.28 794.814,1403.28 815.724,1403.28 836.635,1403.28 857.545,1403.28 
  878.455,1403.28 899.365,1403.28 920.275,1403.28 941.186,1403.28 962.096,1403.28 983.006,1403.28 1003.92,1403.28 1024.83,1403.28 1045.74,1403.28 1066.65,1403.28 
  1087.56,1403.28 1108.47,1403.28 1129.38,1403.28 1150.29,1403.28 1171.2,1403.28 1192.11,1403.28 1213.02,1403.28 1233.93,1403.28 1254.84,1403.28 1275.75,1403.28 
  1296.66,1403.28 1317.57,1403.28 1338.48,1403.28 1359.39,1403.28 1380.3,1403.28 1401.21,1403.28 1422.12,1403.28 1443.03,1403.28 1463.94,1403.28 1484.85,1403.28 
  1505.76,1403.28 1526.67,1403.28 1547.58,1403.28 1568.49,1403.28 1589.4,1403.28 1610.31,1403.28 1631.22,1403.28 1652.13,1403.28 1673.04,1403.28 1693.95,1403.28 
  1714.86,1403.28 1735.77,1403.28 1756.68,1403.28 1777.59,1403.28 1798.5,1403.28 1819.41,1403.28 1840.32,1403.28 1861.24,1403.28 1882.15,1403.28 1903.06,1403.28 
  1923.97,1403.28 1944.88,1403.28 1965.79,1403.28 1986.7,1403.28 2007.61,1403.28 2028.52,1403.28 2049.43,1403.28 2070.34,1403.28 2091.25,1403.28 2112.16,1403.28 
  2133.07,1403.28 2153.98,1403.28 2174.89,1403.28 2195.8,1403.28 2216.71,1403.28 2237.62,1403.28 2258.53,1403.28 2279.44,1403.28 2300.35,1403.28 2321.26,1403.28 
  
  "/>
<polyline clip-path="url(#clip7202)" style="stroke:#1ea68c; stroke-width:4.8; stroke-opacity:1; fill:none" points="
  251.149,1403.28 272.059,1403.28 292.969,1403.28 313.879,1403.28 334.789,1403.28 355.7,1403.28 376.61,1403.28 397.52,1403.28 418.43,1403.28 439.34,1403.28 
  460.251,1403.28 481.161,1403.28 502.071,1403.28 522.981,1403.28 543.892,1403.28 564.802,1403.28 585.712,1403.28 606.622,1403.28 627.532,1403.28 648.443,1403.28 
  669.353,1403.28 690.263,1403.28 711.173,1403.28 732.083,1403.28 752.994,1403.28 773.904,1403.28 794.814,1403.28 815.724,1403.28 836.635,1403.28 857.545,1403.28 
  878.455,1403.28 899.365,1403.28 920.275,1403.28 941.186,1403.28 962.096,1403.28 983.006,1403.28 1003.92,1403.28 1024.83,1403.28 1045.74,1403.28 1066.65,1403.28 
  1087.56,1403.28 1108.47,1403.28 1129.38,1403.28 1150.29,1403.28 1171.2,1403.28 1192.11,1403.28 1213.02,1403.28 1233.93,1403.28 1254.84,1403.28 1275.75,1403.28 
  1296.66,1403.28 1317.57,1403.28 1338.48,1403.28 1359.39,1403.28 1380.3,1403.28 1401.21,1403.28 1422.12,1403.28 1443.03,1403.28 1463.94,1403.28 1484.85,1403.28 
  1505.76,1403.28 1526.67,1403.28 1547.58,1403.28 1568.49,1403.28 1589.4,1403.28 1610.31,1403.28 1631.22,1403.28 1652.13,1403.28 1673.04,1403.28 1693.95,1403.28 
  1714.86,1403.28 1735.77,1403.28 1756.68,1403.28 1777.59,1403.28 1798.5,1403.28 1819.41,1403.28 1840.32,1403.28 1861.24,1403.28 1882.15,1403.28 1903.06,1403.28 
  1923.97,1403.28 1944.88,1403.28 1965.79,1403.28 1986.7,1403.28 2007.61,1403.28 2028.52,1403.28 2049.43,1403.28 2070.34,1403.28 2091.25,1403.28 2112.16,1403.28 
  2133.07,1403.28 2153.98,1403.28 2174.89,1403.28 2195.8,1403.28 2216.71,1403.28 2237.62,1403.28 2258.53,1403.28 2279.44,1403.28 2300.35,1403.28 2321.26,1403.28 
  
  "/>
<polyline clip-path="url(#clip7202)" style="stroke:#af78dd; stroke-width:4.8; stroke-opacity:1; fill:none" points="
  251.149,1403.28 272.059,1403.28 292.969,1403.28 313.879,1403.28 334.789,1403.28 355.7,1403.28 376.61,1403.28 397.52,1403.28 418.43,1403.28 439.34,1403.28 
  460.251,1403.28 481.161,1403.28 502.071,1403.28 522.981,1403.28 543.892,1403.28 564.802,1403.28 585.712,1403.28 606.622,1403.28 627.532,1403.28 648.443,1403.28 
  669.353,1403.28 690.263,1403.28 711.173,1403.28 732.083,1403.28 752.994,1403.28 773.904,1403.28 794.814,1403.28 815.724,1403.28 836.635,1403.28 857.545,1403.28 
  878.455,1403.28 899.365,1403.28 920.275,1403.28 941.186,1403.28 962.096,1403.28 983.006,1403.28 1003.92,1403.28 1024.83,1403.28 1045.74,1403.28 1066.65,1403.28 
  1087.56,1403.28 1108.47,1403.28 1129.38,1403.28 1150.29,1403.28 1171.2,1403.28 1192.11,1403.28 1213.02,1403.28 1233.93,1403.28 1254.84,1403.28 1275.75,1403.28 
  1296.66,1403.28 1317.57,1403.28 1338.48,1403.28 1359.39,1403.28 1380.3,1403.28 1401.21,1403.28 1422.12,1403.28 1443.03,1403.28 1463.94,1403.28 1484.85,1403.28 
  1505.76,1403.28 1526.67,1403.28 1547.58,1403.28 1568.49,1403.28 1589.4,1403.28 1610.31,1403.28 1631.22,1403.28 1652.13,1403.28 1673.04,1403.28 1693.95,1403.28 
  1714.86,1403.28 1735.77,1403.28 1756.68,1403.28 1777.59,1403.28 1798.5,1403.28 1819.41,1403.28 1840.32,1403.28 1861.24,1403.28 1882.15,1403.28 1903.06,1403.28 
  1923.97,1403.28 1944.88,1403.28 1965.79,1403.28 1986.7,1403.28 2007.61,1403.28 2028.52,1403.28 2049.43,1403.28 2070.34,1403.28 2091.25,1403.28 2112.16,1403.28 
  2133.07,1403.28 2153.98,1403.28 2174.89,1403.28 2195.8,1403.28 2216.71,1403.28 2237.62,1403.28 2258.53,1403.28 2279.44,1403.28 2300.35,1403.28 2321.26,1403.28 
  
  "/>
<polyline clip-path="url(#clip7202)" style="stroke:#868d87; stroke-width:4.8; stroke-opacity:1; fill:none" points="
  251.149,923.513 272.059,1403.28 292.969,1403.28 313.879,1403.28 334.789,1403.28 355.7,1403.28 376.61,1403.28 397.52,1403.28 418.43,1403.28 439.34,1403.28 
  460.251,1403.28 481.161,1403.28 502.071,1403.28 522.981,1403.28 543.892,1403.28 564.802,1403.28 585.712,1403.28 606.622,1403.28 627.532,1403.28 648.443,1403.28 
  669.353,1403.28 690.263,1403.28 711.173,1403.28 732.083,1403.28 752.994,1403.28 773.904,1403.28 794.814,1403.28 815.724,1403.28 836.635,1403.28 857.545,1403.28 
  878.455,1403.28 899.365,1403.28 920.275,1403.28 941.186,1403.28 962.096,1403.28 983.006,1403.28 1003.92,1403.28 1024.83,1403.28 1045.74,1403.28 1066.65,1403.28 
  1087.56,1403.28 1108.47,1403.28 1129.38,1403.28 1150.29,1403.28 1171.2,1403.28 1192.11,1403.28 1213.02,1403.28 1233.93,1403.28 1254.84,1403.28 1275.75,1403.28 
  1296.66,1403.28 1317.57,1403.28 1338.48,1403.28 1359.39,1403.28 1380.3,1403.28 1401.21,1403.28 1422.12,1403.28 1443.03,1403.28 1463.94,1403.28 1484.85,1403.28 
  1505.76,1403.28 1526.67,1403.28 1547.58,1403.28 1568.49,1403.28 1589.4,1403.28 1610.31,1403.28 1631.22,1403.28 1652.13,1403.28 1673.04,1403.28 1693.95,1403.28 
  1714.86,1403.28 1735.77,1403.28 1756.68,1403.28 1777.59,1403.28 1798.5,1403.28 1819.41,1403.28 1840.32,1403.28 1861.24,1403.28 1882.15,1403.28 1903.06,1403.28 
  1923.97,1403.28 1944.88,1403.28 1965.79,1403.28 1986.7,1403.28 2007.61,1403.28 2028.52,1403.28 2049.43,1403.28 2070.34,1403.28 2091.25,1403.28 2112.16,1403.28 
  2133.07,1403.28 2153.98,1403.28 2174.89,1403.28 2195.8,1403.28 2216.71,1403.28 2237.62,1403.28 2258.53,1403.28 2279.44,1403.28 2300.35,1403.28 2321.26,1403.28 
  
  "/>
<polyline clip-path="url(#clip7202)" style="stroke:#47a065; stroke-width:4.8; stroke-opacity:1; fill:none" points="
  251.149,1403.28 272.059,1403.28 292.969,1403.28 313.879,1403.28 334.789,1403.28 355.7,1403.28 376.61,1403.28 397.52,1403.28 418.43,1403.28 439.34,1403.28 
  460.251,1403.28 481.161,1403.28 502.071,1403.28 522.981,1403.28 543.892,1403.28 564.802,1403.28 585.712,1403.28 606.622,1403.28 627.532,1403.28 648.443,1403.28 
  669.353,1403.28 690.263,1403.28 711.173,1403.28 732.083,1403.28 752.994,1403.28 773.904,1403.28 794.814,1403.28 815.724,1403.28 836.635,1403.28 857.545,1403.28 
  878.455,1403.28 899.365,1403.28 920.275,1403.28 941.186,1403.28 962.096,1403.28 983.006,1403.28 1003.92,1403.28 1024.83,1403.28 1045.74,1403.28 1066.65,1403.28 
  1087.56,1403.28 1108.47,1403.28 1129.38,1403.28 1150.29,1403.28 1171.2,1403.28 1192.11,1403.28 1213.02,1403.28 1233.93,1403.28 1254.84,1403.28 1275.75,1403.28 
  1296.66,1403.28 1317.57,1403.28 1338.48,1403.28 1359.39,1403.28 1380.3,1403.28 1401.21,1403.28 1422.12,1403.28 1443.03,1403.28 1463.94,1403.28 1484.85,1403.28 
  1505.76,1403.28 1526.67,1403.28 1547.58,1403.28 1568.49,1403.28 1589.4,1403.28 1610.31,1403.28 1631.22,1403.28 1652.13,1403.28 1673.04,1403.28 1693.95,1403.28 
  1714.86,1403.28 1735.77,1403.28 1756.68,1403.28 1777.59,1403.28 1798.5,1403.28 1819.41,1403.28 1840.32,1403.28 1861.24,1403.28 1882.15,1403.28 1903.06,1403.28 
  1923.97,1403.28 1944.88,1403.28 1965.79,1403.28 1986.7,1403.28 2007.61,1403.28 2028.52,1403.28 2049.43,1403.28 2070.34,1403.28 2091.25,1403.28 2112.16,1403.28 
  2133.07,1403.28 2153.98,1403.28 2174.89,1403.28 2195.8,1403.28 2216.71,1403.28 2237.62,1403.28 2258.53,1403.28 2279.44,1403.28 2300.35,1403.28 2321.26,1403.28 
  
  "/>
<polyline clip-path="url(#clip7202)" style="stroke:#7683af; stroke-width:4.8; stroke-opacity:1; fill:none" points="
  251.149,1403.26 272.059,1403.28 292.969,1403.28 313.879,1403.28 334.789,1403.28 355.7,1403.28 376.61,1403.28 397.52,1403.28 418.43,1403.28 439.34,1403.28 
  460.251,1403.28 481.161,1403.28 502.071,1403.28 522.981,1403.28 543.892,1403.28 564.802,1403.28 585.712,1403.28 606.622,1403.28 627.532,1403.28 648.443,1403.28 
  669.353,1403.28 690.263,1403.28 711.173,1403.28 732.083,1403.28 752.994,1403.28 773.904,1403.28 794.814,1403.28 815.724,1403.28 836.635,1403.28 857.545,1403.28 
  878.455,1403.28 899.365,1403.28 920.275,1403.28 941.186,1403.28 962.096,1403.28 983.006,1403.28 1003.92,1403.28 1024.83,1403.28 1045.74,1403.28 1066.65,1403.28 
  1087.56,1403.28 1108.47,1403.28 1129.38,1403.28 1150.29,1403.28 1171.2,1403.28 1192.11,1403.28 1213.02,1403.28 1233.93,1403.28 1254.84,1403.28 1275.75,1403.28 
  1296.66,1403.28 1317.57,1403.28 1338.48,1403.28 1359.39,1403.28 1380.3,1403.28 1401.21,1403.28 1422.12,1403.28 1443.03,1403.28 1463.94,1403.28 1484.85,1403.28 
  1505.76,1403.28 1526.67,1403.28 1547.58,1403.28 1568.49,1403.28 1589.4,1403.28 1610.31,1403.28 1631.22,1403.28 1652.13,1403.28 1673.04,1403.28 1693.95,1403.28 
  1714.86,1403.28 1735.77,1403.28 1756.68,1403.28 1777.59,1403.28 1798.5,1403.28 1819.41,1403.28 1840.32,1403.28 1861.24,1403.28 1882.15,1403.28 1903.06,1403.28 
  1923.97,1403.28 1944.88,1403.28 1965.79,1403.28 1986.7,1403.28 2007.61,1403.28 2028.52,1403.28 2049.43,1403.28 2070.34,1403.28 2091.25,1403.28 2112.16,1403.28 
  2133.07,1403.28 2153.98,1403.28 2174.89,1403.28 2195.8,1403.28 2216.71,1403.28 2237.62,1403.28 2258.53,1403.28 2279.44,1403.28 2300.35,1403.28 2321.26,1403.28 
  
  "/>
<polyline clip-path="url(#clip7202)" style="stroke:#b08086; stroke-width:4.8; stroke-opacity:1; fill:none" points="
  251.149,1336.34 272.059,1403.28 292.969,1403.28 313.879,1403.28 334.789,1403.28 355.7,1403.28 376.61,1403.28 397.52,1403.28 418.43,1403.28 439.34,1403.28 
  460.251,1403.28 481.161,1403.28 502.071,1403.28 522.981,1403.28 543.892,1403.28 564.802,1403.28 585.712,1403.28 606.622,1403.28 627.532,1403.28 648.443,1403.28 
  669.353,1403.28 690.263,1403.28 711.173,1403.28 732.083,1403.28 752.994,1403.28 773.904,1403.28 794.814,1403.28 815.724,1403.28 836.635,1403.28 857.545,1403.28 
  878.455,1403.28 899.365,1403.28 920.275,1403.28 941.186,1403.28 962.096,1403.28 983.006,1403.28 1003.92,1403.28 1024.83,1403.28 1045.74,1403.28 1066.65,1403.28 
  1087.56,1403.28 1108.47,1403.28 1129.38,1403.28 1150.29,1403.28 1171.2,1403.28 1192.11,1403.28 1213.02,1403.28 1233.93,1403.28 1254.84,1403.28 1275.75,1403.28 
  1296.66,1403.28 1317.57,1403.28 1338.48,1403.28 1359.39,1403.28 1380.3,1403.28 1401.21,1403.28 1422.12,1403.28 1443.03,1403.28 1463.94,1403.28 1484.85,1403.28 
  1505.76,1403.28 1526.67,1403.28 1547.58,1403.28 1568.49,1403.28 1589.4,1403.28 1610.31,1403.28 1631.22,1403.28 1652.13,1403.28 1673.04,1403.28 1693.95,1403.28 
  1714.86,1403.28 1735.77,1403.28 1756.68,1403.28 1777.59,1403.28 1798.5,1403.28 1819.41,1403.28 1840.32,1403.28 1861.24,1403.28 1882.15,1403.28 1903.06,1403.28 
  1923.97,1403.28 1944.88,1403.28 1965.79,1403.28 1986.7,1403.28 2007.61,1403.28 2028.52,1403.28 2049.43,1403.28 2070.34,1403.28 2091.25,1403.28 2112.16,1403.28 
  2133.07,1403.28 2153.98,1403.28 2174.89,1403.28 2195.8,1403.28 2216.71,1403.28 2237.62,1403.28 2258.53,1403.28 2279.44,1403.28 2300.35,1403.28 2321.26,1403.28 
  
  "/>
<polyline clip-path="url(#clip7202)" style="stroke:#309ac1; stroke-width:4.8; stroke-opacity:1; fill:none" points="
  251.149,1403.28 272.059,1403.28 292.969,1403.28 313.879,1403.28 334.789,1403.28 355.7,1403.28 376.61,1403.28 397.52,1403.28 418.43,1403.28 439.34,1403.28 
  460.251,1403.28 481.161,1403.28 502.071,1403.28 522.981,1403.28 543.892,1403.28 564.802,1403.28 585.712,1403.28 606.622,1403.28 627.532,1403.28 648.443,1403.28 
  669.353,1403.28 690.263,1403.28 711.173,1403.28 732.083,1403.28 752.994,1403.28 773.904,1403.28 794.814,1403.28 815.724,1403.28 836.635,1403.28 857.545,1403.28 
  878.455,1403.28 899.365,1403.28 920.275,1403.28 941.186,1403.28 962.096,1403.28 983.006,1403.28 1003.92,1403.28 1024.83,1403.28 1045.74,1403.28 1066.65,1403.28 
  1087.56,1403.28 1108.47,1403.28 1129.38,1403.28 1150.29,1403.28 1171.2,1403.28 1192.11,1403.28 1213.02,1403.28 1233.93,1403.28 1254.84,1403.28 1275.75,1403.28 
  1296.66,1403.28 1317.57,1403.28 1338.48,1403.28 1359.39,1403.28 1380.3,1403.28 1401.21,1403.28 1422.12,1403.28 1443.03,1403.28 1463.94,1403.28 1484.85,1403.28 
  1505.76,1403.28 1526.67,1403.28 1547.58,1403.28 1568.49,1403.28 1589.4,1403.28 1610.31,1403.28 1631.22,1403.28 1652.13,1403.28 1673.04,1403.28 1693.95,1403.28 
  1714.86,1403.28 1735.77,1403.28 1756.68,1403.28 1777.59,1403.28 1798.5,1403.28 1819.41,1403.28 1840.32,1403.28 1861.24,1403.28 1882.15,1403.28 1903.06,1403.28 
  1923.97,1403.28 1944.88,1403.28 1965.79,1403.28 1986.7,1403.28 2007.61,1403.28 2028.52,1403.28 2049.43,1403.28 2070.34,1403.28 2091.25,1403.28 2112.16,1403.28 
  2133.07,1403.28 2153.98,1403.28 2174.89,1403.28 2195.8,1403.28 2216.71,1403.28 2237.62,1403.28 2258.53,1403.28 2279.44,1403.28 2300.35,1403.28 2321.26,1403.28 
  
  "/>
<polyline clip-path="url(#clip7202)" style="stroke:#788490; stroke-width:4.8; stroke-opacity:1; fill:none" points="
  251.149,1403.28 272.059,1403.28 292.969,1403.28 313.879,1403.28 334.789,1403.28 355.7,1403.28 376.61,1403.28 397.52,1403.28 418.43,1403.28 439.34,1403.28 
  460.251,1403.28 481.161,1403.28 502.071,1403.28 522.981,1403.28 543.892,1403.28 564.802,1403.28 585.712,1403.28 606.622,1403.28 627.532,1403.28 648.443,1403.28 
  669.353,1403.28 690.263,1403.28 711.173,1403.28 732.083,1403.28 752.994,1403.28 773.904,1403.28 794.814,1403.28 815.724,1403.28 836.635,1403.28 857.545,1403.28 
  878.455,1403.28 899.365,1403.28 920.275,1403.28 941.186,1403.28 962.096,1403.28 983.006,1403.28 1003.92,1403.28 1024.83,1403.28 1045.74,1403.28 1066.65,1403.28 
  1087.56,1403.28 1108.47,1403.28 1129.38,1403.28 1150.29,1403.28 1171.2,1403.28 1192.11,1403.28 1213.02,1403.28 1233.93,1403.28 1254.84,1403.28 1275.75,1403.28 
  1296.66,1403.28 1317.57,1403.28 1338.48,1403.28 1359.39,1403.28 1380.3,1403.28 1401.21,1403.28 1422.12,1403.28 1443.03,1403.28 1463.94,1403.28 1484.85,1403.28 
  1505.76,1403.28 1526.67,1403.28 1547.58,1403.28 1568.49,1403.28 1589.4,1403.28 1610.31,1403.28 1631.22,1403.28 1652.13,1403.28 1673.04,1403.28 1693.95,1403.28 
  1714.86,1403.28 1735.77,1403.28 1756.68,1403.28 1777.59,1403.28 1798.5,1403.28 1819.41,1403.28 1840.32,1403.28 1861.24,1403.28 1882.15,1403.28 1903.06,1403.28 
  1923.97,1403.28 1944.88,1403.28 1965.79,1403.28 1986.7,1403.28 2007.61,1403.28 2028.52,1403.28 2049.43,1403.28 2070.34,1403.28 2091.25,1403.28 2112.16,1403.28 
  2133.07,1403.28 2153.98,1403.28 2174.89,1403.28 2195.8,1403.28 2216.71,1403.28 2237.62,1403.28 2258.53,1403.28 2279.44,1403.28 2300.35,1403.28 2321.26,1403.28 
  
  "/>
<polyline clip-path="url(#clip7202)" style="stroke:#e561a4; stroke-width:4.8; stroke-opacity:1; fill:none" points="
  251.149,1366.82 272.059,1403.28 292.969,1403.28 313.879,1403.28 334.789,1403.28 355.7,1403.28 376.61,1403.28 397.52,1403.28 418.43,1403.28 439.34,1403.28 
  460.251,1403.28 481.161,1403.28 502.071,1403.28 522.981,1403.28 543.892,1403.28 564.802,1403.28 585.712,1403.28 606.622,1403.28 627.532,1403.28 648.443,1403.28 
  669.353,1403.28 690.263,1403.28 711.173,1403.28 732.083,1403.28 752.994,1403.28 773.904,1403.28 794.814,1403.28 815.724,1403.28 836.635,1403.28 857.545,1403.28 
  878.455,1403.28 899.365,1403.28 920.275,1403.28 941.186,1403.28 962.096,1403.28 983.006,1403.28 1003.92,1403.28 1024.83,1403.28 1045.74,1403.28 1066.65,1403.28 
  1087.56,1403.28 1108.47,1403.28 1129.38,1403.28 1150.29,1403.28 1171.2,1403.28 1192.11,1403.28 1213.02,1403.28 1233.93,1403.28 1254.84,1403.28 1275.75,1403.28 
  1296.66,1403.28 1317.57,1403.28 1338.48,1403.28 1359.39,1403.28 1380.3,1403.28 1401.21,1403.28 1422.12,1403.28 1443.03,1403.28 1463.94,1403.28 1484.85,1403.28 
  1505.76,1403.28 1526.67,1403.28 1547.58,1403.28 1568.49,1403.28 1589.4,1403.28 1610.31,1403.28 1631.22,1403.28 1652.13,1403.28 1673.04,1403.28 1693.95,1403.28 
  1714.86,1403.28 1735.77,1403.28 1756.68,1403.28 1777.59,1403.28 1798.5,1403.28 1819.41,1403.28 1840.32,1403.28 1861.24,1403.28 1882.15,1403.28 1903.06,1403.28 
  1923.97,1403.28 1944.88,1403.28 1965.79,1403.28 1986.7,1403.28 2007.61,1403.28 2028.52,1403.28 2049.43,1403.28 2070.34,1403.28 2091.25,1403.28 2112.16,1403.28 
  2133.07,1403.28 2153.98,1403.28 2174.89,1403.28 2195.8,1403.28 2216.71,1403.28 2237.62,1403.28 2258.53,1403.28 2279.44,1403.28 2300.35,1403.28 2321.26,1403.28 
  
  "/>
<polyline clip-path="url(#clip7202)" style="stroke:#99902c; stroke-width:4.8; stroke-opacity:1; fill:none" points="
  251.149,1401.02 272.059,1403.28 292.969,1403.28 313.879,1403.28 334.789,1403.28 355.7,1403.28 376.61,1403.28 397.52,1403.28 418.43,1403.28 439.34,1403.28 
  460.251,1403.28 481.161,1403.28 502.071,1403.28 522.981,1403.28 543.892,1403.28 564.802,1403.28 585.712,1403.28 606.622,1403.28 627.532,1403.28 648.443,1403.28 
  669.353,1403.28 690.263,1403.28 711.173,1403.28 732.083,1403.28 752.994,1403.28 773.904,1403.28 794.814,1403.28 815.724,1403.28 836.635,1403.28 857.545,1403.28 
  878.455,1403.28 899.365,1403.28 920.275,1403.28 941.186,1403.28 962.096,1403.28 983.006,1403.28 1003.92,1403.28 1024.83,1403.28 1045.74,1403.28 1066.65,1403.28 
  1087.56,1403.28 1108.47,1403.28 1129.38,1403.28 1150.29,1403.28 1171.2,1403.28 1192.11,1403.28 1213.02,1403.28 1233.93,1403.28 1254.84,1403.28 1275.75,1403.28 
  1296.66,1403.28 1317.57,1403.28 1338.48,1403.28 1359.39,1403.28 1380.3,1403.28 1401.21,1403.28 1422.12,1403.28 1443.03,1403.28 1463.94,1403.28 1484.85,1403.28 
  1505.76,1403.28 1526.67,1403.28 1547.58,1403.28 1568.49,1403.28 1589.4,1403.28 1610.31,1403.28 1631.22,1403.28 1652.13,1403.28 1673.04,1403.28 1693.95,1403.28 
  1714.86,1403.28 1735.77,1403.28 1756.68,1403.28 1777.59,1403.28 1798.5,1403.28 1819.41,1403.28 1840.32,1403.28 1861.24,1403.28 1882.15,1403.28 1903.06,1403.28 
  1923.97,1403.28 1944.88,1403.28 1965.79,1403.28 1986.7,1403.28 2007.61,1403.28 2028.52,1403.28 2049.43,1403.28 2070.34,1403.28 2091.25,1403.28 2112.16,1403.28 
  2133.07,1403.28 2153.98,1403.28 2174.89,1403.28 2195.8,1403.28 2216.71,1403.28 2237.62,1403.28 2258.53,1403.28 2279.44,1403.28 2300.35,1403.28 2321.26,1403.28 
  
  "/>
<polyline clip-path="url(#clip7202)" style="stroke:#389a7b; stroke-width:4.8; stroke-opacity:1; fill:none" points="
  251.149,1403.28 272.059,1403.28 292.969,1403.28 313.879,1403.28 334.789,1403.28 355.7,1403.28 376.61,1403.28 397.52,1403.28 418.43,1403.28 439.34,1403.28 
  460.251,1403.28 481.161,1403.28 502.071,1403.28 522.981,1403.28 543.892,1403.28 564.802,1403.28 585.712,1403.28 606.622,1403.28 627.532,1403.28 648.443,1403.28 
  669.353,1403.28 690.263,1403.28 711.173,1403.28 732.083,1403.28 752.994,1403.28 773.904,1403.28 794.814,1403.28 815.724,1403.28 836.635,1403.28 857.545,1403.28 
  878.455,1403.28 899.365,1403.28 920.275,1403.28 941.186,1403.28 962.096,1403.28 983.006,1403.28 1003.92,1403.28 1024.83,1403.28 1045.74,1403.28 1066.65,1403.28 
  1087.56,1403.28 1108.47,1403.28 1129.38,1403.28 1150.29,1403.28 1171.2,1403.28 1192.11,1403.28 1213.02,1403.28 1233.93,1403.28 1254.84,1403.28 1275.75,1403.28 
  1296.66,1403.28 1317.57,1403.28 1338.48,1403.28 1359.39,1403.28 1380.3,1403.28 1401.21,1403.28 1422.12,1403.28 1443.03,1403.28 1463.94,1403.28 1484.85,1403.28 
  1505.76,1403.28 1526.67,1403.28 1547.58,1403.28 1568.49,1403.28 1589.4,1403.28 1610.31,1403.28 1631.22,1403.28 1652.13,1403.28 1673.04,1403.28 1693.95,1403.28 
  1714.86,1403.28 1735.77,1403.28 1756.68,1403.28 1777.59,1403.28 1798.5,1403.28 1819.41,1403.28 1840.32,1403.28 1861.24,1403.28 1882.15,1403.28 1903.06,1403.28 
  1923.97,1403.28 1944.88,1403.28 1965.79,1403.28 1986.7,1403.28 2007.61,1403.28 2028.52,1403.28 2049.43,1403.28 2070.34,1403.28 2091.25,1403.28 2112.16,1403.28 
  2133.07,1403.28 2153.98,1403.28 2174.89,1403.28 2195.8,1403.28 2216.71,1403.28 2237.62,1403.28 2258.53,1403.28 2279.44,1403.28 2300.35,1403.28 2321.26,1403.28 
  
  "/>
<polyline clip-path="url(#clip7202)" style="stroke:#d968a2; stroke-width:4.8; stroke-opacity:1; fill:none" points="
  251.149,1403.28 272.059,1403.28 292.969,1403.28 313.879,1403.28 334.789,1403.28 355.7,1403.28 376.61,1403.28 397.52,1403.28 418.43,1403.28 439.34,1403.28 
  460.251,1403.28 481.161,1403.28 502.071,1403.28 522.981,1403.28 543.892,1403.28 564.802,1403.28 585.712,1403.28 606.622,1403.28 627.532,1403.28 648.443,1403.28 
  669.353,1403.28 690.263,1403.28 711.173,1403.28 732.083,1403.28 752.994,1403.28 773.904,1403.28 794.814,1403.28 815.724,1403.28 836.635,1403.28 857.545,1403.28 
  878.455,1403.28 899.365,1403.28 920.275,1403.28 941.186,1403.28 962.096,1403.28 983.006,1403.28 1003.92,1403.28 1024.83,1403.28 1045.74,1403.28 1066.65,1403.28 
  1087.56,1403.28 1108.47,1403.28 1129.38,1403.28 1150.29,1403.28 1171.2,1403.28 1192.11,1403.28 1213.02,1403.28 1233.93,1403.28 1254.84,1403.28 1275.75,1403.28 
  1296.66,1403.28 1317.57,1403.28 1338.48,1403.28 1359.39,1403.28 1380.3,1403.28 1401.21,1403.28 1422.12,1403.28 1443.03,1403.28 1463.94,1403.28 1484.85,1403.28 
  1505.76,1403.28 1526.67,1403.28 1547.58,1403.28 1568.49,1403.28 1589.4,1403.28 1610.31,1403.28 1631.22,1403.28 1652.13,1403.28 1673.04,1403.28 1693.95,1403.28 
  1714.86,1403.28 1735.77,1403.28 1756.68,1403.28 1777.59,1403.28 1798.5,1403.28 1819.41,1403.28 1840.32,1403.28 1861.24,1403.28 1882.15,1403.28 1903.06,1403.28 
  1923.97,1403.28 1944.88,1403.28 1965.79,1403.28 1986.7,1403.28 2007.61,1403.28 2028.52,1403.28 2049.43,1403.28 2070.34,1403.28 2091.25,1403.28 2112.16,1403.28 
  2133.07,1403.28 2153.98,1403.28 2174.89,1403.28 2195.8,1403.28 2216.71,1403.28 2237.62,1403.28 2258.53,1403.28 2279.44,1403.28 2300.35,1403.28 2321.26,1403.28 
  
  "/>
<polyline clip-path="url(#clip7202)" style="stroke:#009af9; stroke-width:4.8; stroke-opacity:1; fill:none" points="
  251.149,1398.43 272.059,1403.28 292.969,1403.28 313.879,1403.28 334.789,1403.28 355.7,1403.28 376.61,1403.28 397.52,1403.28 418.43,1403.28 439.34,1403.28 
  460.251,1403.28 481.161,1403.28 502.071,1403.28 522.981,1403.28 543.892,1403.28 564.802,1403.28 585.712,1403.28 606.622,1403.28 627.532,1403.28 648.443,1403.28 
  669.353,1403.28 690.263,1403.28 711.173,1403.28 732.083,1403.28 752.994,1403.28 773.904,1403.28 794.814,1403.28 815.724,1403.28 836.635,1403.28 857.545,1403.28 
  878.455,1403.28 899.365,1403.28 920.275,1403.28 941.186,1403.28 962.096,1403.28 983.006,1403.28 1003.92,1403.28 1024.83,1403.28 1045.74,1403.28 1066.65,1403.28 
  1087.56,1403.28 1108.47,1403.28 1129.38,1403.28 1150.29,1403.28 1171.2,1403.28 1192.11,1403.28 1213.02,1403.28 1233.93,1403.28 1254.84,1403.28 1275.75,1403.28 
  1296.66,1403.28 1317.57,1403.28 1338.48,1403.28 1359.39,1403.28 1380.3,1403.28 1401.21,1403.28 1422.12,1403.28 1443.03,1403.28 1463.94,1403.28 1484.85,1403.28 
  1505.76,1403.28 1526.67,1403.28 1547.58,1403.28 1568.49,1403.28 1589.4,1403.28 1610.31,1403.28 1631.22,1403.28 1652.13,1403.28 1673.04,1403.28 1693.95,1403.28 
  1714.86,1403.28 1735.77,1403.28 1756.68,1403.28 1777.59,1403.28 1798.5,1403.28 1819.41,1403.28 1840.32,1403.28 1861.24,1403.28 1882.15,1403.28 1903.06,1403.28 
  1923.97,1403.28 1944.88,1403.28 1965.79,1403.28 1986.7,1403.28 2007.61,1403.28 2028.52,1403.28 2049.43,1403.28 2070.34,1403.28 2091.25,1403.28 2112.16,1403.28 
  2133.07,1403.28 2153.98,1403.28 2174.89,1403.28 2195.8,1403.28 2216.71,1403.28 2237.62,1403.28 2258.53,1403.28 2279.44,1403.28 2300.35,1403.28 2321.26,1403.28 
  
  "/>
<polyline clip-path="url(#clip7202)" style="stroke:#e26f46; stroke-width:4.8; stroke-opacity:1; fill:none" points="
  251.149,1403.28 272.059,1403.28 292.969,1403.28 313.879,1403.28 334.789,1403.28 355.7,1403.28 376.61,1403.28 397.52,1403.28 418.43,1403.28 439.34,1403.28 
  460.251,1403.28 481.161,1403.28 502.071,1403.28 522.981,1403.28 543.892,1403.28 564.802,1403.28 585.712,1403.28 606.622,1403.28 627.532,1403.28 648.443,1403.28 
  669.353,1403.28 690.263,1403.28 711.173,1403.28 732.083,1403.28 752.994,1403.28 773.904,1403.28 794.814,1403.28 815.724,1403.28 836.635,1403.28 857.545,1403.28 
  878.455,1403.28 899.365,1403.28 920.275,1403.28 941.186,1403.28 962.096,1403.28 983.006,1403.28 1003.92,1403.28 1024.83,1403.28 1045.74,1403.28 1066.65,1403.28 
  1087.56,1403.28 1108.47,1403.28 1129.38,1403.28 1150.29,1403.28 1171.2,1403.28 1192.11,1403.28 1213.02,1403.28 1233.93,1403.28 1254.84,1403.28 1275.75,1403.28 
  1296.66,1403.28 1317.57,1403.28 1338.48,1403.28 1359.39,1403.28 1380.3,1403.28 1401.21,1403.28 1422.12,1403.28 1443.03,1403.28 1463.94,1403.28 1484.85,1403.28 
  1505.76,1403.28 1526.67,1403.28 1547.58,1403.28 1568.49,1403.28 1589.4,1403.28 1610.31,1403.28 1631.22,1403.28 1652.13,1403.28 1673.04,1403.28 1693.95,1403.28 
  1714.86,1403.28 1735.77,1403.28 1756.68,1403.28 1777.59,1403.28 1798.5,1403.28 1819.41,1403.28 1840.32,1403.28 1861.24,1403.28 1882.15,1403.28 1903.06,1403.28 
  1923.97,1403.28 1944.88,1403.28 1965.79,1403.28 1986.7,1403.28 2007.61,1403.28 2028.52,1403.28 2049.43,1403.28 2070.34,1403.28 2091.25,1403.28 2112.16,1403.28 
  2133.07,1403.28 2153.98,1403.28 2174.89,1403.28 2195.8,1403.28 2216.71,1403.28 2237.62,1403.28 2258.53,1403.28 2279.44,1403.28 2300.35,1403.28 2321.26,1403.28 
  
  "/>
<polyline clip-path="url(#clip7202)" style="stroke:#3da44d; stroke-width:4.8; stroke-opacity:1; fill:none" points="
  251.149,1403.28 272.059,1403.28 292.969,1403.28 313.879,1403.28 334.789,1403.28 355.7,1403.28 376.61,1403.28 397.52,1403.28 418.43,1403.28 439.34,1403.28 
  460.251,1403.28 481.161,1403.28 502.071,1403.28 522.981,1403.28 543.892,1403.28 564.802,1403.28 585.712,1403.28 606.622,1403.28 627.532,1403.28 648.443,1403.28 
  669.353,1403.28 690.263,1403.28 711.173,1403.28 732.083,1403.28 752.994,1403.28 773.904,1403.28 794.814,1403.28 815.724,1403.28 836.635,1403.28 857.545,1403.28 
  878.455,1403.28 899.365,1403.28 920.275,1403.28 941.186,1403.28 962.096,1403.28 983.006,1403.28 1003.92,1403.28 1024.83,1403.28 1045.74,1403.28 1066.65,1403.28 
  1087.56,1403.28 1108.47,1403.28 1129.38,1403.28 1150.29,1403.28 1171.2,1403.28 1192.11,1403.28 1213.02,1403.28 1233.93,1403.28 1254.84,1403.28 1275.75,1403.28 
  1296.66,1403.28 1317.57,1403.28 1338.48,1403.28 1359.39,1403.28 1380.3,1403.28 1401.21,1403.28 1422.12,1403.28 1443.03,1403.28 1463.94,1403.28 1484.85,1403.28 
  1505.76,1403.28 1526.67,1403.28 1547.58,1403.28 1568.49,1403.28 1589.4,1403.28 1610.31,1403.28 1631.22,1403.28 1652.13,1403.28 1673.04,1403.28 1693.95,1403.28 
  1714.86,1403.28 1735.77,1403.28 1756.68,1403.28 1777.59,1403.28 1798.5,1403.28 1819.41,1403.28 1840.32,1403.28 1861.24,1403.28 1882.15,1403.28 1903.06,1403.28 
  1923.97,1403.28 1944.88,1403.28 1965.79,1403.28 1986.7,1403.28 2007.61,1403.28 2028.52,1403.28 2049.43,1403.28 2070.34,1403.28 2091.25,1403.28 2112.16,1403.28 
  2133.07,1403.28 2153.98,1403.28 2174.89,1403.28 2195.8,1403.28 2216.71,1403.28 2237.62,1403.28 2258.53,1403.28 2279.44,1403.28 2300.35,1403.28 2321.26,1403.28 
  
  "/>
<polyline clip-path="url(#clip7202)" style="stroke:#c271d2; stroke-width:4.8; stroke-opacity:1; fill:none" points="
  251.149,1403.28 272.059,1403.28 292.969,1403.28 313.879,1403.28 334.789,1403.28 355.7,1403.28 376.61,1403.28 397.52,1403.28 418.43,1403.28 439.34,1403.28 
  460.251,1403.28 481.161,1403.28 502.071,1403.28 522.981,1403.28 543.892,1403.28 564.802,1403.28 585.712,1403.28 606.622,1403.28 627.532,1403.28 648.443,1403.28 
  669.353,1403.28 690.263,1403.28 711.173,1403.28 732.083,1403.28 752.994,1403.28 773.904,1403.28 794.814,1403.28 815.724,1403.28 836.635,1403.28 857.545,1403.28 
  878.455,1403.28 899.365,1403.28 920.275,1403.28 941.186,1403.28 962.096,1403.28 983.006,1403.28 1003.92,1403.28 1024.83,1403.28 1045.74,1403.28 1066.65,1403.28 
  1087.56,1403.28 1108.47,1403.28 1129.38,1403.28 1150.29,1403.28 1171.2,1403.28 1192.11,1403.28 1213.02,1403.28 1233.93,1403.28 1254.84,1403.28 1275.75,1403.28 
  1296.66,1403.28 1317.57,1403.28 1338.48,1403.28 1359.39,1403.28 1380.3,1403.28 1401.21,1403.28 1422.12,1403.28 1443.03,1403.28 1463.94,1403.28 1484.85,1403.28 
  1505.76,1403.28 1526.67,1403.28 1547.58,1403.28 1568.49,1403.28 1589.4,1403.28 1610.31,1403.28 1631.22,1403.28 1652.13,1403.28 1673.04,1403.28 1693.95,1403.28 
  1714.86,1403.28 1735.77,1403.28 1756.68,1403.28 1777.59,1403.28 1798.5,1403.28 1819.41,1403.28 1840.32,1403.28 1861.24,1403.28 1882.15,1403.28 1903.06,1403.28 
  1923.97,1403.28 1944.88,1403.28 1965.79,1403.28 1986.7,1403.28 2007.61,1403.28 2028.52,1403.28 2049.43,1403.28 2070.34,1403.28 2091.25,1403.28 2112.16,1403.28 
  2133.07,1403.28 2153.98,1403.28 2174.89,1403.28 2195.8,1403.28 2216.71,1403.28 2237.62,1403.28 2258.53,1403.28 2279.44,1403.28 2300.35,1403.28 2321.26,1403.28 
  
  "/>
<polyline clip-path="url(#clip7202)" style="stroke:#ac8d18; stroke-width:4.8; stroke-opacity:1; fill:none" points="
  251.149,1403.28 272.059,1403.28 292.969,1403.28 313.879,1403.28 334.789,1403.28 355.7,1403.28 376.61,1403.28 397.52,1403.28 418.43,1403.28 439.34,1403.28 
  460.251,1403.28 481.161,1403.28 502.071,1403.28 522.981,1403.28 543.892,1403.28 564.802,1403.28 585.712,1403.28 606.622,1403.28 627.532,1403.28 648.443,1403.28 
  669.353,1403.28 690.263,1403.28 711.173,1403.28 732.083,1403.28 752.994,1403.28 773.904,1403.28 794.814,1403.28 815.724,1403.28 836.635,1403.28 857.545,1403.28 
  878.455,1403.28 899.365,1403.28 920.275,1403.28 941.186,1403.28 962.096,1403.28 983.006,1403.28 1003.92,1403.28 1024.83,1403.28 1045.74,1403.28 1066.65,1403.28 
  1087.56,1403.28 1108.47,1403.28 1129.38,1403.28 1150.29,1403.28 1171.2,1403.28 1192.11,1403.28 1213.02,1403.28 1233.93,1403.28 1254.84,1403.28 1275.75,1403.28 
  1296.66,1403.28 1317.57,1403.28 1338.48,1403.28 1359.39,1403.28 1380.3,1403.28 1401.21,1403.28 1422.12,1403.28 1443.03,1403.28 1463.94,1403.28 1484.85,1403.28 
  1505.76,1403.28 1526.67,1403.28 1547.58,1403.28 1568.49,1403.28 1589.4,1403.28 1610.31,1403.28 1631.22,1403.28 1652.13,1403.28 1673.04,1403.28 1693.95,1403.28 
  1714.86,1403.28 1735.77,1403.28 1756.68,1403.28 1777.59,1403.28 1798.5,1403.28 1819.41,1403.28 1840.32,1403.28 1861.24,1403.28 1882.15,1403.28 1903.06,1403.28 
  1923.97,1403.28 1944.88,1403.28 1965.79,1403.28 1986.7,1403.28 2007.61,1403.28 2028.52,1403.28 2049.43,1403.28 2070.34,1403.28 2091.25,1403.28 2112.16,1403.28 
  2133.07,1403.28 2153.98,1403.28 2174.89,1403.28 2195.8,1403.28 2216.71,1403.28 2237.62,1403.28 2258.53,1403.28 2279.44,1403.28 2300.35,1403.28 2321.26,1403.28 
  
  "/>
<polyline clip-path="url(#clip7202)" style="stroke:#00a9ad; stroke-width:4.8; stroke-opacity:1; fill:none" points="
  251.149,1403.28 272.059,1403.28 292.969,1403.28 313.879,1403.28 334.789,1403.28 355.7,1403.28 376.61,1403.28 397.52,1403.28 418.43,1403.28 439.34,1403.28 
  460.251,1403.28 481.161,1403.28 502.071,1403.28 522.981,1403.28 543.892,1403.28 564.802,1403.28 585.712,1403.28 606.622,1403.28 627.532,1403.28 648.443,1403.28 
  669.353,1403.28 690.263,1403.28 711.173,1403.28 732.083,1403.28 752.994,1403.28 773.904,1403.28 794.814,1403.28 815.724,1403.28 836.635,1403.28 857.545,1403.28 
  878.455,1403.28 899.365,1403.28 920.275,1403.28 941.186,1403.28 962.096,1403.28 983.006,1403.28 1003.92,1403.28 1024.83,1403.28 1045.74,1403.28 1066.65,1403.28 
  1087.56,1403.28 1108.47,1403.28 1129.38,1403.28 1150.29,1403.28 1171.2,1403.28 1192.11,1403.28 1213.02,1403.28 1233.93,1403.28 1254.84,1403.28 1275.75,1403.28 
  1296.66,1403.28 1317.57,1403.28 1338.48,1403.28 1359.39,1403.28 1380.3,1403.28 1401.21,1403.28 1422.12,1403.28 1443.03,1403.28 1463.94,1403.28 1484.85,1403.28 
  1505.76,1403.28 1526.67,1403.28 1547.58,1403.28 1568.49,1403.28 1589.4,1403.28 1610.31,1403.28 1631.22,1403.28 1652.13,1403.28 1673.04,1403.28 1693.95,1403.28 
  1714.86,1403.28 1735.77,1403.28 1756.68,1403.28 1777.59,1403.28 1798.5,1403.28 1819.41,1403.28 1840.32,1403.28 1861.24,1403.28 1882.15,1403.28 1903.06,1403.28 
  1923.97,1403.28 1944.88,1403.28 1965.79,1403.28 1986.7,1403.28 2007.61,1403.28 2028.52,1403.28 2049.43,1403.28 2070.34,1403.28 2091.25,1403.28 2112.16,1403.28 
  2133.07,1403.28 2153.98,1403.28 2174.89,1403.28 2195.8,1403.28 2216.71,1403.28 2237.62,1403.28 2258.53,1403.28 2279.44,1403.28 2300.35,1403.28 2321.26,1403.28 
  
  "/>
<polyline clip-path="url(#clip7202)" style="stroke:#ed5d92; stroke-width:4.8; stroke-opacity:1; fill:none" points="
  251.149,1403.28 272.059,1403.28 292.969,1403.28 313.879,1403.28 334.789,1403.28 355.7,1403.28 376.61,1403.28 397.52,1403.28 418.43,1403.28 439.34,1403.28 
  460.251,1403.28 481.161,1403.28 502.071,1403.28 522.981,1403.28 543.892,1403.28 564.802,1403.28 585.712,1403.28 606.622,1403.28 627.532,1403.28 648.443,1403.28 
  669.353,1403.28 690.263,1403.28 711.173,1403.28 732.083,1403.28 752.994,1403.28 773.904,1403.28 794.814,1403.28 815.724,1403.28 836.635,1403.28 857.545,1403.28 
  878.455,1403.28 899.365,1403.28 920.275,1403.28 941.186,1403.28 962.096,1403.28 983.006,1403.28 1003.92,1403.28 1024.83,1403.28 1045.74,1403.28 1066.65,1403.28 
  1087.56,1403.28 1108.47,1403.28 1129.38,1403.28 1150.29,1403.28 1171.2,1403.28 1192.11,1403.28 1213.02,1403.28 1233.93,1403.28 1254.84,1403.28 1275.75,1403.28 
  1296.66,1403.28 1317.57,1403.28 1338.48,1403.28 1359.39,1403.28 1380.3,1403.28 1401.21,1403.28 1422.12,1403.28 1443.03,1403.28 1463.94,1403.28 1484.85,1403.28 
  1505.76,1403.28 1526.67,1403.28 1547.58,1403.28 1568.49,1403.28 1589.4,1403.28 1610.31,1403.28 1631.22,1403.28 1652.13,1403.28 1673.04,1403.28 1693.95,1403.28 
  1714.86,1403.28 1735.77,1403.28 1756.68,1403.28 1777.59,1403.28 1798.5,1403.28 1819.41,1403.28 1840.32,1403.28 1861.24,1403.28 1882.15,1403.28 1903.06,1403.28 
  1923.97,1403.28 1944.88,1403.28 1965.79,1403.28 1986.7,1403.28 2007.61,1403.28 2028.52,1403.28 2049.43,1403.28 2070.34,1403.28 2091.25,1403.28 2112.16,1403.28 
  2133.07,1403.28 2153.98,1403.28 2174.89,1403.28 2195.8,1403.28 2216.71,1403.28 2237.62,1403.28 2258.53,1403.28 2279.44,1403.28 2300.35,1403.28 2321.26,1403.28 
  
  "/>
<polyline clip-path="url(#clip7202)" style="stroke:#c68125; stroke-width:4.8; stroke-opacity:1; fill:none" points="
  251.149,1403.28 272.059,1403.28 292.969,1403.28 313.879,1403.28 334.789,1403.28 355.7,1403.28 376.61,1403.28 397.52,1403.28 418.43,1403.28 439.34,1403.28 
  460.251,1403.28 481.161,1403.28 502.071,1403.28 522.981,1403.28 543.892,1403.28 564.802,1403.28 585.712,1403.28 606.622,1403.28 627.532,1403.28 648.443,1403.28 
  669.353,1403.28 690.263,1403.28 711.173,1403.28 732.083,1403.28 752.994,1403.28 773.904,1403.28 794.814,1403.28 815.724,1403.28 836.635,1403.28 857.545,1403.28 
  878.455,1403.28 899.365,1403.28 920.275,1403.28 941.186,1403.28 962.096,1403.28 983.006,1403.28 1003.92,1403.28 1024.83,1403.28 1045.74,1403.28 1066.65,1403.28 
  1087.56,1403.28 1108.47,1403.28 1129.38,1403.28 1150.29,1403.28 1171.2,1403.28 1192.11,1403.28 1213.02,1403.28 1233.93,1403.28 1254.84,1403.28 1275.75,1403.28 
  1296.66,1403.28 1317.57,1403.28 1338.48,1403.28 1359.39,1403.28 1380.3,1403.28 1401.21,1403.28 1422.12,1403.28 1443.03,1403.28 1463.94,1403.28 1484.85,1403.28 
  1505.76,1403.28 1526.67,1403.28 1547.58,1403.28 1568.49,1403.28 1589.4,1403.28 1610.31,1403.28 1631.22,1403.28 1652.13,1403.28 1673.04,1403.28 1693.95,1403.28 
  1714.86,1403.28 1735.77,1403.28 1756.68,1403.28 1777.59,1403.28 1798.5,1403.28 1819.41,1403.28 1840.32,1403.28 1861.24,1403.28 1882.15,1403.28 1903.06,1403.28 
  1923.97,1403.28 1944.88,1403.28 1965.79,1403.28 1986.7,1403.28 2007.61,1403.28 2028.52,1403.28 2049.43,1403.28 2070.34,1403.28 2091.25,1403.28 2112.16,1403.28 
  2133.07,1403.28 2153.98,1403.28 2174.89,1403.28 2195.8,1403.28 2216.71,1403.28 2237.62,1403.28 2258.53,1403.28 2279.44,1403.28 2300.35,1403.28 2321.26,1403.28 
  
  "/>
<polyline clip-path="url(#clip7202)" style="stroke:#00a98d; stroke-width:4.8; stroke-opacity:1; fill:none" points="
  251.149,1403.28 272.059,1403.28 292.969,1403.28 313.879,1403.28 334.789,1403.28 355.7,1403.28 376.61,1403.28 397.52,1403.28 418.43,1403.28 439.34,1403.28 
  460.251,1403.28 481.161,1403.28 502.071,1403.28 522.981,1403.28 543.892,1403.28 564.802,1403.28 585.712,1403.28 606.622,1403.28 627.532,1403.28 648.443,1403.28 
  669.353,1403.28 690.263,1403.28 711.173,1403.28 732.083,1403.28 752.994,1403.28 773.904,1403.28 794.814,1403.28 815.724,1403.28 836.635,1403.28 857.545,1403.28 
  878.455,1403.28 899.365,1403.28 920.275,1403.28 941.186,1403.28 962.096,1403.28 983.006,1403.28 1003.92,1403.28 1024.83,1403.28 1045.74,1403.28 1066.65,1403.28 
  1087.56,1403.28 1108.47,1403.28 1129.38,1403.28 1150.29,1403.28 1171.2,1403.28 1192.11,1403.28 1213.02,1403.28 1233.93,1403.28 1254.84,1403.28 1275.75,1403.28 
  1296.66,1403.28 1317.57,1403.28 1338.48,1403.28 1359.39,1403.28 1380.3,1403.28 1401.21,1403.28 1422.12,1403.28 1443.03,1403.28 1463.94,1403.28 1484.85,1403.28 
  1505.76,1403.28 1526.67,1403.28 1547.58,1403.28 1568.49,1403.28 1589.4,1403.28 1610.31,1403.28 1631.22,1403.28 1652.13,1403.28 1673.04,1403.28 1693.95,1403.28 
  1714.86,1403.28 1735.77,1403.28 1756.68,1403.28 1777.59,1403.28 1798.5,1403.28 1819.41,1403.28 1840.32,1403.28 1861.24,1403.28 1882.15,1403.28 1903.06,1403.28 
  1923.97,1403.28 1944.88,1403.28 1965.79,1403.28 1986.7,1403.28 2007.61,1403.28 2028.52,1403.28 2049.43,1403.28 2070.34,1403.28 2091.25,1403.28 2112.16,1403.28 
  2133.07,1403.28 2153.98,1403.28 2174.89,1403.28 2195.8,1403.28 2216.71,1403.28 2237.62,1403.28 2258.53,1403.28 2279.44,1403.28 2300.35,1403.28 2321.26,1403.28 
  
  "/>
<polyline clip-path="url(#clip7202)" style="stroke:#8e971d; stroke-width:4.8; stroke-opacity:1; fill:none" points="
  251.149,1403.28 272.059,1403.28 292.969,1403.28 313.879,1403.28 334.789,1403.28 355.7,1403.28 376.61,1403.28 397.52,1403.28 418.43,1403.28 439.34,1403.28 
  460.251,1403.28 481.161,1403.28 502.071,1403.28 522.981,1403.28 543.892,1403.28 564.802,1403.28 585.712,1403.28 606.622,1403.28 627.532,1403.28 648.443,1403.28 
  669.353,1403.28 690.263,1403.28 711.173,1403.28 732.083,1403.28 752.994,1403.28 773.904,1403.28 794.814,1403.28 815.724,1403.28 836.635,1403.28 857.545,1403.28 
  878.455,1403.28 899.365,1403.28 920.275,1403.28 941.186,1403.28 962.096,1403.28 983.006,1403.28 1003.92,1403.28 1024.83,1403.28 1045.74,1403.28 1066.65,1403.28 
  1087.56,1403.28 1108.47,1403.28 1129.38,1403.28 1150.29,1403.28 1171.2,1403.28 1192.11,1403.28 1213.02,1403.28 1233.93,1403.28 1254.84,1403.28 1275.75,1403.28 
  1296.66,1403.28 1317.57,1403.28 1338.48,1403.28 1359.39,1403.28 1380.3,1403.28 1401.21,1403.28 1422.12,1403.28 1443.03,1403.28 1463.94,1403.28 1484.85,1403.28 
  1505.76,1403.28 1526.67,1403.28 1547.58,1403.28 1568.49,1403.28 1589.4,1403.28 1610.31,1403.28 1631.22,1403.28 1652.13,1403.28 1673.04,1403.28 1693.95,1403.28 
  1714.86,1403.28 1735.77,1403.28 1756.68,1403.28 1777.59,1403.28 1798.5,1403.28 1819.41,1403.28 1840.32,1403.28 1861.24,1403.28 1882.15,1403.28 1903.06,1403.28 
  1923.97,1403.28 1944.88,1403.28 1965.79,1403.28 1986.7,1403.28 2007.61,1403.28 2028.52,1403.28 2049.43,1403.28 2070.34,1403.28 2091.25,1403.28 2112.16,1403.28 
  2133.07,1403.28 2153.98,1403.28 2174.89,1403.28 2195.8,1403.28 2216.71,1403.28 2237.62,1403.28 2258.53,1403.28 2279.44,1403.28 2300.35,1403.28 2321.26,1403.28 
  
  "/>
<polyline clip-path="url(#clip7202)" style="stroke:#00a8cb; stroke-width:4.8; stroke-opacity:1; fill:none" points="
  251.149,1398.34 272.059,1398.05 292.969,1397.81 313.879,1397.71 334.789,1397.62 355.7,1397.46 376.61,1397.38 397.52,1397.31 418.43,1397.24 439.34,1397.18 
  460.251,1397.11 481.161,1397.05 502.071,1396.98 522.981,1396.92 543.892,1396.86 564.802,1396.79 585.712,1396.73 606.622,1396.66 627.532,1396.6 648.443,1396.53 
  669.353,1396.46 690.263,1396.39 711.173,1396.32 732.083,1396.24 752.994,1396.16 773.904,1396.08 794.814,1395.99 815.724,1395.9 836.635,1395.79 857.545,1395.63 
  878.455,1395.13 899.365,1395.05 920.275,1394.98 941.186,1394.9 962.096,1394.82 983.006,1394.74 1003.92,1394.64 1024.83,1394.54 1045.74,1394.43 1066.65,1393.62 
  1087.56,1393.47 1108.47,1393.34 1129.38,1393.19 1150.29,1391.12 1171.2,1391.06 1192.11,1391 1213.02,1390.95 1233.93,1390.9 1254.84,1390.84 1275.75,1390.79 
  1296.66,1390.73 1317.57,1390.66 1338.48,1390.6 1359.39,1390.53 1380.3,1390.47 1401.21,1390.4 1422.12,1390.32 1443.03,1390.24 1463.94,1390.16 1484.85,1390.07 
  1505.76,1389.98 1526.67,1389.87 1547.58,1389.76 1568.49,1389.62 1589.4,1386.35 1610.31,1386.32 1631.22,1386.31 1652.13,1386.3 1673.04,1386.28 1693.95,1386.26 
  1714.86,1386.25 1735.77,1386.24 1756.68,1386.22 1777.59,1386.2 1798.5,1386.19 1819.41,1386.18 1840.32,1386.16 1861.24,1386.14 1882.15,1386.13 1903.06,1386.11 
  1923.97,1386.09 1944.88,1386.07 1965.79,1386.06 1986.7,1386.04 2007.61,1386.01 2028.52,1386 2049.43,1385.98 2070.34,1385.96 2091.25,1385.94 2112.16,1385.92 
  2133.07,1385.89 2153.98,1385.87 2174.89,1385.85 2195.8,1385.83 2216.71,1385.8 2237.62,1385.78 2258.53,1385.76 2279.44,1385.73 2300.35,1385.7 2321.26,1385.67 
  
  "/>
<polygon clip-path="url(#clip7200)" points="
1851.43,753.824 2249.26,753.824 2249.26,209.504 1851.43,209.504 
  " fill="#ffffff" fill-rule="evenodd" fill-opacity="1"/>
<polyline clip-path="url(#clip7200)" style="stroke:#000000; stroke-width:4; stroke-opacity:1; fill:none" points="
  1851.43,753.824 2249.26,753.824 2249.26,209.504 1851.43,209.504 1851.43,753.824 
  "/>
<g clip-path="url(#clip7200)">
<text style="fill:#000000; fill-opacity:1; font-family:Arial,Helvetica Neue,Helvetica,sans-serif; font-size:48px; text-anchor:middle;" transform="rotate(0, 2050.34, 287.484)" x="2050.34" y="287.484">ranking</text>
</g>
<polyline clip-path="url(#clip7200)" style="stroke:#009af9; stroke-width:4.8; stroke-opacity:1; fill:none" points="
  1875.43,330.464 2019.43,330.464 
  "/>
<g clip-path="url(#clip7200)">
<text style="fill:#000000; fill-opacity:1; font-family:Symbol; font-size:52px; text-anchor:start;" transform="rotate(0, 2043.43, 354.192)" x="2043.43" y="354.192">σ</text>
</g>
<g clip-path="url(#clip7200)">
<text style="fill:#000000; fill-opacity:1; font-family:Arial,Helvetica Neue,Helvetica,sans-serif; font-size:38px; text-anchor:start;" transform="rotate(0, 2074.67, 326.781)" x="2074.67" y="326.781">2</text>
</g>
<g clip-path="url(#clip7200)">
<text style="fill:#000000; fill-opacity:1; font-family:Arial,Helvetica Neue,Helvetica,sans-serif; font-size:48px; text-anchor:start;" transform="rotate(0, 2096.42, 354.192)" x="2096.42" y="354.192">[40]</text>
</g>
<polyline clip-path="url(#clip7200)" style="stroke:#e26f46; stroke-width:4.8; stroke-opacity:1; fill:none" points="
  1875.43,390.944 2019.43,390.944 
  "/>
<g clip-path="url(#clip7200)">
<text style="fill:#000000; fill-opacity:1; font-family:Symbol; font-size:52px; text-anchor:start;" transform="rotate(0, 2043.43, 414.672)" x="2043.43" y="414.672">σ</text>
</g>
<g clip-path="url(#clip7200)">
<text style="fill:#000000; fill-opacity:1; font-family:Arial,Helvetica Neue,Helvetica,sans-serif; font-size:38px; text-anchor:start;" transform="rotate(0, 2074.67, 387.261)" x="2074.67" y="387.261">2</text>
</g>
<g clip-path="url(#clip7200)">
<text style="fill:#000000; fill-opacity:1; font-family:Arial,Helvetica Neue,Helvetica,sans-serif; font-size:48px; text-anchor:start;" transform="rotate(0, 2096.42, 414.672)" x="2096.42" y="414.672">[1]</text>
</g>
<polyline clip-path="url(#clip7200)" style="stroke:#3da44d; stroke-width:4.8; stroke-opacity:1; fill:none" points="
  1875.43,451.424 2019.43,451.424 
  "/>
<g clip-path="url(#clip7200)">
<text style="fill:#000000; fill-opacity:1; font-family:Symbol; font-size:52px; text-anchor:start;" transform="rotate(0, 2043.43, 475.152)" x="2043.43" y="475.152">σ</text>
</g>
<g clip-path="url(#clip7200)">
<text style="fill:#000000; fill-opacity:1; font-family:Arial,Helvetica Neue,Helvetica,sans-serif; font-size:38px; text-anchor:start;" transform="rotate(0, 2074.67, 447.741)" x="2074.67" y="447.741">2</text>
</g>
<g clip-path="url(#clip7200)">
<text style="fill:#000000; fill-opacity:1; font-family:Arial,Helvetica Neue,Helvetica,sans-serif; font-size:48px; text-anchor:start;" transform="rotate(0, 2096.42, 475.152)" x="2096.42" y="475.152">[19]</text>
</g>
<polyline clip-path="url(#clip7200)" style="stroke:#c271d2; stroke-width:4.8; stroke-opacity:1; fill:none" points="
  1875.43,511.904 2019.43,511.904 
  "/>
<g clip-path="url(#clip7200)">
<text style="fill:#000000; fill-opacity:1; font-family:Symbol; font-size:52px; text-anchor:start;" transform="rotate(0, 2043.43, 535.632)" x="2043.43" y="535.632">σ</text>
</g>
<g clip-path="url(#clip7200)">
<text style="fill:#000000; fill-opacity:1; font-family:Arial,Helvetica Neue,Helvetica,sans-serif; font-size:38px; text-anchor:start;" transform="rotate(0, 2074.67, 508.221)" x="2074.67" y="508.221">2</text>
</g>
<g clip-path="url(#clip7200)">
<text style="fill:#000000; fill-opacity:1; font-family:Arial,Helvetica Neue,Helvetica,sans-serif; font-size:48px; text-anchor:start;" transform="rotate(0, 2096.42, 535.632)" x="2096.42" y="535.632">[30]</text>
</g>
<polyline clip-path="url(#clip7200)" style="stroke:#ac8d18; stroke-width:4.8; stroke-opacity:1; fill:none" points="
  1875.43,572.384 2019.43,572.384 
  "/>
<g clip-path="url(#clip7200)">
<text style="fill:#000000; fill-opacity:1; font-family:Symbol; font-size:52px; text-anchor:start;" transform="rotate(0, 2043.43, 596.112)" x="2043.43" y="596.112">σ</text>
</g>
<g clip-path="url(#clip7200)">
<text style="fill:#000000; fill-opacity:1; font-family:Arial,Helvetica Neue,Helvetica,sans-serif; font-size:38px; text-anchor:start;" transform="rotate(0, 2074.67, 568.701)" x="2074.67" y="568.701">2</text>
</g>
<g clip-path="url(#clip7200)">
<text style="fill:#000000; fill-opacity:1; font-family:Arial,Helvetica Neue,Helvetica,sans-serif; font-size:48px; text-anchor:start;" transform="rotate(0, 2096.42, 596.112)" x="2096.42" y="596.112">[11]</text>
</g>
<polyline clip-path="url(#clip7200)" style="stroke:#00a9ad; stroke-width:4.8; stroke-opacity:1; fill:none" points="
  1875.43,632.864 2019.43,632.864 
  "/>
<g clip-path="url(#clip7200)">
<text style="fill:#000000; fill-opacity:1; font-family:Symbol; font-size:52px; text-anchor:start;" transform="rotate(0, 2043.43, 656.592)" x="2043.43" y="656.592">σ</text>
</g>
<g clip-path="url(#clip7200)">
<text style="fill:#000000; fill-opacity:1; font-family:Arial,Helvetica Neue,Helvetica,sans-serif; font-size:38px; text-anchor:start;" transform="rotate(0, 2074.67, 629.181)" x="2074.67" y="629.181">2</text>
</g>
<g clip-path="url(#clip7200)">
<text style="fill:#000000; fill-opacity:1; font-family:Arial,Helvetica Neue,Helvetica,sans-serif; font-size:48px; text-anchor:start;" transform="rotate(0, 2096.42, 656.592)" x="2096.42" y="656.592">[21]</text>
</g>
<polyline clip-path="url(#clip7200)" style="stroke:#ed5d92; stroke-width:4.8; stroke-opacity:1; fill:none" points="
  1875.43,693.344 2019.43,693.344 
  "/>
<g clip-path="url(#clip7200)">
<text style="fill:#000000; fill-opacity:1; font-family:Symbol; font-size:52px; text-anchor:start;" transform="rotate(0, 2043.43, 717.072)" x="2043.43" y="717.072">σ</text>
</g>
<g clip-path="url(#clip7200)">
<text style="fill:#000000; fill-opacity:1; font-family:Arial,Helvetica Neue,Helvetica,sans-serif; font-size:38px; text-anchor:start;" transform="rotate(0, 2074.67, 689.661)" x="2074.67" y="689.661">2</text>
</g>
<g clip-path="url(#clip7200)">
<text style="fill:#000000; fill-opacity:1; font-family:Arial,Helvetica Neue,Helvetica,sans-serif; font-size:48px; text-anchor:start;" transform="rotate(0, 2096.42, 717.072)" x="2096.42" y="717.072">[29]</text>
</g>
</svg>
