<?xml version="1.0" encoding="utf-8"?>
<svg xmlns="http://www.w3.org/2000/svg" xmlns:xlink="http://www.w3.org/1999/xlink" width="600" height="400" viewBox="0 0 2400 1600">
<defs>
  <clipPath id="clip6800">
    <rect x="0" y="0" width="2400" height="1600"/>
  </clipPath>
</defs>
<polygon clip-path="url(#clip6800)" points="
0,1600 2400,1600 2400,0 0,0 
  " fill="#ffffff" fill-rule="evenodd" fill-opacity="1"/>
<defs>
  <clipPath id="clip6801">
    <rect x="480" y="0" width="1681" height="1600"/>
  </clipPath>
</defs>
<polygon clip-path="url(#clip6800)" points="
251.149,1440.48 2321.26,1440.48 2321.26,125.984 251.149,125.984 
  " fill="#ffffff" fill-rule="evenodd" fill-opacity="1"/>
<defs>
  <clipPath id="clip6802">
    <rect x="251" y="125" width="2071" height="1315"/>
  </clipPath>
</defs>
<polyline clip-path="url(#clip6802)" style="stroke:#000000; stroke-width:2; stroke-opacity:0.1; fill:none" points="
  251.149,1440.48 251.149,125.984 
  "/>
<polyline clip-path="url(#clip6802)" style="stroke:#000000; stroke-width:2; stroke-opacity:0.1; fill:none" points="
  788.346,1440.48 788.346,125.984 
  "/>
<polyline clip-path="url(#clip6802)" style="stroke:#000000; stroke-width:2; stroke-opacity:0.1; fill:none" points="
  1325.54,1440.48 1325.54,125.984 
  "/>
<polyline clip-path="url(#clip6802)" style="stroke:#000000; stroke-width:2; stroke-opacity:0.1; fill:none" points="
  1862.74,1440.48 1862.74,125.984 
  "/>
<polyline clip-path="url(#clip6802)" style="stroke:#000000; stroke-width:2; stroke-opacity:0.1; fill:none" points="
  251.149,1403.28 2321.26,1403.28 
  "/>
<polyline clip-path="url(#clip6802)" style="stroke:#000000; stroke-width:2; stroke-opacity:0.1; fill:none" points="
  251.149,1103.7 2321.26,1103.7 
  "/>
<polyline clip-path="url(#clip6802)" style="stroke:#000000; stroke-width:2; stroke-opacity:0.1; fill:none" points="
  251.149,804.122 2321.26,804.122 
  "/>
<polyline clip-path="url(#clip6802)" style="stroke:#000000; stroke-width:2; stroke-opacity:0.1; fill:none" points="
  251.149,504.543 2321.26,504.543 
  "/>
<polyline clip-path="url(#clip6802)" style="stroke:#000000; stroke-width:2; stroke-opacity:0.1; fill:none" points="
  251.149,204.964 2321.26,204.964 
  "/>
<polyline clip-path="url(#clip6800)" style="stroke:#000000; stroke-width:4; stroke-opacity:1; fill:none" points="
  251.149,1440.48 2321.26,1440.48 
  "/>
<polyline clip-path="url(#clip6800)" style="stroke:#000000; stroke-width:4; stroke-opacity:1; fill:none" points="
  251.149,1440.48 251.149,125.984 
  "/>
<polyline clip-path="url(#clip6800)" style="stroke:#000000; stroke-width:4; stroke-opacity:1; fill:none" points="
  251.149,1440.48 251.149,1420.77 
  "/>
<polyline clip-path="url(#clip6800)" style="stroke:#000000; stroke-width:4; stroke-opacity:1; fill:none" points="
  788.346,1440.48 788.346,1420.77 
  "/>
<polyline clip-path="url(#clip6800)" style="stroke:#000000; stroke-width:4; stroke-opacity:1; fill:none" points="
  1325.54,1440.48 1325.54,1420.77 
  "/>
<polyline clip-path="url(#clip6800)" style="stroke:#000000; stroke-width:4; stroke-opacity:1; fill:none" points="
  1862.74,1440.48 1862.74,1420.77 
  "/>
<polyline clip-path="url(#clip6800)" style="stroke:#000000; stroke-width:4; stroke-opacity:1; fill:none" points="
  251.149,1403.28 282.2,1403.28 
  "/>
<polyline clip-path="url(#clip6800)" style="stroke:#000000; stroke-width:4; stroke-opacity:1; fill:none" points="
  251.149,1103.7 282.2,1103.7 
  "/>
<polyline clip-path="url(#clip6800)" style="stroke:#000000; stroke-width:4; stroke-opacity:1; fill:none" points="
  251.149,804.122 282.2,804.122 
  "/>
<polyline clip-path="url(#clip6800)" style="stroke:#000000; stroke-width:4; stroke-opacity:1; fill:none" points="
  251.149,504.543 282.2,504.543 
  "/>
<polyline clip-path="url(#clip6800)" style="stroke:#000000; stroke-width:4; stroke-opacity:1; fill:none" points="
  251.149,204.964 282.2,204.964 
  "/>
<g clip-path="url(#clip6800)">
<text style="fill:#000000; fill-opacity:1; font-family:Arial,Helvetica Neue,Helvetica,sans-serif; font-size:48px; text-anchor:middle;" transform="rotate(0, 251.149, 1494.48)" x="251.149" y="1494.48">0</text>
</g>
<g clip-path="url(#clip6800)">
<text style="fill:#000000; fill-opacity:1; font-family:Arial,Helvetica Neue,Helvetica,sans-serif; font-size:48px; text-anchor:middle;" transform="rotate(0, 788.346, 1494.48)" x="788.346" y="1494.48">20</text>
</g>
<g clip-path="url(#clip6800)">
<text style="fill:#000000; fill-opacity:1; font-family:Arial,Helvetica Neue,Helvetica,sans-serif; font-size:48px; text-anchor:middle;" transform="rotate(0, 1325.54, 1494.48)" x="1325.54" y="1494.48">40</text>
</g>
<g clip-path="url(#clip6800)">
<text style="fill:#000000; fill-opacity:1; font-family:Arial,Helvetica Neue,Helvetica,sans-serif; font-size:48px; text-anchor:middle;" transform="rotate(0, 1862.74, 1494.48)" x="1862.74" y="1494.48">60</text>
</g>
<g clip-path="url(#clip6800)">
<text style="fill:#000000; fill-opacity:1; font-family:Arial,Helvetica Neue,Helvetica,sans-serif; font-size:48px; text-anchor:end;" transform="rotate(0, 227.149, 1420.78)" x="227.149" y="1420.78">0.0</text>
</g>
<g clip-path="url(#clip6800)">
<text style="fill:#000000; fill-opacity:1; font-family:Arial,Helvetica Neue,Helvetica,sans-serif; font-size:48px; text-anchor:end;" transform="rotate(0, 227.149, 1121.2)" x="227.149" y="1121.2">2.5</text>
</g>
<g clip-path="url(#clip6800)">
<text style="fill:#000000; fill-opacity:1; font-family:Arial,Helvetica Neue,Helvetica,sans-serif; font-size:48px; text-anchor:end;" transform="rotate(0, 227.149, 821.622)" x="227.149" y="821.622">5.0</text>
</g>
<g clip-path="url(#clip6800)">
<text style="fill:#000000; fill-opacity:1; font-family:Arial,Helvetica Neue,Helvetica,sans-serif; font-size:48px; text-anchor:end;" transform="rotate(0, 227.149, 522.043)" x="227.149" y="522.043">7.5</text>
</g>
<g clip-path="url(#clip6800)">
<text style="fill:#000000; fill-opacity:1; font-family:Arial,Helvetica Neue,Helvetica,sans-serif; font-size:48px; text-anchor:end;" transform="rotate(0, 227.149, 222.464)" x="227.149" y="222.464">10.0</text>
</g>
<g clip-path="url(#clip6800)">
<text style="fill:#000000; fill-opacity:1; font-family:Arial,Helvetica Neue,Helvetica,sans-serif; font-size:84px; text-anchor:middle;" transform="rotate(0, 1286.2, 73.2)" x="1286.2" y="73.2">Solution Path (lasso penalty)</text>
</g>
<g clip-path="url(#clip6800)">
<text style="fill:#000000; fill-opacity:1; font-family:Symbol; font-size:72px; text-anchor:start;" transform="rotate(0, 1266.65, 1584.32)" x="1266.65" y="1584.32">λ</text>
</g>
<g clip-path="url(#clip6800)">
<text style="fill:#000000; fill-opacity:1; font-family:Symbol; font-size:72px; text-anchor:start;" transform="rotate(-90, 157.783, 819.663)" x="157.783" y="819.663">σ</text>
</g>
<g clip-path="url(#clip6800)">
<text style="fill:#000000; fill-opacity:1; font-family:Arial,Helvetica Neue,Helvetica,sans-serif; font-size:53px; text-anchor:start;" transform="rotate(-90, 120.094, 776.703)" x="120.094" y="776.703">2</text>
</g>
<polyline clip-path="url(#clip6802)" style="stroke:#009af9; stroke-width:4.8; stroke-opacity:1; fill:none" points="
  251.149,163.187 272.059,480.766 292.969,669.986 313.879,790.511 334.789,872.264 355.7,932.137 376.61,978.216 397.52,1014.85 418.43,1044.79 439.34,1069.78 
  460.251,1091 481.161,1109.29 502.071,1125.26 522.981,1139.3 543.892,1151.77 564.802,1162.96 585.712,1173.05 606.622,1182.21 627.532,1190.56 648.443,1198.22 
  669.353,1205.27 690.263,1211.79 711.173,1217.84 732.083,1223.47 752.994,1228.73 773.904,1233.66 794.814,1238.28 815.724,1242.63 836.635,1246.74 857.545,1250.62 
  878.455,1254.29 899.365,1257.79 920.275,1261.1 941.186,1264.26 962.096,1267.28 983.006,1270.15 1003.92,1272.91 1024.83,1275.55 1045.74,1278.08 1066.65,1280.51 
  1087.56,1282.85 1108.47,1285.1 1129.38,1287.27 1150.29,1289.37 1171.2,1291.39 1192.11,1293.36 1213.02,1295.26 1233.93,1297.12 1254.84,1299.54 1275.75,1301.35 
  1296.66,1303.03 1317.57,1304.67 1338.48,1306.25 1359.39,1307.79 1380.3,1309.31 1401.21,1310.77 1422.12,1312.21 1443.03,1313.61 1463.94,1314.98 1484.85,1316.32 
  1505.76,1317.63 1526.67,1318.93 1547.58,1320.19 1568.49,1321.44 1589.4,1322.67 1610.31,1323.9 1631.22,1325.1 1652.13,1326.31 1673.04,1332.42 1693.95,1333.5 
  1714.86,1334.48 1735.77,1335.43 1756.68,1336.38 1777.59,1337.29 1798.5,1338.21 1819.41,1339.1 1840.32,1339.98 1861.24,1340.86 1882.15,1341.72 1903.06,1342.56 
  1923.97,1343.4 1944.88,1344.23 1965.79,1345.06 1986.7,1345.88 2007.61,1346.68 2028.52,1347.48 2049.43,1348.28 2070.34,1349.09 2091.25,1349.88 2112.16,1350.69 
  2133.07,1351.5 2153.98,1352.31 2174.89,1364.56 2195.8,1376.56 2216.71,1377.2 2237.62,1377.59 2258.53,1378.02 2279.44,1378.44 2300.35,1378.82 2321.26,1379.23 
  
  "/>
<polyline clip-path="url(#clip6802)" style="stroke:#e26f46; stroke-width:4.8; stroke-opacity:1; fill:none" points="
  251.149,733.09 272.059,739.316 292.969,793.811 313.879,850.923 334.789,900.907 355.7,942.491 376.61,977.558 397.52,1007.62 418.43,1033.68 439.34,1056.51 
  460.251,1076.68 481.161,1094.64 502.071,1110.73 522.981,1125.24 543.892,1138.39 564.802,1150.36 585.712,1161.31 606.622,1171.36 627.532,1180.61 648.443,1189.17 
  669.353,1197.1 690.263,1204.47 711.173,1211.33 732.083,1217.75 752.994,1223.76 773.904,1229.39 794.814,1234.68 815.724,1239.67 836.635,1244.37 857.545,1248.82 
  878.455,1253.02 899.365,1256.99 920.275,1260.77 941.186,1264.36 962.096,1267.76 983.006,1271.01 1003.92,1274.1 1024.83,1277.03 1045.74,1279.83 1066.65,1282.51 
  1087.56,1285.05 1108.47,1287.46 1129.38,1289.76 1150.29,1291.95 1171.2,1294 1192.11,1295.91 1213.02,1297.64 1233.93,1299.02 1254.84,1288.51 1275.75,1290.95 
  1296.66,1293.25 1317.57,1295.5 1338.48,1297.67 1359.39,1299.77 1380.3,1301.81 1401.21,1303.79 1422.12,1305.71 1443.03,1307.57 1463.94,1309.38 1484.85,1311.14 
  1505.76,1312.86 1526.67,1314.52 1547.58,1316.15 1568.49,1317.72 1589.4,1319.26 1610.31,1320.74 1631.22,1322.19 1652.13,1323.6 1673.04,1322.2 1693.95,1324.21 
  1714.86,1325.89 1735.77,1327.46 1756.68,1329.08 1777.59,1330.59 1798.5,1332.15 1819.41,1333.62 1840.32,1335.07 1861.24,1336.56 1882.15,1337.97 1903.06,1339.37 
  1923.97,1340.75 1944.88,1342.12 1965.79,1343.48 1986.7,1344.83 2007.61,1346.14 2028.52,1347.44 2049.43,1348.75 2070.34,1350.09 2091.25,1351.36 2112.16,1352.69 
  2133.07,1354.01 2153.98,1355.31 2174.89,1375.6 2195.8,1403.28 2216.71,1403.28 2237.62,1403.28 2258.53,1403.28 2279.44,1403.28 2300.35,1403.28 2321.26,1403.28 
  
  "/>
<polyline clip-path="url(#clip6802)" style="stroke:#3da44d; stroke-width:4.8; stroke-opacity:1; fill:none" points="
  251.149,1336.34 272.059,1120.01 292.969,1105.01 313.879,1094.19 334.789,1118.8 355.7,1139.44 376.61,1156.99 397.52,1172.17 418.43,1185.45 439.34,1197.17 
  460.251,1207.61 481.161,1216.98 502.071,1225.44 522.981,1233.14 543.892,1240.18 564.802,1246.63 585.712,1252.58 606.622,1258.08 627.532,1263.18 648.443,1267.93 
  669.353,1272.37 690.263,1276.52 711.173,1280.42 732.083,1284.09 752.994,1287.54 773.904,1290.81 794.814,1293.9 815.724,1296.83 836.635,1299.61 857.545,1302.26 
  878.455,1304.78 899.365,1307.18 920.275,1309.48 941.186,1311.67 962.096,1313.77 983.006,1315.79 1003.92,1317.72 1024.83,1319.58 1045.74,1321.36 1066.65,1323.08 
  1087.56,1324.73 1108.47,1326.32 1129.38,1327.86 1150.29,1329.34 1171.2,1330.76 1192.11,1332.13 1213.02,1333.44 1233.93,1334.67 1254.84,1334.63 1275.75,1335.98 
  1296.66,1337.28 1317.57,1338.56 1338.48,1339.79 1359.39,1341 1380.3,1342.18 1401.21,1343.33 1422.12,1344.45 1443.03,1345.54 1463.94,1346.62 1484.85,1347.67 
  1505.76,1348.7 1526.67,1349.7 1547.58,1350.7 1568.49,1351.67 1589.4,1352.62 1610.31,1353.56 1631.22,1354.49 1652.13,1355.4 1673.04,1357.54 1693.95,1358.73 
  1714.86,1359.72 1735.77,1360.65 1756.68,1361.62 1777.59,1362.53 1798.5,1363.48 1819.41,1364.38 1840.32,1365.27 1861.24,1366.2 1882.15,1367.08 1903.06,1367.96 
  1923.97,1368.84 1944.88,1369.72 1965.79,1370.61 1986.7,1371.5 2007.61,1372.36 2028.52,1373.24 2049.43,1374.14 2070.34,1375.07 2091.25,1375.96 2112.16,1376.92 
  2133.07,1377.9 2153.98,1378.87 2174.89,1403.28 2195.8,1403.28 2216.71,1403.28 2237.62,1403.28 2258.53,1403.28 2279.44,1403.28 2300.35,1403.28 2321.26,1403.28 
  
  "/>
<polyline clip-path="url(#clip6802)" style="stroke:#c271d2; stroke-width:4.8; stroke-opacity:1; fill:none" points="
  251.149,780.618 272.059,893.138 292.969,995.94 313.879,1072.15 334.789,1119.24 355.7,1154.9 376.61,1183.57 397.52,1206.63 418.43,1225.66 439.34,1241.56 
  460.251,1255.01 481.161,1266.51 502.071,1276.55 522.981,1285.18 543.892,1292.66 564.802,1299.36 585.712,1305.32 606.622,1310.67 627.532,1315.48 648.443,1319.83 
  669.353,1323.79 690.263,1327.41 711.173,1330.7 732.083,1333.76 752.994,1336.6 773.904,1339.23 794.814,1341.66 815.724,1343.95 836.635,1346.1 857.545,1348.09 
  878.455,1349.99 899.365,1351.79 920.275,1353.48 941.186,1355.08 962.096,1356.62 983.006,1358.07 1003.92,1359.46 1024.83,1360.81 1045.74,1362.09 1066.65,1363.32 
  1087.56,1364.51 1108.47,1365.67 1129.38,1366.79 1150.29,1367.88 1171.2,1368.95 1192.11,1370.01 1213.02,1371.07 1233.93,1372.19 1254.84,1375.87 1275.75,1376.97 
  1296.66,1377.74 1317.57,1378.56 1338.48,1379.3 1359.39,1380.03 1380.3,1380.81 1401.21,1381.52 1422.12,1382.23 1443.03,1382.94 1463.94,1383.66 1484.85,1384.37 
  1505.76,1385.05 1526.67,1385.79 1547.58,1386.46 1568.49,1387.2 1589.4,1387.91 1610.31,1388.71 1631.22,1389.49 1652.13,1390.31 1673.04,1403.28 1693.95,1403.28 
  1714.86,1403.28 1735.77,1403.28 1756.68,1403.28 1777.59,1403.28 1798.5,1403.28 1819.41,1403.28 1840.32,1403.28 1861.24,1403.28 1882.15,1403.28 1903.06,1403.28 
  1923.97,1403.28 1944.88,1403.28 1965.79,1403.28 1986.7,1403.28 2007.61,1403.28 2028.52,1403.28 2049.43,1403.28 2070.34,1403.28 2091.25,1403.28 2112.16,1403.28 
  2133.07,1403.28 2153.98,1403.28 2174.89,1403.28 2195.8,1403.28 2216.71,1403.28 2237.62,1403.28 2258.53,1403.28 2279.44,1403.28 2300.35,1403.28 2321.26,1403.28 
  
  "/>
<polyline clip-path="url(#clip6802)" style="stroke:#ac8d18; stroke-width:4.8; stroke-opacity:1; fill:none" points="
  251.149,649.094 272.059,767.917 292.969,887.039 313.879,952.964 334.789,1010.04 355.7,1055.34 376.61,1092.68 397.52,1123.67 418.43,1149.89 439.34,1172.34 
  460.251,1191.78 481.161,1208.75 502.071,1223.89 522.981,1237.13 543.892,1248.75 564.802,1259.36 585.712,1268.93 606.622,1277.61 627.532,1285.51 648.443,1292.74 
  669.353,1299.38 690.263,1305.5 711.173,1311 732.083,1316.24 752.994,1321.13 773.904,1325.69 794.814,1329.82 815.724,1333.82 836.635,1337.6 857.545,1341.03 
  878.455,1344.4 899.365,1347.61 920.275,1350.54 941.186,1353.34 962.096,1356.12 983.006,1358.69 1003.92,1361.17 1024.83,1363.67 1045.74,1366.01 1066.65,1368.2 
  1087.56,1370.44 1108.47,1372.67 1129.38,1374.82 1150.29,1376.93 1171.2,1379.15 1192.11,1381.43 1213.02,1383.91 1233.93,1387.02 1254.84,1403.28 1275.75,1403.28 
  1296.66,1403.28 1317.57,1403.28 1338.48,1403.28 1359.39,1403.28 1380.3,1403.28 1401.21,1403.28 1422.12,1403.28 1443.03,1403.28 1463.94,1403.28 1484.85,1403.28 
  1505.76,1403.28 1526.67,1403.28 1547.58,1403.28 1568.49,1403.28 1589.4,1403.28 1610.31,1403.28 1631.22,1403.28 1652.13,1403.28 1673.04,1403.28 1693.95,1403.28 
  1714.86,1403.28 1735.77,1403.28 1756.68,1403.28 1777.59,1403.28 1798.5,1403.28 1819.41,1403.28 1840.32,1403.28 1861.24,1403.28 1882.15,1403.28 1903.06,1403.28 
  1923.97,1403.28 1944.88,1403.28 1965.79,1403.28 1986.7,1403.28 2007.61,1403.28 2028.52,1403.28 2049.43,1403.28 2070.34,1403.28 2091.25,1403.28 2112.16,1403.28 
  2133.07,1403.28 2153.98,1403.28 2174.89,1403.28 2195.8,1403.28 2216.71,1403.28 2237.62,1403.28 2258.53,1403.28 2279.44,1403.28 2300.35,1403.28 2321.26,1403.28 
  
  "/>
<polyline clip-path="url(#clip6802)" style="stroke:#00a9ad; stroke-width:4.8; stroke-opacity:1; fill:none" points="
  251.149,1231.59 272.059,1344.06 292.969,1377.06 313.879,1403.28 334.789,1403.28 355.7,1403.28 376.61,1403.28 397.52,1403.28 418.43,1403.28 439.34,1403.28 
  460.251,1403.28 481.161,1403.28 502.071,1403.28 522.981,1403.28 543.892,1403.28 564.802,1403.28 585.712,1403.28 606.622,1403.28 627.532,1403.28 648.443,1403.28 
  669.353,1403.28 690.263,1403.28 711.173,1403.28 732.083,1403.28 752.994,1403.28 773.904,1403.28 794.814,1403.28 815.724,1403.28 836.635,1403.28 857.545,1403.28 
  878.455,1403.28 899.365,1403.28 920.275,1403.28 941.186,1403.28 962.096,1403.28 983.006,1403.28 1003.92,1403.28 1024.83,1403.28 1045.74,1403.28 1066.65,1403.28 
  1087.56,1403.28 1108.47,1403.28 1129.38,1403.28 1150.29,1403.28 1171.2,1403.28 1192.11,1403.28 1213.02,1403.28 1233.93,1403.28 1254.84,1403.28 1275.75,1403.28 
  1296.66,1403.28 1317.57,1403.28 1338.48,1403.28 1359.39,1403.28 1380.3,1403.28 1401.21,1403.28 1422.12,1403.28 1443.03,1403.28 1463.94,1403.28 1484.85,1403.28 
  1505.76,1403.28 1526.67,1403.28 1547.58,1403.28 1568.49,1403.28 1589.4,1403.28 1610.31,1403.28 1631.22,1403.28 1652.13,1403.28 1673.04,1403.28 1693.95,1403.28 
  1714.86,1403.28 1735.77,1403.28 1756.68,1403.28 1777.59,1403.28 1798.5,1403.28 1819.41,1403.28 1840.32,1403.28 1861.24,1403.28 1882.15,1403.28 1903.06,1403.28 
  1923.97,1403.28 1944.88,1403.28 1965.79,1403.28 1986.7,1403.28 2007.61,1403.28 2028.52,1403.28 2049.43,1403.28 2070.34,1403.28 2091.25,1403.28 2112.16,1403.28 
  2133.07,1403.28 2153.98,1403.28 2174.89,1403.28 2195.8,1403.28 2216.71,1403.28 2237.62,1403.28 2258.53,1403.28 2279.44,1403.28 2300.35,1403.28 2321.26,1403.28 
  
  "/>
<polyline clip-path="url(#clip6802)" style="stroke:#ed5d92; stroke-width:4.8; stroke-opacity:1; fill:none" points="
  251.149,1174.54 272.059,1288.74 292.969,1403.28 313.879,1403.28 334.789,1403.28 355.7,1403.28 376.61,1403.28 397.52,1403.28 418.43,1403.28 439.34,1403.28 
  460.251,1403.28 481.161,1403.28 502.071,1403.28 522.981,1403.28 543.892,1403.28 564.802,1403.28 585.712,1403.28 606.622,1403.28 627.532,1403.28 648.443,1403.28 
  669.353,1403.28 690.263,1403.28 711.173,1403.28 732.083,1403.28 752.994,1403.28 773.904,1403.28 794.814,1403.28 815.724,1403.28 836.635,1403.28 857.545,1403.28 
  878.455,1403.28 899.365,1403.28 920.275,1403.28 941.186,1403.28 962.096,1403.28 983.006,1403.28 1003.92,1403.28 1024.83,1403.28 1045.74,1403.28 1066.65,1403.28 
  1087.56,1403.28 1108.47,1403.28 1129.38,1403.28 1150.29,1403.28 1171.2,1403.28 1192.11,1403.28 1213.02,1403.28 1233.93,1403.28 1254.84,1403.28 1275.75,1403.28 
  1296.66,1403.28 1317.57,1403.28 1338.48,1403.28 1359.39,1403.28 1380.3,1403.28 1401.21,1403.28 1422.12,1403.28 1443.03,1403.28 1463.94,1403.28 1484.85,1403.28 
  1505.76,1403.28 1526.67,1403.28 1547.58,1403.28 1568.49,1403.28 1589.4,1403.28 1610.31,1403.28 1631.22,1403.28 1652.13,1403.28 1673.04,1403.28 1693.95,1403.28 
  1714.86,1403.28 1735.77,1403.28 1756.68,1403.28 1777.59,1403.28 1798.5,1403.28 1819.41,1403.28 1840.32,1403.28 1861.24,1403.28 1882.15,1403.28 1903.06,1403.28 
  1923.97,1403.28 1944.88,1403.28 1965.79,1403.28 1986.7,1403.28 2007.61,1403.28 2028.52,1403.28 2049.43,1403.28 2070.34,1403.28 2091.25,1403.28 2112.16,1403.28 
  2133.07,1403.28 2153.98,1403.28 2174.89,1403.28 2195.8,1403.28 2216.71,1403.28 2237.62,1403.28 2258.53,1403.28 2279.44,1403.28 2300.35,1403.28 2321.26,1403.28 
  
  "/>
<polyline clip-path="url(#clip6802)" style="stroke:#c68125; stroke-width:4.8; stroke-opacity:1; fill:none" points="
  251.149,1403.28 272.059,1403.28 292.969,1403.28 313.879,1403.28 334.789,1403.28 355.7,1403.28 376.61,1403.28 397.52,1403.28 418.43,1403.28 439.34,1403.28 
  460.251,1403.28 481.161,1403.28 502.071,1403.28 522.981,1403.28 543.892,1403.28 564.802,1403.28 585.712,1403.28 606.622,1403.28 627.532,1403.28 648.443,1403.28 
  669.353,1403.28 690.263,1403.28 711.173,1403.28 732.083,1403.28 752.994,1403.28 773.904,1403.28 794.814,1403.28 815.724,1403.28 836.635,1403.28 857.545,1403.28 
  878.455,1403.28 899.365,1403.28 920.275,1403.28 941.186,1403.28 962.096,1403.28 983.006,1403.28 1003.92,1403.28 1024.83,1403.28 1045.74,1403.28 1066.65,1403.28 
  1087.56,1403.28 1108.47,1403.28 1129.38,1403.28 1150.29,1403.28 1171.2,1403.28 1192.11,1403.28 1213.02,1403.28 1233.93,1403.28 1254.84,1403.28 1275.75,1403.28 
  1296.66,1403.28 1317.57,1403.28 1338.48,1403.28 1359.39,1403.28 1380.3,1403.28 1401.21,1403.28 1422.12,1403.28 1443.03,1403.28 1463.94,1403.28 1484.85,1403.28 
  1505.76,1403.28 1526.67,1403.28 1547.58,1403.28 1568.49,1403.28 1589.4,1403.28 1610.31,1403.28 1631.22,1403.28 1652.13,1403.28 1673.04,1403.28 1693.95,1403.28 
  1714.86,1403.28 1735.77,1403.28 1756.68,1403.28 1777.59,1403.28 1798.5,1403.28 1819.41,1403.28 1840.32,1403.28 1861.24,1403.28 1882.15,1403.28 1903.06,1403.28 
  1923.97,1403.28 1944.88,1403.28 1965.79,1403.28 1986.7,1403.28 2007.61,1403.28 2028.52,1403.28 2049.43,1403.28 2070.34,1403.28 2091.25,1403.28 2112.16,1403.28 
  2133.07,1403.28 2153.98,1403.28 2174.89,1403.28 2195.8,1403.28 2216.71,1403.28 2237.62,1403.28 2258.53,1403.28 2279.44,1403.28 2300.35,1403.28 2321.26,1403.28 
  
  "/>
<polyline clip-path="url(#clip6802)" style="stroke:#00a98d; stroke-width:4.8; stroke-opacity:1; fill:none" points="
  251.149,1403.28 272.059,1403.28 292.969,1403.28 313.879,1403.28 334.789,1403.28 355.7,1403.28 376.61,1403.28 397.52,1403.28 418.43,1403.28 439.34,1403.28 
  460.251,1403.28 481.161,1403.28 502.071,1403.28 522.981,1403.28 543.892,1403.28 564.802,1403.28 585.712,1403.28 606.622,1403.28 627.532,1403.28 648.443,1403.28 
  669.353,1403.28 690.263,1403.28 711.173,1403.28 732.083,1403.28 752.994,1403.28 773.904,1403.28 794.814,1403.28 815.724,1403.28 836.635,1403.28 857.545,1403.28 
  878.455,1403.28 899.365,1403.28 920.275,1403.28 941.186,1403.28 962.096,1403.28 983.006,1403.28 1003.92,1403.28 1024.83,1403.28 1045.74,1403.28 1066.65,1403.28 
  1087.56,1403.28 1108.47,1403.28 1129.38,1403.28 1150.29,1403.28 1171.2,1403.28 1192.11,1403.28 1213.02,1403.28 1233.93,1403.28 1254.84,1403.28 1275.75,1403.28 
  1296.66,1403.28 1317.57,1403.28 1338.48,1403.28 1359.39,1403.28 1380.3,1403.28 1401.21,1403.28 1422.12,1403.28 1443.03,1403.28 1463.94,1403.28 1484.85,1403.28 
  1505.76,1403.28 1526.67,1403.28 1547.58,1403.28 1568.49,1403.28 1589.4,1403.28 1610.31,1403.28 1631.22,1403.28 1652.13,1403.28 1673.04,1403.28 1693.95,1403.28 
  1714.86,1403.28 1735.77,1403.28 1756.68,1403.28 1777.59,1403.28 1798.5,1403.28 1819.41,1403.28 1840.32,1403.28 1861.24,1403.28 1882.15,1403.28 1903.06,1403.28 
  1923.97,1403.28 1944.88,1403.28 1965.79,1403.28 1986.7,1403.28 2007.61,1403.28 2028.52,1403.28 2049.43,1403.28 2070.34,1403.28 2091.25,1403.28 2112.16,1403.28 
  2133.07,1403.28 2153.98,1403.28 2174.89,1403.28 2195.8,1403.28 2216.71,1403.28 2237.62,1403.28 2258.53,1403.28 2279.44,1403.28 2300.35,1403.28 2321.26,1403.28 
  
  "/>
<polyline clip-path="url(#clip6802)" style="stroke:#8e971d; stroke-width:4.8; stroke-opacity:1; fill:none" points="
  251.149,1403.28 272.059,1403.28 292.969,1403.28 313.879,1403.28 334.789,1403.28 355.7,1403.28 376.61,1403.28 397.52,1403.28 418.43,1403.28 439.34,1403.28 
  460.251,1403.28 481.161,1403.28 502.071,1403.28 522.981,1403.28 543.892,1403.28 564.802,1403.28 585.712,1403.28 606.622,1403.28 627.532,1403.28 648.443,1403.28 
  669.353,1403.28 690.263,1403.28 711.173,1403.28 732.083,1403.28 752.994,1403.28 773.904,1403.28 794.814,1403.28 815.724,1403.28 836.635,1403.28 857.545,1403.28 
  878.455,1403.28 899.365,1403.28 920.275,1403.28 941.186,1403.28 962.096,1403.28 983.006,1403.28 1003.92,1403.28 1024.83,1403.28 1045.74,1403.28 1066.65,1403.28 
  1087.56,1403.28 1108.47,1403.28 1129.38,1403.28 1150.29,1403.28 1171.2,1403.28 1192.11,1403.28 1213.02,1403.28 1233.93,1403.28 1254.84,1403.28 1275.75,1403.28 
  1296.66,1403.28 1317.57,1403.28 1338.48,1403.28 1359.39,1403.28 1380.3,1403.28 1401.21,1403.28 1422.12,1403.28 1443.03,1403.28 1463.94,1403.28 1484.85,1403.28 
  1505.76,1403.28 1526.67,1403.28 1547.58,1403.28 1568.49,1403.28 1589.4,1403.28 1610.31,1403.28 1631.22,1403.28 1652.13,1403.28 1673.04,1403.28 1693.95,1403.28 
  1714.86,1403.28 1735.77,1403.28 1756.68,1403.28 1777.59,1403.28 1798.5,1403.28 1819.41,1403.28 1840.32,1403.28 1861.24,1403.28 1882.15,1403.28 1903.06,1403.28 
  1923.97,1403.28 1944.88,1403.28 1965.79,1403.28 1986.7,1403.28 2007.61,1403.28 2028.52,1403.28 2049.43,1403.28 2070.34,1403.28 2091.25,1403.28 2112.16,1403.28 
  2133.07,1403.28 2153.98,1403.28 2174.89,1403.28 2195.8,1403.28 2216.71,1403.28 2237.62,1403.28 2258.53,1403.28 2279.44,1403.28 2300.35,1403.28 2321.26,1403.28 
  
  "/>
<polyline clip-path="url(#clip6802)" style="stroke:#00a8cb; stroke-width:4.8; stroke-opacity:1; fill:none" points="
  251.149,1403.28 272.059,1403.28 292.969,1403.28 313.879,1403.28 334.789,1403.28 355.7,1403.28 376.61,1403.28 397.52,1403.28 418.43,1403.28 439.34,1403.28 
  460.251,1403.28 481.161,1403.28 502.071,1403.28 522.981,1403.28 543.892,1403.28 564.802,1403.28 585.712,1403.28 606.622,1403.28 627.532,1403.28 648.443,1403.28 
  669.353,1403.28 690.263,1403.28 711.173,1403.28 732.083,1403.28 752.994,1403.28 773.904,1403.28 794.814,1403.28 815.724,1403.28 836.635,1403.28 857.545,1403.28 
  878.455,1403.28 899.365,1403.28 920.275,1403.28 941.186,1403.28 962.096,1403.28 983.006,1403.28 1003.92,1403.28 1024.83,1403.28 1045.74,1403.28 1066.65,1403.28 
  1087.56,1403.28 1108.47,1403.28 1129.38,1403.28 1150.29,1403.28 1171.2,1403.28 1192.11,1403.28 1213.02,1403.28 1233.93,1403.28 1254.84,1403.28 1275.75,1403.28 
  1296.66,1403.28 1317.57,1403.28 1338.48,1403.28 1359.39,1403.28 1380.3,1403.28 1401.21,1403.28 1422.12,1403.28 1443.03,1403.28 1463.94,1403.28 1484.85,1403.28 
  1505.76,1403.28 1526.67,1403.28 1547.58,1403.28 1568.49,1403.28 1589.4,1403.28 1610.31,1403.28 1631.22,1403.28 1652.13,1403.28 1673.04,1403.28 1693.95,1403.28 
  1714.86,1403.28 1735.77,1403.28 1756.68,1403.28 1777.59,1403.28 1798.5,1403.28 1819.41,1403.28 1840.32,1403.28 1861.24,1403.28 1882.15,1403.28 1903.06,1403.28 
  1923.97,1403.28 1944.88,1403.28 1965.79,1403.28 1986.7,1403.28 2007.61,1403.28 2028.52,1403.28 2049.43,1403.28 2070.34,1403.28 2091.25,1403.28 2112.16,1403.28 
  2133.07,1403.28 2153.98,1403.28 2174.89,1403.28 2195.8,1403.28 2216.71,1403.28 2237.62,1403.28 2258.53,1403.28 2279.44,1403.28 2300.35,1403.28 2321.26,1403.28 
  
  "/>
<polyline clip-path="url(#clip6802)" style="stroke:#9b7fe8; stroke-width:4.8; stroke-opacity:1; fill:none" points="
  251.149,1403.28 272.059,1403.28 292.969,1403.28 313.879,1403.28 334.789,1403.28 355.7,1403.28 376.61,1403.28 397.52,1403.28 418.43,1403.28 439.34,1403.28 
  460.251,1403.28 481.161,1403.28 502.071,1403.28 522.981,1403.28 543.892,1403.28 564.802,1403.28 585.712,1403.28 606.622,1403.28 627.532,1403.28 648.443,1403.28 
  669.353,1403.28 690.263,1403.28 711.173,1403.28 732.083,1403.28 752.994,1403.28 773.904,1403.28 794.814,1403.28 815.724,1403.28 836.635,1403.28 857.545,1403.28 
  878.455,1403.28 899.365,1403.28 920.275,1403.28 941.186,1403.28 962.096,1403.28 983.006,1403.28 1003.92,1403.28 1024.83,1403.28 1045.74,1403.28 1066.65,1403.28 
  1087.56,1403.28 1108.47,1403.28 1129.38,1403.28 1150.29,1403.28 1171.2,1403.28 1192.11,1403.28 1213.02,1403.28 1233.93,1403.28 1254.84,1403.28 1275.75,1403.28 
  1296.66,1403.28 1317.57,1403.28 1338.48,1403.28 1359.39,1403.28 1380.3,1403.28 1401.21,1403.28 1422.12,1403.28 1443.03,1403.28 1463.94,1403.28 1484.85,1403.28 
  1505.76,1403.28 1526.67,1403.28 1547.58,1403.28 1568.49,1403.28 1589.4,1403.28 1610.31,1403.28 1631.22,1403.28 1652.13,1403.28 1673.04,1403.28 1693.95,1403.28 
  1714.86,1403.28 1735.77,1403.28 1756.68,1403.28 1777.59,1403.28 1798.5,1403.28 1819.41,1403.28 1840.32,1403.28 1861.24,1403.28 1882.15,1403.28 1903.06,1403.28 
  1923.97,1403.28 1944.88,1403.28 1965.79,1403.28 1986.7,1403.28 2007.61,1403.28 2028.52,1403.28 2049.43,1403.28 2070.34,1403.28 2091.25,1403.28 2112.16,1403.28 
  2133.07,1403.28 2153.98,1403.28 2174.89,1403.28 2195.8,1403.28 2216.71,1403.28 2237.62,1403.28 2258.53,1403.28 2279.44,1403.28 2300.35,1403.28 2321.26,1403.28 
  
  "/>
<polyline clip-path="url(#clip6802)" style="stroke:#608cf6; stroke-width:4.8; stroke-opacity:1; fill:none" points="
  251.149,1403.28 272.059,1403.28 292.969,1403.28 313.879,1403.28 334.789,1403.28 355.7,1403.28 376.61,1403.28 397.52,1403.28 418.43,1403.28 439.34,1403.28 
  460.251,1403.28 481.161,1403.28 502.071,1403.28 522.981,1403.28 543.892,1403.28 564.802,1403.28 585.712,1403.28 606.622,1403.28 627.532,1403.28 648.443,1403.28 
  669.353,1403.28 690.263,1403.28 711.173,1403.28 732.083,1403.28 752.994,1403.28 773.904,1403.28 794.814,1403.28 815.724,1403.28 836.635,1403.28 857.545,1403.28 
  878.455,1403.28 899.365,1403.28 920.275,1403.28 941.186,1403.28 962.096,1403.28 983.006,1403.28 1003.92,1403.28 1024.83,1403.28 1045.74,1403.28 1066.65,1403.28 
  1087.56,1403.28 1108.47,1403.28 1129.38,1403.28 1150.29,1403.28 1171.2,1403.28 1192.11,1403.28 1213.02,1403.28 1233.93,1403.28 1254.84,1403.28 1275.75,1403.28 
  1296.66,1403.28 1317.57,1403.28 1338.48,1403.28 1359.39,1403.28 1380.3,1403.28 1401.21,1403.28 1422.12,1403.28 1443.03,1403.28 1463.94,1403.28 1484.85,1403.28 
  1505.76,1403.28 1526.67,1403.28 1547.58,1403.28 1568.49,1403.28 1589.4,1403.28 1610.31,1403.28 1631.22,1403.28 1652.13,1403.28 1673.04,1403.28 1693.95,1403.28 
  1714.86,1403.28 1735.77,1403.28 1756.68,1403.28 1777.59,1403.28 1798.5,1403.28 1819.41,1403.28 1840.32,1403.28 1861.24,1403.28 1882.15,1403.28 1903.06,1403.28 
  1923.97,1403.28 1944.88,1403.28 1965.79,1403.28 1986.7,1403.28 2007.61,1403.28 2028.52,1403.28 2049.43,1403.28 2070.34,1403.28 2091.25,1403.28 2112.16,1403.28 
  2133.07,1403.28 2153.98,1403.28 2174.89,1403.28 2195.8,1403.28 2216.71,1403.28 2237.62,1403.28 2258.53,1403.28 2279.44,1403.28 2300.35,1403.28 2321.26,1403.28 
  
  "/>
<polyline clip-path="url(#clip6802)" style="stroke:#f05f73; stroke-width:4.8; stroke-opacity:1; fill:none" points="
  251.149,1403.28 272.059,1403.28 292.969,1403.28 313.879,1403.28 334.789,1403.28 355.7,1403.28 376.61,1403.28 397.52,1403.28 418.43,1403.28 439.34,1403.28 
  460.251,1403.28 481.161,1403.28 502.071,1403.28 522.981,1403.28 543.892,1403.28 564.802,1403.28 585.712,1403.28 606.622,1403.28 627.532,1403.28 648.443,1403.28 
  669.353,1403.28 690.263,1403.28 711.173,1403.28 732.083,1403.28 752.994,1403.28 773.904,1403.28 794.814,1403.28 815.724,1403.28 836.635,1403.28 857.545,1403.28 
  878.455,1403.28 899.365,1403.28 920.275,1403.28 941.186,1403.28 962.096,1403.28 983.006,1403.28 1003.92,1403.28 1024.83,1403.28 1045.74,1403.28 1066.65,1403.28 
  1087.56,1403.28 1108.47,1403.28 1129.38,1403.28 1150.29,1403.28 1171.2,1403.28 1192.11,1403.28 1213.02,1403.28 1233.93,1403.28 1254.84,1403.28 1275.75,1403.28 
  1296.66,1403.28 1317.57,1403.28 1338.48,1403.28 1359.39,1403.28 1380.3,1403.28 1401.21,1403.28 1422.12,1403.28 1443.03,1403.28 1463.94,1403.28 1484.85,1403.28 
  1505.76,1403.28 1526.67,1403.28 1547.58,1403.28 1568.49,1403.28 1589.4,1403.28 1610.31,1403.28 1631.22,1403.28 1652.13,1403.28 1673.04,1403.28 1693.95,1403.28 
  1714.86,1403.28 1735.77,1403.28 1756.68,1403.28 1777.59,1403.28 1798.5,1403.28 1819.41,1403.28 1840.32,1403.28 1861.24,1403.28 1882.15,1403.28 1903.06,1403.28 
  1923.97,1403.28 1944.88,1403.28 1965.79,1403.28 1986.7,1403.28 2007.61,1403.28 2028.52,1403.28 2049.43,1403.28 2070.34,1403.28 2091.25,1403.28 2112.16,1403.28 
  2133.07,1403.28 2153.98,1403.28 2174.89,1403.28 2195.8,1403.28 2216.71,1403.28 2237.62,1403.28 2258.53,1403.28 2279.44,1403.28 2300.35,1403.28 2321.26,1403.28 
  
  "/>
<polyline clip-path="url(#clip6802)" style="stroke:#dd64b5; stroke-width:4.8; stroke-opacity:1; fill:none" points="
  251.149,1403.28 272.059,1403.28 292.969,1403.28 313.879,1403.28 334.789,1403.28 355.7,1403.28 376.61,1403.28 397.52,1403.28 418.43,1403.28 439.34,1403.28 
  460.251,1403.28 481.161,1403.28 502.071,1403.28 522.981,1403.28 543.892,1403.28 564.802,1403.28 585.712,1403.28 606.622,1403.28 627.532,1403.28 648.443,1403.28 
  669.353,1403.28 690.263,1403.28 711.173,1403.28 732.083,1403.28 752.994,1403.28 773.904,1403.28 794.814,1403.28 815.724,1403.28 836.635,1403.28 857.545,1403.28 
  878.455,1403.28 899.365,1403.28 920.275,1403.28 941.186,1403.28 962.096,1403.28 983.006,1403.28 1003.92,1403.28 1024.83,1403.28 1045.74,1403.28 1066.65,1403.28 
  1087.56,1403.28 1108.47,1403.28 1129.38,1403.28 1150.29,1403.28 1171.2,1403.28 1192.11,1403.28 1213.02,1403.28 1233.93,1403.28 1254.84,1403.28 1275.75,1403.28 
  1296.66,1403.28 1317.57,1403.28 1338.48,1403.28 1359.39,1403.28 1380.3,1403.28 1401.21,1403.28 1422.12,1403.28 1443.03,1403.28 1463.94,1403.28 1484.85,1403.28 
  1505.76,1403.28 1526.67,1403.28 1547.58,1403.28 1568.49,1403.28 1589.4,1403.28 1610.31,1403.28 1631.22,1403.28 1652.13,1403.28 1673.04,1403.28 1693.95,1403.28 
  1714.86,1403.28 1735.77,1403.28 1756.68,1403.28 1777.59,1403.28 1798.5,1403.28 1819.41,1403.28 1840.32,1403.28 1861.24,1403.28 1882.15,1403.28 1903.06,1403.28 
  1923.97,1403.28 1944.88,1403.28 1965.79,1403.28 1986.7,1403.28 2007.61,1403.28 2028.52,1403.28 2049.43,1403.28 2070.34,1403.28 2091.25,1403.28 2112.16,1403.28 
  2133.07,1403.28 2153.98,1403.28 2174.89,1403.28 2195.8,1403.28 2216.71,1403.28 2237.62,1403.28 2258.53,1403.28 2279.44,1403.28 2300.35,1403.28 2321.26,1403.28 
  
  "/>
<polyline clip-path="url(#clip6802)" style="stroke:#6b9e32; stroke-width:4.8; stroke-opacity:1; fill:none" points="
  251.149,1403.28 272.059,1403.28 292.969,1403.28 313.879,1403.28 334.789,1403.28 355.7,1403.28 376.61,1403.28 397.52,1403.28 418.43,1403.28 439.34,1403.28 
  460.251,1403.28 481.161,1403.28 502.071,1403.28 522.981,1403.28 543.892,1403.28 564.802,1403.28 585.712,1403.28 606.622,1403.28 627.532,1403.28 648.443,1403.28 
  669.353,1403.28 690.263,1403.28 711.173,1403.28 732.083,1403.28 752.994,1403.28 773.904,1403.28 794.814,1403.28 815.724,1403.28 836.635,1403.28 857.545,1403.28 
  878.455,1403.28 899.365,1403.28 920.275,1403.28 941.186,1403.28 962.096,1403.28 983.006,1403.28 1003.92,1403.28 1024.83,1403.28 1045.74,1403.28 1066.65,1403.28 
  1087.56,1403.28 1108.47,1403.28 1129.38,1403.28 1150.29,1403.28 1171.2,1403.28 1192.11,1403.28 1213.02,1403.28 1233.93,1403.28 1254.84,1403.28 1275.75,1403.28 
  1296.66,1403.28 1317.57,1403.28 1338.48,1403.28 1359.39,1403.28 1380.3,1403.28 1401.21,1403.28 1422.12,1403.28 1443.03,1403.28 1463.94,1403.28 1484.85,1403.28 
  1505.76,1403.28 1526.67,1403.28 1547.58,1403.28 1568.49,1403.28 1589.4,1403.28 1610.31,1403.28 1631.22,1403.28 1652.13,1403.28 1673.04,1403.28 1693.95,1403.28 
  1714.86,1403.28 1735.77,1403.28 1756.68,1403.28 1777.59,1403.28 1798.5,1403.28 1819.41,1403.28 1840.32,1403.28 1861.24,1403.28 1882.15,1403.28 1903.06,1403.28 
  1923.97,1403.28 1944.88,1403.28 1965.79,1403.28 1986.7,1403.28 2007.61,1403.28 2028.52,1403.28 2049.43,1403.28 2070.34,1403.28 2091.25,1403.28 2112.16,1403.28 
  2133.07,1403.28 2153.98,1403.28 2174.89,1403.28 2195.8,1403.28 2216.71,1403.28 2237.62,1403.28 2258.53,1403.28 2279.44,1403.28 2300.35,1403.28 2321.26,1403.28 
  
  "/>
<polyline clip-path="url(#clip6802)" style="stroke:#718c69; stroke-width:4.8; stroke-opacity:1; fill:none" points="
  251.149,1394.8 272.059,1403.28 292.969,1403.28 313.879,1403.28 334.789,1403.28 355.7,1403.28 376.61,1403.28 397.52,1403.28 418.43,1403.28 439.34,1403.28 
  460.251,1403.28 481.161,1403.28 502.071,1403.28 522.981,1403.28 543.892,1403.28 564.802,1403.28 585.712,1403.28 606.622,1403.28 627.532,1403.28 648.443,1403.28 
  669.353,1403.28 690.263,1403.28 711.173,1403.28 732.083,1403.28 752.994,1403.28 773.904,1403.28 794.814,1403.28 815.724,1403.28 836.635,1403.28 857.545,1403.28 
  878.455,1403.28 899.365,1403.28 920.275,1403.28 941.186,1403.28 962.096,1403.28 983.006,1403.28 1003.92,1403.28 1024.83,1403.28 1045.74,1403.28 1066.65,1403.28 
  1087.56,1403.28 1108.47,1403.28 1129.38,1403.28 1150.29,1403.28 1171.2,1403.28 1192.11,1403.28 1213.02,1403.28 1233.93,1403.28 1254.84,1403.28 1275.75,1403.28 
  1296.66,1403.28 1317.57,1403.28 1338.48,1403.28 1359.39,1403.28 1380.3,1403.28 1401.21,1403.28 1422.12,1403.28 1443.03,1403.28 1463.94,1403.28 1484.85,1403.28 
  1505.76,1403.28 1526.67,1403.28 1547.58,1403.28 1568.49,1403.28 1589.4,1403.28 1610.31,1403.28 1631.22,1403.28 1652.13,1403.28 1673.04,1403.28 1693.95,1403.28 
  1714.86,1403.28 1735.77,1403.28 1756.68,1403.28 1777.59,1403.28 1798.5,1403.28 1819.41,1403.28 1840.32,1403.28 1861.24,1403.28 1882.15,1403.28 1903.06,1403.28 
  1923.97,1403.28 1944.88,1403.28 1965.79,1403.28 1986.7,1403.28 2007.61,1403.28 2028.52,1403.28 2049.43,1403.28 2070.34,1403.28 2091.25,1403.28 2112.16,1403.28 
  2133.07,1403.28 2153.98,1403.28 2174.89,1403.28 2195.8,1403.28 2216.71,1403.28 2237.62,1403.28 2258.53,1403.28 2279.44,1403.28 2300.35,1403.28 2321.26,1403.28 
  
  "/>
<polyline clip-path="url(#clip6802)" style="stroke:#47988b; stroke-width:4.8; stroke-opacity:1; fill:none" points="
  251.149,1403.28 272.059,1403.28 292.969,1403.28 313.879,1403.28 334.789,1403.28 355.7,1403.28 376.61,1403.28 397.52,1403.28 418.43,1403.28 439.34,1403.28 
  460.251,1403.28 481.161,1403.28 502.071,1403.28 522.981,1403.28 543.892,1403.28 564.802,1403.28 585.712,1403.28 606.622,1403.28 627.532,1403.28 648.443,1403.28 
  669.353,1403.28 690.263,1403.28 711.173,1403.28 732.083,1403.28 752.994,1403.28 773.904,1403.28 794.814,1403.28 815.724,1403.28 836.635,1403.28 857.545,1403.28 
  878.455,1403.28 899.365,1403.28 920.275,1403.28 941.186,1403.28 962.096,1403.28 983.006,1403.28 1003.92,1403.28 1024.83,1403.28 1045.74,1403.28 1066.65,1403.28 
  1087.56,1403.28 1108.47,1403.28 1129.38,1403.28 1150.29,1403.28 1171.2,1403.28 1192.11,1403.28 1213.02,1403.28 1233.93,1403.28 1254.84,1403.28 1275.75,1403.28 
  1296.66,1403.28 1317.57,1403.28 1338.48,1403.28 1359.39,1403.28 1380.3,1403.28 1401.21,1403.28 1422.12,1403.28 1443.03,1403.28 1463.94,1403.28 1484.85,1403.28 
  1505.76,1403.28 1526.67,1403.28 1547.58,1403.28 1568.49,1403.28 1589.4,1403.28 1610.31,1403.28 1631.22,1403.28 1652.13,1403.28 1673.04,1403.28 1693.95,1403.28 
  1714.86,1403.28 1735.77,1403.28 1756.68,1403.28 1777.59,1403.28 1798.5,1403.28 1819.41,1403.28 1840.32,1403.28 1861.24,1403.28 1882.15,1403.28 1903.06,1403.28 
  1923.97,1403.28 1944.88,1403.28 1965.79,1403.28 1986.7,1403.28 2007.61,1403.28 2028.52,1403.28 2049.43,1403.28 2070.34,1403.28 2091.25,1403.28 2112.16,1403.28 
  2133.07,1403.28 2153.98,1403.28 2174.89,1403.28 2195.8,1403.28 2216.71,1403.28 2237.62,1403.28 2258.53,1403.28 2279.44,1403.28 2300.35,1403.28 2321.26,1403.28 
  
  "/>
<polyline clip-path="url(#clip6802)" style="stroke:#1ea68c; stroke-width:4.8; stroke-opacity:1; fill:none" points="
  251.149,1403.28 272.059,1403.28 292.969,1403.28 313.879,1403.28 334.789,1403.28 355.7,1403.28 376.61,1403.28 397.52,1403.28 418.43,1403.28 439.34,1403.28 
  460.251,1403.28 481.161,1403.28 502.071,1403.28 522.981,1403.28 543.892,1403.28 564.802,1403.28 585.712,1403.28 606.622,1403.28 627.532,1403.28 648.443,1403.28 
  669.353,1403.28 690.263,1403.28 711.173,1403.28 732.083,1403.28 752.994,1403.28 773.904,1403.28 794.814,1403.28 815.724,1403.28 836.635,1403.28 857.545,1403.28 
  878.455,1403.28 899.365,1403.28 920.275,1403.28 941.186,1403.28 962.096,1403.28 983.006,1403.28 1003.92,1403.28 1024.83,1403.28 1045.74,1403.28 1066.65,1403.28 
  1087.56,1403.28 1108.47,1403.28 1129.38,1403.28 1150.29,1403.28 1171.2,1403.28 1192.11,1403.28 1213.02,1403.28 1233.93,1403.28 1254.84,1403.28 1275.75,1403.28 
  1296.66,1403.28 1317.57,1403.28 1338.48,1403.28 1359.39,1403.28 1380.3,1403.28 1401.21,1403.28 1422.12,1403.28 1443.03,1403.28 1463.94,1403.28 1484.85,1403.28 
  1505.76,1403.28 1526.67,1403.28 1547.58,1403.28 1568.49,1403.28 1589.4,1403.28 1610.31,1403.28 1631.22,1403.28 1652.13,1403.28 1673.04,1403.28 1693.95,1403.28 
  1714.86,1403.28 1735.77,1403.28 1756.68,1403.28 1777.59,1403.28 1798.5,1403.28 1819.41,1403.28 1840.32,1403.28 1861.24,1403.28 1882.15,1403.28 1903.06,1403.28 
  1923.97,1403.28 1944.88,1403.28 1965.79,1403.28 1986.7,1403.28 2007.61,1403.28 2028.52,1403.28 2049.43,1403.28 2070.34,1403.28 2091.25,1403.28 2112.16,1403.28 
  2133.07,1403.28 2153.98,1403.28 2174.89,1403.28 2195.8,1403.28 2216.71,1403.28 2237.62,1403.28 2258.53,1403.28 2279.44,1403.28 2300.35,1403.28 2321.26,1403.28 
  
  "/>
<polyline clip-path="url(#clip6802)" style="stroke:#af78dd; stroke-width:4.8; stroke-opacity:1; fill:none" points="
  251.149,1403.28 272.059,1403.28 292.969,1403.28 313.879,1403.28 334.789,1403.28 355.7,1403.28 376.61,1403.28 397.52,1403.28 418.43,1403.28 439.34,1403.28 
  460.251,1403.28 481.161,1403.28 502.071,1403.28 522.981,1403.28 543.892,1403.28 564.802,1403.28 585.712,1403.28 606.622,1403.28 627.532,1403.28 648.443,1403.28 
  669.353,1403.28 690.263,1403.28 711.173,1403.28 732.083,1403.28 752.994,1403.28 773.904,1403.28 794.814,1403.28 815.724,1403.28 836.635,1403.28 857.545,1403.28 
  878.455,1403.28 899.365,1403.28 920.275,1403.28 941.186,1403.28 962.096,1403.28 983.006,1403.28 1003.92,1403.28 1024.83,1403.28 1045.74,1403.28 1066.65,1403.28 
  1087.56,1403.28 1108.47,1403.28 1129.38,1403.28 1150.29,1403.28 1171.2,1403.28 1192.11,1403.28 1213.02,1403.28 1233.93,1403.28 1254.84,1403.28 1275.75,1403.28 
  1296.66,1403.28 1317.57,1403.28 1338.48,1403.28 1359.39,1403.28 1380.3,1403.28 1401.21,1403.28 1422.12,1403.28 1443.03,1403.28 1463.94,1403.28 1484.85,1403.28 
  1505.76,1403.28 1526.67,1403.28 1547.58,1403.28 1568.49,1403.28 1589.4,1403.28 1610.31,1403.28 1631.22,1403.28 1652.13,1403.28 1673.04,1403.28 1693.95,1403.28 
  1714.86,1403.28 1735.77,1403.28 1756.68,1403.28 1777.59,1403.28 1798.5,1403.28 1819.41,1403.28 1840.32,1403.28 1861.24,1403.28 1882.15,1403.28 1903.06,1403.28 
  1923.97,1403.28 1944.88,1403.28 1965.79,1403.28 1986.7,1403.28 2007.61,1403.28 2028.52,1403.28 2049.43,1403.28 2070.34,1403.28 2091.25,1403.28 2112.16,1403.28 
  2133.07,1403.28 2153.98,1403.28 2174.89,1403.28 2195.8,1403.28 2216.71,1403.28 2237.62,1403.28 2258.53,1403.28 2279.44,1403.28 2300.35,1403.28 2321.26,1403.28 
  
  "/>
<polyline clip-path="url(#clip6802)" style="stroke:#868d87; stroke-width:4.8; stroke-opacity:1; fill:none" points="
  251.149,923.513 272.059,1403.28 292.969,1403.28 313.879,1403.28 334.789,1403.28 355.7,1403.28 376.61,1403.28 397.52,1403.28 418.43,1403.28 439.34,1403.28 
  460.251,1403.28 481.161,1403.28 502.071,1403.28 522.981,1403.28 543.892,1403.28 564.802,1403.28 585.712,1403.28 606.622,1403.28 627.532,1403.28 648.443,1403.28 
  669.353,1403.28 690.263,1403.28 711.173,1403.28 732.083,1403.28 752.994,1403.28 773.904,1403.28 794.814,1403.28 815.724,1403.28 836.635,1403.28 857.545,1403.28 
  878.455,1403.28 899.365,1403.28 920.275,1403.28 941.186,1403.28 962.096,1403.28 983.006,1403.28 1003.92,1403.28 1024.83,1403.28 1045.74,1403.28 1066.65,1403.28 
  1087.56,1403.28 1108.47,1403.28 1129.38,1403.28 1150.29,1403.28 1171.2,1403.28 1192.11,1403.28 1213.02,1403.28 1233.93,1403.28 1254.84,1403.28 1275.75,1403.28 
  1296.66,1403.28 1317.57,1403.28 1338.48,1403.28 1359.39,1403.28 1380.3,1403.28 1401.21,1403.28 1422.12,1403.28 1443.03,1403.28 1463.94,1403.28 1484.85,1403.28 
  1505.76,1403.28 1526.67,1403.28 1547.58,1403.28 1568.49,1403.28 1589.4,1403.28 1610.31,1403.28 1631.22,1403.28 1652.13,1403.28 1673.04,1403.28 1693.95,1403.28 
  1714.86,1403.28 1735.77,1403.28 1756.68,1403.28 1777.59,1403.28 1798.5,1403.28 1819.41,1403.28 1840.32,1403.28 1861.24,1403.28 1882.15,1403.28 1903.06,1403.28 
  1923.97,1403.28 1944.88,1403.28 1965.79,1403.28 1986.7,1403.28 2007.61,1403.28 2028.52,1403.28 2049.43,1403.28 2070.34,1403.28 2091.25,1403.28 2112.16,1403.28 
  2133.07,1403.28 2153.98,1403.28 2174.89,1403.28 2195.8,1403.28 2216.71,1403.28 2237.62,1403.28 2258.53,1403.28 2279.44,1403.28 2300.35,1403.28 2321.26,1403.28 
  
  "/>
<polyline clip-path="url(#clip6802)" style="stroke:#47a065; stroke-width:4.8; stroke-opacity:1; fill:none" points="
  251.149,1403.28 272.059,1403.28 292.969,1403.28 313.879,1403.28 334.789,1403.28 355.7,1403.28 376.61,1403.28 397.52,1403.28 418.43,1403.28 439.34,1403.28 
  460.251,1403.28 481.161,1403.28 502.071,1403.28 522.981,1403.28 543.892,1403.28 564.802,1403.28 585.712,1403.28 606.622,1403.28 627.532,1403.28 648.443,1403.28 
  669.353,1403.28 690.263,1403.28 711.173,1403.28 732.083,1403.28 752.994,1403.28 773.904,1403.28 794.814,1403.28 815.724,1403.28 836.635,1403.28 857.545,1403.28 
  878.455,1403.28 899.365,1403.28 920.275,1403.28 941.186,1403.28 962.096,1403.28 983.006,1403.28 1003.92,1403.28 1024.83,1403.28 1045.74,1403.28 1066.65,1403.28 
  1087.56,1403.28 1108.47,1403.28 1129.38,1403.28 1150.29,1403.28 1171.2,1403.28 1192.11,1403.28 1213.02,1403.28 1233.93,1403.28 1254.84,1403.28 1275.75,1403.28 
  1296.66,1403.28 1317.57,1403.28 1338.48,1403.28 1359.39,1403.28 1380.3,1403.28 1401.21,1403.28 1422.12,1403.28 1443.03,1403.28 1463.94,1403.28 1484.85,1403.28 
  1505.76,1403.28 1526.67,1403.28 1547.58,1403.28 1568.49,1403.28 1589.4,1403.28 1610.31,1403.28 1631.22,1403.28 1652.13,1403.28 1673.04,1403.28 1693.95,1403.28 
  1714.86,1403.28 1735.77,1403.28 1756.68,1403.28 1777.59,1403.28 1798.5,1403.28 1819.41,1403.28 1840.32,1403.28 1861.24,1403.28 1882.15,1403.28 1903.06,1403.28 
  1923.97,1403.28 1944.88,1403.28 1965.79,1403.28 1986.7,1403.28 2007.61,1403.28 2028.52,1403.28 2049.43,1403.28 2070.34,1403.28 2091.25,1403.28 2112.16,1403.28 
  2133.07,1403.28 2153.98,1403.28 2174.89,1403.28 2195.8,1403.28 2216.71,1403.28 2237.62,1403.28 2258.53,1403.28 2279.44,1403.28 2300.35,1403.28 2321.26,1403.28 
  
  "/>
<polyline clip-path="url(#clip6802)" style="stroke:#7683af; stroke-width:4.8; stroke-opacity:1; fill:none" points="
  251.149,1403.26 272.059,1403.28 292.969,1403.28 313.879,1403.28 334.789,1403.28 355.7,1403.28 376.61,1403.28 397.52,1403.28 418.43,1403.28 439.34,1403.28 
  460.251,1403.28 481.161,1403.28 502.071,1403.28 522.981,1403.28 543.892,1403.28 564.802,1403.28 585.712,1403.28 606.622,1403.28 627.532,1403.28 648.443,1403.28 
  669.353,1403.28 690.263,1403.28 711.173,1403.28 732.083,1403.28 752.994,1403.28 773.904,1403.28 794.814,1403.28 815.724,1403.28 836.635,1403.28 857.545,1403.28 
  878.455,1403.28 899.365,1403.28 920.275,1403.28 941.186,1403.28 962.096,1403.28 983.006,1403.28 1003.92,1403.28 1024.83,1403.28 1045.74,1403.28 1066.65,1403.28 
  1087.56,1403.28 1108.47,1403.28 1129.38,1403.28 1150.29,1403.28 1171.2,1403.28 1192.11,1403.28 1213.02,1403.28 1233.93,1403.28 1254.84,1403.28 1275.75,1403.28 
  1296.66,1403.28 1317.57,1403.28 1338.48,1403.28 1359.39,1403.28 1380.3,1403.28 1401.21,1403.28 1422.12,1403.28 1443.03,1403.28 1463.94,1403.28 1484.85,1403.28 
  1505.76,1403.28 1526.67,1403.28 1547.58,1403.28 1568.49,1403.28 1589.4,1403.28 1610.31,1403.28 1631.22,1403.28 1652.13,1403.28 1673.04,1403.28 1693.95,1403.28 
  1714.86,1403.28 1735.77,1403.28 1756.68,1403.28 1777.59,1403.28 1798.5,1403.28 1819.41,1403.28 1840.32,1403.28 1861.24,1403.28 1882.15,1403.28 1903.06,1403.28 
  1923.97,1403.28 1944.88,1403.28 1965.79,1403.28 1986.7,1403.28 2007.61,1403.28 2028.52,1403.28 2049.43,1403.28 2070.34,1403.28 2091.25,1403.28 2112.16,1403.28 
  2133.07,1403.28 2153.98,1403.28 2174.89,1403.28 2195.8,1403.28 2216.71,1403.28 2237.62,1403.28 2258.53,1403.28 2279.44,1403.28 2300.35,1403.28 2321.26,1403.28 
  
  "/>
<polyline clip-path="url(#clip6802)" style="stroke:#b08086; stroke-width:4.8; stroke-opacity:1; fill:none" points="
  251.149,989.507 272.059,1403.28 292.969,1403.28 313.879,1403.28 334.789,1403.28 355.7,1403.28 376.61,1403.28 397.52,1403.28 418.43,1403.28 439.34,1403.28 
  460.251,1403.28 481.161,1403.28 502.071,1403.28 522.981,1403.28 543.892,1403.28 564.802,1403.28 585.712,1403.28 606.622,1403.28 627.532,1403.28 648.443,1403.28 
  669.353,1403.28 690.263,1403.28 711.173,1403.28 732.083,1403.28 752.994,1403.28 773.904,1403.28 794.814,1403.28 815.724,1403.28 836.635,1403.28 857.545,1403.28 
  878.455,1403.28 899.365,1403.28 920.275,1403.28 941.186,1403.28 962.096,1403.28 983.006,1403.28 1003.92,1403.28 1024.83,1403.28 1045.74,1403.28 1066.65,1403.28 
  1087.56,1403.28 1108.47,1403.28 1129.38,1403.28 1150.29,1403.28 1171.2,1403.28 1192.11,1403.28 1213.02,1403.28 1233.93,1403.28 1254.84,1403.28 1275.75,1403.28 
  1296.66,1403.28 1317.57,1403.28 1338.48,1403.28 1359.39,1403.28 1380.3,1403.28 1401.21,1403.28 1422.12,1403.28 1443.03,1403.28 1463.94,1403.28 1484.85,1403.28 
  1505.76,1403.28 1526.67,1403.28 1547.58,1403.28 1568.49,1403.28 1589.4,1403.28 1610.31,1403.28 1631.22,1403.28 1652.13,1403.28 1673.04,1403.28 1693.95,1403.28 
  1714.86,1403.28 1735.77,1403.28 1756.68,1403.28 1777.59,1403.28 1798.5,1403.28 1819.41,1403.28 1840.32,1403.28 1861.24,1403.28 1882.15,1403.28 1903.06,1403.28 
  1923.97,1403.28 1944.88,1403.28 1965.79,1403.28 1986.7,1403.28 2007.61,1403.28 2028.52,1403.28 2049.43,1403.28 2070.34,1403.28 2091.25,1403.28 2112.16,1403.28 
  2133.07,1403.28 2153.98,1403.28 2174.89,1403.28 2195.8,1403.28 2216.71,1403.28 2237.62,1403.28 2258.53,1403.28 2279.44,1403.28 2300.35,1403.28 2321.26,1403.28 
  
  "/>
<polyline clip-path="url(#clip6802)" style="stroke:#309ac1; stroke-width:4.8; stroke-opacity:1; fill:none" points="
  251.149,1403.28 272.059,1403.28 292.969,1403.28 313.879,1403.28 334.789,1403.28 355.7,1403.28 376.61,1403.28 397.52,1403.28 418.43,1403.28 439.34,1403.28 
  460.251,1403.28 481.161,1403.28 502.071,1403.28 522.981,1403.28 543.892,1403.28 564.802,1403.28 585.712,1403.28 606.622,1403.28 627.532,1403.28 648.443,1403.28 
  669.353,1403.28 690.263,1403.28 711.173,1403.28 732.083,1403.28 752.994,1403.28 773.904,1403.28 794.814,1403.28 815.724,1403.28 836.635,1403.28 857.545,1403.28 
  878.455,1403.28 899.365,1403.28 920.275,1403.28 941.186,1403.28 962.096,1403.28 983.006,1403.28 1003.92,1403.28 1024.83,1403.28 1045.74,1403.28 1066.65,1403.28 
  1087.56,1403.28 1108.47,1403.28 1129.38,1403.28 1150.29,1403.28 1171.2,1403.28 1192.11,1403.28 1213.02,1403.28 1233.93,1403.28 1254.84,1403.28 1275.75,1403.28 
  1296.66,1403.28 1317.57,1403.28 1338.48,1403.28 1359.39,1403.28 1380.3,1403.28 1401.21,1403.28 1422.12,1403.28 1443.03,1403.28 1463.94,1403.28 1484.85,1403.28 
  1505.76,1403.28 1526.67,1403.28 1547.58,1403.28 1568.49,1403.28 1589.4,1403.28 1610.31,1403.28 1631.22,1403.28 1652.13,1403.28 1673.04,1403.28 1693.95,1403.28 
  1714.86,1403.28 1735.77,1403.28 1756.68,1403.28 1777.59,1403.28 1798.5,1403.28 1819.41,1403.28 1840.32,1403.28 1861.24,1403.28 1882.15,1403.28 1903.06,1403.28 
  1923.97,1403.28 1944.88,1403.28 1965.79,1403.28 1986.7,1403.28 2007.61,1403.28 2028.52,1403.28 2049.43,1403.28 2070.34,1403.28 2091.25,1403.28 2112.16,1403.28 
  2133.07,1403.28 2153.98,1403.28 2174.89,1403.28 2195.8,1403.28 2216.71,1403.28 2237.62,1403.28 2258.53,1403.28 2279.44,1403.28 2300.35,1403.28 2321.26,1403.28 
  
  "/>
<polyline clip-path="url(#clip6802)" style="stroke:#788490; stroke-width:4.8; stroke-opacity:1; fill:none" points="
  251.149,1403.28 272.059,1403.28 292.969,1403.28 313.879,1403.28 334.789,1403.28 355.7,1403.28 376.61,1403.28 397.52,1403.28 418.43,1403.28 439.34,1403.28 
  460.251,1403.28 481.161,1403.28 502.071,1403.28 522.981,1403.28 543.892,1403.28 564.802,1403.28 585.712,1403.28 606.622,1403.28 627.532,1403.28 648.443,1403.28 
  669.353,1403.28 690.263,1403.28 711.173,1403.28 732.083,1403.28 752.994,1403.28 773.904,1403.28 794.814,1403.28 815.724,1403.28 836.635,1403.28 857.545,1403.28 
  878.455,1403.28 899.365,1403.28 920.275,1403.28 941.186,1403.28 962.096,1403.28 983.006,1403.28 1003.92,1403.28 1024.83,1403.28 1045.74,1403.28 1066.65,1403.28 
  1087.56,1403.28 1108.47,1403.28 1129.38,1403.28 1150.29,1403.28 1171.2,1403.28 1192.11,1403.28 1213.02,1403.28 1233.93,1403.28 1254.84,1403.28 1275.75,1403.28 
  1296.66,1403.28 1317.57,1403.28 1338.48,1403.28 1359.39,1403.28 1380.3,1403.28 1401.21,1403.28 1422.12,1403.28 1443.03,1403.28 1463.94,1403.28 1484.85,1403.28 
  1505.76,1403.28 1526.67,1403.28 1547.58,1403.28 1568.49,1403.28 1589.4,1403.28 1610.31,1403.28 1631.22,1403.28 1652.13,1403.28 1673.04,1403.28 1693.95,1403.28 
  1714.86,1403.28 1735.77,1403.28 1756.68,1403.28 1777.59,1403.28 1798.5,1403.28 1819.41,1403.28 1840.32,1403.28 1861.24,1403.28 1882.15,1403.28 1903.06,1403.28 
  1923.97,1403.28 1944.88,1403.28 1965.79,1403.28 1986.7,1403.28 2007.61,1403.28 2028.52,1403.28 2049.43,1403.28 2070.34,1403.28 2091.25,1403.28 2112.16,1403.28 
  2133.07,1403.28 2153.98,1403.28 2174.89,1403.28 2195.8,1403.28 2216.71,1403.28 2237.62,1403.28 2258.53,1403.28 2279.44,1403.28 2300.35,1403.28 2321.26,1403.28 
  
  "/>
<polyline clip-path="url(#clip6802)" style="stroke:#e561a4; stroke-width:4.8; stroke-opacity:1; fill:none" points="
  251.149,1366.82 272.059,1403.28 292.969,1403.28 313.879,1403.28 334.789,1403.28 355.7,1403.28 376.61,1403.28 397.52,1403.28 418.43,1403.28 439.34,1403.28 
  460.251,1403.28 481.161,1403.28 502.071,1403.28 522.981,1403.28 543.892,1403.28 564.802,1403.28 585.712,1403.28 606.622,1403.28 627.532,1403.28 648.443,1403.28 
  669.353,1403.28 690.263,1403.28 711.173,1403.28 732.083,1403.28 752.994,1403.28 773.904,1403.28 794.814,1403.28 815.724,1403.28 836.635,1403.28 857.545,1403.28 
  878.455,1403.28 899.365,1403.28 920.275,1403.28 941.186,1403.28 962.096,1403.28 983.006,1403.28 1003.92,1403.28 1024.83,1403.28 1045.74,1403.28 1066.65,1403.28 
  1087.56,1403.28 1108.47,1403.28 1129.38,1403.28 1150.29,1403.28 1171.2,1403.28 1192.11,1403.28 1213.02,1403.28 1233.93,1403.28 1254.84,1403.28 1275.75,1403.28 
  1296.66,1403.28 1317.57,1403.28 1338.48,1403.28 1359.39,1403.28 1380.3,1403.28 1401.21,1403.28 1422.12,1403.28 1443.03,1403.28 1463.94,1403.28 1484.85,1403.28 
  1505.76,1403.28 1526.67,1403.28 1547.58,1403.28 1568.49,1403.28 1589.4,1403.28 1610.31,1403.28 1631.22,1403.28 1652.13,1403.28 1673.04,1403.28 1693.95,1403.28 
  1714.86,1403.28 1735.77,1403.28 1756.68,1403.28 1777.59,1403.28 1798.5,1403.28 1819.41,1403.28 1840.32,1403.28 1861.24,1403.28 1882.15,1403.28 1903.06,1403.28 
  1923.97,1403.28 1944.88,1403.28 1965.79,1403.28 1986.7,1403.28 2007.61,1403.28 2028.52,1403.28 2049.43,1403.28 2070.34,1403.28 2091.25,1403.28 2112.16,1403.28 
  2133.07,1403.28 2153.98,1403.28 2174.89,1403.28 2195.8,1403.28 2216.71,1403.28 2237.62,1403.28 2258.53,1403.28 2279.44,1403.28 2300.35,1403.28 2321.26,1403.28 
  
  "/>
<polyline clip-path="url(#clip6802)" style="stroke:#99902c; stroke-width:4.8; stroke-opacity:1; fill:none" points="
  251.149,1401.02 272.059,1403.28 292.969,1403.28 313.879,1403.28 334.789,1403.28 355.7,1403.28 376.61,1403.28 397.52,1403.28 418.43,1403.28 439.34,1403.28 
  460.251,1403.28 481.161,1403.28 502.071,1403.28 522.981,1403.28 543.892,1403.28 564.802,1403.28 585.712,1403.28 606.622,1403.28 627.532,1403.28 648.443,1403.28 
  669.353,1403.28 690.263,1403.28 711.173,1403.28 732.083,1403.28 752.994,1403.28 773.904,1403.28 794.814,1403.28 815.724,1403.28 836.635,1403.28 857.545,1403.28 
  878.455,1403.28 899.365,1403.28 920.275,1403.28 941.186,1403.28 962.096,1403.28 983.006,1403.28 1003.92,1403.28 1024.83,1403.28 1045.74,1403.28 1066.65,1403.28 
  1087.56,1403.28 1108.47,1403.28 1129.38,1403.28 1150.29,1403.28 1171.2,1403.28 1192.11,1403.28 1213.02,1403.28 1233.93,1403.28 1254.84,1403.28 1275.75,1403.28 
  1296.66,1403.28 1317.57,1403.28 1338.48,1403.28 1359.39,1403.28 1380.3,1403.28 1401.21,1403.28 1422.12,1403.28 1443.03,1403.28 1463.94,1403.28 1484.85,1403.28 
  1505.76,1403.28 1526.67,1403.28 1547.58,1403.28 1568.49,1403.28 1589.4,1403.28 1610.31,1403.28 1631.22,1403.28 1652.13,1403.28 1673.04,1403.28 1693.95,1403.28 
  1714.86,1403.28 1735.77,1403.28 1756.68,1403.28 1777.59,1403.28 1798.5,1403.28 1819.41,1403.28 1840.32,1403.28 1861.24,1403.28 1882.15,1403.28 1903.06,1403.28 
  1923.97,1403.28 1944.88,1403.28 1965.79,1403.28 1986.7,1403.28 2007.61,1403.28 2028.52,1403.28 2049.43,1403.28 2070.34,1403.28 2091.25,1403.28 2112.16,1403.28 
  2133.07,1403.28 2153.98,1403.28 2174.89,1403.28 2195.8,1403.28 2216.71,1403.28 2237.62,1403.28 2258.53,1403.28 2279.44,1403.28 2300.35,1403.28 2321.26,1403.28 
  
  "/>
<polyline clip-path="url(#clip6802)" style="stroke:#389a7b; stroke-width:4.8; stroke-opacity:1; fill:none" points="
  251.149,1403.28 272.059,1403.28 292.969,1403.28 313.879,1403.28 334.789,1403.28 355.7,1403.28 376.61,1403.28 397.52,1403.28 418.43,1403.28 439.34,1403.28 
  460.251,1403.28 481.161,1403.28 502.071,1403.28 522.981,1403.28 543.892,1403.28 564.802,1403.28 585.712,1403.28 606.622,1403.28 627.532,1403.28 648.443,1403.28 
  669.353,1403.28 690.263,1403.28 711.173,1403.28 732.083,1403.28 752.994,1403.28 773.904,1403.28 794.814,1403.28 815.724,1403.28 836.635,1403.28 857.545,1403.28 
  878.455,1403.28 899.365,1403.28 920.275,1403.28 941.186,1403.28 962.096,1403.28 983.006,1403.28 1003.92,1403.28 1024.83,1403.28 1045.74,1403.28 1066.65,1403.28 
  1087.56,1403.28 1108.47,1403.28 1129.38,1403.28 1150.29,1403.28 1171.2,1403.28 1192.11,1403.28 1213.02,1403.28 1233.93,1403.28 1254.84,1403.28 1275.75,1403.28 
  1296.66,1403.28 1317.57,1403.28 1338.48,1403.28 1359.39,1403.28 1380.3,1403.28 1401.21,1403.28 1422.12,1403.28 1443.03,1403.28 1463.94,1403.28 1484.85,1403.28 
  1505.76,1403.28 1526.67,1403.28 1547.58,1403.28 1568.49,1403.28 1589.4,1403.28 1610.31,1403.28 1631.22,1403.28 1652.13,1403.28 1673.04,1403.28 1693.95,1403.28 
  1714.86,1403.28 1735.77,1403.28 1756.68,1403.28 1777.59,1403.28 1798.5,1403.28 1819.41,1403.28 1840.32,1403.28 1861.24,1403.28 1882.15,1403.28 1903.06,1403.28 
  1923.97,1403.28 1944.88,1403.28 1965.79,1403.28 1986.7,1403.28 2007.61,1403.28 2028.52,1403.28 2049.43,1403.28 2070.34,1403.28 2091.25,1403.28 2112.16,1403.28 
  2133.07,1403.28 2153.98,1403.28 2174.89,1403.28 2195.8,1403.28 2216.71,1403.28 2237.62,1403.28 2258.53,1403.28 2279.44,1403.28 2300.35,1403.28 2321.26,1403.28 
  
  "/>
<polyline clip-path="url(#clip6802)" style="stroke:#d968a2; stroke-width:4.8; stroke-opacity:1; fill:none" points="
  251.149,1403.28 272.059,1403.28 292.969,1403.28 313.879,1403.28 334.789,1403.28 355.7,1403.28 376.61,1403.28 397.52,1403.28 418.43,1403.28 439.34,1403.28 
  460.251,1403.28 481.161,1403.28 502.071,1403.28 522.981,1403.28 543.892,1403.28 564.802,1403.28 585.712,1403.28 606.622,1403.28 627.532,1403.28 648.443,1403.28 
  669.353,1403.28 690.263,1403.28 711.173,1403.28 732.083,1403.28 752.994,1403.28 773.904,1403.28 794.814,1403.28 815.724,1403.28 836.635,1403.28 857.545,1403.28 
  878.455,1403.28 899.365,1403.28 920.275,1403.28 941.186,1403.28 962.096,1403.28 983.006,1403.28 1003.92,1403.28 1024.83,1403.28 1045.74,1403.28 1066.65,1403.28 
  1087.56,1403.28 1108.47,1403.28 1129.38,1403.28 1150.29,1403.28 1171.2,1403.28 1192.11,1403.28 1213.02,1403.28 1233.93,1403.28 1254.84,1403.28 1275.75,1403.28 
  1296.66,1403.28 1317.57,1403.28 1338.48,1403.28 1359.39,1403.28 1380.3,1403.28 1401.21,1403.28 1422.12,1403.28 1443.03,1403.28 1463.94,1403.28 1484.85,1403.28 
  1505.76,1403.28 1526.67,1403.28 1547.58,1403.28 1568.49,1403.28 1589.4,1403.28 1610.31,1403.28 1631.22,1403.28 1652.13,1403.28 1673.04,1403.28 1693.95,1403.28 
  1714.86,1403.28 1735.77,1403.28 1756.68,1403.28 1777.59,1403.28 1798.5,1403.28 1819.41,1403.28 1840.32,1403.28 1861.24,1403.28 1882.15,1403.28 1903.06,1403.28 
  1923.97,1403.28 1944.88,1403.28 1965.79,1403.28 1986.7,1403.28 2007.61,1403.28 2028.52,1403.28 2049.43,1403.28 2070.34,1403.28 2091.25,1403.28 2112.16,1403.28 
  2133.07,1403.28 2153.98,1403.28 2174.89,1403.28 2195.8,1403.28 2216.71,1403.28 2237.62,1403.28 2258.53,1403.28 2279.44,1403.28 2300.35,1403.28 2321.26,1403.28 
  
  "/>
<polyline clip-path="url(#clip6802)" style="stroke:#009af9; stroke-width:4.8; stroke-opacity:1; fill:none" points="
  251.149,1398.43 272.059,1403.28 292.969,1403.28 313.879,1403.28 334.789,1403.28 355.7,1403.28 376.61,1403.28 397.52,1403.28 418.43,1403.28 439.34,1403.28 
  460.251,1403.28 481.161,1403.28 502.071,1403.28 522.981,1403.28 543.892,1403.28 564.802,1403.28 585.712,1403.28 606.622,1403.28 627.532,1403.28 648.443,1403.28 
  669.353,1403.28 690.263,1403.28 711.173,1403.28 732.083,1403.28 752.994,1403.28 773.904,1403.28 794.814,1403.28 815.724,1403.28 836.635,1403.28 857.545,1403.28 
  878.455,1403.28 899.365,1403.28 920.275,1403.28 941.186,1403.28 962.096,1403.28 983.006,1403.28 1003.92,1403.28 1024.83,1403.28 1045.74,1403.28 1066.65,1403.28 
  1087.56,1403.28 1108.47,1403.28 1129.38,1403.28 1150.29,1403.28 1171.2,1403.28 1192.11,1403.28 1213.02,1403.28 1233.93,1403.28 1254.84,1403.28 1275.75,1403.28 
  1296.66,1403.28 1317.57,1403.28 1338.48,1403.28 1359.39,1403.28 1380.3,1403.28 1401.21,1403.28 1422.12,1403.28 1443.03,1403.28 1463.94,1403.28 1484.85,1403.28 
  1505.76,1403.28 1526.67,1403.28 1547.58,1403.28 1568.49,1403.28 1589.4,1403.28 1610.31,1403.28 1631.22,1403.28 1652.13,1403.28 1673.04,1403.28 1693.95,1403.28 
  1714.86,1403.28 1735.77,1403.28 1756.68,1403.28 1777.59,1403.28 1798.5,1403.28 1819.41,1403.28 1840.32,1403.28 1861.24,1403.28 1882.15,1403.28 1903.06,1403.28 
  1923.97,1403.28 1944.88,1403.28 1965.79,1403.28 1986.7,1403.28 2007.61,1403.28 2028.52,1403.28 2049.43,1403.28 2070.34,1403.28 2091.25,1403.28 2112.16,1403.28 
  2133.07,1403.28 2153.98,1403.28 2174.89,1403.28 2195.8,1403.28 2216.71,1403.28 2237.62,1403.28 2258.53,1403.28 2279.44,1403.28 2300.35,1403.28 2321.26,1403.28 
  
  "/>
<polyline clip-path="url(#clip6802)" style="stroke:#e26f46; stroke-width:4.8; stroke-opacity:1; fill:none" points="
  251.149,1403.28 272.059,1403.28 292.969,1403.28 313.879,1403.28 334.789,1403.28 355.7,1403.28 376.61,1403.28 397.52,1403.28 418.43,1403.28 439.34,1403.28 
  460.251,1403.28 481.161,1403.28 502.071,1403.28 522.981,1403.28 543.892,1403.28 564.802,1403.28 585.712,1403.28 606.622,1403.28 627.532,1403.28 648.443,1403.28 
  669.353,1403.28 690.263,1403.28 711.173,1403.28 732.083,1403.28 752.994,1403.28 773.904,1403.28 794.814,1403.28 815.724,1403.28 836.635,1403.28 857.545,1403.28 
  878.455,1403.28 899.365,1403.28 920.275,1403.28 941.186,1403.28 962.096,1403.28 983.006,1403.28 1003.92,1403.28 1024.83,1403.28 1045.74,1403.28 1066.65,1403.28 
  1087.56,1403.28 1108.47,1403.28 1129.38,1403.28 1150.29,1403.28 1171.2,1403.28 1192.11,1403.28 1213.02,1403.28 1233.93,1403.28 1254.84,1403.28 1275.75,1403.28 
  1296.66,1403.28 1317.57,1403.28 1338.48,1403.28 1359.39,1403.28 1380.3,1403.28 1401.21,1403.28 1422.12,1403.28 1443.03,1403.28 1463.94,1403.28 1484.85,1403.28 
  1505.76,1403.28 1526.67,1403.28 1547.58,1403.28 1568.49,1403.28 1589.4,1403.28 1610.31,1403.28 1631.22,1403.28 1652.13,1403.28 1673.04,1403.28 1693.95,1403.28 
  1714.86,1403.28 1735.77,1403.28 1756.68,1403.28 1777.59,1403.28 1798.5,1403.28 1819.41,1403.28 1840.32,1403.28 1861.24,1403.28 1882.15,1403.28 1903.06,1403.28 
  1923.97,1403.28 1944.88,1403.28 1965.79,1403.28 1986.7,1403.28 2007.61,1403.28 2028.52,1403.28 2049.43,1403.28 2070.34,1403.28 2091.25,1403.28 2112.16,1403.28 
  2133.07,1403.28 2153.98,1403.28 2174.89,1403.28 2195.8,1403.28 2216.71,1403.28 2237.62,1403.28 2258.53,1403.28 2279.44,1403.28 2300.35,1403.28 2321.26,1403.28 
  
  "/>
<polyline clip-path="url(#clip6802)" style="stroke:#3da44d; stroke-width:4.8; stroke-opacity:1; fill:none" points="
  251.149,1403.28 272.059,1403.28 292.969,1403.28 313.879,1403.28 334.789,1403.28 355.7,1403.28 376.61,1403.28 397.52,1403.28 418.43,1403.28 439.34,1403.28 
  460.251,1403.28 481.161,1403.28 502.071,1403.28 522.981,1403.28 543.892,1403.28 564.802,1403.28 585.712,1403.28 606.622,1403.28 627.532,1403.28 648.443,1403.28 
  669.353,1403.28 690.263,1403.28 711.173,1403.28 732.083,1403.28 752.994,1403.28 773.904,1403.28 794.814,1403.28 815.724,1403.28 836.635,1403.28 857.545,1403.28 
  878.455,1403.28 899.365,1403.28 920.275,1403.28 941.186,1403.28 962.096,1403.28 983.006,1403.28 1003.92,1403.28 1024.83,1403.28 1045.74,1403.28 1066.65,1403.28 
  1087.56,1403.28 1108.47,1403.28 1129.38,1403.28 1150.29,1403.28 1171.2,1403.28 1192.11,1403.28 1213.02,1403.28 1233.93,1403.28 1254.84,1403.28 1275.75,1403.28 
  1296.66,1403.28 1317.57,1403.28 1338.48,1403.28 1359.39,1403.28 1380.3,1403.28 1401.21,1403.28 1422.12,1403.28 1443.03,1403.28 1463.94,1403.28 1484.85,1403.28 
  1505.76,1403.28 1526.67,1403.28 1547.58,1403.28 1568.49,1403.28 1589.4,1403.28 1610.31,1403.28 1631.22,1403.28 1652.13,1403.28 1673.04,1403.28 1693.95,1403.28 
  1714.86,1403.28 1735.77,1403.28 1756.68,1403.28 1777.59,1403.28 1798.5,1403.28 1819.41,1403.28 1840.32,1403.28 1861.24,1403.28 1882.15,1403.28 1903.06,1403.28 
  1923.97,1403.28 1944.88,1403.28 1965.79,1403.28 1986.7,1403.28 2007.61,1403.28 2028.52,1403.28 2049.43,1403.28 2070.34,1403.28 2091.25,1403.28 2112.16,1403.28 
  2133.07,1403.28 2153.98,1403.28 2174.89,1403.28 2195.8,1403.28 2216.71,1403.28 2237.62,1403.28 2258.53,1403.28 2279.44,1403.28 2300.35,1403.28 2321.26,1403.28 
  
  "/>
<polyline clip-path="url(#clip6802)" style="stroke:#c271d2; stroke-width:4.8; stroke-opacity:1; fill:none" points="
  251.149,1403.28 272.059,1403.28 292.969,1403.28 313.879,1403.28 334.789,1403.28 355.7,1403.28 376.61,1403.28 397.52,1403.28 418.43,1403.28 439.34,1403.28 
  460.251,1403.28 481.161,1403.28 502.071,1403.28 522.981,1403.28 543.892,1403.28 564.802,1403.28 585.712,1403.28 606.622,1403.28 627.532,1403.28 648.443,1403.28 
  669.353,1403.28 690.263,1403.28 711.173,1403.28 732.083,1403.28 752.994,1403.28 773.904,1403.28 794.814,1403.28 815.724,1403.28 836.635,1403.28 857.545,1403.28 
  878.455,1403.28 899.365,1403.28 920.275,1403.28 941.186,1403.28 962.096,1403.28 983.006,1403.28 1003.92,1403.28 1024.83,1403.28 1045.74,1403.28 1066.65,1403.28 
  1087.56,1403.28 1108.47,1403.28 1129.38,1403.28 1150.29,1403.28 1171.2,1403.28 1192.11,1403.28 1213.02,1403.28 1233.93,1403.28 1254.84,1403.28 1275.75,1403.28 
  1296.66,1403.28 1317.57,1403.28 1338.48,1403.28 1359.39,1403.28 1380.3,1403.28 1401.21,1403.28 1422.12,1403.28 1443.03,1403.28 1463.94,1403.28 1484.85,1403.28 
  1505.76,1403.28 1526.67,1403.28 1547.58,1403.28 1568.49,1403.28 1589.4,1403.28 1610.31,1403.28 1631.22,1403.28 1652.13,1403.28 1673.04,1403.28 1693.95,1403.28 
  1714.86,1403.28 1735.77,1403.28 1756.68,1403.28 1777.59,1403.28 1798.5,1403.28 1819.41,1403.28 1840.32,1403.28 1861.24,1403.28 1882.15,1403.28 1903.06,1403.28 
  1923.97,1403.28 1944.88,1403.28 1965.79,1403.28 1986.7,1403.28 2007.61,1403.28 2028.52,1403.28 2049.43,1403.28 2070.34,1403.28 2091.25,1403.28 2112.16,1403.28 
  2133.07,1403.28 2153.98,1403.28 2174.89,1403.28 2195.8,1403.28 2216.71,1403.28 2237.62,1403.28 2258.53,1403.28 2279.44,1403.28 2300.35,1403.28 2321.26,1403.28 
  
  "/>
<polyline clip-path="url(#clip6802)" style="stroke:#ac8d18; stroke-width:4.8; stroke-opacity:1; fill:none" points="
  251.149,1403.28 272.059,1403.28 292.969,1403.28 313.879,1403.28 334.789,1403.28 355.7,1403.28 376.61,1403.28 397.52,1403.28 418.43,1403.28 439.34,1403.28 
  460.251,1403.28 481.161,1403.28 502.071,1403.28 522.981,1403.28 543.892,1403.28 564.802,1403.28 585.712,1403.28 606.622,1403.28 627.532,1403.28 648.443,1403.28 
  669.353,1403.28 690.263,1403.28 711.173,1403.28 732.083,1403.28 752.994,1403.28 773.904,1403.28 794.814,1403.28 815.724,1403.28 836.635,1403.28 857.545,1403.28 
  878.455,1403.28 899.365,1403.28 920.275,1403.28 941.186,1403.28 962.096,1403.28 983.006,1403.28 1003.92,1403.28 1024.83,1403.28 1045.74,1403.28 1066.65,1403.28 
  1087.56,1403.28 1108.47,1403.28 1129.38,1403.28 1150.29,1403.28 1171.2,1403.28 1192.11,1403.28 1213.02,1403.28 1233.93,1403.28 1254.84,1403.28 1275.75,1403.28 
  1296.66,1403.28 1317.57,1403.28 1338.48,1403.28 1359.39,1403.28 1380.3,1403.28 1401.21,1403.28 1422.12,1403.28 1443.03,1403.28 1463.94,1403.28 1484.85,1403.28 
  1505.76,1403.28 1526.67,1403.28 1547.58,1403.28 1568.49,1403.28 1589.4,1403.28 1610.31,1403.28 1631.22,1403.28 1652.13,1403.28 1673.04,1403.28 1693.95,1403.28 
  1714.86,1403.28 1735.77,1403.28 1756.68,1403.28 1777.59,1403.28 1798.5,1403.28 1819.41,1403.28 1840.32,1403.28 1861.24,1403.28 1882.15,1403.28 1903.06,1403.28 
  1923.97,1403.28 1944.88,1403.28 1965.79,1403.28 1986.7,1403.28 2007.61,1403.28 2028.52,1403.28 2049.43,1403.28 2070.34,1403.28 2091.25,1403.28 2112.16,1403.28 
  2133.07,1403.28 2153.98,1403.28 2174.89,1403.28 2195.8,1403.28 2216.71,1403.28 2237.62,1403.28 2258.53,1403.28 2279.44,1403.28 2300.35,1403.28 2321.26,1403.28 
  
  "/>
<polyline clip-path="url(#clip6802)" style="stroke:#00a9ad; stroke-width:4.8; stroke-opacity:1; fill:none" points="
  251.149,1403.28 272.059,1403.28 292.969,1403.28 313.879,1403.28 334.789,1403.28 355.7,1403.28 376.61,1403.28 397.52,1403.28 418.43,1403.28 439.34,1403.28 
  460.251,1403.28 481.161,1403.28 502.071,1403.28 522.981,1403.28 543.892,1403.28 564.802,1403.28 585.712,1403.28 606.622,1403.28 627.532,1403.28 648.443,1403.28 
  669.353,1403.28 690.263,1403.28 711.173,1403.28 732.083,1403.28 752.994,1403.28 773.904,1403.28 794.814,1403.28 815.724,1403.28 836.635,1403.28 857.545,1403.28 
  878.455,1403.28 899.365,1403.28 920.275,1403.28 941.186,1403.28 962.096,1403.28 983.006,1403.28 1003.92,1403.28 1024.83,1403.28 1045.74,1403.28 1066.65,1403.28 
  1087.56,1403.28 1108.47,1403.28 1129.38,1403.28 1150.29,1403.28 1171.2,1403.28 1192.11,1403.28 1213.02,1403.28 1233.93,1403.28 1254.84,1403.28 1275.75,1403.28 
  1296.66,1403.28 1317.57,1403.28 1338.48,1403.28 1359.39,1403.28 1380.3,1403.28 1401.21,1403.28 1422.12,1403.28 1443.03,1403.28 1463.94,1403.28 1484.85,1403.28 
  1505.76,1403.28 1526.67,1403.28 1547.58,1403.28 1568.49,1403.28 1589.4,1403.28 1610.31,1403.28 1631.22,1403.28 1652.13,1403.28 1673.04,1403.28 1693.95,1403.28 
  1714.86,1403.28 1735.77,1403.28 1756.68,1403.28 1777.59,1403.28 1798.5,1403.28 1819.41,1403.28 1840.32,1403.28 1861.24,1403.28 1882.15,1403.28 1903.06,1403.28 
  1923.97,1403.28 1944.88,1403.28 1965.79,1403.28 1986.7,1403.28 2007.61,1403.28 2028.52,1403.28 2049.43,1403.28 2070.34,1403.28 2091.25,1403.28 2112.16,1403.28 
  2133.07,1403.28 2153.98,1403.28 2174.89,1403.28 2195.8,1403.28 2216.71,1403.28 2237.62,1403.28 2258.53,1403.28 2279.44,1403.28 2300.35,1403.28 2321.26,1403.28 
  
  "/>
<polyline clip-path="url(#clip6802)" style="stroke:#ed5d92; stroke-width:4.8; stroke-opacity:1; fill:none" points="
  251.149,1403.28 272.059,1403.28 292.969,1403.28 313.879,1403.28 334.789,1403.28 355.7,1403.28 376.61,1403.28 397.52,1403.28 418.43,1403.28 439.34,1403.28 
  460.251,1403.28 481.161,1403.28 502.071,1403.28 522.981,1403.28 543.892,1403.28 564.802,1403.28 585.712,1403.28 606.622,1403.28 627.532,1403.28 648.443,1403.28 
  669.353,1403.28 690.263,1403.28 711.173,1403.28 732.083,1403.28 752.994,1403.28 773.904,1403.28 794.814,1403.28 815.724,1403.28 836.635,1403.28 857.545,1403.28 
  878.455,1403.28 899.365,1403.28 920.275,1403.28 941.186,1403.28 962.096,1403.28 983.006,1403.28 1003.92,1403.28 1024.83,1403.28 1045.74,1403.28 1066.65,1403.28 
  1087.56,1403.28 1108.47,1403.28 1129.38,1403.28 1150.29,1403.28 1171.2,1403.28 1192.11,1403.28 1213.02,1403.28 1233.93,1403.28 1254.84,1403.28 1275.75,1403.28 
  1296.66,1403.28 1317.57,1403.28 1338.48,1403.28 1359.39,1403.28 1380.3,1403.28 1401.21,1403.28 1422.12,1403.28 1443.03,1403.28 1463.94,1403.28 1484.85,1403.28 
  1505.76,1403.28 1526.67,1403.28 1547.58,1403.28 1568.49,1403.28 1589.4,1403.28 1610.31,1403.28 1631.22,1403.28 1652.13,1403.28 1673.04,1403.28 1693.95,1403.28 
  1714.86,1403.28 1735.77,1403.28 1756.68,1403.28 1777.59,1403.28 1798.5,1403.28 1819.41,1403.28 1840.32,1403.28 1861.24,1403.28 1882.15,1403.28 1903.06,1403.28 
  1923.97,1403.28 1944.88,1403.28 1965.79,1403.28 1986.7,1403.28 2007.61,1403.28 2028.52,1403.28 2049.43,1403.28 2070.34,1403.28 2091.25,1403.28 2112.16,1403.28 
  2133.07,1403.28 2153.98,1403.28 2174.89,1403.28 2195.8,1403.28 2216.71,1403.28 2237.62,1403.28 2258.53,1403.28 2279.44,1403.28 2300.35,1403.28 2321.26,1403.28 
  
  "/>
<polyline clip-path="url(#clip6802)" style="stroke:#c68125; stroke-width:4.8; stroke-opacity:1; fill:none" points="
  251.149,1403.28 272.059,1403.28 292.969,1403.28 313.879,1403.28 334.789,1403.28 355.7,1403.28 376.61,1403.28 397.52,1403.28 418.43,1403.28 439.34,1403.28 
  460.251,1403.28 481.161,1403.28 502.071,1403.28 522.981,1403.28 543.892,1403.28 564.802,1403.28 585.712,1403.28 606.622,1403.28 627.532,1403.28 648.443,1403.28 
  669.353,1403.28 690.263,1403.28 711.173,1403.28 732.083,1403.28 752.994,1403.28 773.904,1403.28 794.814,1403.28 815.724,1403.28 836.635,1403.28 857.545,1403.28 
  878.455,1403.28 899.365,1403.28 920.275,1403.28 941.186,1403.28 962.096,1403.28 983.006,1403.28 1003.92,1403.28 1024.83,1403.28 1045.74,1403.28 1066.65,1403.28 
  1087.56,1403.28 1108.47,1403.28 1129.38,1403.28 1150.29,1403.28 1171.2,1403.28 1192.11,1403.28 1213.02,1403.28 1233.93,1403.28 1254.84,1403.28 1275.75,1403.28 
  1296.66,1403.28 1317.57,1403.28 1338.48,1403.28 1359.39,1403.28 1380.3,1403.28 1401.21,1403.28 1422.12,1403.28 1443.03,1403.28 1463.94,1403.28 1484.85,1403.28 
  1505.76,1403.28 1526.67,1403.28 1547.58,1403.28 1568.49,1403.28 1589.4,1403.28 1610.31,1403.28 1631.22,1403.28 1652.13,1403.28 1673.04,1403.28 1693.95,1403.28 
  1714.86,1403.28 1735.77,1403.28 1756.68,1403.28 1777.59,1403.28 1798.5,1403.28 1819.41,1403.28 1840.32,1403.28 1861.24,1403.28 1882.15,1403.28 1903.06,1403.28 
  1923.97,1403.28 1944.88,1403.28 1965.79,1403.28 1986.7,1403.28 2007.61,1403.28 2028.52,1403.28 2049.43,1403.28 2070.34,1403.28 2091.25,1403.28 2112.16,1403.28 
  2133.07,1403.28 2153.98,1403.28 2174.89,1403.28 2195.8,1403.28 2216.71,1403.28 2237.62,1403.28 2258.53,1403.28 2279.44,1403.28 2300.35,1403.28 2321.26,1403.28 
  
  "/>
<polyline clip-path="url(#clip6802)" style="stroke:#00a98d; stroke-width:4.8; stroke-opacity:1; fill:none" points="
  251.149,1403.28 272.059,1403.28 292.969,1403.28 313.879,1403.28 334.789,1403.28 355.7,1403.28 376.61,1403.28 397.52,1403.28 418.43,1403.28 439.34,1403.28 
  460.251,1403.28 481.161,1403.28 502.071,1403.28 522.981,1403.28 543.892,1403.28 564.802,1403.28 585.712,1403.28 606.622,1403.28 627.532,1403.28 648.443,1403.28 
  669.353,1403.28 690.263,1403.28 711.173,1403.28 732.083,1403.28 752.994,1403.28 773.904,1403.28 794.814,1403.28 815.724,1403.28 836.635,1403.28 857.545,1403.28 
  878.455,1403.28 899.365,1403.28 920.275,1403.28 941.186,1403.28 962.096,1403.28 983.006,1403.28 1003.92,1403.28 1024.83,1403.28 1045.74,1403.28 1066.65,1403.28 
  1087.56,1403.28 1108.47,1403.28 1129.38,1403.28 1150.29,1403.28 1171.2,1403.28 1192.11,1403.28 1213.02,1403.28 1233.93,1403.28 1254.84,1403.28 1275.75,1403.28 
  1296.66,1403.28 1317.57,1403.28 1338.48,1403.28 1359.39,1403.28 1380.3,1403.28 1401.21,1403.28 1422.12,1403.28 1443.03,1403.28 1463.94,1403.28 1484.85,1403.28 
  1505.76,1403.28 1526.67,1403.28 1547.58,1403.28 1568.49,1403.28 1589.4,1403.28 1610.31,1403.28 1631.22,1403.28 1652.13,1403.28 1673.04,1403.28 1693.95,1403.28 
  1714.86,1403.28 1735.77,1403.28 1756.68,1403.28 1777.59,1403.28 1798.5,1403.28 1819.41,1403.28 1840.32,1403.28 1861.24,1403.28 1882.15,1403.28 1903.06,1403.28 
  1923.97,1403.28 1944.88,1403.28 1965.79,1403.28 1986.7,1403.28 2007.61,1403.28 2028.52,1403.28 2049.43,1403.28 2070.34,1403.28 2091.25,1403.28 2112.16,1403.28 
  2133.07,1403.28 2153.98,1403.28 2174.89,1403.28 2195.8,1403.28 2216.71,1403.28 2237.62,1403.28 2258.53,1403.28 2279.44,1403.28 2300.35,1403.28 2321.26,1403.28 
  
  "/>
<polyline clip-path="url(#clip6802)" style="stroke:#8e971d; stroke-width:4.8; stroke-opacity:1; fill:none" points="
  251.149,1403.28 272.059,1403.28 292.969,1403.28 313.879,1403.28 334.789,1403.28 355.7,1403.28 376.61,1403.28 397.52,1403.28 418.43,1403.28 439.34,1403.28 
  460.251,1403.28 481.161,1403.28 502.071,1403.28 522.981,1403.28 543.892,1403.28 564.802,1403.28 585.712,1403.28 606.622,1403.28 627.532,1403.28 648.443,1403.28 
  669.353,1403.28 690.263,1403.28 711.173,1403.28 732.083,1403.28 752.994,1403.28 773.904,1403.28 794.814,1403.28 815.724,1403.28 836.635,1403.28 857.545,1403.28 
  878.455,1403.28 899.365,1403.28 920.275,1403.28 941.186,1403.28 962.096,1403.28 983.006,1403.28 1003.92,1403.28 1024.83,1403.28 1045.74,1403.28 1066.65,1403.28 
  1087.56,1403.28 1108.47,1403.28 1129.38,1403.28 1150.29,1403.28 1171.2,1403.28 1192.11,1403.28 1213.02,1403.28 1233.93,1403.28 1254.84,1403.28 1275.75,1403.28 
  1296.66,1403.28 1317.57,1403.28 1338.48,1403.28 1359.39,1403.28 1380.3,1403.28 1401.21,1403.28 1422.12,1403.28 1443.03,1403.28 1463.94,1403.28 1484.85,1403.28 
  1505.76,1403.28 1526.67,1403.28 1547.58,1403.28 1568.49,1403.28 1589.4,1403.28 1610.31,1403.28 1631.22,1403.28 1652.13,1403.28 1673.04,1403.28 1693.95,1403.28 
  1714.86,1403.28 1735.77,1403.28 1756.68,1403.28 1777.59,1403.28 1798.5,1403.28 1819.41,1403.28 1840.32,1403.28 1861.24,1403.28 1882.15,1403.28 1903.06,1403.28 
  1923.97,1403.28 1944.88,1403.28 1965.79,1403.28 1986.7,1403.28 2007.61,1403.28 2028.52,1403.28 2049.43,1403.28 2070.34,1403.28 2091.25,1403.28 2112.16,1403.28 
  2133.07,1403.28 2153.98,1403.28 2174.89,1403.28 2195.8,1403.28 2216.71,1403.28 2237.62,1403.28 2258.53,1403.28 2279.44,1403.28 2300.35,1403.28 2321.26,1403.28 
  
  "/>
<polyline clip-path="url(#clip6802)" style="stroke:#00a8cb; stroke-width:4.8; stroke-opacity:1; fill:none" points="
  251.149,1398.34 272.059,1398.04 292.969,1397.86 313.879,1397.78 334.789,1397.74 355.7,1397.69 376.61,1397.65 397.52,1397.61 418.43,1397.57 439.34,1397.54 
  460.251,1397.5 481.161,1397.46 502.071,1397.43 522.981,1397.39 543.892,1397.36 564.802,1397.33 585.712,1397.3 606.622,1397.26 627.532,1397.23 648.443,1397.2 
  669.353,1397.17 690.263,1397.14 711.173,1397.11 732.083,1397.08 752.994,1397.05 773.904,1397.02 794.814,1396.99 815.724,1396.96 836.635,1396.93 857.545,1396.9 
  878.455,1396.86 899.365,1396.83 920.275,1396.8 941.186,1396.77 962.096,1396.73 983.006,1396.7 1003.92,1396.67 1024.83,1396.63 1045.74,1396.6 1066.65,1396.56 
  1087.56,1396.52 1108.47,1396.48 1129.38,1396.44 1150.29,1396.4 1171.2,1396.35 1192.11,1396.3 1213.02,1396.24 1233.93,1396.17 1254.84,1395.67 1275.75,1395.64 
  1296.66,1395.61 1317.57,1395.58 1338.48,1395.56 1359.39,1395.53 1380.3,1395.5 1401.21,1395.47 1422.12,1395.44 1443.03,1395.41 1463.94,1395.37 1484.85,1395.34 
  1505.76,1395.31 1526.67,1395.27 1547.58,1395.23 1568.49,1395.19 1589.4,1395.15 1610.31,1395.11 1631.22,1395.06 1652.13,1395.01 1673.04,1394.1 1693.95,1394.05 
  1714.86,1394.01 1735.77,1393.98 1756.68,1393.94 1777.59,1393.9 1798.5,1393.86 1819.41,1393.82 1840.32,1393.78 1861.24,1393.74 1882.15,1393.69 1903.06,1393.65 
  1923.97,1393.6 1944.88,1393.55 1965.79,1393.5 1986.7,1393.45 2007.61,1393.4 2028.52,1393.34 2049.43,1393.28 2070.34,1393.22 2091.25,1393.16 2112.16,1393.08 
  2133.07,1393.01 2153.98,1392.93 2174.89,1389.55 2195.8,1386.06 2216.71,1386.02 2237.62,1386.01 2258.53,1385.99 2279.44,1385.97 2300.35,1385.96 2321.26,1385.94 
  
  "/>
<polygon clip-path="url(#clip6800)" points="
1851.43,753.824 2249.26,753.824 2249.26,209.504 1851.43,209.504 
  " fill="#ffffff" fill-rule="evenodd" fill-opacity="1"/>
<polyline clip-path="url(#clip6800)" style="stroke:#000000; stroke-width:4; stroke-opacity:1; fill:none" points="
  1851.43,753.824 2249.26,753.824 2249.26,209.504 1851.43,209.504 1851.43,753.824 
  "/>
<g clip-path="url(#clip6800)">
<text style="fill:#000000; fill-opacity:1; font-family:Arial,Helvetica Neue,Helvetica,sans-serif; font-size:48px; text-anchor:middle;" transform="rotate(0, 2050.34, 287.484)" x="2050.34" y="287.484">ranking</text>
</g>
<polyline clip-path="url(#clip6800)" style="stroke:#009af9; stroke-width:4.8; stroke-opacity:1; fill:none" points="
  1875.43,330.464 2019.43,330.464 
  "/>
<g clip-path="url(#clip6800)">
<text style="fill:#000000; fill-opacity:1; font-family:Symbol; font-size:52px; text-anchor:start;" transform="rotate(0, 2043.43, 354.192)" x="2043.43" y="354.192">σ</text>
</g>
<g clip-path="url(#clip6800)">
<text style="fill:#000000; fill-opacity:1; font-family:Arial,Helvetica Neue,Helvetica,sans-serif; font-size:38px; text-anchor:start;" transform="rotate(0, 2074.67, 326.781)" x="2074.67" y="326.781">2</text>
</g>
<g clip-path="url(#clip6800)">
<text style="fill:#000000; fill-opacity:1; font-family:Arial,Helvetica Neue,Helvetica,sans-serif; font-size:48px; text-anchor:start;" transform="rotate(0, 2096.42, 354.192)" x="2096.42" y="354.192">[40]</text>
</g>
<polyline clip-path="url(#clip6800)" style="stroke:#e26f46; stroke-width:4.8; stroke-opacity:1; fill:none" points="
  1875.43,390.944 2019.43,390.944 
  "/>
<g clip-path="url(#clip6800)">
<text style="fill:#000000; fill-opacity:1; font-family:Symbol; font-size:52px; text-anchor:start;" transform="rotate(0, 2043.43, 414.672)" x="2043.43" y="414.672">σ</text>
</g>
<g clip-path="url(#clip6800)">
<text style="fill:#000000; fill-opacity:1; font-family:Arial,Helvetica Neue,Helvetica,sans-serif; font-size:38px; text-anchor:start;" transform="rotate(0, 2074.67, 387.261)" x="2074.67" y="387.261">2</text>
</g>
<g clip-path="url(#clip6800)">
<text style="fill:#000000; fill-opacity:1; font-family:Arial,Helvetica Neue,Helvetica,sans-serif; font-size:48px; text-anchor:start;" transform="rotate(0, 2096.42, 414.672)" x="2096.42" y="414.672">[1]</text>
</g>
<polyline clip-path="url(#clip6800)" style="stroke:#3da44d; stroke-width:4.8; stroke-opacity:1; fill:none" points="
  1875.43,451.424 2019.43,451.424 
  "/>
<g clip-path="url(#clip6800)">
<text style="fill:#000000; fill-opacity:1; font-family:Symbol; font-size:52px; text-anchor:start;" transform="rotate(0, 2043.43, 475.152)" x="2043.43" y="475.152">σ</text>
</g>
<g clip-path="url(#clip6800)">
<text style="fill:#000000; fill-opacity:1; font-family:Arial,Helvetica Neue,Helvetica,sans-serif; font-size:38px; text-anchor:start;" transform="rotate(0, 2074.67, 447.741)" x="2074.67" y="447.741">2</text>
</g>
<g clip-path="url(#clip6800)">
<text style="fill:#000000; fill-opacity:1; font-family:Arial,Helvetica Neue,Helvetica,sans-serif; font-size:48px; text-anchor:start;" transform="rotate(0, 2096.42, 475.152)" x="2096.42" y="475.152">[20]</text>
</g>
<polyline clip-path="url(#clip6800)" style="stroke:#c271d2; stroke-width:4.8; stroke-opacity:1; fill:none" points="
  1875.43,511.904 2019.43,511.904 
  "/>
<g clip-path="url(#clip6800)">
<text style="fill:#000000; fill-opacity:1; font-family:Symbol; font-size:52px; text-anchor:start;" transform="rotate(0, 2043.43, 535.632)" x="2043.43" y="535.632">σ</text>
</g>
<g clip-path="url(#clip6800)">
<text style="fill:#000000; fill-opacity:1; font-family:Arial,Helvetica Neue,Helvetica,sans-serif; font-size:38px; text-anchor:start;" transform="rotate(0, 2074.67, 508.221)" x="2074.67" y="508.221">2</text>
</g>
<g clip-path="url(#clip6800)">
<text style="fill:#000000; fill-opacity:1; font-family:Arial,Helvetica Neue,Helvetica,sans-serif; font-size:48px; text-anchor:start;" transform="rotate(0, 2096.42, 535.632)" x="2096.42" y="535.632">[30]</text>
</g>
<polyline clip-path="url(#clip6800)" style="stroke:#ac8d18; stroke-width:4.8; stroke-opacity:1; fill:none" points="
  1875.43,572.384 2019.43,572.384 
  "/>
<g clip-path="url(#clip6800)">
<text style="fill:#000000; fill-opacity:1; font-family:Symbol; font-size:52px; text-anchor:start;" transform="rotate(0, 2043.43, 596.112)" x="2043.43" y="596.112">σ</text>
</g>
<g clip-path="url(#clip6800)">
<text style="fill:#000000; fill-opacity:1; font-family:Arial,Helvetica Neue,Helvetica,sans-serif; font-size:38px; text-anchor:start;" transform="rotate(0, 2074.67, 568.701)" x="2074.67" y="568.701">2</text>
</g>
<g clip-path="url(#clip6800)">
<text style="fill:#000000; fill-opacity:1; font-family:Arial,Helvetica Neue,Helvetica,sans-serif; font-size:48px; text-anchor:start;" transform="rotate(0, 2096.42, 596.112)" x="2096.42" y="596.112">[11]</text>
</g>
<polyline clip-path="url(#clip6800)" style="stroke:#00a9ad; stroke-width:4.8; stroke-opacity:1; fill:none" points="
  1875.43,632.864 2019.43,632.864 
  "/>
<g clip-path="url(#clip6800)">
<text style="fill:#000000; fill-opacity:1; font-family:Symbol; font-size:52px; text-anchor:start;" transform="rotate(0, 2043.43, 656.592)" x="2043.43" y="656.592">σ</text>
</g>
<g clip-path="url(#clip6800)">
<text style="fill:#000000; fill-opacity:1; font-family:Arial,Helvetica Neue,Helvetica,sans-serif; font-size:38px; text-anchor:start;" transform="rotate(0, 2074.67, 629.181)" x="2074.67" y="629.181">2</text>
</g>
<g clip-path="url(#clip6800)">
<text style="fill:#000000; fill-opacity:1; font-family:Arial,Helvetica Neue,Helvetica,sans-serif; font-size:48px; text-anchor:start;" transform="rotate(0, 2096.42, 656.592)" x="2096.42" y="656.592">[21]</text>
</g>
<polyline clip-path="url(#clip6800)" style="stroke:#ed5d92; stroke-width:4.8; stroke-opacity:1; fill:none" points="
  1875.43,693.344 2019.43,693.344 
  "/>
<g clip-path="url(#clip6800)">
<text style="fill:#000000; fill-opacity:1; font-family:Symbol; font-size:52px; text-anchor:start;" transform="rotate(0, 2043.43, 717.072)" x="2043.43" y="717.072">σ</text>
</g>
<g clip-path="url(#clip6800)">
<text style="fill:#000000; fill-opacity:1; font-family:Arial,Helvetica Neue,Helvetica,sans-serif; font-size:38px; text-anchor:start;" transform="rotate(0, 2074.67, 689.661)" x="2074.67" y="689.661">2</text>
</g>
<g clip-path="url(#clip6800)">
<text style="fill:#000000; fill-opacity:1; font-family:Arial,Helvetica Neue,Helvetica,sans-serif; font-size:48px; text-anchor:start;" transform="rotate(0, 2096.42, 717.072)" x="2096.42" y="717.072">[29]</text>
</g>
</svg>
