<?xml version="1.0" encoding="utf-8"?>
<svg xmlns="http://www.w3.org/2000/svg" xmlns:xlink="http://www.w3.org/1999/xlink" width="600" height="400" viewBox="0 0 2400 1600">
<defs>
  <clipPath id="clip3800">
    <rect x="0" y="0" width="2400" height="1600"/>
  </clipPath>
</defs>
<polygon clip-path="url(#clip3800)" points="
0,1600 2400,1600 2400,0 0,0 
  " fill="#ffffff" fill-rule="evenodd" fill-opacity="1"/>
<defs>
  <clipPath id="clip3801">
    <rect x="480" y="0" width="1681" height="1600"/>
  </clipPath>
</defs>
<polygon clip-path="url(#clip3800)" points="
251.149,1440.48 2321.26,1440.48 2321.26,125.984 251.149,125.984 
  " fill="#ffffff" fill-rule="evenodd" fill-opacity="1"/>
<defs>
  <clipPath id="clip3802">
    <rect x="251" y="125" width="2071" height="1315"/>
  </clipPath>
</defs>
<polyline clip-path="url(#clip3802)" style="stroke:#000000; stroke-width:2; stroke-opacity:0.1; fill:none" points="
  251.149,1440.48 251.149,125.984 
  "/>
<polyline clip-path="url(#clip3802)" style="stroke:#000000; stroke-width:2; stroke-opacity:0.1; fill:none" points="
  786.859,1440.48 786.859,125.984 
  "/>
<polyline clip-path="url(#clip3802)" style="stroke:#000000; stroke-width:2; stroke-opacity:0.1; fill:none" points="
  1322.57,1440.48 1322.57,125.984 
  "/>
<polyline clip-path="url(#clip3802)" style="stroke:#000000; stroke-width:2; stroke-opacity:0.1; fill:none" points="
  1858.28,1440.48 1858.28,125.984 
  "/>
<polyline clip-path="url(#clip3802)" style="stroke:#000000; stroke-width:2; stroke-opacity:0.1; fill:none" points="
  251.149,1403.28 2321.26,1403.28 
  "/>
<polyline clip-path="url(#clip3802)" style="stroke:#000000; stroke-width:2; stroke-opacity:0.1; fill:none" points="
  251.149,1103.7 2321.26,1103.7 
  "/>
<polyline clip-path="url(#clip3802)" style="stroke:#000000; stroke-width:2; stroke-opacity:0.1; fill:none" points="
  251.149,804.122 2321.26,804.122 
  "/>
<polyline clip-path="url(#clip3802)" style="stroke:#000000; stroke-width:2; stroke-opacity:0.1; fill:none" points="
  251.149,504.543 2321.26,504.543 
  "/>
<polyline clip-path="url(#clip3802)" style="stroke:#000000; stroke-width:2; stroke-opacity:0.1; fill:none" points="
  251.149,204.964 2321.26,204.964 
  "/>
<polyline clip-path="url(#clip3800)" style="stroke:#000000; stroke-width:4; stroke-opacity:1; fill:none" points="
  251.149,1440.48 2321.26,1440.48 
  "/>
<polyline clip-path="url(#clip3800)" style="stroke:#000000; stroke-width:4; stroke-opacity:1; fill:none" points="
  251.149,1440.48 251.149,125.984 
  "/>
<polyline clip-path="url(#clip3800)" style="stroke:#000000; stroke-width:4; stroke-opacity:1; fill:none" points="
  251.149,1440.48 251.149,1420.77 
  "/>
<polyline clip-path="url(#clip3800)" style="stroke:#000000; stroke-width:4; stroke-opacity:1; fill:none" points="
  786.859,1440.48 786.859,1420.77 
  "/>
<polyline clip-path="url(#clip3800)" style="stroke:#000000; stroke-width:4; stroke-opacity:1; fill:none" points="
  1322.57,1440.48 1322.57,1420.77 
  "/>
<polyline clip-path="url(#clip3800)" style="stroke:#000000; stroke-width:4; stroke-opacity:1; fill:none" points="
  1858.28,1440.48 1858.28,1420.77 
  "/>
<polyline clip-path="url(#clip3800)" style="stroke:#000000; stroke-width:4; stroke-opacity:1; fill:none" points="
  251.149,1403.28 282.2,1403.28 
  "/>
<polyline clip-path="url(#clip3800)" style="stroke:#000000; stroke-width:4; stroke-opacity:1; fill:none" points="
  251.149,1103.7 282.2,1103.7 
  "/>
<polyline clip-path="url(#clip3800)" style="stroke:#000000; stroke-width:4; stroke-opacity:1; fill:none" points="
  251.149,804.122 282.2,804.122 
  "/>
<polyline clip-path="url(#clip3800)" style="stroke:#000000; stroke-width:4; stroke-opacity:1; fill:none" points="
  251.149,504.543 282.2,504.543 
  "/>
<polyline clip-path="url(#clip3800)" style="stroke:#000000; stroke-width:4; stroke-opacity:1; fill:none" points="
  251.149,204.964 282.2,204.964 
  "/>
<g clip-path="url(#clip3800)">
<text style="fill:#000000; fill-opacity:1; font-family:Arial,Helvetica Neue,Helvetica,sans-serif; font-size:48px; text-anchor:middle;" transform="rotate(0, 251.149, 1494.48)" x="251.149" y="1494.48">0</text>
</g>
<g clip-path="url(#clip3800)">
<text style="fill:#000000; fill-opacity:1; font-family:Arial,Helvetica Neue,Helvetica,sans-serif; font-size:48px; text-anchor:middle;" transform="rotate(0, 786.859, 1494.48)" x="786.859" y="1494.48">20</text>
</g>
<g clip-path="url(#clip3800)">
<text style="fill:#000000; fill-opacity:1; font-family:Arial,Helvetica Neue,Helvetica,sans-serif; font-size:48px; text-anchor:middle;" transform="rotate(0, 1322.57, 1494.48)" x="1322.57" y="1494.48">40</text>
</g>
<g clip-path="url(#clip3800)">
<text style="fill:#000000; fill-opacity:1; font-family:Arial,Helvetica Neue,Helvetica,sans-serif; font-size:48px; text-anchor:middle;" transform="rotate(0, 1858.28, 1494.48)" x="1858.28" y="1494.48">60</text>
</g>
<g clip-path="url(#clip3800)">
<text style="fill:#000000; fill-opacity:1; font-family:Arial,Helvetica Neue,Helvetica,sans-serif; font-size:48px; text-anchor:end;" transform="rotate(0, 227.149, 1420.78)" x="227.149" y="1420.78">0.0</text>
</g>
<g clip-path="url(#clip3800)">
<text style="fill:#000000; fill-opacity:1; font-family:Arial,Helvetica Neue,Helvetica,sans-serif; font-size:48px; text-anchor:end;" transform="rotate(0, 227.149, 1121.2)" x="227.149" y="1121.2">2.5</text>
</g>
<g clip-path="url(#clip3800)">
<text style="fill:#000000; fill-opacity:1; font-family:Arial,Helvetica Neue,Helvetica,sans-serif; font-size:48px; text-anchor:end;" transform="rotate(0, 227.149, 821.622)" x="227.149" y="821.622">5.0</text>
</g>
<g clip-path="url(#clip3800)">
<text style="fill:#000000; fill-opacity:1; font-family:Arial,Helvetica Neue,Helvetica,sans-serif; font-size:48px; text-anchor:end;" transform="rotate(0, 227.149, 522.043)" x="227.149" y="522.043">7.5</text>
</g>
<g clip-path="url(#clip3800)">
<text style="fill:#000000; fill-opacity:1; font-family:Arial,Helvetica Neue,Helvetica,sans-serif; font-size:48px; text-anchor:end;" transform="rotate(0, 227.149, 222.464)" x="227.149" y="222.464">10.0</text>
</g>
<g clip-path="url(#clip3800)">
<text style="fill:#000000; fill-opacity:1; font-family:Arial,Helvetica Neue,Helvetica,sans-serif; font-size:84px; text-anchor:start;" transform="rotate(0, 606.25, 74.9952)" x="606.25" y="74.9952">Solution Path (MCP penalty, </text>
</g>
<g clip-path="url(#clip3800)">
<text style="fill:#000000; fill-opacity:1; font-family:Symbol; font-size:91px; text-anchor:start;" transform="rotate(0, 1687.73, 74.9952)" x="1687.73" y="74.9952">γ</text>
</g>
<g clip-path="url(#clip3800)">
<text style="fill:#000000; fill-opacity:1; font-family:Arial,Helvetica Neue,Helvetica,sans-serif; font-size:84px; text-anchor:start;" transform="rotate(0, 1725, 74.9952)" x="1725" y="74.9952">=2.69)</text>
</g>
<g clip-path="url(#clip3800)">
<text style="fill:#000000; fill-opacity:1; font-family:Symbol; font-size:72px; text-anchor:start;" transform="rotate(0, 1266.65, 1584.32)" x="1266.65" y="1584.32">λ</text>
</g>
<g clip-path="url(#clip3800)">
<text style="fill:#000000; fill-opacity:1; font-family:Symbol; font-size:72px; text-anchor:start;" transform="rotate(-90, 86.6349, 819.663)" x="86.6349" y="819.663">σ</text>
</g>
<g clip-path="url(#clip3800)">
<text style="fill:#000000; fill-opacity:1; font-family:Arial,Helvetica Neue,Helvetica,sans-serif; font-size:53px; text-anchor:start;" transform="rotate(-90, 48.9456, 776.703)" x="48.9456" y="776.703">2</text>
</g>
<polyline clip-path="url(#clip3802)" style="stroke:#009af9; stroke-width:4.8; stroke-opacity:1; fill:none" points="
  251.149,163.187 272.059,181.14 292.969,395.787 313.879,626.267 334.789,772.028 355.7,862.084 376.61,928.161 397.52,977.447 418.43,1015.9 439.34,1046.89 
  460.251,1072.52 481.161,1094.15 502.071,1112.69 522.981,1128.81 543.892,1142.98 564.802,1155.57 585.712,1166.85 606.622,1177.04 627.532,1186.3 648.443,1194.78 
  669.353,1202.58 690.263,1209.81 711.173,1216.53 732.083,1222.84 752.994,1228.79 773.904,1234.48 794.814,1240.07 815.724,1245.99 836.635,1258.48 857.545,1262.2 
  878.455,1265.72 899.365,1269.05 920.275,1272.22 941.186,1275.23 962.096,1278.1 983.006,1280.85 1003.92,1283.47 1024.83,1285.98 1045.74,1288.38 1066.65,1290.7 
  1087.56,1292.92 1108.47,1295.07 1129.38,1297.13 1150.29,1299.13 1171.2,1301.07 1192.11,1302.96 1213.02,1304.81 1233.93,1308.01 1254.84,1309.65 1275.75,1311.23 
  1296.66,1312.76 1317.57,1314.24 1338.48,1315.68 1359.39,1317.08 1380.3,1318.44 1401.21,1319.76 1422.12,1321.05 1443.03,1322.3 1463.94,1323.53 1484.85,1324.72 
  1505.76,1325.88 1526.67,1327.02 1547.58,1328.13 1568.49,1329.21 1589.4,1330.27 1610.31,1331.31 1631.22,1332.32 1652.13,1333.31 1673.04,1334.29 1693.95,1335.24 
  1714.86,1336.18 1735.77,1337.1 1756.68,1338 1777.59,1338.89 1798.5,1339.76 1819.41,1340.62 1840.32,1341.47 1861.24,1342.3 1882.15,1343.12 1903.06,1343.93 
  1923.97,1344.73 1944.88,1345.52 1965.79,1346.3 1986.7,1347.07 2007.61,1347.84 2028.52,1348.59 2049.43,1349.34 2070.34,1350.09 2091.25,1350.83 2112.16,1351.57 
  2133.07,1352.31 2153.98,1353.05 2174.89,1353.79 2195.8,1354.53 2216.71,1355.28 2237.62,1367.52 2258.53,1377.88 2279.44,1378.3 2300.35,1378.71 2321.26,1379.11 
  
  "/>
<polyline clip-path="url(#clip3802)" style="stroke:#e26f46; stroke-width:4.8; stroke-opacity:1; fill:none" points="
  251.149,733.09 272.059,734.588 292.969,796.452 313.879,811.017 334.789,867.248 355.7,909.607 376.61,951.7 397.52,986.981 418.43,1017.06 439.34,1043.04 
  460.251,1065.74 481.161,1085.76 502.071,1103.56 522.981,1119.49 543.892,1133.83 564.802,1146.82 585.712,1158.62 606.622,1169.41 627.532,1179.3 648.443,1188.39 
  669.353,1196.78 690.263,1204.54 711.173,1211.73 732.083,1218.39 752.994,1224.57 773.904,1230.28 794.814,1235.44 815.724,1239.78 836.635,1240.39 857.545,1245.4 
  878.455,1250.11 899.365,1254.56 920.275,1258.77 941.186,1262.76 962.096,1266.55 983.006,1270.14 1003.92,1273.55 1024.83,1276.79 1045.74,1279.88 1066.65,1282.82 
  1087.56,1285.61 1108.47,1288.27 1129.38,1290.79 1150.29,1293.17 1171.2,1295.41 1192.11,1297.48 1213.02,1299.3 1233.93,1287.78 1254.84,1290.54 1275.75,1293.21 
  1296.66,1295.79 1317.57,1298.28 1338.48,1300.69 1359.39,1303.01 1380.3,1305.27 1401.21,1307.46 1422.12,1309.58 1443.03,1311.64 1463.94,1313.64 1484.85,1315.58 
  1505.76,1317.46 1526.67,1319.3 1547.58,1321.08 1568.49,1322.82 1589.4,1324.52 1610.31,1326.17 1631.22,1327.78 1652.13,1329.35 1673.04,1330.88 1693.95,1332.38 
  1714.86,1333.85 1735.77,1335.28 1756.68,1336.69 1777.59,1338.06 1798.5,1339.41 1819.41,1340.73 1840.32,1342.02 1861.24,1343.29 1882.15,1344.54 1903.06,1345.77 
  1923.97,1346.98 1944.88,1348.16 1965.79,1349.34 1986.7,1350.49 2007.61,1351.63 2028.52,1352.76 2049.43,1353.88 2070.34,1354.98 2091.25,1356.08 2112.16,1357.17 
  2133.07,1358.25 2153.98,1359.33 2174.89,1360.41 2195.8,1361.5 2216.71,1362.59 2237.62,1382.03 2258.53,1403.28 2279.44,1403.28 2300.35,1403.28 2321.26,1403.28 
  
  "/>
<polyline clip-path="url(#clip3802)" style="stroke:#3da44d; stroke-width:4.8; stroke-opacity:1; fill:none" points="
  251.149,1231.59 272.059,1244.58 292.969,1268.54 313.879,1274.56 334.789,1287.44 355.7,1295.19 376.61,1303.68 397.52,1310.51 418.43,1316.08 439.34,1320.67 
  460.251,1324.48 481.161,1327.64 502.071,1330.27 522.981,1332.44 543.892,1334.22 564.802,1335.66 585.712,1336.8 606.622,1337.66 627.532,1338.26 648.443,1338.61 
  669.353,1338.71 690.263,1338.54 711.173,1338.1 732.083,1337.29 752.994,1336.04 773.904,1334.1 794.814,1330.69 815.724,1323.4 836.635,1253.39 857.545,1257.42 
  878.455,1261.26 899.365,1264.91 920.275,1268.39 941.186,1271.71 962.096,1274.88 983.006,1277.93 1003.92,1280.85 1024.83,1283.65 1045.74,1286.35 1066.65,1288.95 
  1087.56,1291.46 1108.47,1293.89 1129.38,1296.24 1150.29,1298.52 1171.2,1300.74 1192.11,1302.9 1213.02,1305.02 1233.93,1308.84 1254.84,1310.89 1275.75,1312.87 
  1296.66,1314.8 1317.57,1316.66 1338.48,1318.47 1359.39,1320.24 1380.3,1321.95 1401.21,1323.62 1422.12,1325.25 1443.03,1326.84 1463.94,1328.39 1484.85,1329.9 
  1505.76,1331.38 1526.67,1332.82 1547.58,1334.23 1568.49,1335.62 1589.4,1336.97 1610.31,1338.3 1631.22,1339.61 1652.13,1340.89 1673.04,1342.15 1693.95,1343.38 
  1714.86,1344.6 1735.77,1345.8 1756.68,1346.98 1777.59,1348.14 1798.5,1349.29 1819.41,1350.42 1840.32,1351.54 1861.24,1352.65 1882.15,1353.75 1903.06,1354.84 
  1923.97,1355.92 1944.88,1356.99 1965.79,1358.06 1986.7,1359.12 2007.61,1360.18 2028.52,1361.24 2049.43,1362.3 2070.34,1363.36 2091.25,1364.43 2112.16,1365.5 
  2133.07,1366.59 2153.98,1367.69 2174.89,1368.82 2195.8,1369.97 2216.71,1371.15 2237.62,1403.28 2258.53,1403.28 2279.44,1403.28 2300.35,1403.28 2321.26,1403.28 
  
  "/>
<polyline clip-path="url(#clip3802)" style="stroke:#c271d2; stroke-width:4.8; stroke-opacity:1; fill:none" points="
  251.149,649.094 272.059,640.989 292.969,754.415 313.879,826.449 334.789,921.376 355.7,998.983 376.61,1046.98 397.52,1085.93 418.43,1118.21 439.34,1145.44 
  460.251,1168.71 481.161,1188.84 502.071,1206.42 522.981,1221.91 543.892,1235.65 564.802,1247.93 585.712,1258.97 606.622,1268.94 627.532,1277.99 648.443,1286.25 
  669.353,1293.81 690.263,1300.75 711.173,1307.14 732.083,1313.05 752.994,1318.51 773.904,1323.58 794.814,1328.27 815.724,1332.56 836.635,1333.67 857.545,1337.41 
  878.455,1340.94 899.365,1344.29 920.275,1347.49 941.186,1350.54 962.096,1353.47 983.006,1356.27 1003.92,1358.98 1024.83,1361.6 1045.74,1364.13 1066.65,1366.6 
  1087.56,1369.02 1108.47,1371.41 1129.38,1373.78 1150.29,1376.16 1171.2,1378.6 1192.11,1381.19 1213.02,1384.13 1233.93,1403.28 1254.84,1403.28 1275.75,1403.28 
  1296.66,1403.28 1317.57,1403.28 1338.48,1403.28 1359.39,1403.28 1380.3,1403.28 1401.21,1403.28 1422.12,1403.28 1443.03,1403.28 1463.94,1403.28 1484.85,1403.28 
  1505.76,1403.28 1526.67,1403.28 1547.58,1403.28 1568.49,1403.28 1589.4,1403.28 1610.31,1403.28 1631.22,1403.28 1652.13,1403.28 1673.04,1403.28 1693.95,1403.28 
  1714.86,1403.28 1735.77,1403.28 1756.68,1403.28 1777.59,1403.28 1798.5,1403.28 1819.41,1403.28 1840.32,1403.28 1861.24,1403.28 1882.15,1403.28 1903.06,1403.28 
  1923.97,1403.28 1944.88,1403.28 1965.79,1403.28 1986.7,1403.28 2007.61,1403.28 2028.52,1403.28 2049.43,1403.28 2070.34,1403.28 2091.25,1403.28 2112.16,1403.28 
  2133.07,1403.28 2153.98,1403.28 2174.89,1403.28 2195.8,1403.28 2216.71,1403.28 2237.62,1403.28 2258.53,1403.28 2279.44,1403.28 2300.35,1403.28 2321.26,1403.28 
  
  "/>
<polyline clip-path="url(#clip3802)" style="stroke:#ac8d18; stroke-width:4.8; stroke-opacity:1; fill:none" points="
  251.149,989.507 272.059,735.821 292.969,896.07 313.879,1062.25 334.789,1100.22 355.7,1130.73 376.61,1157.97 397.52,1180.25 418.43,1198.98 439.34,1215.06 
  460.251,1229.11 481.161,1241.55 502.071,1252.71 522.981,1262.81 543.892,1272.03 564.802,1280.52 585.712,1288.38 606.622,1295.71 627.532,1302.57 648.443,1309.05 
  669.353,1315.2 690.263,1321.09 711.173,1326.76 732.083,1332.32 752.994,1337.85 773.904,1343.52 794.814,1349.84 815.724,1358.26 836.635,1403.28 857.545,1403.28 
  878.455,1403.28 899.365,1403.28 920.275,1403.28 941.186,1403.28 962.096,1403.28 983.006,1403.28 1003.92,1403.28 1024.83,1403.28 1045.74,1403.28 1066.65,1403.28 
  1087.56,1403.28 1108.47,1403.28 1129.38,1403.28 1150.29,1403.28 1171.2,1403.28 1192.11,1403.28 1213.02,1403.28 1233.93,1403.28 1254.84,1403.28 1275.75,1403.28 
  1296.66,1403.28 1317.57,1403.28 1338.48,1403.28 1359.39,1403.28 1380.3,1403.28 1401.21,1403.28 1422.12,1403.28 1443.03,1403.28 1463.94,1403.28 1484.85,1403.28 
  1505.76,1403.28 1526.67,1403.28 1547.58,1403.28 1568.49,1403.28 1589.4,1403.28 1610.31,1403.28 1631.22,1403.28 1652.13,1403.28 1673.04,1403.28 1693.95,1403.28 
  1714.86,1403.28 1735.77,1403.28 1756.68,1403.28 1777.59,1403.28 1798.5,1403.28 1819.41,1403.28 1840.32,1403.28 1861.24,1403.28 1882.15,1403.28 1903.06,1403.28 
  1923.97,1403.28 1944.88,1403.28 1965.79,1403.28 1986.7,1403.28 2007.61,1403.28 2028.52,1403.28 2049.43,1403.28 2070.34,1403.28 2091.25,1403.28 2112.16,1403.28 
  2133.07,1403.28 2153.98,1403.28 2174.89,1403.28 2195.8,1403.28 2216.71,1403.28 2237.62,1403.28 2258.53,1403.28 2279.44,1403.28 2300.35,1403.28 2321.26,1403.28 
  
  "/>
<polyline clip-path="url(#clip3802)" style="stroke:#00a9ad; stroke-width:4.8; stroke-opacity:1; fill:none" points="
  251.149,780.618 272.059,774.669 292.969,899.393 313.879,982.75 334.789,1065.48 355.7,1113.6 376.61,1161.62 397.52,1198.84 418.43,1228.28 439.34,1251.94 
  460.251,1271.21 481.161,1287.09 502.071,1300.32 522.981,1311.45 543.892,1320.93 564.802,1329.08 585.712,1336.16 606.622,1342.38 627.532,1347.91 648.443,1352.88 
  669.353,1357.4 690.263,1361.56 711.173,1365.47 732.083,1369.22 752.994,1372.91 773.904,1376.75 794.814,1381.3 815.724,1387.92 836.635,1403.28 857.545,1403.28 
  878.455,1403.28 899.365,1403.28 920.275,1403.28 941.186,1403.28 962.096,1403.28 983.006,1403.28 1003.92,1403.28 1024.83,1403.28 1045.74,1403.28 1066.65,1403.28 
  1087.56,1403.28 1108.47,1403.28 1129.38,1403.28 1150.29,1403.28 1171.2,1403.28 1192.11,1403.28 1213.02,1403.28 1233.93,1403.28 1254.84,1403.28 1275.75,1403.28 
  1296.66,1403.28 1317.57,1403.28 1338.48,1403.28 1359.39,1403.28 1380.3,1403.28 1401.21,1403.28 1422.12,1403.28 1443.03,1403.28 1463.94,1403.28 1484.85,1403.28 
  1505.76,1403.28 1526.67,1403.28 1547.58,1403.28 1568.49,1403.28 1589.4,1403.28 1610.31,1403.28 1631.22,1403.28 1652.13,1403.28 1673.04,1403.28 1693.95,1403.28 
  1714.86,1403.28 1735.77,1403.28 1756.68,1403.28 1777.59,1403.28 1798.5,1403.28 1819.41,1403.28 1840.32,1403.28 1861.24,1403.28 1882.15,1403.28 1903.06,1403.28 
  1923.97,1403.28 1944.88,1403.28 1965.79,1403.28 1986.7,1403.28 2007.61,1403.28 2028.52,1403.28 2049.43,1403.28 2070.34,1403.28 2091.25,1403.28 2112.16,1403.28 
  2133.07,1403.28 2153.98,1403.28 2174.89,1403.28 2195.8,1403.28 2216.71,1403.28 2237.62,1403.28 2258.53,1403.28 2279.44,1403.28 2300.35,1403.28 2321.26,1403.28 
  
  "/>
<polyline clip-path="url(#clip3802)" style="stroke:#ed5d92; stroke-width:4.8; stroke-opacity:1; fill:none" points="
  251.149,1174.54 272.059,1215.85 292.969,1268.78 313.879,1289.53 334.789,1345.07 355.7,1403.28 376.61,1403.28 397.52,1403.28 418.43,1403.28 439.34,1403.28 
  460.251,1403.28 481.161,1403.28 502.071,1403.28 522.981,1403.28 543.892,1403.28 564.802,1403.28 585.712,1403.28 606.622,1403.28 627.532,1403.28 648.443,1403.28 
  669.353,1403.28 690.263,1403.28 711.173,1403.28 732.083,1403.28 752.994,1403.28 773.904,1403.28 794.814,1403.28 815.724,1403.28 836.635,1403.28 857.545,1403.28 
  878.455,1403.28 899.365,1403.28 920.275,1403.28 941.186,1403.28 962.096,1403.28 983.006,1403.28 1003.92,1403.28 1024.83,1403.28 1045.74,1403.28 1066.65,1403.28 
  1087.56,1403.28 1108.47,1403.28 1129.38,1403.28 1150.29,1403.28 1171.2,1403.28 1192.11,1403.28 1213.02,1403.28 1233.93,1403.28 1254.84,1403.28 1275.75,1403.28 
  1296.66,1403.28 1317.57,1403.28 1338.48,1403.28 1359.39,1403.28 1380.3,1403.28 1401.21,1403.28 1422.12,1403.28 1443.03,1403.28 1463.94,1403.28 1484.85,1403.28 
  1505.76,1403.28 1526.67,1403.28 1547.58,1403.28 1568.49,1403.28 1589.4,1403.28 1610.31,1403.28 1631.22,1403.28 1652.13,1403.28 1673.04,1403.28 1693.95,1403.28 
  1714.86,1403.28 1735.77,1403.28 1756.68,1403.28 1777.59,1403.28 1798.5,1403.28 1819.41,1403.28 1840.32,1403.28 1861.24,1403.28 1882.15,1403.28 1903.06,1403.28 
  1923.97,1403.28 1944.88,1403.28 1965.79,1403.28 1986.7,1403.28 2007.61,1403.28 2028.52,1403.28 2049.43,1403.28 2070.34,1403.28 2091.25,1403.28 2112.16,1403.28 
  2133.07,1403.28 2153.98,1403.28 2174.89,1403.28 2195.8,1403.28 2216.71,1403.28 2237.62,1403.28 2258.53,1403.28 2279.44,1403.28 2300.35,1403.28 2321.26,1403.28 
  
  "/>
<polyline clip-path="url(#clip3802)" style="stroke:#c68125; stroke-width:4.8; stroke-opacity:1; fill:none" points="
  251.149,923.513 272.059,725.212 292.969,1055.5 313.879,1403.28 334.789,1403.28 355.7,1403.28 376.61,1403.28 397.52,1403.28 418.43,1403.28 439.34,1403.28 
  460.251,1403.28 481.161,1403.28 502.071,1403.28 522.981,1403.28 543.892,1403.28 564.802,1403.28 585.712,1403.28 606.622,1403.28 627.532,1403.28 648.443,1403.28 
  669.353,1403.28 690.263,1403.28 711.173,1403.28 732.083,1403.28 752.994,1403.28 773.904,1403.28 794.814,1403.28 815.724,1403.28 836.635,1403.28 857.545,1403.28 
  878.455,1403.28 899.365,1403.28 920.275,1403.28 941.186,1403.28 962.096,1403.28 983.006,1403.28 1003.92,1403.28 1024.83,1403.28 1045.74,1403.28 1066.65,1403.28 
  1087.56,1403.28 1108.47,1403.28 1129.38,1403.28 1150.29,1403.28 1171.2,1403.28 1192.11,1403.28 1213.02,1403.28 1233.93,1403.28 1254.84,1403.28 1275.75,1403.28 
  1296.66,1403.28 1317.57,1403.28 1338.48,1403.28 1359.39,1403.28 1380.3,1403.28 1401.21,1403.28 1422.12,1403.28 1443.03,1403.28 1463.94,1403.28 1484.85,1403.28 
  1505.76,1403.28 1526.67,1403.28 1547.58,1403.28 1568.49,1403.28 1589.4,1403.28 1610.31,1403.28 1631.22,1403.28 1652.13,1403.28 1673.04,1403.28 1693.95,1403.28 
  1714.86,1403.28 1735.77,1403.28 1756.68,1403.28 1777.59,1403.28 1798.5,1403.28 1819.41,1403.28 1840.32,1403.28 1861.24,1403.28 1882.15,1403.28 1903.06,1403.28 
  1923.97,1403.28 1944.88,1403.28 1965.79,1403.28 1986.7,1403.28 2007.61,1403.28 2028.52,1403.28 2049.43,1403.28 2070.34,1403.28 2091.25,1403.28 2112.16,1403.28 
  2133.07,1403.28 2153.98,1403.28 2174.89,1403.28 2195.8,1403.28 2216.71,1403.28 2237.62,1403.28 2258.53,1403.28 2279.44,1403.28 2300.35,1403.28 2321.26,1403.28 
  
  "/>
<polyline clip-path="url(#clip3802)" style="stroke:#00a98d; stroke-width:4.8; stroke-opacity:1; fill:none" points="
  251.149,1403.28 272.059,1403.28 292.969,1403.28 313.879,1403.28 334.789,1403.28 355.7,1403.28 376.61,1403.28 397.52,1403.28 418.43,1403.28 439.34,1403.28 
  460.251,1403.28 481.161,1403.28 502.071,1403.28 522.981,1403.28 543.892,1403.28 564.802,1403.28 585.712,1403.28 606.622,1403.28 627.532,1403.28 648.443,1403.28 
  669.353,1403.28 690.263,1403.28 711.173,1403.28 732.083,1403.28 752.994,1403.28 773.904,1403.28 794.814,1403.28 815.724,1403.28 836.635,1403.28 857.545,1403.28 
  878.455,1403.28 899.365,1403.28 920.275,1403.28 941.186,1403.28 962.096,1403.28 983.006,1403.28 1003.92,1403.28 1024.83,1403.28 1045.74,1403.28 1066.65,1403.28 
  1087.56,1403.28 1108.47,1403.28 1129.38,1403.28 1150.29,1403.28 1171.2,1403.28 1192.11,1403.28 1213.02,1403.28 1233.93,1403.28 1254.84,1403.28 1275.75,1403.28 
  1296.66,1403.28 1317.57,1403.28 1338.48,1403.28 1359.39,1403.28 1380.3,1403.28 1401.21,1403.28 1422.12,1403.28 1443.03,1403.28 1463.94,1403.28 1484.85,1403.28 
  1505.76,1403.28 1526.67,1403.28 1547.58,1403.28 1568.49,1403.28 1589.4,1403.28 1610.31,1403.28 1631.22,1403.28 1652.13,1403.28 1673.04,1403.28 1693.95,1403.28 
  1714.86,1403.28 1735.77,1403.28 1756.68,1403.28 1777.59,1403.28 1798.5,1403.28 1819.41,1403.28 1840.32,1403.28 1861.24,1403.28 1882.15,1403.28 1903.06,1403.28 
  1923.97,1403.28 1944.88,1403.28 1965.79,1403.28 1986.7,1403.28 2007.61,1403.28 2028.52,1403.28 2049.43,1403.28 2070.34,1403.28 2091.25,1403.28 2112.16,1403.28 
  2133.07,1403.28 2153.98,1403.28 2174.89,1403.28 2195.8,1403.28 2216.71,1403.28 2237.62,1403.28 2258.53,1403.28 2279.44,1403.28 2300.35,1403.28 2321.26,1403.28 
  
  "/>
<polyline clip-path="url(#clip3802)" style="stroke:#8e971d; stroke-width:4.8; stroke-opacity:1; fill:none" points="
  251.149,1403.28 272.059,1403.28 292.969,1403.28 313.879,1403.28 334.789,1403.28 355.7,1403.28 376.61,1403.28 397.52,1403.28 418.43,1403.28 439.34,1403.28 
  460.251,1403.28 481.161,1403.28 502.071,1403.28 522.981,1403.28 543.892,1403.28 564.802,1403.28 585.712,1403.28 606.622,1403.28 627.532,1403.28 648.443,1403.28 
  669.353,1403.28 690.263,1403.28 711.173,1403.28 732.083,1403.28 752.994,1403.28 773.904,1403.28 794.814,1403.28 815.724,1403.28 836.635,1403.28 857.545,1403.28 
  878.455,1403.28 899.365,1403.28 920.275,1403.28 941.186,1403.28 962.096,1403.28 983.006,1403.28 1003.92,1403.28 1024.83,1403.28 1045.74,1403.28 1066.65,1403.28 
  1087.56,1403.28 1108.47,1403.28 1129.38,1403.28 1150.29,1403.28 1171.2,1403.28 1192.11,1403.28 1213.02,1403.28 1233.93,1403.28 1254.84,1403.28 1275.75,1403.28 
  1296.66,1403.28 1317.57,1403.28 1338.48,1403.28 1359.39,1403.28 1380.3,1403.28 1401.21,1403.28 1422.12,1403.28 1443.03,1403.28 1463.94,1403.28 1484.85,1403.28 
  1505.76,1403.28 1526.67,1403.28 1547.58,1403.28 1568.49,1403.28 1589.4,1403.28 1610.31,1403.28 1631.22,1403.28 1652.13,1403.28 1673.04,1403.28 1693.95,1403.28 
  1714.86,1403.28 1735.77,1403.28 1756.68,1403.28 1777.59,1403.28 1798.5,1403.28 1819.41,1403.28 1840.32,1403.28 1861.24,1403.28 1882.15,1403.28 1903.06,1403.28 
  1923.97,1403.28 1944.88,1403.28 1965.79,1403.28 1986.7,1403.28 2007.61,1403.28 2028.52,1403.28 2049.43,1403.28 2070.34,1403.28 2091.25,1403.28 2112.16,1403.28 
  2133.07,1403.28 2153.98,1403.28 2174.89,1403.28 2195.8,1403.28 2216.71,1403.28 2237.62,1403.28 2258.53,1403.28 2279.44,1403.28 2300.35,1403.28 2321.26,1403.28 
  
  "/>
<polyline clip-path="url(#clip3802)" style="stroke:#00a8cb; stroke-width:4.8; stroke-opacity:1; fill:none" points="
  251.149,1403.28 272.059,1403.28 292.969,1403.28 313.879,1403.28 334.789,1403.28 355.7,1403.28 376.61,1403.28 397.52,1403.28 418.43,1403.28 439.34,1403.28 
  460.251,1403.28 481.161,1403.28 502.071,1403.28 522.981,1403.28 543.892,1403.28 564.802,1403.28 585.712,1403.28 606.622,1403.28 627.532,1403.28 648.443,1403.28 
  669.353,1403.28 690.263,1403.28 711.173,1403.28 732.083,1403.28 752.994,1403.28 773.904,1403.28 794.814,1403.28 815.724,1403.28 836.635,1403.28 857.545,1403.28 
  878.455,1403.28 899.365,1403.28 920.275,1403.28 941.186,1403.28 962.096,1403.28 983.006,1403.28 1003.92,1403.28 1024.83,1403.28 1045.74,1403.28 1066.65,1403.28 
  1087.56,1403.28 1108.47,1403.28 1129.38,1403.28 1150.29,1403.28 1171.2,1403.28 1192.11,1403.28 1213.02,1403.28 1233.93,1403.28 1254.84,1403.28 1275.75,1403.28 
  1296.66,1403.28 1317.57,1403.28 1338.48,1403.28 1359.39,1403.28 1380.3,1403.28 1401.21,1403.28 1422.12,1403.28 1443.03,1403.28 1463.94,1403.28 1484.85,1403.28 
  1505.76,1403.28 1526.67,1403.28 1547.58,1403.28 1568.49,1403.28 1589.4,1403.28 1610.31,1403.28 1631.22,1403.28 1652.13,1403.28 1673.04,1403.28 1693.95,1403.28 
  1714.86,1403.28 1735.77,1403.28 1756.68,1403.28 1777.59,1403.28 1798.5,1403.28 1819.41,1403.28 1840.32,1403.28 1861.24,1403.28 1882.15,1403.28 1903.06,1403.28 
  1923.97,1403.28 1944.88,1403.28 1965.79,1403.28 1986.7,1403.28 2007.61,1403.28 2028.52,1403.28 2049.43,1403.28 2070.34,1403.28 2091.25,1403.28 2112.16,1403.28 
  2133.07,1403.28 2153.98,1403.28 2174.89,1403.28 2195.8,1403.28 2216.71,1403.28 2237.62,1403.28 2258.53,1403.28 2279.44,1403.28 2300.35,1403.28 2321.26,1403.28 
  
  "/>
<polyline clip-path="url(#clip3802)" style="stroke:#9b7fe8; stroke-width:4.8; stroke-opacity:1; fill:none" points="
  251.149,1403.28 272.059,1403.28 292.969,1403.28 313.879,1403.28 334.789,1403.28 355.7,1403.28 376.61,1403.28 397.52,1403.28 418.43,1403.28 439.34,1403.28 
  460.251,1403.28 481.161,1403.28 502.071,1403.28 522.981,1403.28 543.892,1403.28 564.802,1403.28 585.712,1403.28 606.622,1403.28 627.532,1403.28 648.443,1403.28 
  669.353,1403.28 690.263,1403.28 711.173,1403.28 732.083,1403.28 752.994,1403.28 773.904,1403.28 794.814,1403.28 815.724,1403.28 836.635,1403.28 857.545,1403.28 
  878.455,1403.28 899.365,1403.28 920.275,1403.28 941.186,1403.28 962.096,1403.28 983.006,1403.28 1003.92,1403.28 1024.83,1403.28 1045.74,1403.28 1066.65,1403.28 
  1087.56,1403.28 1108.47,1403.28 1129.38,1403.28 1150.29,1403.28 1171.2,1403.28 1192.11,1403.28 1213.02,1403.28 1233.93,1403.28 1254.84,1403.28 1275.75,1403.28 
  1296.66,1403.28 1317.57,1403.28 1338.48,1403.28 1359.39,1403.28 1380.3,1403.28 1401.21,1403.28 1422.12,1403.28 1443.03,1403.28 1463.94,1403.28 1484.85,1403.28 
  1505.76,1403.28 1526.67,1403.28 1547.58,1403.28 1568.49,1403.28 1589.4,1403.28 1610.31,1403.28 1631.22,1403.28 1652.13,1403.28 1673.04,1403.28 1693.95,1403.28 
  1714.86,1403.28 1735.77,1403.28 1756.68,1403.28 1777.59,1403.28 1798.5,1403.28 1819.41,1403.28 1840.32,1403.28 1861.24,1403.28 1882.15,1403.28 1903.06,1403.28 
  1923.97,1403.28 1944.88,1403.28 1965.79,1403.28 1986.7,1403.28 2007.61,1403.28 2028.52,1403.28 2049.43,1403.28 2070.34,1403.28 2091.25,1403.28 2112.16,1403.28 
  2133.07,1403.28 2153.98,1403.28 2174.89,1403.28 2195.8,1403.28 2216.71,1403.28 2237.62,1403.28 2258.53,1403.28 2279.44,1403.28 2300.35,1403.28 2321.26,1403.28 
  
  "/>
<polyline clip-path="url(#clip3802)" style="stroke:#608cf6; stroke-width:4.8; stroke-opacity:1; fill:none" points="
  251.149,1403.28 272.059,1403.28 292.969,1403.28 313.879,1403.28 334.789,1403.28 355.7,1403.28 376.61,1403.28 397.52,1403.28 418.43,1403.28 439.34,1403.28 
  460.251,1403.28 481.161,1403.28 502.071,1403.28 522.981,1403.28 543.892,1403.28 564.802,1403.28 585.712,1403.28 606.622,1403.28 627.532,1403.28 648.443,1403.28 
  669.353,1403.28 690.263,1403.28 711.173,1403.28 732.083,1403.28 752.994,1403.28 773.904,1403.28 794.814,1403.28 815.724,1403.28 836.635,1403.28 857.545,1403.28 
  878.455,1403.28 899.365,1403.28 920.275,1403.28 941.186,1403.28 962.096,1403.28 983.006,1403.28 1003.92,1403.28 1024.83,1403.28 1045.74,1403.28 1066.65,1403.28 
  1087.56,1403.28 1108.47,1403.28 1129.38,1403.28 1150.29,1403.28 1171.2,1403.28 1192.11,1403.28 1213.02,1403.28 1233.93,1403.28 1254.84,1403.28 1275.75,1403.28 
  1296.66,1403.28 1317.57,1403.28 1338.48,1403.28 1359.39,1403.28 1380.3,1403.28 1401.21,1403.28 1422.12,1403.28 1443.03,1403.28 1463.94,1403.28 1484.85,1403.28 
  1505.76,1403.28 1526.67,1403.28 1547.58,1403.28 1568.49,1403.28 1589.4,1403.28 1610.31,1403.28 1631.22,1403.28 1652.13,1403.28 1673.04,1403.28 1693.95,1403.28 
  1714.86,1403.28 1735.77,1403.28 1756.68,1403.28 1777.59,1403.28 1798.5,1403.28 1819.41,1403.28 1840.32,1403.28 1861.24,1403.28 1882.15,1403.28 1903.06,1403.28 
  1923.97,1403.28 1944.88,1403.28 1965.79,1403.28 1986.7,1403.28 2007.61,1403.28 2028.52,1403.28 2049.43,1403.28 2070.34,1403.28 2091.25,1403.28 2112.16,1403.28 
  2133.07,1403.28 2153.98,1403.28 2174.89,1403.28 2195.8,1403.28 2216.71,1403.28 2237.62,1403.28 2258.53,1403.28 2279.44,1403.28 2300.35,1403.28 2321.26,1403.28 
  
  "/>
<polyline clip-path="url(#clip3802)" style="stroke:#f05f73; stroke-width:4.8; stroke-opacity:1; fill:none" points="
  251.149,1403.28 272.059,1403.28 292.969,1403.28 313.879,1403.28 334.789,1403.28 355.7,1403.28 376.61,1403.28 397.52,1403.28 418.43,1403.28 439.34,1403.28 
  460.251,1403.28 481.161,1403.28 502.071,1403.28 522.981,1403.28 543.892,1403.28 564.802,1403.28 585.712,1403.28 606.622,1403.28 627.532,1403.28 648.443,1403.28 
  669.353,1403.28 690.263,1403.28 711.173,1403.28 732.083,1403.28 752.994,1403.28 773.904,1403.28 794.814,1403.28 815.724,1403.28 836.635,1403.28 857.545,1403.28 
  878.455,1403.28 899.365,1403.28 920.275,1403.28 941.186,1403.28 962.096,1403.28 983.006,1403.28 1003.92,1403.28 1024.83,1403.28 1045.74,1403.28 1066.65,1403.28 
  1087.56,1403.28 1108.47,1403.28 1129.38,1403.28 1150.29,1403.28 1171.2,1403.28 1192.11,1403.28 1213.02,1403.28 1233.93,1403.28 1254.84,1403.28 1275.75,1403.28 
  1296.66,1403.28 1317.57,1403.28 1338.48,1403.28 1359.39,1403.28 1380.3,1403.28 1401.21,1403.28 1422.12,1403.28 1443.03,1403.28 1463.94,1403.28 1484.85,1403.28 
  1505.76,1403.28 1526.67,1403.28 1547.58,1403.28 1568.49,1403.28 1589.4,1403.28 1610.31,1403.28 1631.22,1403.28 1652.13,1403.28 1673.04,1403.28 1693.95,1403.28 
  1714.86,1403.28 1735.77,1403.28 1756.68,1403.28 1777.59,1403.28 1798.5,1403.28 1819.41,1403.28 1840.32,1403.28 1861.24,1403.28 1882.15,1403.28 1903.06,1403.28 
  1923.97,1403.28 1944.88,1403.28 1965.79,1403.28 1986.7,1403.28 2007.61,1403.28 2028.52,1403.28 2049.43,1403.28 2070.34,1403.28 2091.25,1403.28 2112.16,1403.28 
  2133.07,1403.28 2153.98,1403.28 2174.89,1403.28 2195.8,1403.28 2216.71,1403.28 2237.62,1403.28 2258.53,1403.28 2279.44,1403.28 2300.35,1403.28 2321.26,1403.28 
  
  "/>
<polyline clip-path="url(#clip3802)" style="stroke:#dd64b5; stroke-width:4.8; stroke-opacity:1; fill:none" points="
  251.149,1403.28 272.059,1403.28 292.969,1403.28 313.879,1403.28 334.789,1403.28 355.7,1403.28 376.61,1403.28 397.52,1403.28 418.43,1403.28 439.34,1403.28 
  460.251,1403.28 481.161,1403.28 502.071,1403.28 522.981,1403.28 543.892,1403.28 564.802,1403.28 585.712,1403.28 606.622,1403.28 627.532,1403.28 648.443,1403.28 
  669.353,1403.28 690.263,1403.28 711.173,1403.28 732.083,1403.28 752.994,1403.28 773.904,1403.28 794.814,1403.28 815.724,1403.28 836.635,1403.28 857.545,1403.28 
  878.455,1403.28 899.365,1403.28 920.275,1403.28 941.186,1403.28 962.096,1403.28 983.006,1403.28 1003.92,1403.28 1024.83,1403.28 1045.74,1403.28 1066.65,1403.28 
  1087.56,1403.28 1108.47,1403.28 1129.38,1403.28 1150.29,1403.28 1171.2,1403.28 1192.11,1403.28 1213.02,1403.28 1233.93,1403.28 1254.84,1403.28 1275.75,1403.28 
  1296.66,1403.28 1317.57,1403.28 1338.48,1403.28 1359.39,1403.28 1380.3,1403.28 1401.21,1403.28 1422.12,1403.28 1443.03,1403.28 1463.94,1403.28 1484.85,1403.28 
  1505.76,1403.28 1526.67,1403.28 1547.58,1403.28 1568.49,1403.28 1589.4,1403.28 1610.31,1403.28 1631.22,1403.28 1652.13,1403.28 1673.04,1403.28 1693.95,1403.28 
  1714.86,1403.28 1735.77,1403.28 1756.68,1403.28 1777.59,1403.28 1798.5,1403.28 1819.41,1403.28 1840.32,1403.28 1861.24,1403.28 1882.15,1403.28 1903.06,1403.28 
  1923.97,1403.28 1944.88,1403.28 1965.79,1403.28 1986.7,1403.28 2007.61,1403.28 2028.52,1403.28 2049.43,1403.28 2070.34,1403.28 2091.25,1403.28 2112.16,1403.28 
  2133.07,1403.28 2153.98,1403.28 2174.89,1403.28 2195.8,1403.28 2216.71,1403.28 2237.62,1403.28 2258.53,1403.28 2279.44,1403.28 2300.35,1403.28 2321.26,1403.28 
  
  "/>
<polyline clip-path="url(#clip3802)" style="stroke:#6b9e32; stroke-width:4.8; stroke-opacity:1; fill:none" points="
  251.149,1403.28 272.059,1403.28 292.969,1403.28 313.879,1403.28 334.789,1403.28 355.7,1403.28 376.61,1403.28 397.52,1403.28 418.43,1403.28 439.34,1403.28 
  460.251,1403.28 481.161,1403.28 502.071,1403.28 522.981,1403.28 543.892,1403.28 564.802,1403.28 585.712,1403.28 606.622,1403.28 627.532,1403.28 648.443,1403.28 
  669.353,1403.28 690.263,1403.28 711.173,1403.28 732.083,1403.28 752.994,1403.28 773.904,1403.28 794.814,1403.28 815.724,1403.28 836.635,1403.28 857.545,1403.28 
  878.455,1403.28 899.365,1403.28 920.275,1403.28 941.186,1403.28 962.096,1403.28 983.006,1403.28 1003.92,1403.28 1024.83,1403.28 1045.74,1403.28 1066.65,1403.28 
  1087.56,1403.28 1108.47,1403.28 1129.38,1403.28 1150.29,1403.28 1171.2,1403.28 1192.11,1403.28 1213.02,1403.28 1233.93,1403.28 1254.84,1403.28 1275.75,1403.28 
  1296.66,1403.28 1317.57,1403.28 1338.48,1403.28 1359.39,1403.28 1380.3,1403.28 1401.21,1403.28 1422.12,1403.28 1443.03,1403.28 1463.94,1403.28 1484.85,1403.28 
  1505.76,1403.28 1526.67,1403.28 1547.58,1403.28 1568.49,1403.28 1589.4,1403.28 1610.31,1403.28 1631.22,1403.28 1652.13,1403.28 1673.04,1403.28 1693.95,1403.28 
  1714.86,1403.28 1735.77,1403.28 1756.68,1403.28 1777.59,1403.28 1798.5,1403.28 1819.41,1403.28 1840.32,1403.28 1861.24,1403.28 1882.15,1403.28 1903.06,1403.28 
  1923.97,1403.28 1944.88,1403.28 1965.79,1403.28 1986.7,1403.28 2007.61,1403.28 2028.52,1403.28 2049.43,1403.28 2070.34,1403.28 2091.25,1403.28 2112.16,1403.28 
  2133.07,1403.28 2153.98,1403.28 2174.89,1403.28 2195.8,1403.28 2216.71,1403.28 2237.62,1403.28 2258.53,1403.28 2279.44,1403.28 2300.35,1403.28 2321.26,1403.28 
  
  "/>
<polyline clip-path="url(#clip3802)" style="stroke:#718c69; stroke-width:4.8; stroke-opacity:1; fill:none" points="
  251.149,1403.28 272.059,1403.28 292.969,1403.28 313.879,1403.28 334.789,1403.28 355.7,1403.28 376.61,1403.28 397.52,1403.28 418.43,1403.28 439.34,1403.28 
  460.251,1403.28 481.161,1403.28 502.071,1403.28 522.981,1403.28 543.892,1403.28 564.802,1403.28 585.712,1403.28 606.622,1403.28 627.532,1403.28 648.443,1403.28 
  669.353,1403.28 690.263,1403.28 711.173,1403.28 732.083,1403.28 752.994,1403.28 773.904,1403.28 794.814,1403.28 815.724,1403.28 836.635,1403.28 857.545,1403.28 
  878.455,1403.28 899.365,1403.28 920.275,1403.28 941.186,1403.28 962.096,1403.28 983.006,1403.28 1003.92,1403.28 1024.83,1403.28 1045.74,1403.28 1066.65,1403.28 
  1087.56,1403.28 1108.47,1403.28 1129.38,1403.28 1150.29,1403.28 1171.2,1403.28 1192.11,1403.28 1213.02,1403.28 1233.93,1403.28 1254.84,1403.28 1275.75,1403.28 
  1296.66,1403.28 1317.57,1403.28 1338.48,1403.28 1359.39,1403.28 1380.3,1403.28 1401.21,1403.28 1422.12,1403.28 1443.03,1403.28 1463.94,1403.28 1484.85,1403.28 
  1505.76,1403.28 1526.67,1403.28 1547.58,1403.28 1568.49,1403.28 1589.4,1403.28 1610.31,1403.28 1631.22,1403.28 1652.13,1403.28 1673.04,1403.28 1693.95,1403.28 
  1714.86,1403.28 1735.77,1403.28 1756.68,1403.28 1777.59,1403.28 1798.5,1403.28 1819.41,1403.28 1840.32,1403.28 1861.24,1403.28 1882.15,1403.28 1903.06,1403.28 
  1923.97,1403.28 1944.88,1403.28 1965.79,1403.28 1986.7,1403.28 2007.61,1403.28 2028.52,1403.28 2049.43,1403.28 2070.34,1403.28 2091.25,1403.28 2112.16,1403.28 
  2133.07,1403.28 2153.98,1403.28 2174.89,1403.28 2195.8,1403.28 2216.71,1403.28 2237.62,1403.28 2258.53,1403.28 2279.44,1403.28 2300.35,1403.28 2321.26,1403.28 
  
  "/>
<polyline clip-path="url(#clip3802)" style="stroke:#47988b; stroke-width:4.8; stroke-opacity:1; fill:none" points="
  251.149,1394.8 272.059,1403.28 292.969,1403.28 313.879,1403.28 334.789,1403.28 355.7,1403.28 376.61,1403.28 397.52,1403.28 418.43,1403.28 439.34,1403.28 
  460.251,1403.28 481.161,1403.28 502.071,1403.28 522.981,1403.28 543.892,1403.28 564.802,1403.28 585.712,1403.28 606.622,1403.28 627.532,1403.28 648.443,1403.28 
  669.353,1403.28 690.263,1403.28 711.173,1403.28 732.083,1403.28 752.994,1403.28 773.904,1403.28 794.814,1403.28 815.724,1403.28 836.635,1403.28 857.545,1403.28 
  878.455,1403.28 899.365,1403.28 920.275,1403.28 941.186,1403.28 962.096,1403.28 983.006,1403.28 1003.92,1403.28 1024.83,1403.28 1045.74,1403.28 1066.65,1403.28 
  1087.56,1403.28 1108.47,1403.28 1129.38,1403.28 1150.29,1403.28 1171.2,1403.28 1192.11,1403.28 1213.02,1403.28 1233.93,1403.28 1254.84,1403.28 1275.75,1403.28 
  1296.66,1403.28 1317.57,1403.28 1338.48,1403.28 1359.39,1403.28 1380.3,1403.28 1401.21,1403.28 1422.12,1403.28 1443.03,1403.28 1463.94,1403.28 1484.85,1403.28 
  1505.76,1403.28 1526.67,1403.28 1547.58,1403.28 1568.49,1403.28 1589.4,1403.28 1610.31,1403.28 1631.22,1403.28 1652.13,1403.28 1673.04,1403.28 1693.95,1403.28 
  1714.86,1403.28 1735.77,1403.28 1756.68,1403.28 1777.59,1403.28 1798.5,1403.28 1819.41,1403.28 1840.32,1403.28 1861.24,1403.28 1882.15,1403.28 1903.06,1403.28 
  1923.97,1403.28 1944.88,1403.28 1965.79,1403.28 1986.7,1403.28 2007.61,1403.28 2028.52,1403.28 2049.43,1403.28 2070.34,1403.28 2091.25,1403.28 2112.16,1403.28 
  2133.07,1403.28 2153.98,1403.28 2174.89,1403.28 2195.8,1403.28 2216.71,1403.28 2237.62,1403.28 2258.53,1403.28 2279.44,1403.28 2300.35,1403.28 2321.26,1403.28 
  
  "/>
<polyline clip-path="url(#clip3802)" style="stroke:#1ea68c; stroke-width:4.8; stroke-opacity:1; fill:none" points="
  251.149,1403.28 272.059,1403.28 292.969,1403.28 313.879,1403.28 334.789,1403.28 355.7,1403.28 376.61,1403.28 397.52,1403.28 418.43,1403.28 439.34,1403.28 
  460.251,1403.28 481.161,1403.28 502.071,1403.28 522.981,1403.28 543.892,1403.28 564.802,1403.28 585.712,1403.28 606.622,1403.28 627.532,1403.28 648.443,1403.28 
  669.353,1403.28 690.263,1403.28 711.173,1403.28 732.083,1403.28 752.994,1403.28 773.904,1403.28 794.814,1403.28 815.724,1403.28 836.635,1403.28 857.545,1403.28 
  878.455,1403.28 899.365,1403.28 920.275,1403.28 941.186,1403.28 962.096,1403.28 983.006,1403.28 1003.92,1403.28 1024.83,1403.28 1045.74,1403.28 1066.65,1403.28 
  1087.56,1403.28 1108.47,1403.28 1129.38,1403.28 1150.29,1403.28 1171.2,1403.28 1192.11,1403.28 1213.02,1403.28 1233.93,1403.28 1254.84,1403.28 1275.75,1403.28 
  1296.66,1403.28 1317.57,1403.28 1338.48,1403.28 1359.39,1403.28 1380.3,1403.28 1401.21,1403.28 1422.12,1403.28 1443.03,1403.28 1463.94,1403.28 1484.85,1403.28 
  1505.76,1403.28 1526.67,1403.28 1547.58,1403.28 1568.49,1403.28 1589.4,1403.28 1610.31,1403.28 1631.22,1403.28 1652.13,1403.28 1673.04,1403.28 1693.95,1403.28 
  1714.86,1403.28 1735.77,1403.28 1756.68,1403.28 1777.59,1403.28 1798.5,1403.28 1819.41,1403.28 1840.32,1403.28 1861.24,1403.28 1882.15,1403.28 1903.06,1403.28 
  1923.97,1403.28 1944.88,1403.28 1965.79,1403.28 1986.7,1403.28 2007.61,1403.28 2028.52,1403.28 2049.43,1403.28 2070.34,1403.28 2091.25,1403.28 2112.16,1403.28 
  2133.07,1403.28 2153.98,1403.28 2174.89,1403.28 2195.8,1403.28 2216.71,1403.28 2237.62,1403.28 2258.53,1403.28 2279.44,1403.28 2300.35,1403.28 2321.26,1403.28 
  
  "/>
<polyline clip-path="url(#clip3802)" style="stroke:#af78dd; stroke-width:4.8; stroke-opacity:1; fill:none" points="
  251.149,1403.28 272.059,1403.28 292.969,1403.28 313.879,1403.28 334.789,1403.28 355.7,1403.28 376.61,1403.28 397.52,1403.28 418.43,1403.28 439.34,1403.28 
  460.251,1403.28 481.161,1403.28 502.071,1403.28 522.981,1403.28 543.892,1403.28 564.802,1403.28 585.712,1403.28 606.622,1403.28 627.532,1403.28 648.443,1403.28 
  669.353,1403.28 690.263,1403.28 711.173,1403.28 732.083,1403.28 752.994,1403.28 773.904,1403.28 794.814,1403.28 815.724,1403.28 836.635,1403.28 857.545,1403.28 
  878.455,1403.28 899.365,1403.28 920.275,1403.28 941.186,1403.28 962.096,1403.28 983.006,1403.28 1003.92,1403.28 1024.83,1403.28 1045.74,1403.28 1066.65,1403.28 
  1087.56,1403.28 1108.47,1403.28 1129.38,1403.28 1150.29,1403.28 1171.2,1403.28 1192.11,1403.28 1213.02,1403.28 1233.93,1403.28 1254.84,1403.28 1275.75,1403.28 
  1296.66,1403.28 1317.57,1403.28 1338.48,1403.28 1359.39,1403.28 1380.3,1403.28 1401.21,1403.28 1422.12,1403.28 1443.03,1403.28 1463.94,1403.28 1484.85,1403.28 
  1505.76,1403.28 1526.67,1403.28 1547.58,1403.28 1568.49,1403.28 1589.4,1403.28 1610.31,1403.28 1631.22,1403.28 1652.13,1403.28 1673.04,1403.28 1693.95,1403.28 
  1714.86,1403.28 1735.77,1403.28 1756.68,1403.28 1777.59,1403.28 1798.5,1403.28 1819.41,1403.28 1840.32,1403.28 1861.24,1403.28 1882.15,1403.28 1903.06,1403.28 
  1923.97,1403.28 1944.88,1403.28 1965.79,1403.28 1986.7,1403.28 2007.61,1403.28 2028.52,1403.28 2049.43,1403.28 2070.34,1403.28 2091.25,1403.28 2112.16,1403.28 
  2133.07,1403.28 2153.98,1403.28 2174.89,1403.28 2195.8,1403.28 2216.71,1403.28 2237.62,1403.28 2258.53,1403.28 2279.44,1403.28 2300.35,1403.28 2321.26,1403.28 
  
  "/>
<polyline clip-path="url(#clip3802)" style="stroke:#868d87; stroke-width:4.8; stroke-opacity:1; fill:none" points="
  251.149,1403.28 272.059,1403.28 292.969,1403.28 313.879,1403.28 334.789,1403.28 355.7,1403.28 376.61,1403.28 397.52,1403.28 418.43,1403.28 439.34,1403.28 
  460.251,1403.28 481.161,1403.28 502.071,1403.28 522.981,1403.28 543.892,1403.28 564.802,1403.28 585.712,1403.28 606.622,1403.28 627.532,1403.28 648.443,1403.28 
  669.353,1403.28 690.263,1403.28 711.173,1403.28 732.083,1403.28 752.994,1403.28 773.904,1403.28 794.814,1403.28 815.724,1403.28 836.635,1403.28 857.545,1403.28 
  878.455,1403.28 899.365,1403.28 920.275,1403.28 941.186,1403.28 962.096,1403.28 983.006,1403.28 1003.92,1403.28 1024.83,1403.28 1045.74,1403.28 1066.65,1403.28 
  1087.56,1403.28 1108.47,1403.28 1129.38,1403.28 1150.29,1403.28 1171.2,1403.28 1192.11,1403.28 1213.02,1403.28 1233.93,1403.28 1254.84,1403.28 1275.75,1403.28 
  1296.66,1403.28 1317.57,1403.28 1338.48,1403.28 1359.39,1403.28 1380.3,1403.28 1401.21,1403.28 1422.12,1403.28 1443.03,1403.28 1463.94,1403.28 1484.85,1403.28 
  1505.76,1403.28 1526.67,1403.28 1547.58,1403.28 1568.49,1403.28 1589.4,1403.28 1610.31,1403.28 1631.22,1403.28 1652.13,1403.28 1673.04,1403.28 1693.95,1403.28 
  1714.86,1403.28 1735.77,1403.28 1756.68,1403.28 1777.59,1403.28 1798.5,1403.28 1819.41,1403.28 1840.32,1403.28 1861.24,1403.28 1882.15,1403.28 1903.06,1403.28 
  1923.97,1403.28 1944.88,1403.28 1965.79,1403.28 1986.7,1403.28 2007.61,1403.28 2028.52,1403.28 2049.43,1403.28 2070.34,1403.28 2091.25,1403.28 2112.16,1403.28 
  2133.07,1403.28 2153.98,1403.28 2174.89,1403.28 2195.8,1403.28 2216.71,1403.28 2237.62,1403.28 2258.53,1403.28 2279.44,1403.28 2300.35,1403.28 2321.26,1403.28 
  
  "/>
<polyline clip-path="url(#clip3802)" style="stroke:#47a065; stroke-width:4.8; stroke-opacity:1; fill:none" points="
  251.149,1403.28 272.059,1403.28 292.969,1403.28 313.879,1403.28 334.789,1403.28 355.7,1403.28 376.61,1403.28 397.52,1403.28 418.43,1403.28 439.34,1403.28 
  460.251,1403.28 481.161,1403.28 502.071,1403.28 522.981,1403.28 543.892,1403.28 564.802,1403.28 585.712,1403.28 606.622,1403.28 627.532,1403.28 648.443,1403.28 
  669.353,1403.28 690.263,1403.28 711.173,1403.28 732.083,1403.28 752.994,1403.28 773.904,1403.28 794.814,1403.28 815.724,1403.28 836.635,1403.28 857.545,1403.28 
  878.455,1403.28 899.365,1403.28 920.275,1403.28 941.186,1403.28 962.096,1403.28 983.006,1403.28 1003.92,1403.28 1024.83,1403.28 1045.74,1403.28 1066.65,1403.28 
  1087.56,1403.28 1108.47,1403.28 1129.38,1403.28 1150.29,1403.28 1171.2,1403.28 1192.11,1403.28 1213.02,1403.28 1233.93,1403.28 1254.84,1403.28 1275.75,1403.28 
  1296.66,1403.28 1317.57,1403.28 1338.48,1403.28 1359.39,1403.28 1380.3,1403.28 1401.21,1403.28 1422.12,1403.28 1443.03,1403.28 1463.94,1403.28 1484.85,1403.28 
  1505.76,1403.28 1526.67,1403.28 1547.58,1403.28 1568.49,1403.28 1589.4,1403.28 1610.31,1403.28 1631.22,1403.28 1652.13,1403.28 1673.04,1403.28 1693.95,1403.28 
  1714.86,1403.28 1735.77,1403.28 1756.68,1403.28 1777.59,1403.28 1798.5,1403.28 1819.41,1403.28 1840.32,1403.28 1861.24,1403.28 1882.15,1403.28 1903.06,1403.28 
  1923.97,1403.28 1944.88,1403.28 1965.79,1403.28 1986.7,1403.28 2007.61,1403.28 2028.52,1403.28 2049.43,1403.28 2070.34,1403.28 2091.25,1403.28 2112.16,1403.28 
  2133.07,1403.28 2153.98,1403.28 2174.89,1403.28 2195.8,1403.28 2216.71,1403.28 2237.62,1403.28 2258.53,1403.28 2279.44,1403.28 2300.35,1403.28 2321.26,1403.28 
  
  "/>
<polyline clip-path="url(#clip3802)" style="stroke:#7683af; stroke-width:4.8; stroke-opacity:1; fill:none" points="
  251.149,1403.26 272.059,1403.28 292.969,1403.28 313.879,1403.28 334.789,1403.28 355.7,1403.28 376.61,1403.28 397.52,1403.28 418.43,1403.28 439.34,1403.28 
  460.251,1403.28 481.161,1403.28 502.071,1403.28 522.981,1403.28 543.892,1403.28 564.802,1403.28 585.712,1403.28 606.622,1403.28 627.532,1403.28 648.443,1403.28 
  669.353,1403.28 690.263,1403.28 711.173,1403.28 732.083,1403.28 752.994,1403.28 773.904,1403.28 794.814,1403.28 815.724,1403.28 836.635,1403.28 857.545,1403.28 
  878.455,1403.28 899.365,1403.28 920.275,1403.28 941.186,1403.28 962.096,1403.28 983.006,1403.28 1003.92,1403.28 1024.83,1403.28 1045.74,1403.28 1066.65,1403.28 
  1087.56,1403.28 1108.47,1403.28 1129.38,1403.28 1150.29,1403.28 1171.2,1403.28 1192.11,1403.28 1213.02,1403.28 1233.93,1403.28 1254.84,1403.28 1275.75,1403.28 
  1296.66,1403.28 1317.57,1403.28 1338.48,1403.28 1359.39,1403.28 1380.3,1403.28 1401.21,1403.28 1422.12,1403.28 1443.03,1403.28 1463.94,1403.28 1484.85,1403.28 
  1505.76,1403.28 1526.67,1403.28 1547.58,1403.28 1568.49,1403.28 1589.4,1403.28 1610.31,1403.28 1631.22,1403.28 1652.13,1403.28 1673.04,1403.28 1693.95,1403.28 
  1714.86,1403.28 1735.77,1403.28 1756.68,1403.28 1777.59,1403.28 1798.5,1403.28 1819.41,1403.28 1840.32,1403.28 1861.24,1403.28 1882.15,1403.28 1903.06,1403.28 
  1923.97,1403.28 1944.88,1403.28 1965.79,1403.28 1986.7,1403.28 2007.61,1403.28 2028.52,1403.28 2049.43,1403.28 2070.34,1403.28 2091.25,1403.28 2112.16,1403.28 
  2133.07,1403.28 2153.98,1403.28 2174.89,1403.28 2195.8,1403.28 2216.71,1403.28 2237.62,1403.28 2258.53,1403.28 2279.44,1403.28 2300.35,1403.28 2321.26,1403.28 
  
  "/>
<polyline clip-path="url(#clip3802)" style="stroke:#b08086; stroke-width:4.8; stroke-opacity:1; fill:none" points="
  251.149,1336.34 272.059,1403.28 292.969,1403.28 313.879,1403.28 334.789,1403.28 355.7,1403.28 376.61,1403.28 397.52,1403.28 418.43,1403.28 439.34,1403.28 
  460.251,1403.28 481.161,1403.28 502.071,1403.28 522.981,1403.28 543.892,1403.28 564.802,1403.28 585.712,1403.28 606.622,1403.28 627.532,1403.28 648.443,1403.28 
  669.353,1403.28 690.263,1403.28 711.173,1403.28 732.083,1403.28 752.994,1403.28 773.904,1403.28 794.814,1403.28 815.724,1403.28 836.635,1403.28 857.545,1403.28 
  878.455,1403.28 899.365,1403.28 920.275,1403.28 941.186,1403.28 962.096,1403.28 983.006,1403.28 1003.92,1403.28 1024.83,1403.28 1045.74,1403.28 1066.65,1403.28 
  1087.56,1403.28 1108.47,1403.28 1129.38,1403.28 1150.29,1403.28 1171.2,1403.28 1192.11,1403.28 1213.02,1403.28 1233.93,1403.28 1254.84,1403.28 1275.75,1403.28 
  1296.66,1403.28 1317.57,1403.28 1338.48,1403.28 1359.39,1403.28 1380.3,1403.28 1401.21,1403.28 1422.12,1403.28 1443.03,1403.28 1463.94,1403.28 1484.85,1403.28 
  1505.76,1403.28 1526.67,1403.28 1547.58,1403.28 1568.49,1403.28 1589.4,1403.28 1610.31,1403.28 1631.22,1403.28 1652.13,1403.28 1673.04,1403.28 1693.95,1403.28 
  1714.86,1403.28 1735.77,1403.28 1756.68,1403.28 1777.59,1403.28 1798.5,1403.28 1819.41,1403.28 1840.32,1403.28 1861.24,1403.28 1882.15,1403.28 1903.06,1403.28 
  1923.97,1403.28 1944.88,1403.28 1965.79,1403.28 1986.7,1403.28 2007.61,1403.28 2028.52,1403.28 2049.43,1403.28 2070.34,1403.28 2091.25,1403.28 2112.16,1403.28 
  2133.07,1403.28 2153.98,1403.28 2174.89,1403.28 2195.8,1403.28 2216.71,1403.28 2237.62,1403.28 2258.53,1403.28 2279.44,1403.28 2300.35,1403.28 2321.26,1403.28 
  
  "/>
<polyline clip-path="url(#clip3802)" style="stroke:#309ac1; stroke-width:4.8; stroke-opacity:1; fill:none" points="
  251.149,1403.28 272.059,1403.28 292.969,1403.28 313.879,1403.28 334.789,1403.28 355.7,1403.28 376.61,1403.28 397.52,1403.28 418.43,1403.28 439.34,1403.28 
  460.251,1403.28 481.161,1403.28 502.071,1403.28 522.981,1403.28 543.892,1403.28 564.802,1403.28 585.712,1403.28 606.622,1403.28 627.532,1403.28 648.443,1403.28 
  669.353,1403.28 690.263,1403.28 711.173,1403.28 732.083,1403.28 752.994,1403.28 773.904,1403.28 794.814,1403.28 815.724,1403.28 836.635,1403.28 857.545,1403.28 
  878.455,1403.28 899.365,1403.28 920.275,1403.28 941.186,1403.28 962.096,1403.28 983.006,1403.28 1003.92,1403.28 1024.83,1403.28 1045.74,1403.28 1066.65,1403.28 
  1087.56,1403.28 1108.47,1403.28 1129.38,1403.28 1150.29,1403.28 1171.2,1403.28 1192.11,1403.28 1213.02,1403.28 1233.93,1403.28 1254.84,1403.28 1275.75,1403.28 
  1296.66,1403.28 1317.57,1403.28 1338.48,1403.28 1359.39,1403.28 1380.3,1403.28 1401.21,1403.28 1422.12,1403.28 1443.03,1403.28 1463.94,1403.28 1484.85,1403.28 
  1505.76,1403.28 1526.67,1403.28 1547.58,1403.28 1568.49,1403.28 1589.4,1403.28 1610.31,1403.28 1631.22,1403.28 1652.13,1403.28 1673.04,1403.28 1693.95,1403.28 
  1714.86,1403.28 1735.77,1403.28 1756.68,1403.28 1777.59,1403.28 1798.5,1403.28 1819.41,1403.28 1840.32,1403.28 1861.24,1403.28 1882.15,1403.28 1903.06,1403.28 
  1923.97,1403.28 1944.88,1403.28 1965.79,1403.28 1986.7,1403.28 2007.61,1403.28 2028.52,1403.28 2049.43,1403.28 2070.34,1403.28 2091.25,1403.28 2112.16,1403.28 
  2133.07,1403.28 2153.98,1403.28 2174.89,1403.28 2195.8,1403.28 2216.71,1403.28 2237.62,1403.28 2258.53,1403.28 2279.44,1403.28 2300.35,1403.28 2321.26,1403.28 
  
  "/>
<polyline clip-path="url(#clip3802)" style="stroke:#788490; stroke-width:4.8; stroke-opacity:1; fill:none" points="
  251.149,1403.28 272.059,1403.28 292.969,1403.28 313.879,1403.28 334.789,1403.28 355.7,1403.28 376.61,1403.28 397.52,1403.28 418.43,1403.28 439.34,1403.28 
  460.251,1403.28 481.161,1403.28 502.071,1403.28 522.981,1403.28 543.892,1403.28 564.802,1403.28 585.712,1403.28 606.622,1403.28 627.532,1403.28 648.443,1403.28 
  669.353,1403.28 690.263,1403.28 711.173,1403.28 732.083,1403.28 752.994,1403.28 773.904,1403.28 794.814,1403.28 815.724,1403.28 836.635,1403.28 857.545,1403.28 
  878.455,1403.28 899.365,1403.28 920.275,1403.28 941.186,1403.28 962.096,1403.28 983.006,1403.28 1003.92,1403.28 1024.83,1403.28 1045.74,1403.28 1066.65,1403.28 
  1087.56,1403.28 1108.47,1403.28 1129.38,1403.28 1150.29,1403.28 1171.2,1403.28 1192.11,1403.28 1213.02,1403.28 1233.93,1403.28 1254.84,1403.28 1275.75,1403.28 
  1296.66,1403.28 1317.57,1403.28 1338.48,1403.28 1359.39,1403.28 1380.3,1403.28 1401.21,1403.28 1422.12,1403.28 1443.03,1403.28 1463.94,1403.28 1484.85,1403.28 
  1505.76,1403.28 1526.67,1403.28 1547.58,1403.28 1568.49,1403.28 1589.4,1403.28 1610.31,1403.28 1631.22,1403.28 1652.13,1403.28 1673.04,1403.28 1693.95,1403.28 
  1714.86,1403.28 1735.77,1403.28 1756.68,1403.28 1777.59,1403.28 1798.5,1403.28 1819.41,1403.28 1840.32,1403.28 1861.24,1403.28 1882.15,1403.28 1903.06,1403.28 
  1923.97,1403.28 1944.88,1403.28 1965.79,1403.28 1986.7,1403.28 2007.61,1403.28 2028.52,1403.28 2049.43,1403.28 2070.34,1403.28 2091.25,1403.28 2112.16,1403.28 
  2133.07,1403.28 2153.98,1403.28 2174.89,1403.28 2195.8,1403.28 2216.71,1403.28 2237.62,1403.28 2258.53,1403.28 2279.44,1403.28 2300.35,1403.28 2321.26,1403.28 
  
  "/>
<polyline clip-path="url(#clip3802)" style="stroke:#e561a4; stroke-width:4.8; stroke-opacity:1; fill:none" points="
  251.149,1366.82 272.059,1403.28 292.969,1403.28 313.879,1403.28 334.789,1403.28 355.7,1403.28 376.61,1403.28 397.52,1403.28 418.43,1403.28 439.34,1403.28 
  460.251,1403.28 481.161,1403.28 502.071,1403.28 522.981,1403.28 543.892,1403.28 564.802,1403.28 585.712,1403.28 606.622,1403.28 627.532,1403.28 648.443,1403.28 
  669.353,1403.28 690.263,1403.28 711.173,1403.28 732.083,1403.28 752.994,1403.28 773.904,1403.28 794.814,1403.28 815.724,1403.28 836.635,1403.28 857.545,1403.28 
  878.455,1403.28 899.365,1403.28 920.275,1403.28 941.186,1403.28 962.096,1403.28 983.006,1403.28 1003.92,1403.28 1024.83,1403.28 1045.74,1403.28 1066.65,1403.28 
  1087.56,1403.28 1108.47,1403.28 1129.38,1403.28 1150.29,1403.28 1171.2,1403.28 1192.11,1403.28 1213.02,1403.28 1233.93,1403.28 1254.84,1403.28 1275.75,1403.28 
  1296.66,1403.28 1317.57,1403.28 1338.48,1403.28 1359.39,1403.28 1380.3,1403.28 1401.21,1403.28 1422.12,1403.28 1443.03,1403.28 1463.94,1403.28 1484.85,1403.28 
  1505.76,1403.28 1526.67,1403.28 1547.58,1403.28 1568.49,1403.28 1589.4,1403.28 1610.31,1403.28 1631.22,1403.28 1652.13,1403.28 1673.04,1403.28 1693.95,1403.28 
  1714.86,1403.28 1735.77,1403.28 1756.68,1403.28 1777.59,1403.28 1798.5,1403.28 1819.41,1403.28 1840.32,1403.28 1861.24,1403.28 1882.15,1403.28 1903.06,1403.28 
  1923.97,1403.28 1944.88,1403.28 1965.79,1403.28 1986.7,1403.28 2007.61,1403.28 2028.52,1403.28 2049.43,1403.28 2070.34,1403.28 2091.25,1403.28 2112.16,1403.28 
  2133.07,1403.28 2153.98,1403.28 2174.89,1403.28 2195.8,1403.28 2216.71,1403.28 2237.62,1403.28 2258.53,1403.28 2279.44,1403.28 2300.35,1403.28 2321.26,1403.28 
  
  "/>
<polyline clip-path="url(#clip3802)" style="stroke:#99902c; stroke-width:4.8; stroke-opacity:1; fill:none" points="
  251.149,1401.02 272.059,1403.28 292.969,1403.28 313.879,1403.28 334.789,1403.28 355.7,1403.28 376.61,1403.28 397.52,1403.28 418.43,1403.28 439.34,1403.28 
  460.251,1403.28 481.161,1403.28 502.071,1403.28 522.981,1403.28 543.892,1403.28 564.802,1403.28 585.712,1403.28 606.622,1403.28 627.532,1403.28 648.443,1403.28 
  669.353,1403.28 690.263,1403.28 711.173,1403.28 732.083,1403.28 752.994,1403.28 773.904,1403.28 794.814,1403.28 815.724,1403.28 836.635,1403.28 857.545,1403.28 
  878.455,1403.28 899.365,1403.28 920.275,1403.28 941.186,1403.28 962.096,1403.28 983.006,1403.28 1003.92,1403.28 1024.83,1403.28 1045.74,1403.28 1066.65,1403.28 
  1087.56,1403.28 1108.47,1403.28 1129.38,1403.28 1150.29,1403.28 1171.2,1403.28 1192.11,1403.28 1213.02,1403.28 1233.93,1403.28 1254.84,1403.28 1275.75,1403.28 
  1296.66,1403.28 1317.57,1403.28 1338.48,1403.28 1359.39,1403.28 1380.3,1403.28 1401.21,1403.28 1422.12,1403.28 1443.03,1403.28 1463.94,1403.28 1484.85,1403.28 
  1505.76,1403.28 1526.67,1403.28 1547.58,1403.28 1568.49,1403.28 1589.4,1403.28 1610.31,1403.28 1631.22,1403.28 1652.13,1403.28 1673.04,1403.28 1693.95,1403.28 
  1714.86,1403.28 1735.77,1403.28 1756.68,1403.28 1777.59,1403.28 1798.5,1403.28 1819.41,1403.28 1840.32,1403.28 1861.24,1403.28 1882.15,1403.28 1903.06,1403.28 
  1923.97,1403.28 1944.88,1403.28 1965.79,1403.28 1986.7,1403.28 2007.61,1403.28 2028.52,1403.28 2049.43,1403.28 2070.34,1403.28 2091.25,1403.28 2112.16,1403.28 
  2133.07,1403.28 2153.98,1403.28 2174.89,1403.28 2195.8,1403.28 2216.71,1403.28 2237.62,1403.28 2258.53,1403.28 2279.44,1403.28 2300.35,1403.28 2321.26,1403.28 
  
  "/>
<polyline clip-path="url(#clip3802)" style="stroke:#389a7b; stroke-width:4.8; stroke-opacity:1; fill:none" points="
  251.149,1403.28 272.059,1403.28 292.969,1403.28 313.879,1403.28 334.789,1403.28 355.7,1403.28 376.61,1403.28 397.52,1403.28 418.43,1403.28 439.34,1403.28 
  460.251,1403.28 481.161,1403.28 502.071,1403.28 522.981,1403.28 543.892,1403.28 564.802,1403.28 585.712,1403.28 606.622,1403.28 627.532,1403.28 648.443,1403.28 
  669.353,1403.28 690.263,1403.28 711.173,1403.28 732.083,1403.28 752.994,1403.28 773.904,1403.28 794.814,1403.28 815.724,1403.28 836.635,1403.28 857.545,1403.28 
  878.455,1403.28 899.365,1403.28 920.275,1403.28 941.186,1403.28 962.096,1403.28 983.006,1403.28 1003.92,1403.28 1024.83,1403.28 1045.74,1403.28 1066.65,1403.28 
  1087.56,1403.28 1108.47,1403.28 1129.38,1403.28 1150.29,1403.28 1171.2,1403.28 1192.11,1403.28 1213.02,1403.28 1233.93,1403.28 1254.84,1403.28 1275.75,1403.28 
  1296.66,1403.28 1317.57,1403.28 1338.48,1403.28 1359.39,1403.28 1380.3,1403.28 1401.21,1403.28 1422.12,1403.28 1443.03,1403.28 1463.94,1403.28 1484.85,1403.28 
  1505.76,1403.28 1526.67,1403.28 1547.58,1403.28 1568.49,1403.28 1589.4,1403.28 1610.31,1403.28 1631.22,1403.28 1652.13,1403.28 1673.04,1403.28 1693.95,1403.28 
  1714.86,1403.28 1735.77,1403.28 1756.68,1403.28 1777.59,1403.28 1798.5,1403.28 1819.41,1403.28 1840.32,1403.28 1861.24,1403.28 1882.15,1403.28 1903.06,1403.28 
  1923.97,1403.28 1944.88,1403.28 1965.79,1403.28 1986.7,1403.28 2007.61,1403.28 2028.52,1403.28 2049.43,1403.28 2070.34,1403.28 2091.25,1403.28 2112.16,1403.28 
  2133.07,1403.28 2153.98,1403.28 2174.89,1403.28 2195.8,1403.28 2216.71,1403.28 2237.62,1403.28 2258.53,1403.28 2279.44,1403.28 2300.35,1403.28 2321.26,1403.28 
  
  "/>
<polyline clip-path="url(#clip3802)" style="stroke:#d968a2; stroke-width:4.8; stroke-opacity:1; fill:none" points="
  251.149,1403.28 272.059,1403.28 292.969,1403.28 313.879,1403.28 334.789,1403.28 355.7,1403.28 376.61,1403.28 397.52,1403.28 418.43,1403.28 439.34,1403.28 
  460.251,1403.28 481.161,1403.28 502.071,1403.28 522.981,1403.28 543.892,1403.28 564.802,1403.28 585.712,1403.28 606.622,1403.28 627.532,1403.28 648.443,1403.28 
  669.353,1403.28 690.263,1403.28 711.173,1403.28 732.083,1403.28 752.994,1403.28 773.904,1403.28 794.814,1403.28 815.724,1403.28 836.635,1403.28 857.545,1403.28 
  878.455,1403.28 899.365,1403.28 920.275,1403.28 941.186,1403.28 962.096,1403.28 983.006,1403.28 1003.92,1403.28 1024.83,1403.28 1045.74,1403.28 1066.65,1403.28 
  1087.56,1403.28 1108.47,1403.28 1129.38,1403.28 1150.29,1403.28 1171.2,1403.28 1192.11,1403.28 1213.02,1403.28 1233.93,1403.28 1254.84,1403.28 1275.75,1403.28 
  1296.66,1403.28 1317.57,1403.28 1338.48,1403.28 1359.39,1403.28 1380.3,1403.28 1401.21,1403.28 1422.12,1403.28 1443.03,1403.28 1463.94,1403.28 1484.85,1403.28 
  1505.76,1403.28 1526.67,1403.28 1547.58,1403.28 1568.49,1403.28 1589.4,1403.28 1610.31,1403.28 1631.22,1403.28 1652.13,1403.28 1673.04,1403.28 1693.95,1403.28 
  1714.86,1403.28 1735.77,1403.28 1756.68,1403.28 1777.59,1403.28 1798.5,1403.28 1819.41,1403.28 1840.32,1403.28 1861.24,1403.28 1882.15,1403.28 1903.06,1403.28 
  1923.97,1403.28 1944.88,1403.28 1965.79,1403.28 1986.7,1403.28 2007.61,1403.28 2028.52,1403.28 2049.43,1403.28 2070.34,1403.28 2091.25,1403.28 2112.16,1403.28 
  2133.07,1403.28 2153.98,1403.28 2174.89,1403.28 2195.8,1403.28 2216.71,1403.28 2237.62,1403.28 2258.53,1403.28 2279.44,1403.28 2300.35,1403.28 2321.26,1403.28 
  
  "/>
<polyline clip-path="url(#clip3802)" style="stroke:#009af9; stroke-width:4.8; stroke-opacity:1; fill:none" points="
  251.149,1398.43 272.059,1403.28 292.969,1403.28 313.879,1403.28 334.789,1403.28 355.7,1403.28 376.61,1403.28 397.52,1403.28 418.43,1403.28 439.34,1403.28 
  460.251,1403.28 481.161,1403.28 502.071,1403.28 522.981,1403.28 543.892,1403.28 564.802,1403.28 585.712,1403.28 606.622,1403.28 627.532,1403.28 648.443,1403.28 
  669.353,1403.28 690.263,1403.28 711.173,1403.28 732.083,1403.28 752.994,1403.28 773.904,1403.28 794.814,1403.28 815.724,1403.28 836.635,1403.28 857.545,1403.28 
  878.455,1403.28 899.365,1403.28 920.275,1403.28 941.186,1403.28 962.096,1403.28 983.006,1403.28 1003.92,1403.28 1024.83,1403.28 1045.74,1403.28 1066.65,1403.28 
  1087.56,1403.28 1108.47,1403.28 1129.38,1403.28 1150.29,1403.28 1171.2,1403.28 1192.11,1403.28 1213.02,1403.28 1233.93,1403.28 1254.84,1403.28 1275.75,1403.28 
  1296.66,1403.28 1317.57,1403.28 1338.48,1403.28 1359.39,1403.28 1380.3,1403.28 1401.21,1403.28 1422.12,1403.28 1443.03,1403.28 1463.94,1403.28 1484.85,1403.28 
  1505.76,1403.28 1526.67,1403.28 1547.58,1403.28 1568.49,1403.28 1589.4,1403.28 1610.31,1403.28 1631.22,1403.28 1652.13,1403.28 1673.04,1403.28 1693.95,1403.28 
  1714.86,1403.28 1735.77,1403.28 1756.68,1403.28 1777.59,1403.28 1798.5,1403.28 1819.41,1403.28 1840.32,1403.28 1861.24,1403.28 1882.15,1403.28 1903.06,1403.28 
  1923.97,1403.28 1944.88,1403.28 1965.79,1403.28 1986.7,1403.28 2007.61,1403.28 2028.52,1403.28 2049.43,1403.28 2070.34,1403.28 2091.25,1403.28 2112.16,1403.28 
  2133.07,1403.28 2153.98,1403.28 2174.89,1403.28 2195.8,1403.28 2216.71,1403.28 2237.62,1403.28 2258.53,1403.28 2279.44,1403.28 2300.35,1403.28 2321.26,1403.28 
  
  "/>
<polyline clip-path="url(#clip3802)" style="stroke:#e26f46; stroke-width:4.8; stroke-opacity:1; fill:none" points="
  251.149,1403.28 272.059,1403.28 292.969,1403.28 313.879,1403.28 334.789,1403.28 355.7,1403.28 376.61,1403.28 397.52,1403.28 418.43,1403.28 439.34,1403.28 
  460.251,1403.28 481.161,1403.28 502.071,1403.28 522.981,1403.28 543.892,1403.28 564.802,1403.28 585.712,1403.28 606.622,1403.28 627.532,1403.28 648.443,1403.28 
  669.353,1403.28 690.263,1403.28 711.173,1403.28 732.083,1403.28 752.994,1403.28 773.904,1403.28 794.814,1403.28 815.724,1403.28 836.635,1403.28 857.545,1403.28 
  878.455,1403.28 899.365,1403.28 920.275,1403.28 941.186,1403.28 962.096,1403.28 983.006,1403.28 1003.92,1403.28 1024.83,1403.28 1045.74,1403.28 1066.65,1403.28 
  1087.56,1403.28 1108.47,1403.28 1129.38,1403.28 1150.29,1403.28 1171.2,1403.28 1192.11,1403.28 1213.02,1403.28 1233.93,1403.28 1254.84,1403.28 1275.75,1403.28 
  1296.66,1403.28 1317.57,1403.28 1338.48,1403.28 1359.39,1403.28 1380.3,1403.28 1401.21,1403.28 1422.12,1403.28 1443.03,1403.28 1463.94,1403.28 1484.85,1403.28 
  1505.76,1403.28 1526.67,1403.28 1547.58,1403.28 1568.49,1403.28 1589.4,1403.28 1610.31,1403.28 1631.22,1403.28 1652.13,1403.28 1673.04,1403.28 1693.95,1403.28 
  1714.86,1403.28 1735.77,1403.28 1756.68,1403.28 1777.59,1403.28 1798.5,1403.28 1819.41,1403.28 1840.32,1403.28 1861.24,1403.28 1882.15,1403.28 1903.06,1403.28 
  1923.97,1403.28 1944.88,1403.28 1965.79,1403.28 1986.7,1403.28 2007.61,1403.28 2028.52,1403.28 2049.43,1403.28 2070.34,1403.28 2091.25,1403.28 2112.16,1403.28 
  2133.07,1403.28 2153.98,1403.28 2174.89,1403.28 2195.8,1403.28 2216.71,1403.28 2237.62,1403.28 2258.53,1403.28 2279.44,1403.28 2300.35,1403.28 2321.26,1403.28 
  
  "/>
<polyline clip-path="url(#clip3802)" style="stroke:#3da44d; stroke-width:4.8; stroke-opacity:1; fill:none" points="
  251.149,1403.28 272.059,1403.28 292.969,1403.28 313.879,1403.28 334.789,1403.28 355.7,1403.28 376.61,1403.28 397.52,1403.28 418.43,1403.28 439.34,1403.28 
  460.251,1403.28 481.161,1403.28 502.071,1403.28 522.981,1403.28 543.892,1403.28 564.802,1403.28 585.712,1403.28 606.622,1403.28 627.532,1403.28 648.443,1403.28 
  669.353,1403.28 690.263,1403.28 711.173,1403.28 732.083,1403.28 752.994,1403.28 773.904,1403.28 794.814,1403.28 815.724,1403.28 836.635,1403.28 857.545,1403.28 
  878.455,1403.28 899.365,1403.28 920.275,1403.28 941.186,1403.28 962.096,1403.28 983.006,1403.28 1003.92,1403.28 1024.83,1403.28 1045.74,1403.28 1066.65,1403.28 
  1087.56,1403.28 1108.47,1403.28 1129.38,1403.28 1150.29,1403.28 1171.2,1403.28 1192.11,1403.28 1213.02,1403.28 1233.93,1403.28 1254.84,1403.28 1275.75,1403.28 
  1296.66,1403.28 1317.57,1403.28 1338.48,1403.28 1359.39,1403.28 1380.3,1403.28 1401.21,1403.28 1422.12,1403.28 1443.03,1403.28 1463.94,1403.28 1484.85,1403.28 
  1505.76,1403.28 1526.67,1403.28 1547.58,1403.28 1568.49,1403.28 1589.4,1403.28 1610.31,1403.28 1631.22,1403.28 1652.13,1403.28 1673.04,1403.28 1693.95,1403.28 
  1714.86,1403.28 1735.77,1403.28 1756.68,1403.28 1777.59,1403.28 1798.5,1403.28 1819.41,1403.28 1840.32,1403.28 1861.24,1403.28 1882.15,1403.28 1903.06,1403.28 
  1923.97,1403.28 1944.88,1403.28 1965.79,1403.28 1986.7,1403.28 2007.61,1403.28 2028.52,1403.28 2049.43,1403.28 2070.34,1403.28 2091.25,1403.28 2112.16,1403.28 
  2133.07,1403.28 2153.98,1403.28 2174.89,1403.28 2195.8,1403.28 2216.71,1403.28 2237.62,1403.28 2258.53,1403.28 2279.44,1403.28 2300.35,1403.28 2321.26,1403.28 
  
  "/>
<polyline clip-path="url(#clip3802)" style="stroke:#c271d2; stroke-width:4.8; stroke-opacity:1; fill:none" points="
  251.149,1403.28 272.059,1403.28 292.969,1403.28 313.879,1403.28 334.789,1403.28 355.7,1403.28 376.61,1403.28 397.52,1403.28 418.43,1403.28 439.34,1403.28 
  460.251,1403.28 481.161,1403.28 502.071,1403.28 522.981,1403.28 543.892,1403.28 564.802,1403.28 585.712,1403.28 606.622,1403.28 627.532,1403.28 648.443,1403.28 
  669.353,1403.28 690.263,1403.28 711.173,1403.28 732.083,1403.28 752.994,1403.28 773.904,1403.28 794.814,1403.28 815.724,1403.28 836.635,1403.28 857.545,1403.28 
  878.455,1403.28 899.365,1403.28 920.275,1403.28 941.186,1403.28 962.096,1403.28 983.006,1403.28 1003.92,1403.28 1024.83,1403.28 1045.74,1403.28 1066.65,1403.28 
  1087.56,1403.28 1108.47,1403.28 1129.38,1403.28 1150.29,1403.28 1171.2,1403.28 1192.11,1403.28 1213.02,1403.28 1233.93,1403.28 1254.84,1403.28 1275.75,1403.28 
  1296.66,1403.28 1317.57,1403.28 1338.48,1403.28 1359.39,1403.28 1380.3,1403.28 1401.21,1403.28 1422.12,1403.28 1443.03,1403.28 1463.94,1403.28 1484.85,1403.28 
  1505.76,1403.28 1526.67,1403.28 1547.58,1403.28 1568.49,1403.28 1589.4,1403.28 1610.31,1403.28 1631.22,1403.28 1652.13,1403.28 1673.04,1403.28 1693.95,1403.28 
  1714.86,1403.28 1735.77,1403.28 1756.68,1403.28 1777.59,1403.28 1798.5,1403.28 1819.41,1403.28 1840.32,1403.28 1861.24,1403.28 1882.15,1403.28 1903.06,1403.28 
  1923.97,1403.28 1944.88,1403.28 1965.79,1403.28 1986.7,1403.28 2007.61,1403.28 2028.52,1403.28 2049.43,1403.28 2070.34,1403.28 2091.25,1403.28 2112.16,1403.28 
  2133.07,1403.28 2153.98,1403.28 2174.89,1403.28 2195.8,1403.28 2216.71,1403.28 2237.62,1403.28 2258.53,1403.28 2279.44,1403.28 2300.35,1403.28 2321.26,1403.28 
  
  "/>
<polyline clip-path="url(#clip3802)" style="stroke:#ac8d18; stroke-width:4.8; stroke-opacity:1; fill:none" points="
  251.149,1403.28 272.059,1403.28 292.969,1403.28 313.879,1403.28 334.789,1403.28 355.7,1403.28 376.61,1403.28 397.52,1403.28 418.43,1403.28 439.34,1403.28 
  460.251,1403.28 481.161,1403.28 502.071,1403.28 522.981,1403.28 543.892,1403.28 564.802,1403.28 585.712,1403.28 606.622,1403.28 627.532,1403.28 648.443,1403.28 
  669.353,1403.28 690.263,1403.28 711.173,1403.28 732.083,1403.28 752.994,1403.28 773.904,1403.28 794.814,1403.28 815.724,1403.28 836.635,1403.28 857.545,1403.28 
  878.455,1403.28 899.365,1403.28 920.275,1403.28 941.186,1403.28 962.096,1403.28 983.006,1403.28 1003.92,1403.28 1024.83,1403.28 1045.74,1403.28 1066.65,1403.28 
  1087.56,1403.28 1108.47,1403.28 1129.38,1403.28 1150.29,1403.28 1171.2,1403.28 1192.11,1403.28 1213.02,1403.28 1233.93,1403.28 1254.84,1403.28 1275.75,1403.28 
  1296.66,1403.28 1317.57,1403.28 1338.48,1403.28 1359.39,1403.28 1380.3,1403.28 1401.21,1403.28 1422.12,1403.28 1443.03,1403.28 1463.94,1403.28 1484.85,1403.28 
  1505.76,1403.28 1526.67,1403.28 1547.58,1403.28 1568.49,1403.28 1589.4,1403.28 1610.31,1403.28 1631.22,1403.28 1652.13,1403.28 1673.04,1403.28 1693.95,1403.28 
  1714.86,1403.28 1735.77,1403.28 1756.68,1403.28 1777.59,1403.28 1798.5,1403.28 1819.41,1403.28 1840.32,1403.28 1861.24,1403.28 1882.15,1403.28 1903.06,1403.28 
  1923.97,1403.28 1944.88,1403.28 1965.79,1403.28 1986.7,1403.28 2007.61,1403.28 2028.52,1403.28 2049.43,1403.28 2070.34,1403.28 2091.25,1403.28 2112.16,1403.28 
  2133.07,1403.28 2153.98,1403.28 2174.89,1403.28 2195.8,1403.28 2216.71,1403.28 2237.62,1403.28 2258.53,1403.28 2279.44,1403.28 2300.35,1403.28 2321.26,1403.28 
  
  "/>
<polyline clip-path="url(#clip3802)" style="stroke:#00a9ad; stroke-width:4.8; stroke-opacity:1; fill:none" points="
  251.149,1403.28 272.059,1403.28 292.969,1403.28 313.879,1403.28 334.789,1403.28 355.7,1403.28 376.61,1403.28 397.52,1403.28 418.43,1403.28 439.34,1403.28 
  460.251,1403.28 481.161,1403.28 502.071,1403.28 522.981,1403.28 543.892,1403.28 564.802,1403.28 585.712,1403.28 606.622,1403.28 627.532,1403.28 648.443,1403.28 
  669.353,1403.28 690.263,1403.28 711.173,1403.28 732.083,1403.28 752.994,1403.28 773.904,1403.28 794.814,1403.28 815.724,1403.28 836.635,1403.28 857.545,1403.28 
  878.455,1403.28 899.365,1403.28 920.275,1403.28 941.186,1403.28 962.096,1403.28 983.006,1403.28 1003.92,1403.28 1024.83,1403.28 1045.74,1403.28 1066.65,1403.28 
  1087.56,1403.28 1108.47,1403.28 1129.38,1403.28 1150.29,1403.28 1171.2,1403.28 1192.11,1403.28 1213.02,1403.28 1233.93,1403.28 1254.84,1403.28 1275.75,1403.28 
  1296.66,1403.28 1317.57,1403.28 1338.48,1403.28 1359.39,1403.28 1380.3,1403.28 1401.21,1403.28 1422.12,1403.28 1443.03,1403.28 1463.94,1403.28 1484.85,1403.28 
  1505.76,1403.28 1526.67,1403.28 1547.58,1403.28 1568.49,1403.28 1589.4,1403.28 1610.31,1403.28 1631.22,1403.28 1652.13,1403.28 1673.04,1403.28 1693.95,1403.28 
  1714.86,1403.28 1735.77,1403.28 1756.68,1403.28 1777.59,1403.28 1798.5,1403.28 1819.41,1403.28 1840.32,1403.28 1861.24,1403.28 1882.15,1403.28 1903.06,1403.28 
  1923.97,1403.28 1944.88,1403.28 1965.79,1403.28 1986.7,1403.28 2007.61,1403.28 2028.52,1403.28 2049.43,1403.28 2070.34,1403.28 2091.25,1403.28 2112.16,1403.28 
  2133.07,1403.28 2153.98,1403.28 2174.89,1403.28 2195.8,1403.28 2216.71,1403.28 2237.62,1403.28 2258.53,1403.28 2279.44,1403.28 2300.35,1403.28 2321.26,1403.28 
  
  "/>
<polyline clip-path="url(#clip3802)" style="stroke:#ed5d92; stroke-width:4.8; stroke-opacity:1; fill:none" points="
  251.149,1403.28 272.059,1403.28 292.969,1403.28 313.879,1403.28 334.789,1403.28 355.7,1403.28 376.61,1403.28 397.52,1403.28 418.43,1403.28 439.34,1403.28 
  460.251,1403.28 481.161,1403.28 502.071,1403.28 522.981,1403.28 543.892,1403.28 564.802,1403.28 585.712,1403.28 606.622,1403.28 627.532,1403.28 648.443,1403.28 
  669.353,1403.28 690.263,1403.28 711.173,1403.28 732.083,1403.28 752.994,1403.28 773.904,1403.28 794.814,1403.28 815.724,1403.28 836.635,1403.28 857.545,1403.28 
  878.455,1403.28 899.365,1403.28 920.275,1403.28 941.186,1403.28 962.096,1403.28 983.006,1403.28 1003.92,1403.28 1024.83,1403.28 1045.74,1403.28 1066.65,1403.28 
  1087.56,1403.28 1108.47,1403.28 1129.38,1403.28 1150.29,1403.28 1171.2,1403.28 1192.11,1403.28 1213.02,1403.28 1233.93,1403.28 1254.84,1403.28 1275.75,1403.28 
  1296.66,1403.28 1317.57,1403.28 1338.48,1403.28 1359.39,1403.28 1380.3,1403.28 1401.21,1403.28 1422.12,1403.28 1443.03,1403.28 1463.94,1403.28 1484.85,1403.28 
  1505.76,1403.28 1526.67,1403.28 1547.58,1403.28 1568.49,1403.28 1589.4,1403.28 1610.31,1403.28 1631.22,1403.28 1652.13,1403.28 1673.04,1403.28 1693.95,1403.28 
  1714.86,1403.28 1735.77,1403.28 1756.68,1403.28 1777.59,1403.28 1798.5,1403.28 1819.41,1403.28 1840.32,1403.28 1861.24,1403.28 1882.15,1403.28 1903.06,1403.28 
  1923.97,1403.28 1944.88,1403.28 1965.79,1403.28 1986.7,1403.28 2007.61,1403.28 2028.52,1403.28 2049.43,1403.28 2070.34,1403.28 2091.25,1403.28 2112.16,1403.28 
  2133.07,1403.28 2153.98,1403.28 2174.89,1403.28 2195.8,1403.28 2216.71,1403.28 2237.62,1403.28 2258.53,1403.28 2279.44,1403.28 2300.35,1403.28 2321.26,1403.28 
  
  "/>
<polyline clip-path="url(#clip3802)" style="stroke:#c68125; stroke-width:4.8; stroke-opacity:1; fill:none" points="
  251.149,1403.28 272.059,1403.28 292.969,1403.28 313.879,1403.28 334.789,1403.28 355.7,1403.28 376.61,1403.28 397.52,1403.28 418.43,1403.28 439.34,1403.28 
  460.251,1403.28 481.161,1403.28 502.071,1403.28 522.981,1403.28 543.892,1403.28 564.802,1403.28 585.712,1403.28 606.622,1403.28 627.532,1403.28 648.443,1403.28 
  669.353,1403.28 690.263,1403.28 711.173,1403.28 732.083,1403.28 752.994,1403.28 773.904,1403.28 794.814,1403.28 815.724,1403.28 836.635,1403.28 857.545,1403.28 
  878.455,1403.28 899.365,1403.28 920.275,1403.28 941.186,1403.28 962.096,1403.28 983.006,1403.28 1003.92,1403.28 1024.83,1403.28 1045.74,1403.28 1066.65,1403.28 
  1087.56,1403.28 1108.47,1403.28 1129.38,1403.28 1150.29,1403.28 1171.2,1403.28 1192.11,1403.28 1213.02,1403.28 1233.93,1403.28 1254.84,1403.28 1275.75,1403.28 
  1296.66,1403.28 1317.57,1403.28 1338.48,1403.28 1359.39,1403.28 1380.3,1403.28 1401.21,1403.28 1422.12,1403.28 1443.03,1403.28 1463.94,1403.28 1484.85,1403.28 
  1505.76,1403.28 1526.67,1403.28 1547.58,1403.28 1568.49,1403.28 1589.4,1403.28 1610.31,1403.28 1631.22,1403.28 1652.13,1403.28 1673.04,1403.28 1693.95,1403.28 
  1714.86,1403.28 1735.77,1403.28 1756.68,1403.28 1777.59,1403.28 1798.5,1403.28 1819.41,1403.28 1840.32,1403.28 1861.24,1403.28 1882.15,1403.28 1903.06,1403.28 
  1923.97,1403.28 1944.88,1403.28 1965.79,1403.28 1986.7,1403.28 2007.61,1403.28 2028.52,1403.28 2049.43,1403.28 2070.34,1403.28 2091.25,1403.28 2112.16,1403.28 
  2133.07,1403.28 2153.98,1403.28 2174.89,1403.28 2195.8,1403.28 2216.71,1403.28 2237.62,1403.28 2258.53,1403.28 2279.44,1403.28 2300.35,1403.28 2321.26,1403.28 
  
  "/>
<polyline clip-path="url(#clip3802)" style="stroke:#00a98d; stroke-width:4.8; stroke-opacity:1; fill:none" points="
  251.149,1403.28 272.059,1403.28 292.969,1403.28 313.879,1403.28 334.789,1403.28 355.7,1403.28 376.61,1403.28 397.52,1403.28 418.43,1403.28 439.34,1403.28 
  460.251,1403.28 481.161,1403.28 502.071,1403.28 522.981,1403.28 543.892,1403.28 564.802,1403.28 585.712,1403.28 606.622,1403.28 627.532,1403.28 648.443,1403.28 
  669.353,1403.28 690.263,1403.28 711.173,1403.28 732.083,1403.28 752.994,1403.28 773.904,1403.28 794.814,1403.28 815.724,1403.28 836.635,1403.28 857.545,1403.28 
  878.455,1403.28 899.365,1403.28 920.275,1403.28 941.186,1403.28 962.096,1403.28 983.006,1403.28 1003.92,1403.28 1024.83,1403.28 1045.74,1403.28 1066.65,1403.28 
  1087.56,1403.28 1108.47,1403.28 1129.38,1403.28 1150.29,1403.28 1171.2,1403.28 1192.11,1403.28 1213.02,1403.28 1233.93,1403.28 1254.84,1403.28 1275.75,1403.28 
  1296.66,1403.28 1317.57,1403.28 1338.48,1403.28 1359.39,1403.28 1380.3,1403.28 1401.21,1403.28 1422.12,1403.28 1443.03,1403.28 1463.94,1403.28 1484.85,1403.28 
  1505.76,1403.28 1526.67,1403.28 1547.58,1403.28 1568.49,1403.28 1589.4,1403.28 1610.31,1403.28 1631.22,1403.28 1652.13,1403.28 1673.04,1403.28 1693.95,1403.28 
  1714.86,1403.28 1735.77,1403.28 1756.68,1403.28 1777.59,1403.28 1798.5,1403.28 1819.41,1403.28 1840.32,1403.28 1861.24,1403.28 1882.15,1403.28 1903.06,1403.28 
  1923.97,1403.28 1944.88,1403.28 1965.79,1403.28 1986.7,1403.28 2007.61,1403.28 2028.52,1403.28 2049.43,1403.28 2070.34,1403.28 2091.25,1403.28 2112.16,1403.28 
  2133.07,1403.28 2153.98,1403.28 2174.89,1403.28 2195.8,1403.28 2216.71,1403.28 2237.62,1403.28 2258.53,1403.28 2279.44,1403.28 2300.35,1403.28 2321.26,1403.28 
  
  "/>
<polyline clip-path="url(#clip3802)" style="stroke:#8e971d; stroke-width:4.8; stroke-opacity:1; fill:none" points="
  251.149,1403.28 272.059,1403.28 292.969,1403.28 313.879,1403.28 334.789,1403.28 355.7,1403.28 376.61,1403.28 397.52,1403.28 418.43,1403.28 439.34,1403.28 
  460.251,1403.28 481.161,1403.28 502.071,1403.28 522.981,1403.28 543.892,1403.28 564.802,1403.28 585.712,1403.28 606.622,1403.28 627.532,1403.28 648.443,1403.28 
  669.353,1403.28 690.263,1403.28 711.173,1403.28 732.083,1403.28 752.994,1403.28 773.904,1403.28 794.814,1403.28 815.724,1403.28 836.635,1403.28 857.545,1403.28 
  878.455,1403.28 899.365,1403.28 920.275,1403.28 941.186,1403.28 962.096,1403.28 983.006,1403.28 1003.92,1403.28 1024.83,1403.28 1045.74,1403.28 1066.65,1403.28 
  1087.56,1403.28 1108.47,1403.28 1129.38,1403.28 1150.29,1403.28 1171.2,1403.28 1192.11,1403.28 1213.02,1403.28 1233.93,1403.28 1254.84,1403.28 1275.75,1403.28 
  1296.66,1403.28 1317.57,1403.28 1338.48,1403.28 1359.39,1403.28 1380.3,1403.28 1401.21,1403.28 1422.12,1403.28 1443.03,1403.28 1463.94,1403.28 1484.85,1403.28 
  1505.76,1403.28 1526.67,1403.28 1547.58,1403.28 1568.49,1403.28 1589.4,1403.28 1610.31,1403.28 1631.22,1403.28 1652.13,1403.28 1673.04,1403.28 1693.95,1403.28 
  1714.86,1403.28 1735.77,1403.28 1756.68,1403.28 1777.59,1403.28 1798.5,1403.28 1819.41,1403.28 1840.32,1403.28 1861.24,1403.28 1882.15,1403.28 1903.06,1403.28 
  1923.97,1403.28 1944.88,1403.28 1965.79,1403.28 1986.7,1403.28 2007.61,1403.28 2028.52,1403.28 2049.43,1403.28 2070.34,1403.28 2091.25,1403.28 2112.16,1403.28 
  2133.07,1403.28 2153.98,1403.28 2174.89,1403.28 2195.8,1403.28 2216.71,1403.28 2237.62,1403.28 2258.53,1403.28 2279.44,1403.28 2300.35,1403.28 2321.26,1403.28 
  
  "/>
<polyline clip-path="url(#clip3802)" style="stroke:#00a8cb; stroke-width:4.8; stroke-opacity:1; fill:none" points="
  251.149,1398.34 272.059,1398.32 292.969,1398.21 313.879,1398.02 334.789,1397.9 355.7,1397.74 376.61,1397.68 397.52,1397.62 418.43,1397.57 439.34,1397.51 
  460.251,1397.46 481.161,1397.41 502.071,1397.36 522.981,1397.31 543.892,1397.27 564.802,1397.22 585.712,1397.18 606.622,1397.13 627.532,1397.08 648.443,1397.04 
  669.353,1396.99 690.263,1396.95 711.173,1396.9 732.083,1396.85 752.994,1396.8 773.904,1396.74 794.814,1396.68 815.724,1396.59 836.635,1396.1 857.545,1396.07 
  878.455,1396.04 899.365,1396.01 920.275,1395.98 941.186,1395.94 962.096,1395.91 983.006,1395.88 1003.92,1395.84 1024.83,1395.81 1045.74,1395.77 1066.65,1395.74 
  1087.56,1395.7 1108.47,1395.66 1129.38,1395.61 1150.29,1395.57 1171.2,1395.52 1192.11,1395.46 1213.02,1395.4 1233.93,1394.82 1254.84,1394.8 1275.75,1394.77 
  1296.66,1394.75 1317.57,1394.73 1338.48,1394.7 1359.39,1394.67 1380.3,1394.65 1401.21,1394.62 1422.12,1394.6 1443.03,1394.57 1463.94,1394.54 1484.85,1394.52 
  1505.76,1394.49 1526.67,1394.46 1547.58,1394.43 1568.49,1394.4 1589.4,1394.37 1610.31,1394.34 1631.22,1394.31 1652.13,1394.28 1673.04,1394.25 1693.95,1394.21 
  1714.86,1394.18 1735.77,1394.15 1756.68,1394.11 1777.59,1394.08 1798.5,1394.04 1819.41,1394 1840.32,1393.96 1861.24,1393.92 1882.15,1393.88 1903.06,1393.84 
  1923.97,1393.8 1944.88,1393.76 1965.79,1393.71 1986.7,1393.67 2007.61,1393.62 2028.52,1393.57 2049.43,1393.52 2070.34,1393.46 2091.25,1393.41 2112.16,1393.35 
  2133.07,1393.29 2153.98,1393.22 2174.89,1393.15 2195.8,1393.08 2216.71,1393 2237.62,1389.09 2258.53,1386 2279.44,1385.99 2300.35,1385.97 2321.26,1385.95 
  
  "/>
<polygon clip-path="url(#clip3800)" points="
1851.43,814.304 2249.26,814.304 2249.26,209.504 1851.43,209.504 
  " fill="#ffffff" fill-rule="evenodd" fill-opacity="1"/>
<polyline clip-path="url(#clip3800)" style="stroke:#000000; stroke-width:4; stroke-opacity:1; fill:none" points="
  1851.43,814.304 2249.26,814.304 2249.26,209.504 1851.43,209.504 1851.43,814.304 
  "/>
<g clip-path="url(#clip3800)">
<text style="fill:#000000; fill-opacity:1; font-family:Arial,Helvetica Neue,Helvetica,sans-serif; font-size:48px; text-anchor:middle;" transform="rotate(0, 2050.34, 287.484)" x="2050.34" y="287.484">ranking</text>
</g>
<polyline clip-path="url(#clip3800)" style="stroke:#009af9; stroke-width:4.8; stroke-opacity:1; fill:none" points="
  1875.43,330.464 2019.43,330.464 
  "/>
<g clip-path="url(#clip3800)">
<text style="fill:#000000; fill-opacity:1; font-family:Symbol; font-size:52px; text-anchor:start;" transform="rotate(0, 2043.43, 354.192)" x="2043.43" y="354.192">σ</text>
</g>
<g clip-path="url(#clip3800)">
<text style="fill:#000000; fill-opacity:1; font-family:Arial,Helvetica Neue,Helvetica,sans-serif; font-size:38px; text-anchor:start;" transform="rotate(0, 2074.67, 326.781)" x="2074.67" y="326.781">2</text>
</g>
<g clip-path="url(#clip3800)">
<text style="fill:#000000; fill-opacity:1; font-family:Arial,Helvetica Neue,Helvetica,sans-serif; font-size:48px; text-anchor:start;" transform="rotate(0, 2096.42, 354.192)" x="2096.42" y="354.192">[40]</text>
</g>
<polyline clip-path="url(#clip3800)" style="stroke:#e26f46; stroke-width:4.8; stroke-opacity:1; fill:none" points="
  1875.43,390.944 2019.43,390.944 
  "/>
<g clip-path="url(#clip3800)">
<text style="fill:#000000; fill-opacity:1; font-family:Symbol; font-size:52px; text-anchor:start;" transform="rotate(0, 2043.43, 414.672)" x="2043.43" y="414.672">σ</text>
</g>
<g clip-path="url(#clip3800)">
<text style="fill:#000000; fill-opacity:1; font-family:Arial,Helvetica Neue,Helvetica,sans-serif; font-size:38px; text-anchor:start;" transform="rotate(0, 2074.67, 387.261)" x="2074.67" y="387.261">2</text>
</g>
<g clip-path="url(#clip3800)">
<text style="fill:#000000; fill-opacity:1; font-family:Arial,Helvetica Neue,Helvetica,sans-serif; font-size:48px; text-anchor:start;" transform="rotate(0, 2096.42, 414.672)" x="2096.42" y="414.672">[1]</text>
</g>
<polyline clip-path="url(#clip3800)" style="stroke:#3da44d; stroke-width:4.8; stroke-opacity:1; fill:none" points="
  1875.43,451.424 2019.43,451.424 
  "/>
<g clip-path="url(#clip3800)">
<text style="fill:#000000; fill-opacity:1; font-family:Symbol; font-size:52px; text-anchor:start;" transform="rotate(0, 2043.43, 475.152)" x="2043.43" y="475.152">σ</text>
</g>
<g clip-path="url(#clip3800)">
<text style="fill:#000000; fill-opacity:1; font-family:Arial,Helvetica Neue,Helvetica,sans-serif; font-size:38px; text-anchor:start;" transform="rotate(0, 2074.67, 447.741)" x="2074.67" y="447.741">2</text>
</g>
<g clip-path="url(#clip3800)">
<text style="fill:#000000; fill-opacity:1; font-family:Arial,Helvetica Neue,Helvetica,sans-serif; font-size:48px; text-anchor:start;" transform="rotate(0, 2096.42, 475.152)" x="2096.42" y="475.152">[21]</text>
</g>
<polyline clip-path="url(#clip3800)" style="stroke:#c271d2; stroke-width:4.8; stroke-opacity:1; fill:none" points="
  1875.43,511.904 2019.43,511.904 
  "/>
<g clip-path="url(#clip3800)">
<text style="fill:#000000; fill-opacity:1; font-family:Symbol; font-size:52px; text-anchor:start;" transform="rotate(0, 2043.43, 535.632)" x="2043.43" y="535.632">σ</text>
</g>
<g clip-path="url(#clip3800)">
<text style="fill:#000000; fill-opacity:1; font-family:Arial,Helvetica Neue,Helvetica,sans-serif; font-size:38px; text-anchor:start;" transform="rotate(0, 2074.67, 508.221)" x="2074.67" y="508.221">2</text>
</g>
<g clip-path="url(#clip3800)">
<text style="fill:#000000; fill-opacity:1; font-family:Arial,Helvetica Neue,Helvetica,sans-serif; font-size:48px; text-anchor:start;" transform="rotate(0, 2096.42, 535.632)" x="2096.42" y="535.632">[11]</text>
</g>
<polyline clip-path="url(#clip3800)" style="stroke:#ac8d18; stroke-width:4.8; stroke-opacity:1; fill:none" points="
  1875.43,572.384 2019.43,572.384 
  "/>
<g clip-path="url(#clip3800)">
<text style="fill:#000000; fill-opacity:1; font-family:Symbol; font-size:52px; text-anchor:start;" transform="rotate(0, 2043.43, 596.112)" x="2043.43" y="596.112">σ</text>
</g>
<g clip-path="url(#clip3800)">
<text style="fill:#000000; fill-opacity:1; font-family:Arial,Helvetica Neue,Helvetica,sans-serif; font-size:38px; text-anchor:start;" transform="rotate(0, 2074.67, 568.701)" x="2074.67" y="568.701">2</text>
</g>
<g clip-path="url(#clip3800)">
<text style="fill:#000000; fill-opacity:1; font-family:Arial,Helvetica Neue,Helvetica,sans-serif; font-size:48px; text-anchor:start;" transform="rotate(0, 2096.42, 596.112)" x="2096.42" y="596.112">[19]</text>
</g>
<polyline clip-path="url(#clip3800)" style="stroke:#00a9ad; stroke-width:4.8; stroke-opacity:1; fill:none" points="
  1875.43,632.864 2019.43,632.864 
  "/>
<g clip-path="url(#clip3800)">
<text style="fill:#000000; fill-opacity:1; font-family:Symbol; font-size:52px; text-anchor:start;" transform="rotate(0, 2043.43, 656.592)" x="2043.43" y="656.592">σ</text>
</g>
<g clip-path="url(#clip3800)">
<text style="fill:#000000; fill-opacity:1; font-family:Arial,Helvetica Neue,Helvetica,sans-serif; font-size:38px; text-anchor:start;" transform="rotate(0, 2074.67, 629.181)" x="2074.67" y="629.181">2</text>
</g>
<g clip-path="url(#clip3800)">
<text style="fill:#000000; fill-opacity:1; font-family:Arial,Helvetica Neue,Helvetica,sans-serif; font-size:48px; text-anchor:start;" transform="rotate(0, 2096.42, 656.592)" x="2096.42" y="656.592">[30]</text>
</g>
<polyline clip-path="url(#clip3800)" style="stroke:#ed5d92; stroke-width:4.8; stroke-opacity:1; fill:none" points="
  1875.43,693.344 2019.43,693.344 
  "/>
<g clip-path="url(#clip3800)">
<text style="fill:#000000; fill-opacity:1; font-family:Symbol; font-size:52px; text-anchor:start;" transform="rotate(0, 2043.43, 717.072)" x="2043.43" y="717.072">σ</text>
</g>
<g clip-path="url(#clip3800)">
<text style="fill:#000000; fill-opacity:1; font-family:Arial,Helvetica Neue,Helvetica,sans-serif; font-size:38px; text-anchor:start;" transform="rotate(0, 2074.67, 689.661)" x="2074.67" y="689.661">2</text>
</g>
<g clip-path="url(#clip3800)">
<text style="fill:#000000; fill-opacity:1; font-family:Arial,Helvetica Neue,Helvetica,sans-serif; font-size:48px; text-anchor:start;" transform="rotate(0, 2096.42, 717.072)" x="2096.42" y="717.072">[29]</text>
</g>
<polyline clip-path="url(#clip3800)" style="stroke:#c68125; stroke-width:4.8; stroke-opacity:1; fill:none" points="
  1875.43,753.824 2019.43,753.824 
  "/>
<g clip-path="url(#clip3800)">
<text style="fill:#000000; fill-opacity:1; font-family:Symbol; font-size:52px; text-anchor:start;" transform="rotate(0, 2043.43, 777.552)" x="2043.43" y="777.552">σ</text>
</g>
<g clip-path="url(#clip3800)">
<text style="fill:#000000; fill-opacity:1; font-family:Arial,Helvetica Neue,Helvetica,sans-serif; font-size:38px; text-anchor:start;" transform="rotate(0, 2074.67, 750.141)" x="2074.67" y="750.141">2</text>
</g>
<g clip-path="url(#clip3800)">
<text style="fill:#000000; fill-opacity:1; font-family:Arial,Helvetica Neue,Helvetica,sans-serif; font-size:48px; text-anchor:start;" transform="rotate(0, 2096.42, 777.552)" x="2096.42" y="777.552">[16]</text>
</g>
</svg>
